<?xml version="1.0" encoding="utf-8"?>
<!-- Generator: Adobe Illustrator 21.1.0, SVG Export Plug-In . SVG Version: 6.00 Build 0)  -->
<svg version="1.1" xmlns="http://www.w3.org/2000/svg" xmlns:xlink="http://www.w3.org/1999/xlink" x="0px" y="0px" viewBox="0 0 231.5 199.7" style="enable-background:new 0 0 231.5 199.7;" xml:space="preserve">
<symbol  id="I-35E_2" viewBox="-6.7 -6.7 13.4 13.5">

		<use xlink:href="#Shield_-_Interstate"  width="13.4" height="13.5" x="-6.7" y="-6.7" transform="matrix(1 0 0 1 -4.900000e-04 0)" style="overflow:visible;"/>
	<text transform="matrix(0.95 0 0 -1 -4.8809 -2.5005)" class="st0" style="font-family:'AvenirNextLTPro-DemiCn'; font-size:7px;">35E</text>
</symbol>
<symbol  id="I-35W_2" viewBox="-6.7 -6.7 13.4 13.5">

		<use xlink:href="#Shield_-_Interstate"  width="13.4" height="13.5" x="-6.7" y="-6.7" transform="matrix(1 0 0 1 4.900000e-04 0)" style="overflow:visible;"/>
	<text transform="matrix(0.95 0 0 -1 -6.0571 -2.48)" class="st0" style="font-family:'AvenirNextLTPro-DemiCn'; font-size:7px;">35W</text>
</symbol>
<symbol  id="I-394" viewBox="-6.7 -6.7 13.4 13.5">

		<use xlink:href="#Shield_-_Interstate"  width="13.4" height="13.5" x="-6.7" y="-6.7" transform="matrix(1 0 0 1 4.900000e-04 7.770750e-06)" style="overflow:visible;"/>
	<text transform="matrix(0.95 0 0 -1 -4.9512 -2.5005)" class="st0" style="font-family:'AvenirNextLTPro-DemiCn'; font-size:7px;">394</text>
</symbol>
<symbol  id="I-494_2" viewBox="-6.7 -6.7 13.4 13.5">

		<use xlink:href="#Shield_-_Interstate"  width="13.4" height="13.5" x="-6.7" y="-6.7" transform="matrix(1 0 0 1 4.900000e-04 0)" style="overflow:visible;"/>
	<text transform="matrix(0.95 0 0 -1 -4.9517 -2.521)" class="st0" style="font-family:'AvenirNextLTPro-DemiCn'; font-size:7px;">494</text>
</symbol>
<symbol  id="I-694_2" viewBox="-6.7 -6.7 13.4 13.5">

		<use xlink:href="#Shield_-_Interstate"  width="13.4" height="13.5" x="-6.7" y="-6.7" transform="matrix(1 0 0 1 2.610457e-04 7.770750e-06)" style="overflow:visible;"/>
	<text transform="matrix(0.95 0 0 -1 -4.9517 -2.521)" class="st0" style="font-family:'AvenirNextLTPro-DemiCn'; font-size:7px;">694</text>
</symbol>
<symbol  id="I-94_2" viewBox="-6.7 -6.7 13.4 13.5">
	<g id="ICONS_1_">

			<use xlink:href="#Shield_-_Interstate"  width="13.4" height="13.5" x="-6.7" y="-6.7" transform="matrix(1 0 0 1 1.239892e-03 4.176036e-08)" style="overflow:visible;"/>
		<text transform="matrix(0.95 0 0 -1 -3.4102 -2.48)" class="st0" style="font-family:'AvenirNextLTPro-DemiCn'; font-size:7px;">94</text>
	</g>
</symbol>
<symbol  id="Shield_-_Interstate" viewBox="-6.7 -6.7 13.4 13.5">
	<path class="st1" d="M0-6.6C-2-6.3-6.6-4-6.6,1.3c0,2.3,1.1,4.5,1.8,5.2c0.9-0.3,1.6-0.4,2.4-0.4c0.8,0,1.5,0.1,2.4,0.4
		c0.8-0.3,1.6-0.4,2.4-0.4c0.8,0,1.5,0.1,2.4,0.4c0.7-0.8,1.8-2.9,1.8-5.2C6.6-4,2-6.3,0-6.6z"/>
	<path class="st0" d="M-6.1,3.9C-5.7,5.1-5.2,6-4.8,6.5C-4,6.2-3.2,6.2-2.5,6.2c0.8,0,1.6,0.1,2.5,0.4c0.9-0.3,1.6-0.4,2.5-0.4
		c0.8,0,1.5,0.1,2.4,0.4C5.2,6,5.7,5.1,6.1,3.9H-6.1z"/>
</symbol>
<g id="background">
	<rect class="st2" width="231.5" height="199.7"/>
</g>
<g id="maps">
	<path class="st3" d="M94.7,98.7c0,0-0.5,0.3-0.2,0.4c0.2,0.1,0.2,0.1,0.4,0C95,99,95,98.6,94.7,98.7z"/>
	<path class="st3" d="M95.4,98.4c0,0-0.4,0.1-0.2,0.3c0.2,0.2,0.3,0.1,0.6,0c0.3-0.1,0.6-0.3,0.6-0.3S95.6,98.1,95.4,98.4z"/>
	<path class="st3" d="M98.9,105.2"/>
	<g>
		<path class="st4" d="M186-31.5c0,0.6,0.1,27.7,0.1,27.7l-0.4,2.4v7.7c0,0,0,1.1-0.7,2.5c-0.6,1.2-5,7.9-5,7.9s-0.3,0.6-0.2,1.8
			c0,1.2,0.2,8.3,0.2,8.3s-0.9,5.2-0.9,6.2c0,0.9,0.1,7.3,0,8.4c-0.1,1.1-0.6,3.3-1,4.8l-0.5,5.4c0,0-0.5,2.1-0.6,2.7
			c-0.1,0.5-0.6,3.4-0.6,3.4l-0.1,0.8"/>
		<path class="st4" d="M186-27l-2.8,3.2l-3.4,4.1c0,0-2.2,2-3.2,2.7c-0.6,0.4-5.5,2.6-6.5,3c-1,0.4-12.6,5.6-12.8,5.8
			c-0.2,0.2-1,0.7-1.5,1.5c-0.5,0.8-1.8,1.6-2.5,2.1c-1.6,1.2-4,2-4,2s-5,1.9-6,2.4c-1.1,0.6-8.7,9.3-9.2,9.8
			c-0.2,0.2-0.5,1.6-0.7,3v3.1l0.4,17.3c0,0,0.7,3.8,0.7,4.1c0,0.3,0.5,5.3,0.5,5.5c-0.1,0.1-0.3,6-0.3,6s-0.5,3.4-0.4,3.6
			c0.1,0.1-0.2,3.1-0.2,3.3c0,0.1-0.3,4.7-0.3,4.7l-0.2,4c0,0,0.1,1.4,0.2,2c0.1,0.6,1,4,1.1,4.3c0,0.3,0.1,1.3,0.1,1.3"/>
		<path class="st4" d="M167.5,61.2c0,0,4.1-2.5,5-2.5c1.7,0,22.4-0.3,22.4-0.3s3.7,0.7,4.6,0.9c0.9,0.1,3.9,0.9,4.7,0.9
			c0.9,0,3.3,0,4.1,0.3c0.9,0.3,2.2,1.3,2.5,3.4c0.3,2.1,0.6,7.1,0.6,7.6c0,0.4,0,3-0.3,4.3c-0.3,1.3-0.7,4.7-0.6,5.3
			c0.1,0.6,0.7,6.1,0.7,6.1l0.3,14.2c0,0-0.3,4.7-0.6,5.3c-0.3,0.6-2.7,4-3,4.4c-0.3,0.4-5.8,8-5.8,8s-2.1,2.3-2.3,3.2
			c-0.2,0.9-1.9,6.1-2.5,6.6c-0.6,0.5-1.8,1.7-2.9,1.9c-1.1,0.2-2.6,0.5-3.3,0.9c-0.7,0.4-2.8,2.3-3.3,2.9c-0.5,0.6-2.5,0.2-3.4,0.2
			c-0.9,0-11.1,0.1-11.4,0"/>
		<path class="st4" d="M173.4,134.8c0,0-3,2.4-3.9,3.7c-0.9,1.3-2.1,3.5-3.5,3.9c-1.8,0.6-2-0.3-2.7-0.5c-0.8-0.2-1.8-1-3-1
			c-1.6,0-10.3,0.2-10.3,0.2s-2.3,0.7-3.5,0.7c-1.8,0-10.1,0.2-10.1,0.2s-4.5-0.5-4.9-0.4c-0.4,0.1-1.9-0.6-2.2-0.7"/>
		<path class="st4" d="M167.4,97.7c0,0,1.4,1.9,2,1.7c0.6-0.2,1.7-0.8,1.7-0.8s0.7-0.7,1-0.5c0.3,0.1,1.9,0.1,2.3,0.1
			c1.8-0.1,21.4,0,23,0.4c1.3,0.3,4,0.8,4.6,0.8c0.7,0,54.9-1,56.6-1.2c1.7-0.2,5-2.5,6.4-2.8c1.3-0.3,6.7-3,7.3-3.3
			c0.6-0.2,2.2-0.8,3.5-0.7c1.3,0.1,17.8-0.3,17.8-0.3"/>
		<path class="st4" d="M8.4-15.6c0,0,2.9,1.7,3.2,1.8c0.3,0.2,1.9,1.2,2.3,1.8c0.4,0.6,5.7,6.5,6,6.7c0.3,0.2,0.5,1.4,0.4,2.3
			c-0.1,0.9,0.2,2.5,0.7,3.2c0.5,0.7,7,6.7,7,6.7s1.3,1.4,1.8,3.5c0.5,2.1,2.2,3.9,2.3,4.4c0.1,0.5,2.7,3.9,2.9,5
			c0.2,1.1,1.1,2.7,1.5,3.3c2.1,2.8,5.2,4.2,6.6,5.7c1.1,1.2,3.6,4.4,3.6,4.4s0.7,0.9,0.7,3.1c0,2.2,0.4,6.8,0.4,6.8
			s0.2,1.6-0.1,2.7c-0.4,1.1-1.6,5.4-1.6,5.9c0,0.5-0.1,5.8-0.1,5.8v6.4c0,0-0.1,2.5-0.4,3.3c-0.3,0.8-1.1,3.7-1.1,4.5
			c0,0.8,0,7,0,7s-0.3,2.9-0.4,3.1c-0.1,0.2-0.3,4-0.3,4l-0.1,5.8l0.4,6.4l0.2,3.8l1,4c0,0-0.2,1.7-0.1,2.6c0.1,0.9,0.7,1.8,1.2,2.6
			c0.4,0.8,0.7,2.4,0.7,3c0.1,0.6,0.3,3.8,0.4,4.3c0.1,0.5,0.5,4.4,0.5,4.4s0.5,1.7,0.7,2.1c0.2,0.4,0.7,2.7,0.8,3
			c0.1,0.4,0.5,2.9,0.6,3.4c0.1,0.5,1,2.1,1.4,3c0.4,0.9,1.2,3.8,1.3,4.1c0.1,0.2,0.1,2.6,2.6,4.2c2.5,1.6,2.6,1.3,3.8,1.5
			c1.2,0.2,9.3-0.2,9.3-0.2s2-0.1,2.8,0c0.8,0.1,3.9-0.2,4.3-0.1C76,143.6,84,144,84,144s3,0.1,3.8-0.2c0.7-0.3,3.6-1.5,3.9-1.6
			c0.3-0.1,16-0.2,16-0.2s18.6-0.7,19.8-0.7c0.4,0,0.8-0.1,1.2-0.2"/>
		<path class="st4" d="M101.3,44.7c0,1.9-0.2,4.4-0.2,4.9c-0.1,0.6,0.1,2.2,0.3,2.6c0.2,0.4,0.6,2,0.6,2.4c0,0.4-0.1,5.5-0.1,5.5
			s-0.8,3.4-0.3,4.4c0.4,1,1.2,2.5,1.2,3.2c0,0.7,0.1,10.2,0.1,10.2s0.1,2.2-0.7,3.3c-0.8,1.1-0.7,2-0.7,3.4c0,1.4,0.2,7.4,0.2,7.4
			s-0.3,1.3,0.3,1.8c0.6,0.5,1.2,0,1.6-0.1c0.4-0.1,1.7-0.7,2.3-0.7c0.6,0,7.8,0.1,7.8,0.1s1.7,0.1,1.9,0.4c0.2,0.2,0.3,0.5,0.7,0.6
			c0.4,0.1,2.7,0.1,2.7,0.1s1.5-0.1,2-0.2c0.5-0.1,1.7-1,2.2-1c0.4,0,1.4-0.2,2,0.4c0.6,0.6,1.5,1.8,2.4,2.3
			c0.8,0.5,2.6,0.4,2.6,0.4s1.1,0.2,2.1,0.9c0.9,0.7,4.3,2.2,4.3,2.2s2.4,0.8,3.6,0.8c1.2,0,4.7-0.2,4.7-0.2l6.9-0.1l7.5-0.1
			c0,0,1.1,0.2,1.6,0.2c0.5,0,3.8,0,4.4-0.3c0.6-0.2,2.2-1.5,2.3-2.3c0.1-0.8,0-4.5,0-4.5s0.7-2.4,0.7-2.9c0-0.4-0.4-6.4-0.4-6.4
			l0-4.8l-0.3-8.7l0.3-6.2c0,0-0.2-3.6-0.4-4c-0.1-0.4-1.2-1.6-1.6-1.7c-0.4-0.1-2.1-0.9-2.6-1.1c-0.4-0.2-3-2-3.2-2.3
			c-0.7-1.3-1.6-2.1-2.2-2.5c-0.6-0.4-3-1.2-3.5-1.3c-0.5-0.1-2.7-1-3.8-1.2c-1.1-0.2-5.6-1.9-6-2.1c-0.4-0.3-2.3-1.7-2.8-2
			c-0.4-0.3-5-0.3-5-0.3H133c0,0-1.9,0.3-3.1,0.8c-1.2,0.5-4.7,0.4-5,0.4c-1.1,0.1-4.4-0.2-5.2-0.3c-0.8-0.1-4.7-0.8-4.9-0.9
			c-0.2-0.1-3.4-0.6-5.1-0.5c-1.8,0-6.5-0.2-6.5-0.2h-3.7c0,0-2.9-0.1-3.4-0.1c-0.5,0-2.2-0.9-2.7-1c-0.5-0.1-3.7-1.4-4.1-1.5
			c-0.4,0-3.5-0.3-3.6-0.3c-0.1,0-6.9-0.2-6.9-0.2s-3-0.4-3.3-0.4c-0.3-0.1-3.1-0.4-3.1-0.4L68,40.5c0,0-2-0.4-3.3-1
			c-1.3-0.6-5-2.2-5.6-2.4c-0.6-0.2-6.9-1.9-7.5-1.9c-0.6,0-2-0.1-2.4-0.3c-0.4-0.2-2.2-1.1-2.2-1.1"/>
		<path class="st4" d="M105.1,208c0.2-1.1-0.8-6-0.8-6s0.6-4.1,0.3-4.9c-0.3-0.8-2.1-4.7-2.2-5.2c-0.1-0.5-0.1-7.1-0.1-7.1l-0.1-8
			l-0.8-6.9l-0.3-6c0,0-0.1-4.4-0.1-5c0-0.7-2.6-4.4-2.5-5.7c0.1-1.3-0.1-10.5-0.1-11c0-0.5-0.2-4.2-0.2-4.2s0.8-4,0.9-4.3
			c0.1-0.3-0.7-4.5,0-4.9c0.7-0.4,7.2-0.1,7.2-0.1"/>
		<path class="st4" d="M43.7,91.5c5.8-0.1,11.9-0.2,11.9-0.2s2.8-0.5,3.6-0.8c0.8-0.3,2.2-0.4,3-0.4c0.8,0,4.6-0.4,5.3-0.2
			c0.7,0.2,1.3,0.1,2.1,0.8c0.8,0.7,5.3,0.3,5.9,0.3c0.6,0,13.6,0.1,13.6,0.1s7.3,0,7.7,0c0.3,0,3-1.5,3.2-1.9
			c0.2-0.4,1.2,0,1.8-0.4c1.1-0.6,1.3-0.1,1.3-0.1"/>
		<path class="st4" d="M104.7,199.8l2.2-2.1c0,0,7-6.2,8.1-6.5c1.2-0.3,4.3-3.4,4.8-3.8c0.4-0.4,7-6.5,7-6.5s3.6-3.2,4.4-5
			c0.7-1.8,3.2-5.3,3.2-5.3s2.6-4.5,3.1-4.8c0.5-0.3,2.3-1.8,2.6-2.1c0.3-0.4,0.5-2.6,0.4-3.3c-0.1-0.7,0.6-2.4,1.1-2.6
			c0.5-0.1,2.9-4.2,3.6-5.9c0.7-1.7,2.6-5.5,3.2-6.1c0.6-0.6,1.6-2.7,1.6-3.6c0.1-0.8-0.1-3.5,0-4.4c0.1-0.9,1.4-7,2.4-7.5
			c1-0.5,2.2-1.8,2-3.1c-0.2-1.3-0.8-3-1.3-3.6c-0.4-0.7-3.1-3.8-3.3-4.5c-0.1-0.7-0.4-6.9-0.4-6.9s-0.2-2.7,1.3-3
			c1.5-0.4,3.3-0.3,4.1-0.7c0.7-0.4,1.8-2.7,2.7-2.9c0.8-0.2,3.5-1.8,3.8-2.1c0.4-0.4,1.9-2.7,2-3.2c0.1-0.4,0.1-0.7,0.1-0.7"/>
		<path class="st4" d="M107.5,92.8c0,1.3,0,3.6,0.1,4.3c0.1,0.7-0.1,1.5-0.9,2.7c-0.8,1.2-0.8,1.8-0.8,1.8l0.2,15.8
			c0,0,0.3,8.1,0.1,10.1c-0.1,1.4,0.9,1.1,0.9,1.1"/>
		<path class="st4" d="M113.1,92.3c0-0.8,1.4-3,1.8-3.9c0.4-0.9,0.7-2.7,1.4-3.4c0.5-0.5,1.8-1.6,2.5-2.6c0.6-0.9,0-1.4-0.7-2.1
			c-0.6-0.6-0.5-2-0.2-2.8c0.3-0.8,1.3-1.5,2.7-1.3c0.5,0.1,2.5,0.5,3.3,0.3c0.8-0.2,3.9-2.2,4.7-2.6c0.7-0.4,1.3-1.9,2.1-2
			c0.2,0,2-0.1,4.6-0.1"/>
	</g>
	<path class="st5" d="M173.4,134.8c-1.6-0.8-5.3-3.3-5.3-3.3s-1.5-0.5-2.9-0.4c-1.4,0.1-21,0.1-21,0.1l-1,0.7"/>
	<path class="st5" d="M106,9.9h-3.1c0,0-0.9,0.5-1.9,1c-1,0.5-2.5,1.6-3.2,2.8c-0.6,1.2-2.1,4.1-2.3,4.6c-0.2,0.5-1.1,1.9-1.4,2.4
		c-0.2,0.5-0.3,1,0,1.8c0.4,0.8,1.6,1.7,1.8,2.2c0.2,0.5,0.2,1,0.2,1v2.9c0,0-0.1,1.1,1.5,1.9c1.6,0.8,1.9,1.5,2,2
		c0.1,0.4,0.9,3,1.1,3.4c0.2,0.4-0.1,3,0,3.2c0.1,0.2,0.3,2.8,0.5,3.7c0.1,0.3,0.1,1.1,0.1,2"/>
	<path class="st6" d="M16.4,88.4c0,0,0.6,2,1.5,2.2c0.9,0.3,1.9-0.1,3.2-0.8c1.3-0.7,1.9-1.5,2.7-1.1c0.8,0.4,3,0.7,4,0.7
		c1.1,0,2.5-0.4,3.3,0.4c0.8,0.8,1.7,1.5,2.2,1.7c0.2,0.1,5.2,0,10.5,0"/>
	<path class="st5" d="M107.1,128.6c0,0,3.6,0.1,4.7-0.1c1-0.2,1.4-1,2.1-1.6c0.7-0.6,1.9-0.7,3-1.1c2.5-1,3.6-0.5,3.6-0.5
		s2.6,0.1,3.7-0.2c1.1-0.3,3.7-0.2,4.7-0.4c1.5-0.4,2.3-0.2,2.9,0.1c0.6,0.3,1.1,1.9,4.3,2.8c1.2,0.3,2.3,2.1,2.3,2.1
		c0.5,0.8,3.1,2.1,4,2.1c1.7,0.1,1.4,2.4,1.4,2.4c-0.3,2,2.9,5.7,3.3,6c0.4,0.3,1.3,2.4,2.1,2.8c0.7,0.4,3.4,1.5,4.4,1.8
		c1,0.3,2,1.4,3,3c1,1.6,1.7,1.1,3.9,1.4c2.2,0.3,4.6,2.2,6.4,3.8c1.8,1.6,3,1.3,4.5,1.5c1.5,0.1,4.1,1.7,4.7,1.9
		c0.5,0.2,6.4,5,8.1,6.6c1.7,1.6,1.5,3.9,1.7,4.7c0.2,0.9,2,7,2,8.9c0,1.9-0.1,6.3-0.1,6.3l0.2,16.7c0,0,0.1,9.9,0.1,10.8"/>
	<path class="st5" d="M133.8,57.3c0,0-2.1,1.7-2.3,2.1c-0.2,0.4-1.9,3.6-2.4,4.1c-0.5,0.5-4.2,4.8-4.4,5.3c-0.1,0.5-3,5.5-3.6,5.8
		c-0.6,0.3-1,1.5-1,1.5"/>
	<path class="st5" d="M113.1,92.3c0,0.8,1.9,3.5,2.3,4.3l3.3,5.2c0,0.3,3.3,7,4.4,9.2c0.2,0.4,0.3,0.6,0.4,0.7l5.4,12.7"/>
	<path class="st5" d="M135.2,71.8c7.4-0.1,21.2-0.2,21.6-0.1c0.4,0.1,2.7,0.4,3,0.4c0.2,0,3.7,0.1,4.3-0.1c0.6-0.2,2.9-0.6,3.4-0.7
		c0.4-0.1,2.7,0.5,3.3,0.5c0.5,0,2.6,0.1,3.1,0c0.5-0.1,1.1-0.1,2-0.6c0.9-0.5,2.3-0.4,2.3-0.4s17.3-0.3,18.8-0.4
		c1.5-0.1,3.6-2,3.6-2s6.6-5.4,7-5.7c0.4-0.3,1.8-0.4,2.4-0.7c0.6-0.3,2.7-2,3.4-2.7c0.6-0.6,1.2-0.5,1.2-0.5l4,0.1l24.9-0.5
		c0,0,18.1-0.5,20.4-0.5c1.4,0,1.9-1.5,1.6-2.6c-0.3-1.1-1.6-3-1.6-3"/>
	<path class="st5" d="M117.8,13.6c0,0,2.4,1,3,1.1c0.7,0.1,2.9,1.3,3.1,1.6c0.2,0.4,3.7,4.4,4.4,4.6c0.5,0.5,3.7,1.4,5.2,1.3"/>
	<path class="st5" d="M178.3,157.9c0,0,0.1-25.2,0-25.6c-0.2-0.9-0.3-0.7-1.3-1.9c-1-1.2-0.7-1.7-0.8-2.6c-0.1-0.9,0-8.7,0-8.7
		s0.8-2.5,0.6-3.6c-0.2-1.1-1.9-4.3-1.9-4.3s-1-3.5-1.1-3.8c-0.1-0.2-3.7-8.6-3.7-8.6"/>
	<path class="st5" d="M61.7-19.6c0.6,0.5,3.5,0.7,3.5,0.7s11.7,0,13.1,0c1.4,0,1.9,0.8,2.7,1.8c0.8,1,3.6,4.6,4.7,5.5
		c1.1,0.9,2.3,1.8,2.3,1.8l3.3,2.1c0,0,2.5,1.8,3.3,2.3c0.7,0.5,5.5,5.2,5.5,5.2l4.8,6.6c0,0,1.2,1.5,1.2,2.1c0,0.6-0.1,6.2,0,6.8
		c0.1,0.9,2.1,2.5,2.2,3.6c0,1.1,0.1,6.9,0.1,6.9l0.5,19.1l0.3,13l0,4.7v17.3l1.8,3.7l4.6,1.5"/>
	<path class="st5" d="M128.9,73.6V76l-0.5,0.9l0.2,2.8c0,0,0.3,2.4,0.5,3.3c0.2,0.9,0.4,1.8,0.4,3.8c0,1,0.4,6,0.4,6l0.2,3.2"/>
	<path class="st5" d="M65.5,28.3l1.5,2.8l4.1,8.4l3,6.6l4.1,7.3l3.2,4.7l0.9,2.1c0,0,0.8,1,1.5,2c0.7,1,3,3.6,3,3.6l4.9,6.3l4.5,4.8
		h6.3"/>
	<path class="st6" d="M61.5,22.7c0,0-0.1,0.3,0.8,1c0.7,0.5,1.5,1.6,1.7,1.8c0.2,0.2,1,2.1,1,2.1l0.4,0.8"/>
	<path class="st5" d="M65.8-7.2c0,0-0.4,22.1,0,23.9c0,0,0.9,2.4,0.8,3.1c-0.1,0.7-0.7,3.5-0.7,3.8c0,0.3,0.2,2.5,0,3
		c-0.1,0.4-0.4,1.9-1,2.2c-0.5,0.4-2.7,0.8-2.7,3.1c0,2.3,0.2,8.4,0.2,8.4l0.3,4.7l0.3,6.9v5.7l0.1,8.4l0.1,8.2l0.4,17.6l0.2,11
		c0,0-0.4,0.7,0.4,2.1c0.8,1.4,1,2.7,1,3.3c0,0.5-0.7,3.9-1.2,4.4c-0.4,0.5-0.4,2.1-0.4,3c0,0.9,0.1,6.1,0.1,6.1s0.1,4.9,0.1,5.4
		c0,0.5,0.8,1.5,0.8,2.2c0,0.7-0.2,3.4-0.1,3.8c0,0.5,0.1,0.3,0.5,1.3c0.4,1,0.4,1.8,0.4,2.7c0,0.8,0.1,3.8,0.1,3.8s0.7,3.4,0.9,3.8
		c0,0-3.4,1.1-3,5.9s0.7,21,0.7,21s-0.1,5.5-7.7,7.5c-7.6,2-14.5,0.6-22.9,2.1s-16.8,2.5-23,1.7c-6.2-0.8-5,2.3-8.5,6.1"/>
	<path class="st5" d="M47.7,112.7c0.4-0.3,0.8-0.3,1.4-0.4c0.5-0.1,2.1-0.4,2.4-0.3c0.5,0.1,4.4-2.5,5-2.8c0.6-0.3,1.3-0.4,2.5-0.4
		c1.2-0.1,6.3-0.7,7-0.6c0.7,0.1,8.3-1.1,8.3-1.1s2.6-0.1,2.9-0.1c0.6,0,2.1-1,2.6-1.3c0.5-0.4,2.3-1.8,2.7-1.9
		c0.5,0,5.3-2.6,5.3-2.6s4-1.2,5-1.2c1,0,12.9-0.2,12.9-0.2"/>
	<path class="st6" d="M2.1,129.3c0,0,2.1,0.2,2.7-0.6c0.6-0.7,3-2.5,3.6-2.6c0.5-0.1,2.1-0.9,2.4-1c0.3-0.1,0.4-0.3,1.4-0.4
		c1-0.1,1.9-0.7,2.3-1c0.4-0.4,1.2-1.1,1.9-1.1c0.7,0,2.9-0.8,3.5-1.2c0.6-0.4,3.8-2.1,4.1-1.9c0.4,0.1,1.1,0.4,1.8,0.5
		c0.7,0.1,2.1-0.4,2.8-0.8c0.7-0.4,6-3,6-3l10.4-2.6c0,0,2.3-0.5,2.7-0.8"/>
	<path class="st5" d="M61.9,176.3c0.6,0.4,1.2,0.8,1.9,1.2c0.5,0.3,0.8,1.1,2.8,2c2,0.9,1.5,0.8,3.8,1.3c2.3,0.5,7.4,1,7.9,0.9
		c0.5-0.1,7.5-0.8,9.5,0c2,0.8,9.2,2.9,9.2,2.9s4.3-1,4.7-1.1c0.4-0.1,3.8-1.2,4.2-1.3"/>
	<path class="st7" d="M18,173.8c0.9-0.2,9.9-2.5,15.5-2.7c1.6-0.1,2.1-0.7,4,0c1.3,0.4,10.4,2.3,10.7,2.5c0.3,0.2,1.5,0.4,1.5,0.4
		s6.8-0.1,7.7-0.2c0.9-0.1,2.2,0.9,3.2,1.6c0.4,0.3,0.9,0.6,1.3,1"/>
	<path class="st5" d="M106.4,128.4c0,0-0.7,0.3-3.5,0.2c-2.8-0.1-9.5,0-9.5,0s-3.2-0.1-3.7,0.9c-0.3,0.5-2,1.3-4,1.2
		c-1.8-0.1-2.4-0.4-3-0.7c-0.6-0.3-2.6-1-3.5-0.6c-0.9,0.4-2.7,0.7-3.3,0.8c-0.6,0.1-2.5-0.1-3.6-0.3c-1.1-0.2-6-0.9-6.7-1
		c-0.7-0.1-3.3,0.3-4.1,1.4c-0.8,1.1-1.8,3.5-1.9,4c-0.1,0.6-0.1,4.9-1,5.5c-0.8,0.6-2.2,1.5-3.3,1.7c0,0-4.3,0.5-14.1,1.1
		c-7.2,0.4-4.4,5.6-19.4,7.2c-4,0.4-7.4,1.5-9.8,4.9c-3,4.3-4.2,7.9-10.2,7.9c0,0-7.6,0.9-11.8,4.2c-4.2,3.3-5.4,3.7-5.5,9
		s0.1,6.8-4.1,7.5"/>
	<path class="st5" d="M49.8,129.1c0,0,1.8-0.9,2.8-0.9c4.1,0,5.1-0.3,5.8-0.4c0.8,0,3.4,0.4,4,1.7"/>
	<path class="st6" d="M43.7,72.3c-0.9-0.2-4-1.6-5-2.2c-0.6-0.4-2.6-1.3-3.2-1.1c-1.4,0.4-2.7-1.3-2.7-1.3l-8.4-8.3
		c0,0-1.3-1.5-4.1-1.6"/>
	<path class="st5" d="M102.6,84.4l-24.8,0.2c0,0-2.8,0.6-4.2,0.7c-1.5,0.1-4.1-0.5-4.7-0.7c-0.6-0.2-2.7,0.1-3.2,0.4
		c-0.5,0.3-1.5,0.5-2.2,0.4c-0.7-0.1-2-0.4-2.6-0.4c-0.6,0-2-1-2.7-1.3c-0.7-0.3-2.2-1.2-2.7-1.2c-0.5,0-3.3-1.7-3.7-2.2
		c-0.4-0.5-3.2-5.2-3.8-5.7c-0.6-0.5-3.3-2.2-4.2-2.4"/>
	<path class="st5" d="M96.7,44.6c0,0,0.6,1.9-0.1,2.5c-0.7,0.6-3.5,3-4,3.5c-0.5,0.5-3.2,2.4-3.5,3.1c-0.3,0.7-2,4-3.1,4.5
		c-1.1,0.5-4,2.1-4.2,2.6c-0.2,0.5-0.9,3.4-0.8,3.8c0.1,0.4-0.1,2.2-0.1,2.2s-0.7,1.1-0.7,1.6c0.1,1,0.3,15.6,0.3,15.6
		s-0.2,2.4,0.5,3.3c0.5,0.6,2.9,1.4,2.9,3.2c0,0.6-0.8,2.9-1,3.5c-0.2,0.6-1.7,4.2-1.6,4.9c0.1,0.7,0.1,5.8,0,6.4
		c-0.1,0.6-0.5,2.6-0.7,3.1c-0.2,0.5,0.4,1.7,0.4,2.4"/>
	<path class="st5" d="M81.1,110.5c0,0,0,3.7-0.1,4.3c-0.1,0.7-0.1,3.6-0.1,4.6c0,1.1,0.1,4.1,0.2,5.1c0.1,1-0.2,14-0.2,14l-0.1,5.5"
		/>
	<path class="st5" d="M184.3,98.2c0,0-0.4,2.4,0.1,3.1c0.2,0.2,0.8,0.3,1.1,0.7c0.3,0.4,1,1.6,1.2,1.9c0.1,0.4,1.3,1.8,1.5,2.4
		c0.2,0.6,2.2,2.9,2.4,3.5c0.2,0.6,1,1,1.1,1.3c0.2,0.3,1,3,1.1,3.5c0.1,0.5,2.8,10.1,2.8,10.1s1.3,3.6,1.5,3.9
		c0.2,0.4,0.7,4.5,0.7,5.2c0,0.7,1.6,7.2,1.9,8.1c0.3,1,1.7,2.8,2.2,3.6c0.5,0.7,5.9,5.5,6.1,6c0.2,0.5,3.7,4,4.1,4.4
		c0.4,0.4,3,2,3.3,2.2c0.2,0.2,4.7,4.1,5.7,4.7c1,0.6,3.8,2.2,3.8,2.2s6.8,4.3,7.6,5.3c1.1,1.3,1.8,0.7,2.7,1.3
		c1,0.7,2.2,1.8,2.7,2.4c0.5,0.6,2.6,2,3.3,2.7c0.7,0.7,3.8,2.4,4,2.7c0.2,0.3-0.1,3.6,0.3,4.2c0.4,0.5,3.1,3.4,3.2,3.8
		c0.1,0.4,0.4,8.8,0.4,9c0,0.2-0.1,8.4-0.1,8.4"/>
	<path class="st5" d="M117.1-20.8l0.4,8.5l0.3,30.1c0,0,0,1.3-0.4,2.1c-0.4,0.8-2.3,3.9-2.4,5.4c-0.1,0.9,0.3,13,0.4,14.1
		c0,1.5-1.5,3.2-1.4,5c0,1.3,0.1,4.9,0.1,4.9l0.3,18l0,3.1c0,0-0.5,5.9-0.5,7.8c0,2-4.6,8.3-4.6,8.3"/>
	<path class="st5" d="M141.5,45.3c0,0-1.2-3.5-2-4.3c-0.8-0.9-5.5-6.4-6-7.3c-0.5-1-3.3-3.9-4.6-4.7c-1.3-0.9-8.7-7.3-9.4-7.7
		c-0.7-0.4-1.1-1.1-2.9-1.3c-1.6-0.2-2.7-1.4-3.5-1.8c-1.2-0.5-4-2.3-4.4-2.7c0.2,0.2-1.1-0.6-2.6-2.1"/>
	<path class="st5" d="M126.5,207.3l-0.2-21c0,0,0.4-4.4-0.2-5.8c-0.6-1.4-1.6-4.7-1.6-6c0-1.3-0.1-4.5,0.3-5.1
		c0.4-0.6,0.8-4.4-0.1-6.1c-0.6-1.1-0.9-2.2-1.4-2.7c-2.5-3-2.8-2.7-4.4-5.3c-0.3-0.5-2.7-3.9-3-4.7c-0.3-0.8-0.4-10.2-0.4-10.2
		v-14.1"/>
	<path class="st5" d="M118.3,175.1c0.3-0.4,2.6-4.3,2.6-4.3l-0.1,0.1c0,0,1.8-2,1.8-2.7c0-0.7,0.2-3.4,1-3.6
		c0.8-0.2,3.6-1.9,4.1-2.2c0.6-0.3,2.8-2.4,3.2-2.7c0,0,7.5-13.9,8-16.5s2.8-6.5,5.6-6.6"/>
	<path class="st5" d="M105.9,182.2c0.2,0,1.1-1,2.1-1.8c1-0.7,3.9-1.3,3.9-1.3l-0.2,0c0,0,2.1-0.1,2.9-0.7c0.8-0.6,3.6-3,3.9-3.6"/>
	<path class="st5" d="M94.1,20.8c0,0-7.2,0-10.4,0c-3.2,0-2.5-2.2-5.7-2.2c-3.2,0-11.4,0-11.4,0H51.8l-5.2-2.6H33.8"/>
</g>
<g id="Layer_1">

		<use xlink:href="#I-35E_2"  width="13.4" height="13.5" id="XMLID_8_" x="-6.7" y="-6.7" transform="matrix(0.6 0 0 -0.6 179.5826 26.8154)" style="overflow:visible;"/>

		<use xlink:href="#I-35E_2"  width="13.4" height="13.5" id="XMLID_4_" x="-6.7" y="-6.7" transform="matrix(0.6 0 0 -0.6 150.3111 117.4482)" style="overflow:visible;"/>

		<use xlink:href="#I-694_2"  width="13.4" height="13.5" id="XMLID_6_" x="-6.7" y="-6.7" transform="matrix(0.6 0 0 -0.6 211.108 76.9004)" style="overflow:visible;"/>

		<use xlink:href="#I-694_2"  width="13.4" height="13.5" x="-6.7" y="-6.7" transform="matrix(0.6 0 0 -0.6 73.5065 40.5405)" style="overflow:visible;"/>

		<use xlink:href="#I-394"  width="13.4" height="13.5" id="XMLID_2_" x="-6.7" y="-6.7" transform="matrix(0.6 0 0 -0.6 76.0035 91.5313)" style="overflow:visible;"/>

		<use xlink:href="#I-494_2"  width="13.4" height="13.5" id="XMLID_5_" x="-6.7" y="-6.7" transform="matrix(0.6 0 0 -0.6 189.7574 132.9316)" style="overflow:visible;"/>

		<use xlink:href="#I-494_2"  width="13.4" height="13.5" x="-6.7" y="-6.7" transform="matrix(0.6 0 0 -0.6 109.357 141.5518)" style="overflow:visible;"/>

		<use xlink:href="#I-494_2"  width="13.4" height="13.5" x="-6.7" y="-6.7" transform="matrix(0.6 0 0 -0.6 45.4557 60.5713)" style="overflow:visible;"/>

		<use xlink:href="#I-94_2"  width="13.4" height="13.5" id="XMLID_9_" x="-6.7" y="-6.7" transform="matrix(0.6 0 0 -0.6 193.7594 98.1895)" style="overflow:visible;"/>

		<use xlink:href="#I-94_2"  width="13.4" height="13.5" id="XMLID_3_" x="-6.7" y="-6.7" transform="matrix(0.6 0 0 -0.6 142.0245 99.6963)" style="overflow:visible;"/>

		<use xlink:href="#I-94_2"  width="13.4" height="13.5" x="-6.7" y="-6.7" transform="matrix(0.6 0 0 -0.6 39.0651 25.7388)" style="overflow:visible;"/>

		<use xlink:href="#I-35W_2"  width="13.4" height="13.5" id="XMLID_1_" x="-6.7" y="-6.7" transform="matrix(0.6 0 0 -0.6 106.401 116.29)" style="overflow:visible;"/>

		<use xlink:href="#I-35W_2"  width="13.4" height="13.5" id="XMLID_7_" x="-6.7" y="-6.7" transform="matrix(0.6 0 0 -0.6 133.8273 31.6196)" style="overflow:visible;"/>
</g>
<g id="Layer_4">
	<path class="st8" d="M59,35.2c1.1,0,1.9-0.9,1.9-1.9c0-1.1-0.9-1.9-1.9-1.9c-1.1,0-1.9,0.9-1.9,1.9C57.1,34.3,58,35.2,59,35.2"/>
	<text transform="matrix(1 0 0 1 46.736 31.0884)"><tspan x="0" y="0" class="st8 st9 st10">1</tspan><tspan x="4.3" y="0" class="st8 st9 st10">3</tspan></text>
	<path class="st11" d="M129.6,23.5c1.1,0,1.9-0.9,1.9-1.9c0-1.1-0.9-1.9-1.9-1.9c-1.1,0-1.9,0.9-1.9,1.9
		C127.7,22.7,128.5,23.5,129.6,23.5"/>
	<text transform="matrix(1 0 0 1 120.4459 24.4204)" class="st11 st9 st10">1</text>
	<path class="st12" d="M204.9,64.2c1,0,1.9-0.8,1.9-1.9c0-1-0.8-1.9-1.9-1.9c-1,0-1.9,0.8-1.9,1.9C203.1,63.3,203.9,64.2,204.9,64.2
		"/>
	<text transform="matrix(1 0 0 1 203.2867 59.2627)" class="st12 st9 st10">7</text>
	<path class="st12" d="M193.6,63.7c1,0,1.9-0.8,1.9-1.9c0-1-0.8-1.9-1.9-1.9s-1.9,0.8-1.9,1.9C191.7,62.9,192.5,63.7,193.6,63.7"/>
	<text transform="matrix(1 0 0 1 179.9664 65.2021)"><tspan x="0" y="0" class="st12 st9 st10">1</tspan><tspan x="4.2" y="0" class="st12 st9 st10">0</tspan></text>
	<path class="st12" d="M203.1,152.9c1.1,0,1.9-0.9,1.9-1.9c0-1.1-0.9-1.9-1.9-1.9c-1.1,0-1.9,0.9-1.9,1.9
		C201.1,152.1,202,152.9,203.1,152.9"/>
	<text transform="matrix(1 0 0 1 193.903 156.1006)" class="st12 st9 st10">9</text>
	<path class="st12" d="M177.6,112.6c1.1,0,1.9-0.9,1.9-1.9c0-1.1-0.9-1.9-1.9-1.9c-1.1,0-1.9,0.9-1.9,1.9
		C175.6,111.8,176.5,112.6,177.6,112.6"/>
	<text transform="matrix(1 0 0 1 169.3766 113.6963)" class="st12 st9 st10">8</text>
	<path class="st13" d="M141.6,155.4c1.1,0,1.9-0.9,1.9-1.9c0-1.1-0.9-1.9-1.9-1.9s-1.9,0.9-1.9,1.9
		C139.7,154.6,140.5,155.4,141.6,155.4"/>
	<text transform="matrix(1 0 0 1 130.3556 151.3486)"><tspan x="0" y="0" class="st13 st9 st10">1</tspan><tspan x="4.3" y="0" class="st13 st9 st10">5</tspan></text>
	<path class="st13" d="M21.4,186.6c1.1,0,1.9-0.9,1.9-1.9c0-1.1-0.9-1.9-1.9-1.9c-1.1,0-1.9,0.9-1.9,1.9
		C19.5,185.8,20.3,186.6,21.4,186.6"/>
	<text transform="matrix(1 0 0 1 10.1398 182.5889)"><tspan x="0" y="0" class="st13 st9 st10">1</tspan><tspan x="4.3" y="0" class="st13 st9 st10">6</tspan></text>
	<path class="st13" d="M112,182.4c1.1,0,1.9-0.9,1.9-1.9c0-1.1-0.9-1.9-1.9-1.9c-1.1,0-1.9,0.9-1.9,1.9
		C110.1,181.6,111,182.4,112,182.4"/>
	<text transform="matrix(1 0 0 1 102.9865 177.5224)"><tspan x="0" y="0" class="st13 st9 st10 st14">1</tspan><tspan x="3.5" y="0" class="st13 st9 st10">4</tspan></text>
	<path class="st11" d="M125,149.6c1.1,0,1.9-0.9,1.9-1.9c0-1.1-0.9-1.9-1.9-1.9c-1.1,0-1.9,0.9-1.9,1.9
		C123.1,148.7,123.9,149.6,125,149.6"/>
	<text transform="matrix(1 0 0 1 121.4616 157.9736)" class="st11 st9 st10">5</text>
	<path class="st15" d="M94.4,135.5c1.1,0,1.9-0.9,1.9-1.9c0-1.1-0.9-1.9-1.9-1.9c-1.1,0-1.9,0.9-1.9,1.9
		C92.4,134.6,93.3,135.5,94.4,135.5"/>
	<text transform="matrix(1 0 0 1 92.7916 130.0879)"><tspan x="0" y="0" class="st15 st9 st10">1</tspan><tspan x="4" y="0" class="st15 st9 st10">2</tspan></text>
	<path class="st16" d="M60.4,133.7c1.1,0,1.9-0.9,1.9-1.9c0-1.1-0.9-1.9-1.9-1.9c-1.1,0-1.9,0.9-1.9,1.9
		C58.5,132.8,59.4,133.7,60.4,133.7"/>
	<text transform="matrix(1 0 0 1 51.2282 127.5547)"><tspan x="0" y="0" class="st16 st9 st10">1</tspan><tspan x="4.2" y="0" class="st16 st9 st10">7</tspan></text>
	<path class="st16" d="M46.5,147.3c1.1,0,1.9-0.9,1.9-1.9c0-1.1-0.9-1.9-1.9-1.9s-1.9,0.9-1.9,1.9C44.5,146.5,45.4,147.3,46.5,147.3
		"/>
	<text transform="matrix(1 0 0 1 42.3312 155.1074)"><tspan x="0" y="0" class="st16 st9 st10">1</tspan><tspan x="4.1" y="0" class="st16 st9 st10">8</tspan></text>
	<path class="st16" d="M19,156.7c1.1,0,1.9-0.9,1.9-1.9c0-1.1-0.9-1.9-1.9-1.9c-1.1,0-1.9,0.9-1.9,1.9C17.1,155.8,18,156.7,19,156.7
		"/>
	<text transform="matrix(1 0 0 1 20.8815 164.3799)"><tspan x="0" y="0" class="st16 st9 st10">2</tspan><tspan x="4.1" y="0" class="st16 st9 st10">0</tspan></text>
	<path class="st11" d="M94.7,97.1c1.1,0,1.9-0.9,1.9-1.9c0-1.1-0.9-1.9-1.9-1.9c-1.1,0-1.9,0.9-1.9,1.9
		C92.8,96.3,93.7,97.1,94.7,97.1"/>
	<text transform="matrix(1 0 0 1 85.5084 98.1846)" class="st11 st9 st10">4</text>
	<path class="st12" d="M193.9,141.3c1.1,0,1.9-0.9,1.9-1.9c0-1.1-0.9-1.9-1.9-1.9c-1.1,0-1.9,0.9-1.9,1.9
		C192,140.4,192.8,141.3,193.9,141.3"/>
	<path class="st11" d="M58.6,98.2c1.1,0,1.9-0.9,1.9-1.9c0-1.1-0.9-1.9-1.9-1.9c-1.1,0-1.9,0.9-1.9,1.9
		C56.7,97.3,57.6,98.2,58.6,98.2"/>
	<text transform="matrix(1 0 0 1 50.3444 101.2881)" class="st11 st9 st10">3</text>
	<path class="st12 park-ride-6" data-toggle="popover" data-placement="top" data-content="Insert content here." d="M105.4,42.1c1,0,1.9-0.8,1.9-1.9c0-1-0.8-1.9-1.9-1.9c-1,0-1.9,0.8-1.9,1.9C103.5,41.3,104.4,42.1,105.4,42.1
		"/>
	<text transform="matrix(1 0 0 1 102.215 36.5991)" class="st12 st9 st10">6</text>
	<path class="st16" d="M34.5,150.4c1.1,0,1.9-0.9,1.9-1.9c0-1.1-0.9-1.9-1.9-1.9s-1.9,0.9-1.9,1.9C32.6,149.5,33.5,150.4,34.5,150.4
		"/>
	<text transform="matrix(1 0 0 1 28.2833 144.3984)"><tspan x="0" y="0" class="st16 st9 st10">1</tspan><tspan x="4.1" y="0" class="st16 st9 st10">9</tspan></text>
	<path class="st11" d="M65.1,48.2c1.1,0,1.9-0.9,1.9-1.9c0-1.1-0.9-1.9-1.9-1.9c-1.1,0-1.9,0.9-1.9,1.9
		C63.2,47.4,64.1,48.2,65.1,48.2"/>
	<text transform="matrix(1 0 0 1 62.5089 58.874)" class="st11 st9 st10">2</text>
	<text transform="matrix(1 0 0 1 197.3297 142.1181)"><tspan x="0" y="0" class="st12 st9 st10 st14">1</tspan><tspan x="3.5" y="0" class="st12 st9 st10">1</tspan></text>
</g>
</svg>
