<svg xmlns="http://www.w3.org/2000/svg" viewBox="0 0 16.75 16.75"><defs><style>.cls-1{fill:#fff200;opacity:.75}.cls-2{fill:#fff}.cls-3{fill:#434a9f}.cls-4{fill:#f5f5f6}</style></defs><title>FreeRide</title><g id="Layer_2" data-name="Layer 2"><g id="legend_without_route_94" data-name="legend without route 94"><g id="Free_Ride" data-name="Free Ride"><circle class="cls-1" cx="8.37" cy="8.37" r="8.37"/><circle class="cls-2" cx="4.66" cy="11.59" r=".72"/><circle class="cls-2" cx="12.09" cy="11.59" r=".72"/><path class="cls-3" d="M5.62 8.76h-.3v.48h.27c.17 0 .39 0 .39-.23s-.19-.25-.36-.25zm3.06.03h-.27V10h.24c.43 0 .75-.16.75-.64s-.33-.57-.72-.57z"/><path class="cls-2" d="M6.12 3.38h4.47a.33.33 0 0 0 .33-.32.33.33 0 0 0-.33-.33H6.12a.33.33 0 0 0-.33.33.33.33 0 0 0 .33.32zM7.63 6c0-.21-.19-.24-.36-.24H7v.48h.27c.14-.05.36-.05.36-.24z"/><path class="cls-2" d="M4.4 7.92h7.91a.48.48 0 0 0 .49-.53c-.09-1.15-.15-1.8-.29-3a.51.51 0 0 0-.57-.39H4.79a.53.53 0 0 0-.56.44C4.08 5.67 4 6.21 3.94 7.39a.46.46 0 0 0 .46.53zm6.21-2.59H12v.43h-1v.39h1v.42h-.91V7h1v.43h-1.48zm-2 0H10v.43H9v.39h1v.42h-.95V7h1v.43H8.59zm-2.08 0h.81c.43 0 .79.15.79.64a.54.54 0 0 1-.45.57l.53.89h-.57l-.44-.85H7v.84h-.49zm-1.89 0H6v.43h-.92v.43H6v.41h-.92v.82h-.46z"/><path class="cls-3" d="M12.81 13.81V13h.94V8c0-.11-.26-2.6-.37-3.61S13 2.91 12.19 2.53a8.92 8.92 0 0 0-3.82-.77 8.93 8.93 0 0 0-3.82.77c-.8.38-1.07.71-1.19 1.86L3 8v5h.94v.86a.72.72 0 1 0 1.44 0V13h6v.86a.72.72 0 1 0 1.44 0zM6.12 2.73h4.47a.33.33 0 0 1 .33.33.33.33 0 0 1-.33.32H6.12a.33.33 0 0 1-.33-.32.33.33 0 0 1 .33-.33zM4.23 4.46A.53.53 0 0 1 4.79 4h7.15a.51.51 0 0 1 .56.42c.14 1.16.21 1.81.29 3a.48.48 0 0 1-.49.53H4.4a.46.46 0 0 1-.46-.53c.06-1.21.14-1.75.29-2.96zm.43 7.85a.72.72 0 1 1 .72-.72.72.72 0 0 1-.72.72zM6 10.46l-.44-.84h-.25v.84h-.46v-2.1h.81c.43 0 .79.15.79.64a.54.54 0 0 1-.45.57l.53.89zm1.39 0h-.48v-2.1h.46zm1.32 0h-.77v-2.1h.69c.68 0 1.24.29 1.24 1.06a1.07 1.07 0 0 1-1.17 1.04zm1.66 0v-2.1h1.42v.43h-1v.39h.91v.43h-.91V10h1v.43zm1.73 1.84a.72.72 0 1 1 .72-.72.72.72 0 0 1-.73.73z"/><path class="cls-3" d="M5.08 6.6h.88v-.42h-.88v-.43h.95v-.43H4.62v2.1h.46V6.6zM7 6.58h.2l.44.84h.55l-.53-.89A.54.54 0 0 0 8.11 6c0-.49-.36-.64-.79-.64h-.81v2.1H7zm0-.87h.3c.17 0 .36 0 .36.24s-.22.23-.39.23H7zM10.07 7H9.05v-.43h.91v-.43h-.91v-.39h.97v-.43H8.59v2.1h1.48V7zm2.01 0h-1.01v-.43h.91v-.43h-.91v-.39h.96v-.43h-1.42v2.1h1.47V7z"/><path class="cls-4" d="M6.45 9c0-.49-.36-.64-.79-.64h-.81v2.1h.46v-.84h.23l.44.84h.55L6 9.57A.54.54 0 0 0 6.45 9zm-.87.23h-.27v-.47h.3c.17 0 .36 0 .36.24s-.21.23-.38.23zm1.33-.87h.46v2.1h-.46zm1.73 0h-.7v2.1h.76a1.07 1.07 0 0 0 1.18-1c0-.81-.57-1.1-1.24-1.1zm0 1.67h-.23V8.79h.27c.39 0 .72.19.72.6s-.33.61-.75.61zm3.2.01h-1.02v-.43h.91v-.43h-.91v-.39h.96v-.42h-1.42v2.09h1.48v-.42z"/></g></g></g></svg>