<svg xmlns="http://www.w3.org/2000/svg" viewBox="0 0 189.37 31.13"><defs><style>.cls-1{fill:#ed1b2e}.cls-2{fill:#fff}.cls-3{fill:#0053a0}</style></defs><title>MetroTransit</title><g id="Layer_2" data-name="Layer 2"><g id="Layer_1-2" data-name="Layer 1"><path class="cls-1" d="M15.56 0a15.56 15.56 0 1 0 15.57 15.56A15.57 15.57 0 0 0 15.56 0z"/><path class="cls-2" d="M26.27 13.45h-7.92v13.54h-5.69V13.45H4.5V7.76h21.77v5.69z"/><path class="cls-3" d="M62 22.95V8.19C62 5.52 62.48 5 64.88 5v-.85h-7.55l-6.69 18.73h-.07L44 4.15h-7.52V5c2.44 0 2.92.51 2.92 3.19v14.76c0 2.68-.48 3.19-2.92 3.19V27h8v-.86c-2.47 0-2.92-.51-2.92-3.19V6.79h.07L48.83 27h2.4l7.2-20.21h.07v16.16c0 2.68-.51 3.19-2.92 3.19V27h9.3v-.86c-2.4 0-2.92-.51-2.92-3.19z"/><path class="cls-3" d="M70.22 11.47c-4.43 0-6.9 2.41-6.9 7.4 0 5.48 3 8.45 8.09 8.45a13.06 13.06 0 0 0 4.59-.85v-1.19a8.68 8.68 0 0 1-3 .56c-4.69 0-6-4.66-6-8.12h9.35c0-2.77-.86-6.24-6-6.24zm-3.3 4.89c0-1.29.66-3.76 3.17-3.76 2.28 0 2.84 1.68 2.84 3.76z"/><path class="cls-3" d="M95.44 11.47c-2.71 0-3.93 2.34-4.49 3.83h-.07v-3.83l-4.88.67v-.34h-4.29V6.32h-1c-.17 2.51-1.16 5.91-5.05 5.91v.92h2.67V23c0 3.86 2.44 4.33 5.35 4.33a5.26 5.26 0 0 0 1.81-.33h7.87v-.73c-1.92 0-2.48-.59-2.48-2.87v-3.7c0-3.4 1.49-5.42 2.51-5.42s.86.76 2 .76a1.75 1.75 0 0 0 1.78-1.85 1.8 1.8 0 0 0-1.78-1.72zm-7.89 11.8c0 2.28-.56 2.89-2.48 2.89h-.69c-1.72 0-2.67-1-2.67-3.17v-9.83h4.05c1 .14 1.79.68 1.79 2.59v7.53zm16.24-11.8c-4.79 0-7.07 2.58-7.07 7.93s2.28 7.93 7.07 7.93 7.07-2.58 7.07-7.93-2.28-7.93-7.07-7.93zm0 14.73c-2.87 0-3.47-3.3-3.47-6.8s.59-6.8 3.47-6.8 3.47 3.3 3.47 6.8-.59 6.8-3.47 6.8z"/><path class="cls-1" d="M119.27 5.9h-7.92V3.94h18V5.9h-7.92v21.2h-2.16V5.9z"/><path class="cls-1" d="M126.14 16.24c0-1.11-.16-3.47-.16-4.25h2c0 1.11.07 2.36.13 2.65a5.37 5.37 0 0 1 4.81-3 4.61 4.61 0 0 1 1.15.16l-.23 1.93a2.42 2.42 0 0 0-.75-.13c-3.4 0-4.94 2.36-4.94 5.3v8.2h-2V16.24zm20.51 4.51a46.35 46.35 0 0 0 .29 6.35h-1.83a14.62 14.62 0 0 1-.2-2.45h-.06a5.5 5.5 0 0 1-5.3 2.85c-2.58 0-5.33-1.28-5.33-4.48 0-4.61 5.4-5.07 8.38-5.07h2.29V17c0-2.62-1.83-3.66-4.25-3.66a6.83 6.83 0 0 0-4.61 1.7l-1.15-1.34a8.82 8.82 0 0 1 5.76-2.13c3.66 0 6 1.64 6 5.46v3.7zm-3.93-1.24c-3.27 0-6.54.82-6.54 3.4 0 1.86 1.8 2.81 3.44 2.81 4.19 0 5.27-2.68 5.27-5.2v-1zm6.05-3.27c0-1.11-.16-3.47-.16-4.25h2c0 1.11.07 2.36.13 2.65h.1a5.65 5.65 0 0 1 5.17-3c4.71 0 5.76 3.21 5.76 6.51v9h-2V18.2c0-2.45-.69-4.84-3.8-4.84-2.91 0-5.23 2-5.23 6.18v7.56h-2V16.24zm15.76 7a4.9 4.9 0 0 0 4.38 2.49c1.7 0 3.47-1 3.47-2.78 0-4.16-9-1.24-9-7 0-2.94 2.68-4.35 5.17-4.35s4.35.92 5.33 2.85l-1.77 1a3.7 3.7 0 0 0-3.57-2.13c-1.41 0-3.21.85-3.21 2.42 0 4.09 9 .92 9 7 0 3.11-2.58 4.68-5.46 4.68-2.59 0-4.91-1-6.09-3.08l1.73-1.18zM176 12h2v15.1h-2V12zm1-7.46A1.47 1.47 0 1 1 175.48 6 1.47 1.47 0 0 1 177 4.52zm12.21 9.21h-4.32v9.85a1.94 1.94 0 0 0 2.11 2.12 5.83 5.83 0 0 0 2.22-.52l.16 1.77a8.66 8.66 0 0 1-2.55.52c-2.81 0-3.89-1.73-3.89-3.89v-9.85h-3.27V12h3.27V7.63h2V12h4.32v1.77z"/></g></g></svg>