<svg xmlns="http://www.w3.org/2000/svg" xmlns:xlink="http://www.w3.org/1999/xlink" viewBox="0 0 330 280"><defs><style>.cls-1{fill:#58595b}.cls-13,.cls-2,.cls-20,.cls-21,.cls-4,.cls-8{fill:#fff}.cls-3{font-size:7px;font-family:AvenirNextLTPro-DemiCn,Avenir Next LT Pro}.cls-23,.cls-3,.cls-5{fill:#231f20}.cls-4{stroke:#231f20;stroke-width:.3px}.cls-6{fill:#f5f1e9}.cls-7{fill:#d5eef4}.cls-8{stroke:#ed1b2e}.cls-22,.cls-8{stroke-miterlimit:10}.Light-Gray-Ramp,.cls-22,.cls-8{stroke-width:2px}.Gray-Ramp,.Gray-Street,.Light-Gray-Ramp,.White-Street,.cls-10,.cls-11,.cls-12,.cls-9{fill:none}.Gray-Ramp,.Gray-Street,.cls-10,.cls-12,.cls-9{stroke:#bcbec0}.Gray-Ramp,.Gray-Street,.Light-Gray-Ramp,.White-Street,.cls-9{stroke-linejoin:round}.Gray-Street,.cls-9{stroke-width:6px}.Gray-Ramp{stroke-width:3px}.Gray-Street,.White-Street{stroke-linecap:round}.White-Street{stroke:#fff;stroke-width:5px}.cls-10{stroke-width:17.5px}.Light-Gray-Ramp,.cls-11{stroke:#e7e7e7}.cls-11{stroke-width:16.5px}.cls-12{stroke-width:.5px}.cls-13{font-size:14px}.cls-13,.cls-21{font-family:AvenirLTStd-Black,Avenir LT Std}.cls-14{font-size:10px;font-family:AvenirLTStd-Roman,Avenir LT Std}.cls-15,.cls-16{letter-spacing:-.02em}.cls-17{letter-spacing:0}.cls-18{fill:#c7c8ca}.cls-19{fill:#ed1b2e}.cls-20{font-size:12px}.cls-20,.cls-23{font-family:AvenirLTStd-Heavy,Avenir LT Std}.cls-21{font-size:10.5px}.cls-22{fill:#ffd200;stroke:#000}.cls-23{font-size:11px}</style><symbol id="Hwy:_Shield_-_Interstate" data-name="Hwy: Shield - Interstate" viewBox="0 0 13.44 13.47"><path class="cls-4" d="M6.72 13.32A8.14 8.14 0 0 1 .15 5.4 8.51 8.51 0 0 1 2 .18a6.06 6.06 0 0 0 2.35.4A6.32 6.32 0 0 0 6.72.19 6.34 6.34 0 0 0 9.1.58a6.17 6.17 0 0 0 2.37-.4 8.61 8.61 0 0 1 1.82 5.22 8.14 8.14 0 0 1-6.57 7.92z"/><path class="cls-5" d="M.64 2.86A8.21 8.21 0 0 1 1.91.2a6.38 6.38 0 0 0 2.35.37A6.7 6.7 0 0 0 6.72.18a6.71 6.71 0 0 0 2.46.39A6.37 6.37 0 0 0 11.53.2a8.24 8.24 0 0 1 1.27 2.66z"/></symbol><symbol id="Hwy:_I-394" data-name="Hwy: I-394" viewBox="0 0 13.44 13.47"><use width="13.44" height="13.47" xlink:href="#Hwy:_Shield_-_Interstate"/><text class="cls-3" transform="translate(1.3 9.25)">394</text></symbol><symbol id="Compass" data-name="Compass" viewBox="0 0 18 18"><circle class="cls-1" cx="9" cy="9" r="9"/><path class="cls-2" d="M5.77 8.36h2l2.9 4.74V8.36h1.5v6.82h-2l-3-4.85v4.85h-1.4zm-.65-2.29h7.76L9 2.19 5.12 6.07z"/></symbol></defs><title>SuperBowl_PRMap_ctyRd73</title><g id="BACKGROUND"><path class="cls-6" d="M0 0h330v280H0z"/><path class="cls-7" d="M-70.44 186.9s15-9.5 24-7 9.5 1 16.5 4 9.5 6.5 12.5 7l12 2s18.5 2 23 5 24 22 29 23 21.5 2 26 4.5 16 6.5 16.5 18-2 31-.5 36 17 31.5 16 44.5 2.5 30-7 30.5-22.5 4-29.5 4-37-12-42.5-14.5-18-14.5-25-16-15-4-18.5-5-17-2.5-19.5-3a29 29 0 0 0-5-.5l-7.5 5.5-5-1 4-9.5 1-3-12-3s-4.5-4.5-5.5-7-5.5-5-5.5-5l-5-1.5-7 3-1-103z"/></g><path class="cls-8" d="M122.06 162.9h28.75v61.51h-28.75z" id="State_Fair_Express_lot" data-name="State Fair Express lot"/><g id="ROADS"><path class="cls-9" d="M107.31 182.4s10.5-8 15.5-6.75"/><path class="Gray-Ramp" d="M161.56 224.9h13.5c3 0 24-2 32.75-17.5 7.25-14 21.2-39.32 29.75-49.25 17-19.75 63-42.75 65-43.25m-141.25-26c5.5-.25 10.25 0 14.75 0s14 2 18 5.5 16.7 22.48 1 35.5c-10.25 8.5-31.8 14.11-31.8 14.11"/><path class="Gray-Ramp" d="M156.24 153.94c10.5 0 33.32 1.21 41.32 10.46s11 18.75 9.25 30.25-15.75 20.5-21.75 21.5-22.5 1-22.5 1l-1.75-.5m.25-133.25c5.5-.5 22.5-.5 29.5 2.5s28 15 35 17 26.5 6.5 34.5 6.5 36.79-3.42 41-3.89"/><path class="Gray-Street" d="M-83.94 167.4l156.5.5c2.5 0 23 2.5 27.5 7.5s11 13.5 12.5 19 2 21 2 25 1 28.25 14 35.5c8 4.47 22.75 9.75 29.75 9.25s23.75-2 32.25-10.75 18.5-27 20-32 20.75-41 24.25-46.5 17.5-21.5 28-29.25 48.75-23.25 60.25-27.25 74.5-26.5 74.5-26.5l35-11m-518.5 54s155.72 1.44 163 .5 31-8.18 31.44-25.83c.29-11.86.58-36.17 6.37-46.87s13.41-15.35 39.64-19.1c7-1 19.1-.72 28.5 4.48s15 15.25 19 20.11 15.1 19.21 25.1 24.21 27 7 27 7 19.81.26 23.5-.5 110.5-39 110.5-39l43.5-14"/><path class="Gray-Street" d="M197.06-130.1l5 44-1 48s4.25 13.75 4.5 17-.25 13.25 0 19 7.25 19.25 11.5 24 31.25 15.25 32.25 20.25-3.5 55.5-3.5 55.5M200.06-39.6h-194c-3 0-24.5 4.5-31 12s-18 25-21 27.5-26.5 37-29.5 44-5.5 30.5-6 39-2 51.5-2 51.5"/><path class="Gray-Street" d="M155.06-140.6s3 123 2.5 125-3 11-3 13.5 2 303 2 303l4.5 18v61"/><path class="Gray-Street" d="M161.06 381.9l-.5-382-3-17"/><path class="White-Street" d="M-83.94 167.4l156.5.5c2.5 0 23 2.5 27.5 7.5s11 13.5 12.5 19 2 21 2 25 1 28.25 14 35.5c8 4.47 22.75 9.75 29.75 9.25s23.75-2 32.25-10.75 18.5-27 20-32 20.75-41 24.25-46.5 17.5-21.5 28-29.25 48.75-23.25 60.25-27.25 74.5-26.5 74.5-26.5l35-11m-518.5 54s155.72 1.44 163 .5 31-8.18 31.44-25.83c.29-11.86.58-36.17 6.37-46.87s13.41-15.35 39.64-19.1c7-1 19.1-.72 28.5 4.48s15 15.25 19 20.11 15.1 19.21 25.1 24.21 27 7 27 7 19.81.26 23.5-.5 110.5-39 110.5-39l43.5-14"/><path class="White-Street" d="M197.06-130.1l5 44-1 48s4.25 13.75 4.5 17-.25 13.25 0 19 7.25 19.25 11.5 24 31.25 15.25 32.25 20.25-3.5 55.5-3.5 55.5M200.06-39.6h-194c-3 0-24.5 4.5-31 12s-18 25-21 27.5-26.5 37-29.5 44-5.5 30.5-6 39-2 51.5-2 51.5"/><path class="cls-10" d="M-86.44 150.9l161.5 1.5s49.5.5 74.5-1 23-1 57-9.5 102-32 107.5-34.5 114.5-42 114.5-42l11-5"/><path class="cls-11" d="M-86.44 150.9l161.5 1.5s49.5.5 74.5-1 23-1 57-9.5 102-32 107.5-34.5 114.5-42 114.5-42l11-5"/><path class="cls-12" d="M-86.44 150.9l161.5 1.5s49.5.5 74.5-1 23-1 57-9.5 102-32 107.5-34.5 114.5-42 114.5-42l11-5"/><path class="Light-Gray-Ramp" d="M161.56 224.9h13.5c3 0 24-2 32.75-17.5 7.25-14 21.2-39.32 29.75-49.25 17-19.75 63-42.75 65-43.25m-141.25-26c5.5-.25 10.25 0 14.75 0s14 2 18 5.5 16.7 22.48 1 35.5c-10.25 8.5-31.8 14.11-31.8 14.11"/><path class="Light-Gray-Ramp" d="M156.24 153.94c10.5 0 33.32 1.21 41.32 10.46s11 18.75 9.25 30.25-15.75 20.5-21.75 21.5-22.5 1-22.5 1l-1.75-.5m.25-133.25c5.5-.5 22.5-.5 29.5 2.5s28 15 35 17 26.5 6.5 34.5 6.5 36.79-3.42 41-3.89"/><path class="White-Street" d="M107.31 182.4s10.5-8 15.5-6.75m32.25-316.25s3 123 2.5 125-3 11-3 13.5 2 303 2 303l4.5 18v61"/><path class="White-Street" d="M161.06 381.9l-.5-382-3-17"/></g><g id="ICONS"><use width="13.44" height="13.47" transform="translate(35.95 145.43)" xlink:href="#Hwy:_I-394"/><use width="18" height="18" transform="translate(16 41)" xlink:href="#Compass"/><use width="13.44" height="13.47" transform="translate(221.95 128.99)" xlink:href="#Hwy:_I-394"/><text class="cls-13" transform="translate(133.21 198.36)" id="Park_And_Ride_locations" data-name="Park And Ride locations">4</text></g><g id="TYPE"><g id="type:_Streets" data-name="type: Streets"><text class="cls-14" transform="translate(4.89 181.17)">S F<tspan class="cls-15" x="13.9" y="0">r</tspan><tspan x="17.24" y="0">ontage Rd</tspan></text><text class="cls-14" transform="translate(7.64 130.17)">N F<tspan class="cls-16" x="16.12" y="0">r</tspan><tspan x="19.46" y="0">ontage Rd</tspan></text><text class="cls-14" transform="rotate(90 .45 167.35)">Hopkins C<tspan class="cls-15" x="46.31" y="0">r</tspan><tspan x="49.65" y="0">oss</tspan><tspan class="cls-15" x="64.11" y="0">r</tspan><tspan class="cls-17" x="67.45" y="0">oad</tspan></text><text class="cls-14" transform="rotate(26.95 5.394 398.21)">N</text><text class="cls-14" transform="matrix(.74 .68 -.68 .74 189.83 45.86)">F</text><text class="cls-14" transform="rotate(48 41.542 243.366)">r</text><text class="cls-14" transform="matrix(.62 .79 -.79 .62 195.99 51.93)">o</text><text class="cls-14" transform="matrix(.58 .81 -.81 .58 199.59 56.56)">n</text><text class="cls-14" transform="rotate(52.16 38.927 237.884)">t</text><text class="cls-14" transform="rotate(51 35.449 246.051)">a</text><text class="cls-14" transform="rotate(49.5 30.315 260.197)">g</text><text class="cls-14" transform="rotate(47.2 23.39 280.733)">e</text><text class="cls-14" transform="rotate(41.4 4.861 329.113)">R</text><text class="cls-14" transform="rotate(34.53 -22.616 401.092)">d</text><text class="cls-14" transform="rotate(-63.39 292.025 -70.193)">S</text><text class="cls-14" transform="rotate(-62.6 289.973 -79.938)">F</text><text class="cls-14" transform="rotate(-62.32 288.778 -85.437)">r</text><text class="cls-14" transform="rotate(-62.07 287.955 -89.133)">o</text><text class="cls-14" transform="rotate(-62 286.097 -94.294)">n</text><text class="cls-14" transform="rotate(-61.3 283.917 -101.822)">t</text><text class="cls-14" transform="rotate(-61.2 283.32 -105.077)">a</text><text class="cls-14" transform="rotate(-60.44 283.172 -112.568)">g</text><text class="cls-14" transform="rotate(-54.58 300.492 -144.68)">e</text><text class="cls-14" transform="rotate(-49.5 317.222 -181.74)">R</text><text class="cls-14" transform="rotate(-47.66 322.243 -200.047)">d</text></g></g><path class="cls-18" d="M329 1v278H1V1h328m1-1H0v280h330V0z" id="border"/><g id="Header"><path class="cls-19" d="M0 0h330v27.77H0z"/><text class="cls-20" transform="translate(34.75 18.19)">I-394 &amp; Co. Rd. 73 Park &amp; Ride, Minnetonka</text><text class="cls-21" transform="translate(15.89 17.52)">4</text></g><g id="Boarding_location" data-name="Boarding location"><path d="M105.62 252.85l22.84-25.82m-25.04 24.54l18.01-20.36-4.5-3.97 12-.74.73 12-4.49-3.98-18.01 20.36-3.74-3.31z"/><path class="cls-2" d="M128.46 227l.63 10.29-4-3.5-18 20.36-3-2.65 18-20.36-4-3.5 10.29-.63m.94-1.06l-1 .06-10.29.63-2.41.15 1.81 1.6 3.21 2.84-17.35 19.61-.66.75.75.66 3 2.65.75.66.66-.75 17.35-19.61 3.21 2.84 1.81 1.6-.15-2.41-.55-10.23-.06-1z"/><path class="cls-22" d="M21.43 228.86h91.33v38.81H21.43z"/><text class="cls-23" transform="translate(25.57 241.46)">BOARD SUPER <tspan x="0" y="11">BOWL EVENT </tspan><tspan x="0" y="22">SHUTTLE HERE</tspan></text></g></svg>