<svg xmlns="http://www.w3.org/2000/svg" xmlns:xlink="http://www.w3.org/1999/xlink" viewBox="0 0 330 280"><defs><style>.cls-1{fill:#58595b}.cls-18,.cls-2,.cls-22,.cls-25,.cls-4,.cls-8{fill:#fff}.cls-20,.cls-3{font-size:7px}.cls-3,.cls-5{fill:#231f20}.cls-3{font-family:AvenirNextLTPro-DemiCn,Avenir Next LT Pro}.cls-10,.cls-4{stroke:#231f20}.cls-4{stroke-width:.3px}.cls-6{fill:#f5f1e9}.cls-7{fill:#c7c8ca}.cls-8{stroke:#ed1b2e;stroke-miterlimit:10}.Light-Gray-Ramp,.cls-8{stroke-width:2px}.Gray-Ramp,.Gray-Street,.Light-Gray-Ramp,.White-Street,.cls-10,.cls-11,.cls-12,.cls-13,.cls-14,.cls-15,.cls-16,.cls-17,.cls-9{fill:none}.Gray-Ramp,.Gray-Street,.cls-12,.cls-14,.cls-15,.cls-9{stroke:#bcbec0}.Gray-Ramp,.Gray-Street,.Light-Gray-Ramp,.White-Street,.cls-17,.cls-9{stroke-linejoin:round}.Gray-Ramp{stroke-width:3px}.Gray-Street,.White-Street{stroke-linecap:round}.Gray-Street,.cls-9{stroke-width:6px}.Light-Gray-Ramp,.cls-13,.cls-16{stroke:#e7e7e7}.White-Street,.cls-11,.cls-17{stroke:#fff}.White-Street,.cls-17{stroke-width:5px}.cls-10{stroke-width:12px}.cls-11{stroke-width:10px}.cls-12{stroke-width:17.5px}.cls-13{stroke-width:16.5px}.cls-14{stroke-width:.5px}.cls-15{stroke-width:9px}.cls-16{stroke-width:8px}.cls-18{font-size:14px}.cls-18,.cls-25{font-family:AvenirLTStd-Black,Avenir LT Std}.cls-19{font-size:10px;font-family:AvenirLTStd-Roman,Avenir LT Std}.cls-20{font-family:Avenir-Oblique,Avenir}.cls-21{fill:#ed1b2e}.cls-22{font-size:12px;font-family:AvenirLTStd-Heavy,Avenir LT Std}.cls-23{letter-spacing:-.02em}.cls-24{letter-spacing:-.09em}.cls-25{font-size:10.5px}</style><symbol id="Hwy:_Shield_-_Interstate_2" data-name="Hwy: Shield - Interstate 2" viewBox="0 0 13.44 13.47"><path class="cls-4" d="M6.72 13.32A8.14 8.14 0 0 1 .15 5.4 8.51 8.51 0 0 1 2 .18a6.06 6.06 0 0 0 2.35.4A6.32 6.32 0 0 0 6.72.19 6.34 6.34 0 0 0 9.1.58a6.17 6.17 0 0 0 2.37-.4 8.61 8.61 0 0 1 1.82 5.22 8.14 8.14 0 0 1-6.57 7.92z"/><path class="cls-5" d="M.64 2.86A8.21 8.21 0 0 1 1.91.2a6.38 6.38 0 0 0 2.35.37A6.7 6.7 0 0 0 6.72.18a6.71 6.71 0 0 0 2.46.39A6.37 6.37 0 0 0 11.53.2a8.25 8.25 0 0 1 1.27 2.66z"/></symbol><symbol id="Hwy:_I-94" data-name="Hwy: I-94" viewBox="0 0 13.44 13.47"><g id="ICONS-2" data-name="ICONS"><use width="13.44" height="13.47" xlink:href="#Hwy:_Shield_-_Interstate_2"/><text class="cls-3" transform="translate(3.05 9.23)">94</text></g></symbol><symbol id="Hwy:_I-694" data-name="Hwy: I-694" viewBox="0 0 13.44 13.47"><use width="13.44" height="13.47" xlink:href="#Hwy:_Shield_-_Interstate_2"/><text class="cls-3" transform="translate(1.3 9.27)">694</text></symbol><symbol id="Compass" data-name="Compass" viewBox="0 0 18 18"><circle class="cls-1" cx="9" cy="9" r="9"/><path class="cls-2" d="M5.77 8.36h2l2.9 4.74V8.36h1.5v6.82h-2l-3-4.85v4.85h-1.4zm-.65-2.29h7.76L9 2.19 5.12 6.07z"/></symbol></defs><title>SuperBowl_PRMap_MapleGrove</title><g id="BACKGROUND"><path class="cls-6" d="M0 0h330v280H0z"/><path class="cls-7" d="M94.2 102.53l16.21.27 9.87 1.76.67-3.65 9.33 1.08-1.9 15-19.05-2.97-15.26.27.13-11.76m43.64-1.89h8.51v3.51l16.89-.13.14-5.41 7.97-.27.27 6.76-1.22.13-.13 10.68-31.62.54.14-8.65h-.95v-7.16m42.42-2.57l10.82-1.08.54 6.22 8.24-.95-.27-2.43 6.21-.54.14 1.08 1.62-.14.27 2.98-.54.13.81 8.11-25.81 3.38-2.03-16.76m36.48-.4l6.9-2.84 2.16 5.54.27-.14.81 1.9-.27.81.81 2.29 1.35-.4 1.08 2.97.54 3.51.41 3.79-.14 3.65-1.48 1.62v2.02l.27.14-.27 3.38h-.54l-.54 5.54-7.3-.54v-1.9l-2.16-.27.54-3.65-.54-.26.54-5.27-.68-.27-.13-5-.54-4.06-.82-1.89.82-.54-1.49-3.24.67-.41-1.75-4.32 1.75-.81-.27-1.35m-37.02 25.8l31.08-3.64 1.08 10.67h.41l.4 3.78-7.83.82-.41-3.92-13.51 1.62.41 2.97-10.54 1.49-1.09-13.79m-44.04 1.62l7.97-.13v1.35l19.46-.4.94-1.36 6.35-.13.14 11.22-17.16.13-.13-1.21h-17.71l.14-9.47m-39.99-4.72l33.23 4.59-1.62 10.68-33.37-4.46 1.76-10.81m61.47 20.4l13.65-.68 2.3 27.57-18.24 1.75v-1.62l3.38-1.08-1.09-25.94m-86.47-26.75h11.35v7.43h.81v8.24h-1.21v6.08l-7.98-.13v-.82l-18.1-.26v.94h-7.84v-6.08h-1.21l.13-8.24h.81v-7.3h11.49v5.95l11.75.13v-5.94"/></g><path class="cls-8" d="M100.93 174.24l55.88 12.13v-31.99l-55.88-4.04v23.9z" id="State_Fair_Express_lot" data-name="State Fair Express lot"/><g id="ROADS"><path class="Gray-Ramp" d="M274.61 269.94s27.41 5.39 31.83 6.5 34.19 1.84 39-8.46 2.94-19.85-11.4-24.63-14.34-7-14.34-7"/><path class="Gray-Ramp" d="M272.77 273.25s33.3 10.54 41 11.28 32.72-5.88 37.5-8.09 33.46-12.5 39.34-12.87 16.54-2.94 22.43-2.2l11.76 1.47"/><path class="Gray-Street" d="M-77 11.74L35.49 66.52S63.06 74.61 70 76.08s79.78 4 89 3.31 75.37-7 75.37-7 48.16-7.72 54-8.82 40.16-1.84 59.56-1.84c7 0 43.75 4 43.75 4"/><path class="Gray-Street" d="M269.31-.23l3.6 210.86.69 35.67 1.48 76.6"/><path class="Light-Gray-Ramp" d="M274.61 269.94s27.41 5.39 31.83 6.5 34.19 1.84 39-8.46 2.94-19.85-11.4-24.63-14.34-7-14.34-7"/><path class="Light-Gray-Ramp" d="M272.77 273.25s33.3 10.54 41 11.28 32.72-5.88 37.5-8.09 33.46-12.5 39.34-12.87 16.54-2.94 22.43-2.2l11.76 1.47"/><path class="White-Street" d="M269.31-.23l3.6 210.86.69 35.67 1.48 76.6"/><path class="Gray-Ramp" d="M272.95 187.37s32.38 2.57 36.06 5.15 15.07 10.29 9.56 23.9-22.06 11.4-22.06 11.4"/><path class="cls-9" d="M36.49 8.17s-3.21 120.11-2.1 124.89 9.56 21.32 14.34 24.63 50.37 21 50.37 21 50.37 11 52.57 11 22.79 2.57 25 2.57 43.75-8.82 46.69-8.82 49.6 2.94 49.6 2.94"/><path class="Gray-Ramp" d="M272.31 184.49s46.26 1.84 54 5.15 27.57 15.44 36.76 25 17.28 19.85 28.68 26.47S428.86 258 428.86 258"/><path class="cls-10" d="M279 229.7c10.1 1.16 18.72 2.26 23.81 3.35 13.6 2.94 154.41 37.87 154.41 37.87"/><path class="cls-11" d="M279 229.7c10.1 1.16 18.72 2.26 23.81 3.35 13.6 2.94 154.41 37.87 154.41 37.87"/><path class="cls-2" d="M264.43 220.47l19.4 2.31.99 3.49-.46 1.45-14.32-1.31-6.92-1.46-.86-3.16 2.17-1.32z"/><path class="Light-Gray-Ramp" d="M272.31 184.49s46.26 1.84 54 5.15 27.57 15.44 36.76 25 17.28 19.85 28.68 26.47S428.86 258 428.86 258"/><path class="cls-12" d="M269.54 225.52c10.91 1.24 27.82 6.37 33.22 7.54 13.6 2.94 154.41 37.87 154.41 37.87"/><path class="cls-13" d="M269.54 225.52c10.91 1.24 27.82 6.37 33.22 7.54 13.6 2.94 154.41 37.87 154.41 37.87"/><path class="cls-14" d="M269.54 225.52c10.91 1.24 27.82 6.37 33.22 7.54 13.6 2.94 154.41 37.87 154.41 37.87"/><path class="cls-15" d="M-90.61 145.56s26.47 26.1 46.32 34.93 76.47 23.16 105.51 22.79 50.82 1.12 73.18 4.85c22 3.67 66.22 11.44 90.85 15.48 12.31 2 44.08 6.17 44.08 6.17"/><path class="cls-16" d="M-90.61 145.56s26.47 26.1 46.32 34.93 76.47 23.16 105.51 22.79 50.82 1.12 73.18 4.85c22 3.67 66.22 11.44 90.85 15.48 12.31 2 44.08 6.17 44.08 6.17"/><path class="Light-Gray-Ramp" d="M272.95 187.37s32.38 2.57 36.06 5.15 15.07 10.29 9.56 23.9-22.06 11.4-22.06 11.4"/><path class="cls-15" d="M-88.4 84.17s64.7 61.76 136 89 183.45 43 195.21 44.85c2.73.43 27.42 3.38 27.42 3.38"/><path class="cls-16" d="M-88.4 84.17s64.7 61.76 136 89 183.45 43 195.21 44.85c2.73.43 27.42 3.38 27.42 3.38"/><path class="White-Street" d="M-77 11.74L35.49 66.52S63.06 74.61 70 76.08s79.78 4 89 3.31 75.37-7 75.37-7 48.16-7.72 54-8.82 40.16-1.84 59.56-1.84c7 0 43.75 4 43.75 4M269.31-.23l3.6 210.86"/><path class="cls-17" d="M36.49 8.17s-3.21 120.11-2.1 124.89 9.56 21.32 14.34 24.63 50.37 21 50.37 21 50.37 11 52.57 11 22.79 2.57 25 2.57 43.75-8.82 46.69-8.82 49.6 2.94 49.6 2.94"/></g><g id="ICONS"><use width="13.44" height="13.47" transform="translate(167.55 204.35)" xlink:href="#Hwy:_I-94"/><use width="13.44" height="13.47" transform="translate(191.55 208.35)" xlink:href="#Hwy:_I-694"/><text class="cls-18" transform="translate(124.73 170.93)">1</text><use width="18" height="18" transform="translate(16 246)" xlink:href="#Compass"/></g><g id="TYPE"><g id="type:_Streets" data-name="type: Streets"><text class="cls-19" transform="rotate(91.09 -16.299 56.009)">Main St N</text><text class="cls-19" transform="rotate(90 91 186.44)">Hemlock Ln N</text><text class="cls-19" transform="rotate(2.03 -2022.39 3220.787)">E</text><text class="cls-19" transform="rotate(1.92 -2144.814 3580.288)">l</text><text class="cls-19" transform="translate(121.15 73.96)">m</text><text class="cls-19" transform="rotate(1.41 -2952.83 5418.618)">C</text><text class="cls-19" transform="rotate(1.17 -3576.995 6866.459)">r</text><text class="cls-19" transform="rotate(.91 -4621.723 9027.481)">e</text><text class="cls-19" transform="rotate(.34 -12502.217 25035.053)">e</text><text class="cls-19" transform="rotate(-1.09 4001.87 -8053.741)">k</text><text class="cls-19" transform="rotate(-5.13 910.017 -1769.987)">B</text><text class="cls-19" transform="rotate(-5.21 894.145 -1811.501)">l</text><text class="cls-19" transform="rotate(-5.24 888.406 -1827.233)">v</text><text class="cls-19" transform="matrix(1 -.09 .09 1 175.39 73.05)">d</text><text class="cls-19" transform="rotate(-5.31 871.049 -1950.545)">N</text><text class="cls-19" transform="translate(220.06 178.27)">M</text><text class="cls-19" transform="translate(229.09 178.66)">a</text><text class="cls-19" transform="rotate(3.36 -2933.512 4082.835)">i</text><text class="cls-19" transform="rotate(3.42 -2881.101 4053.169)">n</text><text class="cls-19" transform="rotate(3.49 -2824.95 4110.42)">S</text><text class="cls-19" transform="rotate(3.52 -2802.572 4166.612)">t</text><text class="cls-19" transform="rotate(3.55 -2780.962 4233.82)">N</text></g><text class="cls-20" transform="translate(104.16 121.37)">The Shoppes at Arbor Lakes</text></g><path class="cls-7" d="M329 1v278H1V1h328m1-1H0v280h330V0z" id="border"/><g id="Header"><path class="cls-21" d="M0 0h330v27.77H0z"/><text class="cls-22" transform="translate(34.75 18.19)">Maple G<tspan class="cls-23" x="48.01" y="0">r</tspan><tspan x="52.46" y="0">ove </tspan><tspan class="cls-24" x="76.45" y="0">T</tspan><tspan x="82.23" y="0">ransit Station</tspan></text><text class="cls-25" transform="translate(15.89 17.52)">1</text></g></svg>