<svg xmlns="http://www.w3.org/2000/svg" xmlns:xlink="http://www.w3.org/1999/xlink" viewBox="0 0 330 280"><defs><style>.cls-1{fill:#58595b}.cls-13,.cls-2,.cls-25,.cls-27,.cls-4,.cls-7{fill:#fff}.cls-3{font-size:7px;font-family:AvenirNextLTPro-DemiCn,Avenir Next LT Pro}.cls-21,.cls-3,.cls-5{fill:#231f20}.cls-4{stroke:#231f20;stroke-width:.3px}.cls-6{fill:#f5f1e9}.cls-7{stroke:#ed1b2e}.cls-19,.cls-20,.cls-7{stroke-miterlimit:10}.Light-Gray-Ramp,.cls-20,.cls-7{stroke-width:2px}.Gray-Ramp,.Gray-Street,.Light-Gray-Ramp,.White-Street,.cls-10,.cls-11,.cls-12,.cls-19,.cls-8,.cls-9{fill:none}.Gray-Ramp,.Gray-Street,.cls-10,.cls-12,.cls-8{stroke:#bcbec0}.Gray-Ramp,.Gray-Street,.Light-Gray-Ramp,.White-Street{stroke-linejoin:round}.Gray-Ramp,.cls-9{stroke-width:3px}.Gray-Street,.White-Street{stroke-linecap:round}.Gray-Street{stroke-width:6px}.cls-19,.cls-8{stroke-width:4px}.White-Street,.cls-9{stroke:#fff}.White-Street{stroke-width:5px}.Light-Gray-Ramp,.cls-11{stroke:#e7e7e7}.cls-10{stroke-width:17.5px}.cls-11{stroke-width:16.5px}.cls-12{stroke-width:.5px}.cls-13{font-size:11.86px}.cls-13,.cls-27{font-family:AvenirLTStd-Black,Avenir LT Std}.cls-14{font-size:10px;font-family:AvenirLTStd-Roman,Avenir LT Std}.cls-15{letter-spacing:-.02em}.cls-16{letter-spacing:0}.cls-17{font-size:7px;font-family:Avenir-Roman,Avenir}.cls-18{letter-spacing:0}.cls-19,.cls-20{stroke:#000}.cls-20{fill:#ffd200}.cls-21{font-size:11px}.cls-21,.cls-25{font-family:AvenirLTStd-Heavy,Avenir LT Std}.cls-22{letter-spacing:-.03em}.cls-23{fill:#c7c8ca}.cls-24{fill:#ed1b2e}.cls-25{font-size:12px}.cls-26{letter-spacing:-.09em}.cls-27{font-size:10.5px}</style><symbol id="Hwy:_Shield_-_Interstate" data-name="Hwy: Shield - Interstate" viewBox="0 0 13.44 13.47"><path class="cls-4" d="M6.72 13.32A8.14 8.14 0 0 1 .15 5.4 8.51 8.51 0 0 1 2 .18a6.06 6.06 0 0 0 2.35.4A6.32 6.32 0 0 0 6.72.19 6.34 6.34 0 0 0 9.1.58a6.17 6.17 0 0 0 2.37-.4 8.61 8.61 0 0 1 1.82 5.22 8.14 8.14 0 0 1-6.57 7.92z"/><path class="cls-5" d="M.64 2.86A8.21 8.21 0 0 1 1.91.2a6.38 6.38 0 0 0 2.35.37A6.7 6.7 0 0 0 6.72.18a6.71 6.71 0 0 0 2.46.39A6.37 6.37 0 0 0 11.53.2a8.25 8.25 0 0 1 1.27 2.66z"/></symbol><symbol id="Hwy:_I-694" data-name="Hwy: I-694" viewBox="0 0 13.44 13.47"><use width="13.44" height="13.47" xlink:href="#Hwy:_Shield_-_Interstate"/><text class="cls-3" transform="translate(1.3 9.27)">694</text></symbol><symbol id="Compass" data-name="Compass" viewBox="0 0 18 18"><circle class="cls-1" cx="9" cy="9" r="9"/><path class="cls-2" d="M5.77 8.36h2l2.9 4.74V8.36h1.5v6.82h-2l-3-4.85v4.85h-1.4zm-.65-2.29h7.76L9 2.19 5.12 6.07z"/></symbol></defs><title>SuperBowl_PRMap_MaplewoodMall</title><path class="cls-6" d="M0 0h330v280H0z" id="BACKGROUND"/><path class="cls-7" d="M132.78 244.1L122.6 229l-2.68-6.04-2.33-11.13-9.44.69.52 45.57h34.2l-10.09-13.99z" id="State_Fair_Express_lot" data-name="State Fair Express lot"/><g id="ROADS"><path class="Gray-Ramp" d="M157.23 52.58l76.31 9.3 70.97-10.85V44.2l-69.73-12.41-75.07 13.34"/><path class="Gray-Street" d="M333.43 261.67l-338.56-.19M-7.5 82.05h339.3m-227.25 0l-.32 98.96.92 77.66"/><path class="cls-8" d="M105.88 210.27l13.81-1s-.31-6.51-1.86-8.69-5.27-4-5.27-5.27-3.41-22-2.79-23.27 11.48-6.2 13-8.07 26.39-44.07 28.87-45.97 17.68-3.1 25.13-2.48 16.75 10.24 20.16 13.34 12.72 20.16 13.34 26.06.31 25.75 0 28.54.62 14.58 1.55 17.37.62 12.72-.93 17.06-12.1 18.92-25.44 27.3-14.58 10.86-18.3 10.55-9 1.86-13.65.31-9.31-2.17-13-5.89-8.38-12.1-11.48-16.44-5.58-8.07-6.51-11.79-2.17-9.93-2.17-9.93l-.62-2.79"/><path class="cls-9" d="M105.88 210.27l13.81-1s-.31-6.51-1.86-8.69-5.27-4-5.27-5.27-3.41-22-2.79-23.27 11.48-6.2 13-8.07 26.39-44.07 28.87-45.97 17.68-3.1 25.13-2.48 16.75 10.24 20.16 13.34 12.72 20.16 13.34 26.06.31 25.75 0 28.54.62 14.58 1.55 17.37.62 12.72-.93 17.06-12.1 18.92-25.44 27.3-14.58 10.86-18.3 10.55-9 1.86-13.65.31-9.31-2.17-13-5.89-8.38-12.1-11.48-16.44-5.58-8.07-6.51-11.79-2.17-9.93-2.17-9.93l-.62-2.79"/><path class="Gray-Street" d="M236.33 11.94a37.24 37.24 0 0 0-2.48 15.82c.62 8.69.31 21.09.31 21.09l2.48 35.36s-.62 40.64-.62 44.67-5.59 43.12-6.21 45.6.62 30.09.62 33.81v75.07"/><path class="White-Street" d="M104.55 82.05l-.32 98.96.92 78.57"/><path class="cls-9" d="M105.88 210.27l13.81-1s-.31-6.51-1.86-8.69-5.27-4-5.27-5.27-3.41-22-2.79-23.27 11.48-6.2 13-8.07 26.39-44.07 28.87-45.97 17.68-3.1 25.13-2.48 16.75 10.24 20.16 13.34 12.72 20.16 13.34 26.06.31 25.75 0 28.54.62 14.58 1.55 17.37.62 12.72-.93 17.06-12.1 18.92-25.44 27.3-14.58 10.86-18.3 10.55-9 1.86-13.65.31-9.31-2.17-13-5.89-8.38-12.1-11.48-16.44-5.58-8.07-6.51-11.79-2.17-9.93-2.17-9.93l-.62-2.79"/><path class="White-Street" d="M-7.5 82.05h339.3m1.63 179.62l-338.56-.19"/><path class="Light-Gray-Ramp" d="M157.23 52.58l76.31 9.3 70.97-10.85V44.2l-69.73-12.41-75.07 13.34"/><path class="White-Street" d="M236.33 11.94a37.24 37.24 0 0 0-2.48 15.82c.62 8.69.31 21.09.31 21.09l1.42 20.29.25 3.52.31 4.44.5 7.12s-.62 40.64-.62 44.67-5.59 43.12-6.21 45.6.62 30.09.62 33.81v75.07"/><path class="cls-10" d="M331.98 47.8l-97.62.79H-2.77"/><path class="cls-11" d="M331.98 47.8l-97.62.79H-2.77"/><path class="cls-12" d="M331.98 47.8l-97.62.79H-2.77"/><path class="Light-Gray-Ramp" d="M206.85 36.76l-47.14 8.37m87.94 14.6l56.86-8.7V44.2l-50.03-8.9m-97.25 17.28l55.44 6.76"/></g><g id="ICONS"><use width="13.44" height="13.47" transform="translate(129.61 41.38)" xlink:href="#Hwy:_I-694"/><use width="18" height="18" transform="matrix(.85 0 0 .85 17.38 247.38)" xlink:href="#Compass"/><text class="cls-13" transform="translate(116.58 250.38)" id="Park_And_Ride_locations" data-name="Park And Ride locations">3</text></g><g id="TYPE"><g id="type:_Streets" data-name="type: Streets"><text class="cls-14" transform="translate(16.16 76.85)">County Road D</text><text class="cls-14" transform="rotate(90 10.785 99.055)">Southlawn Dr</text><text class="cls-14" transform="rotate(90 34.275 202.045)">White Bear <tspan class="cls-15" x="52.8" y="0">A</tspan><tspan x="59.66" y="0">ve N</tspan></text><text class="cls-14" transform="translate(262.16 257.18)">Beam <tspan class="cls-15" x="28.35" y="0">A</tspan><tspan class="cls-16" x="35.21" y="0">ve</tspan></text></g><text class="cls-17" transform="translate(135.26 156.1)">Maplewood Ma<tspan class="cls-18" x="49.54" y="0">l</tspan><tspan x="51.22" y="0">l</tspan></text></g><g id="Boarding_location" data-name="Boarding location"><path d="M77.48 210.89l29.22 18.29"/><path class="cls-19" d="M77.48 210.89l23.87 14.94"/><path d="M104.39 219.13l-7.74 12.36 10.05-2.31-2.31-10.05zm-26.91-8.24l29.22 18.29"/><path d="M98.77 227.17l-23.04-14.43 2.65-4.24 23.04 14.43 3.18-5.08 2.7 11.71-11.71 2.69 3.18-5.08z"/><path class="cls-2" d="M78.54 209.19l23 14.42 2.81-4.48 2.31 10-10 2.31 2.8-4.44-23-14.42 2.12-3.39m-.32-1.38l-.53.85-2.12 3.39-.53.85.85.53 22.19 13.89L95.8 231l-1.28 2 2.35-.54 10-2.31 1-.22-.22-1-2.31-10-.54-2.35-1.28 2-2.28 3.64-22.17-13.87-.85-.53z"/><path class="cls-20" d="M6.6 161.86h91.33v49.84H6.6z"/><text class="cls-21" transform="translate(10.74 174.46)">BOARD SUPER <tspan x="0" y="11">BOWL EVENT </tspan><tspan x="0" y="22">SHUTTLE ON </tspan><tspan x="0" y="33">SOUTHL</tspan><tspan class="cls-22" x="43.59" y="33">A</tspan><tspan x="51.26" y="33">WN</tspan></text></g><path class="cls-23" d="M329 1v278H1V1h328m1-1H0v280h330V0z" id="border"/><g id="Header"><path class="cls-24" d="M0 0h330v27.77H0z"/><text class="cls-25" transform="translate(34.75 18.19)">Maplewood Mall <tspan class="cls-26" x="97.77" y="0">T</tspan><tspan x="103.56" y="0">ransit Center</tspan></text><text class="cls-27" transform="translate(15.89 17.52)">3</text></g></svg>