<svg xmlns="http://www.w3.org/2000/svg" xmlns:xlink="http://www.w3.org/1999/xlink" viewBox="0 0 330 280"><defs><style>.cls-1{fill:#58595b}.cls-11,.cls-15,.cls-18,.cls-2,.cls-4,.cls-7{fill:#fff}.cls-3{font-size:7px;font-family:AvenirNextLTPro-DemiCn,Avenir Next LT Pro;letter-spacing:-.05em}.cls-3,.cls-5{fill:#231f20}.cls-4{stroke:#231f20;stroke-width:.3px}.cls-6{fill:#f5f1e9}.cls-7{stroke:#ed1b2e;stroke-miterlimit:10}.Light-Gray-Ramp,.cls-7{stroke-width:2px}.Gray-Ramp,.Gray-Street,.Light-Gray-Ramp,.White-Street,.cls-10,.cls-8,.cls-9{fill:none}.Gray-Ramp,.Gray-Street,.cls-10,.cls-8{stroke:#bcbec0}.Gray-Ramp,.Gray-Street,.Light-Gray-Ramp,.White-Street{stroke-linejoin:round}.Gray-Ramp{stroke-width:3px}.Gray-Street,.White-Street{stroke-linecap:round}.Gray-Street{stroke-width:6px}.cls-8{stroke-width:17.5px}.Light-Gray-Ramp,.cls-9{stroke:#e7e7e7}.cls-9{stroke-width:16.5px}.cls-10{stroke-width:.5px}.White-Street{stroke:#fff;stroke-width:5px}.cls-11{font-size:14px}.cls-11,.cls-18{font-family:AvenirLTStd-Black,Avenir LT Std}.cls-12{font-size:10px;font-family:AvenirLTStd-Roman,Avenir LT Std}.cls-13{fill:#c7c8ca}.cls-14{fill:#ed1b2e}.cls-15{font-size:12px;font-family:AvenirLTStd-Heavy,Avenir LT Std}.cls-16{letter-spacing:-.02em}.cls-17{letter-spacing:0}.cls-18{font-size:10.5px}</style><symbol id="Hwy:_Shield_-_Interstate" data-name="Hwy: Shield - Interstate" viewBox="0 0 13.44 13.47"><path class="cls-4" d="M6.72 13.32A8.14 8.14 0 0 1 .15 5.4 8.51 8.51 0 0 1 2 .18a6.06 6.06 0 0 0 2.35.4A6.32 6.32 0 0 0 6.72.19 6.34 6.34 0 0 0 9.1.58a6.17 6.17 0 0 0 2.37-.4 8.61 8.61 0 0 1 1.82 5.22 8.14 8.14 0 0 1-6.57 7.92z"/><path class="cls-5" d="M.64 2.86A8.21 8.21 0 0 1 1.91.2a6.38 6.38 0 0 0 2.35.37A6.7 6.7 0 0 0 6.72.18a6.71 6.71 0 0 0 2.46.39A6.37 6.37 0 0 0 11.53.2a8.25 8.25 0 0 1 1.27 2.66z"/></symbol><symbol id="Hwy:_I-35W" data-name="Hwy: I-35W" viewBox="0 0 13.44 13.47"><use width="13.44" height="13.47" xlink:href="#Hwy:_Shield_-_Interstate"/><text class="cls-3" transform="matrix(.95 0 0 1 1 9.23)">35W</text></symbol><symbol id="Compass" data-name="Compass" viewBox="0 0 18 18"><circle class="cls-1" cx="9" cy="9" r="9"/><path class="cls-2" d="M5.77 8.36h2l2.9 4.74V8.36h1.5v6.82h-2l-3-4.85v4.85h-1.4zm-.65-2.29h7.76L9 2.19 5.12 6.07z"/></symbol></defs><title>SuperBowl_PRMap_95thAve</title><path class="cls-6" d="M0 0h330v280H0z" id="BACKGROUND"/><path class="cls-7" d="M168.25 176.58l10.53 2.35 40.44-17.21 6.03-27.54 19.31-25.13L274.3 85.1l4.72-7.71V47.27h-43.45v15.56L177 138.58l-8.75 38z" id="State_Fair_Express_lot" data-name="State Fair Express lot"/><g id="ROADS"><path class="Gray-Ramp" d="M238.07 159.08s-48.16 17.51-68.29 36.77-19.26 52.53-19.26 52.53"/><path class="Gray-Street" d="M29.68 232.72S21.3 200.16 45 202s37.43 20.16 51.2 15.31 68-39.26 68-39.26l9-41.31L231.7 61v-94"/><path class="Gray-Ramp" d="M150.51 248.39l-35.89 148.84m146.96-148.84s19.21-16.79 4.51-39.4c-11.38-17.51-48.59 3.5-48.59 3.5m54.13 35.9a23.21 23.21 0 0 0 10.22-19.26c0-13.13-6.13-60.41 0-84.93S365.9 25.12 365.9 25.12"/><path class="cls-8" d="M450.54-55.14s-308.2 207.8-357.23 607.06"/><path class="cls-9" d="M450.54-55.14s-308.2 207.8-357.23 607.06"/><path class="cls-10" d="M450.54-55.14s-308.2 207.8-357.23 607.06"/><path class="Gray-Street" d="M473.6 248.39h-387s-125.21-1.84-125.21-144.95V-78.2"/><path class="Light-Gray-Ramp" d="M238.07 159.08s-48.16 17.51-68.29 36.77-19.26 52.53-19.26 52.53m-.01.01l-35.89 148.84m146.96-148.84s19.21-16.79 4.51-39.4c-11.38-17.51-48.59 3.5-48.59 3.5m54.13 35.9a23.21 23.21 0 0 0 10.22-19.26c0-13.13-6.13-60.41 0-84.93S365.9 25.12 365.9 25.12"/><path class="White-Street" d="M29.68 232.72S21.3 200.16 45 202s37.43 20.16 51.2 15.31 68-39.26 68-39.26l9-41.31L231.7 61v-94"/><path class="White-Street" d="M473.6 248.39h-387s-125.21-1.84-125.21-144.95V-78.2"/></g><g id="ICONS"><use width="13.44" height="13.47" transform="translate(265.91 114.42)" xlink:href="#Hwy:_I-35W"/><use width="18" height="18" transform="translate(16 41)" xlink:href="#Compass"/><text class="cls-11" transform="translate(217.56 112.51)" id="Park_And_Ride_locations" data-name="Park And Ride locations">2</text></g><g id="TYPE"><g id="type:_Streets" data-name="type: Streets"><text class="cls-12" transform="translate(217.66 243.56)">Lowell Rd</text><text class="cls-12" transform="matrix(.87 -.48 .48 .87 101.78 208.56)">Naples St</text></g></g><path class="cls-13" d="M329 1v278H1V1h328m1-1H0v280h330V0z" id="border"/><g id="Header"><path class="cls-14" d="M0 0h330v27.77H0z"/><text class="cls-15" transform="translate(34.75 18.19)">95th <tspan class="cls-16" x="29.32" y="0">A</tspan><tspan class="cls-17" x="37.76" y="0">venue Park &amp; Ride, Blaine</tspan></text><text class="cls-18" transform="translate(15.89 17.52)">2</text></g></svg>