<svg xmlns="http://www.w3.org/2000/svg" version="1" width="1043pt" height="1010pt"><g fill="#d3d3d3"><path d="M299.71 1028.73c-53.522-14.135-47.759-11.978-50.937-19.062l-2.679-5.968 2.172-11.051c2.29-11.654 2.164-14.603-.889-20.685l-6.493-12.94c-2.535-5.051-5.561-12.026-6.726-15.5-1.164-3.474-3.42-8.293-5.014-10.71-1.594-2.416-3.195-6.016-3.558-8-.364-1.983-1.947-5.084-3.519-6.89-1.571-1.807-2.857-3.763-2.857-4.346 0-.583-.935-2.374-2.077-3.978-1.202-1.688-2.479-5.752-3.03-9.644-.6-4.238-1.846-8.025-3.367-10.237-1.328-1.93-2.872-4.733-3.433-6.227-.56-1.494-2.604-3.744-4.543-5-3.475-2.25-4.759-5.919-2.55-7.284.55-.34 1-3.116 1-6.17 0-5.432 6.559-24.262 51.175-146.92l4.034-11.09 22.146 7.364c12.18 4.05 30.695 9.87 41.145 12.932 10.45 3.062 28.866 8.454 40.924 11.983s22.034 6.527 22.17 6.662c.66.66-2.974 15.338-3.96 15.998-.624.418-2.22 1.047-3.546 1.4-2.51.666-13.009 11.042-13.06 12.906-.015.586 1.579 1.831 3.543 2.768 3.436 1.638 3.679 1.626 6.44-.34 1.58-1.125 3.163-2.967 3.521-4.094.358-1.127.857-1.843 1.11-1.59.252.252-1.314 7.823-3.48 16.825a41688.296 41688.296 0 0 0-18.165 75.866c-3.347 14.025-7.17 30-8.494 35.5a33322.205 33322.205 0 0 0-15.836 66c-16.972 71.239-15.539 65.555-16.484 65.36-.376-.078-6.983-1.805-14.683-3.838zm-212.5-52.282c-6.387-4.062-16-16.636-16-20.927 0-2.385-.59-3.21-2.936-4.095-2.97-1.12-5.242-5.011-6.552-11.218-.349-1.65-1.649-4.575-2.89-6.5-1.24-1.925-3.043-5.525-4.005-8-.962-2.475-3.576-7.545-5.808-11.267-2.45-4.084-4.56-9.237-5.323-13-.696-3.428-1.868-7.708-2.606-9.511-1.283-3.14-1.213-3.383 1.64-5.715 1.639-1.339 3.845-2.45 4.903-2.47 1.977-.038 7.936 5.692 17.577 16.9 3.025 3.516 5.957 6.882 6.514 7.478.558.597 2.572 3.11 4.474 5.585 1.903 2.475 3.72 4.725 4.038 5 1.398 1.212 3.938 10.039 4.572 15.889.606 5.598 1.304 7.197 5.637 12.922 5.769 7.621 6.258 8.745 7.218 16.56.397 3.23 1.323 7.576 2.058 9.66.735 2.084 1.07 4.054.746 4.379-1.502 1.502-9.943.439-13.257-1.67z"/><path d="M245.71 1014.143c-.912-.266-21.51-6.668-37.5-11.655-5.514-1.72-63.946-23.626-88-32.992-4.125-1.606-8.85-3.414-10.5-4.018-3.82-1.397-4.466-2.409-4.485-7.03-.01-2.587-.67-4.302-2.115-5.5-5.814-4.816-7.9-7.23-7.9-9.14 0-1.155-.389-2.1-.864-2.1-2.425 0-5.92-5.317-6.533-9.938-.993-7.484-4.329-13.995-10.232-19.972-5.284-5.352-5.337-5.465-4.754-10.25.478-3.922.301-4.84-.93-4.84-.836 0-1.67-.354-1.854-.787-.183-.433-2.47-2.026-5.083-3.542-2.612-1.515-4.784-3.298-4.826-3.963-.043-.664-.263-2.108-.49-3.208-.56-2.698-.613-4.475-.458-15.207.13-8.959.215-9.276 3.172-11.763 2.795-2.353 2.95-2.808 1.945-5.693-.601-1.724-1.093-4.909-1.093-7.077 0-2.988-.977-5.335-4.04-9.702-3.386-4.827-3.95-6.31-3.474-9.159.312-1.87 1.49-4.173 2.617-5.12 2.274-1.911 2.062-3.481-1.392-10.279-1.739-3.422-2.028-5.87-2.001-16.953.03-12.53.114-13.037 2.578-15.5 1.401-1.4 4.938-3.447 7.86-4.547 7.189-2.707 12.852-7.84 12.852-11.648 0-3.993 2.161-8.69 5.881-12.782 2.783-3.06 3.119-4.094 3.119-9.584 0-5.57-.283-6.407-2.984-8.814-3.426-3.053-9.406-14.364-11.055-20.91-.97-3.852-.758-5.97 1.57-15.706 2.376-9.937 2.564-11.913 1.606-16.904-.597-3.108-1.34-9.927-1.65-15.152-.312-5.225-.765-10.446-1.009-11.602-.243-1.156-.697-3.856-1.01-6-.312-2.144-1.905-9.523-3.54-16.398-1.634-6.875-3.194-13.51-3.467-14.743-.31-1.403-1.873-2.82-4.17-3.78-7.013-2.93-7.93-2.895-9.86.37-1.296 2.195-3.428 3.607-7.855 5.205-3.342 1.206-7.848 3.038-10.014 4.07-2.166 1.033-4.042 1.878-4.17 1.878-.127 0 .165-1.462.65-3.25 1.354-4.999.466-17.044-1.474-20.006-2.056-3.138-1.78-12.421.355-11.952.73.16 10.834 6.512 22.452 14.115 31.672 20.724 66.287 41.781 83.125 50.566 8.25 4.305 15.45 8.144 16 8.532 2.721 1.918 33.566 17.537 45 22.786 7.15 3.283 22.675 9.694 34.5 14.248 11.825 4.553 21.859 8.59 22.298 8.968.439.38.342 1.77-.215 3.091-.558 1.321-5.787 15.677-11.62 31.902-5.834 16.225-12.343 34.225-14.463 40-23.148 63.047-28 77.316-28 82.34 0 3.007-.632 6.118-1.493 7.347-2.165 3.091-.932 7.416 2.798 9.813 4.662 2.997 10.706 14.21 11.428 21.202.395 3.827 1.54 7.235 3.43 10.216 1.56 2.46 2.837 4.924 2.837 5.474 0 .55 1.059 2.149 2.353 3.554 1.294 1.405 2.931 4.704 3.637 7.33.707 2.627 1.681 5.021 2.166 5.321 1.269.784 5.434 9.373 6.258 12.903.385 1.65 3.906 9.491 7.825 17.424 4.12 8.34 7.13 15.721 7.137 17.5.007 1.692-.774 7.295-1.734 12.45-1.8 9.664-1.539 13.828 1.125 17.893 1.551 2.368 1.47 3.175-.267 2.668zM16.45 825.441c-4.062-9.402-5.558-20.584-4.897-36.592.385-9.317 1.038-14.895 1.86-15.885.697-.84 1.274-2.253 1.282-3.141.024-2.604 4.346-2.497 8.345.206 4.788 3.237 11.17 9.582 11.17 11.105 0 .66-4.05 5.418-9 10.574-10.517 10.956-10.656 11.526-6.512 26.507 1.368 4.947 2.493 9.78 2.5 10.743.024 3.495-2.54 1.595-4.748-3.517zm476.979-58.889l-.719 6.313c-.398 3.48-.853 7.018-1 7.843-.147.825-.596 3.975-1 7s-.85 6.175-1 7c-.15.825-1.047 7.308-2 14.407-1.635 12.172-1.64 13.088-.031 15.812 1.67 2.828 1.65 2.946-1.125 6.438-1.559 1.961-3.344 4.318-3.969 5.218-.625.901-1.465 7.475-1.844 14.625-.378 7.15-.827 14.8-1 17-.172 2.2-.612 8.05-.968 13-.357 4.95-.82 11.7-1.063 15-1.008 13.727-1.452 19.413-2 27a1309.1 1309.1 0 0 1-1 13c-.234 2.75-.692 9.5-1.031 15-.34 5.5-.779 11.8-.969 14-.19 2.2-.63 8.725-1 14.5s-.821 12.075-1 14c-.179 1.925-.649 8.675-1.031 15-.383 6.325-.814 12.175-.969 13-.512 2.73-1.883 25.385-1.937 32l-.063 6.5 6 .594c9.621.977 18.803 2.01 21.5 2.406 1.375.202 4.975.634 8 .97 5.833.645 9.147 1.033 18 2.093 3.025.362 9.775.956 15 1.312 5.225.357 14.075.772 19.656.938l10.125.312.625-4.812c.33-2.648.83-10.213 1.125-16.813.296-6.6.74-15.15.969-19 .229-3.85.678-13.75 1-22 1.113-28.574 1.432-31.54 3.813-35.53 1.218-2.044 8.308-10.191 15.78-18.095 7.473-7.903 15.577-16.604 18-19.343 2.424-2.74 4.857-5.505 5.407-6.125 9.624-10.85 14.252-16.163 19.438-22.375 3.431-4.111 9.35-10.917 13.156-15.125 3.806-4.209 8.462-9.401 10.344-11.532 1.881-2.13 5.686-6.35 8.468-9.375 2.782-3.025 5.086-5.985 5.094-6.562.016-1.12-5.231-3.285-9.75-4.031-6.916-1.142-8.82-1.799-9.969-3.438-.967-1.381-2.558-1.738-7.312-1.625-3.33.08-6.358.647-6.75 1.25-.807 1.241-12.373 2.677-14.625 1.813-1.023-.393-1.225-1.204-.688-2.657.783-2.114.609-3.347-2.218-16.75-2.031-9.625-2.552-12.492-3.25-18-.8-6.313-3.36-8.243-13.813-10.437-6.693-1.405-8.957-2.311-9.844-3.938-1.249-2.29-1.223-10.194.063-20.875l.812-6.75-5.343-.125c-2.927-.068-5.65-.213-6.063-.312-.412-.099-4.125-.527-8.25-.969-4.125-.442-8.175-.92-9-1.062-.825-.142-4.626-.597-8.438-1-3.811-.404-7.861-.883-9-1.063-1.138-.18-4.762-.599-8.062-.937-3.3-.339-9.6-1.007-14-1.5-4.4-.493-10.7-1.154-14-1.47a480.4 480.4 0 0 1-10.656-1.155l-4.625-.563zm28.594 171.875c3.857.033 6.44 1.84 8.375 5.656 1.151 2.273 2.418 4.35 2.812 4.625 1.873 1.308 6.448 13.462 5.594 14.844-.54.875 1.256 6.39 3.219 9.906.686 1.23 1.14 4.606 1.03 7.5-.208 5.557 3.1 17.807 6.25 23.22 1.27 2.178 1.85 5.693 2.063 12.53.293 9.368.245 9.506-2.125 9.844-1.322.189-3.24 1.426-4.281 2.75-2.164 2.751-3.985 3.047-6.063.969-1.709-1.71-1.184-8.865.875-12.031.729-1.12 1.565-3.315 1.844-4.875.28-1.56 1.06-3.513 1.75-4.344 1.997-2.406 1.92-4.777-.187-6.094-1.647-1.028-2.133-.908-3.188.781-1.364 2.185-3.781 2.7-3.781.813 0-.649.528-2.607 1.156-4.344 2.694-7.448-1.692-13.875-7.968-11.687-2.561.892-3.289.731-4.97-1.125-1.077-1.191-2.638-4.276-3.5-6.875-.86-2.6-2.679-6.2-4.03-8-1.738-2.315-2.345-4.16-2.032-6.282.404-2.734.029-3.23-4.437-5.562-6.505-3.398-9.143-2.412-9.344 3.469-.077 2.253-.29 6.343-.469 9.093-.89 13.741-.893 13.76 3.188 17 8.765 6.961 9.467 7.854 10.875 14 .756 3.3 1.352 7.622 1.344 9.594-.009 1.972 1.163 5.897 2.593 8.719 3.342 6.595 3.48 11.722.344 12.562-3.3.885-4.557.773-5.344-.5-.683-1.105-3.438-13.844-5.375-24.75-1.094-6.164-2.55-8.078-9.531-12.593-5.54-3.584-8.223-6.387-7.937-8.282.103-.687.243-2.126.312-3.187.069-1.06.747-2.528 1.5-3.281.892-.892 1.337-3.693 1.313-8-.037-6.61-.014-6.597-3.844-8.75-4.278-2.405-5.844-4.669-5.844-8.47 0-2.06.49-2.562 2.469-2.562 3.706 0 4.959-3.186 2.5-6.312-1.088-1.383-1.969-3.01-1.969-3.625 0-1.315 4.695-3.371 7.406-3.25 2.4.107 7.594 5.024 7.594 7.187 0 .902 1.046 2.623 2.313 3.813l2.28 2.156 1.345-3.625c2.233-6.175 6.289-11.302 9.562-12.062 1.596-.37 3.026-.574 4.313-.563zm547.76 178.558c-2.275-.58-5.015-3.685-6.653-7.54-.645-1.519-2.174-3.013-3.397-3.32-4.056-1.018-10.466-17.709-10.528-27.417-.022-3.333-.608-5.047-2.262-6.613-3.891-3.683-9.126-6.379-12.394-6.383l-3.161-.004-.39-6.25c-.215-3.437-.228-6.587-.03-7 .198-.412 3.146-.784 6.551-.826 7.351-.09 11.438-1.445 15.603-5.175 1.889-1.69 5.94-3.537 10.512-4.791 6.91-1.896 7.705-1.93 11.168-.483 3.556 1.485 3.821 1.459 5.714-.572 4.062-4.361 15.749-7.833 15.659-4.653-.02.688-.679 2.375-1.465 3.75-2.117 3.703-1.909 12.21.37 15.116 1.028 1.311 2.194 3.87 2.59 5.687.442 2.02 2.523 5.028 5.363 7.75 4.457 4.27 4.885 4.447 10.743 4.447 3.355 0 6.361.26 6.68.58.318.317-1.669 2.905-4.415 5.75-2.747 2.843-6.134 7.575-7.528 10.514-3.563 7.51-16.072 20.156-19.939 20.156-2.187 0-3.172.67-4.114 2.797-1.812 4.094-8.356 6.092-14.677 4.48zm111.547-109.851c-2.765-3.515-2.688-7.782.21-11.742 3.077-4.203 3.418-9.311.68-10.18-2.577-.818-2.544-2.903.112-7.2 1.899-3.073 2.054-4.348 1.473-12.119-1.047-13.991-.73-30.411.902-46.685.11-1.1.545-5.586.965-9.97.887-9.242 2.73-12.605 9.913-18.09 3.929-3 4.976-3.393 6.239-2.345 3.75 3.112 4.516 6.665 4.07 18.86-.238 6.506-.68 12.23-.984 12.722-.304.492-.842 3.578-1.197 6.859l-.645 5.964 2.535-3c1.394-1.65 2.551-3.307 2.571-3.682.08-1.502 4.227-1.878 7.532-.683 3.71 1.342 3.807 1.525 3.529 6.615l-.178 3.25h5.017c2.76 0 5.258-.388 5.551-.862.294-.475 2.683-1.457 5.31-2.182 2.626-.726 7.025-2.358 9.775-3.627 4.97-2.293 9.466-2.37 13.618-.232 2.176 1.12 3.157 6.49 1.632 8.933-1.016 1.626-.888 2.277.773 3.937 1.713 1.714 2.688 1.88 7.028 1.193 6.387-1.01 7.449-.624 7.449 2.701 0 2.834-2.062 6.455-5.347 9.39-1.078.962-1.44 1.75-.806 1.75.646 0 1.153 1.503 1.153 3.418 0 1.88.273 4.13.607 5 .702 1.83 2.393 2.131 2.393.426 0-1.857 4.97-7.845 6.51-7.845.778 0 1.947 1.793 2.608 4 1.365 4.555 2.727 4.914 6.91 1.821 1.621-1.198 3.29-1.833 3.71-1.41.419.421.867 3.764.995 7.428.129 3.664.307 8.34.397 10.39.237 5.385-3.823 11.246-8.01 11.566-2.514.191-3.378-.267-4.294-2.278-1.438-3.156-2.144-3.16-3.826-.017-2.72 5.082-4.95 1.934-6.135-8.663-.868-7.758-2.001-10.837-3.987-10.837-.483 0-.878 1.645-.878 3.655 0 2.953-.756 4.374-3.934 7.397-3.56 3.387-4.03 4.433-4.941 11.014-1.341 9.68-3.735 12.252-11.587 12.458-6.767.177-7.282-1.438-2.038-6.385 2.853-2.691 3.5-4.032 3.5-7.255 0-3.73-.121-3.89-2.14-2.809-3.792 2.03-8.146 2.933-9.344 1.939-1.199-.995-2.909-.23-12.958 5.8-3.037 1.821-6.767 3.51-8.29 3.75-1.522.24-4.31.697-6.195 1.015-1.885.318-7.96 2.392-13.5 4.61l-11.203 4.482c-.62.248-2.083-.762-3.25-2.245zm-124.3-71.917c-.176-.165-2.034-.526-4.129-.802-2.094-.276-4.674-1.287-5.733-2.245-1.526-1.38-3.123-1.639-7.692-1.243-7.317.634-8.074.33-8.792-3.541-1.192-6.423-1.322-7.2-1.398-8.356-.042-.648-.767-1.87-1.611-2.714-1.38-1.38-1.86-1.337-4.75.425-1.768 1.078-4.158 1.962-5.31 1.964-2.54.004-6.04-3.486-4.47-4.456 1.14-.705 1.41-6.654.461-10.19-.36-1.344-2.132-2.75-4.736-3.76-7.374-2.859-15.149-14.94-12.636-19.636.576-1.075 1.492-1.955 2.036-1.955 1.031 0 2.775-3.837 3.296-7.253.167-1.09 1.256-2.715 2.422-3.614 1.166-.898 2.565-2.828 3.11-4.29.948-2.54 1.183-2.615 5.302-1.715 2.37.519 5.435 1.717 6.81 2.664 3.522 2.426 7.166 1.696 9.522-1.906 1.895-2.897 2.19-2.995 6.978-2.324 2.75.385 5.795.67 6.767.63 1.433-.057 1.694.587 1.384 3.402-.21 1.909-.555 3.587-.767 3.73-4.447 2.986-7.866 6.041-8.31 7.426-.31.963-1.914 2.65-3.565 3.75-3.515 2.341-3.726 3.541-1.049 5.964 2.395 2.168 8.3 1.406 10.261-1.324 2.347-3.267 7.365-5.078 11.008-3.972 4.717 1.434 8.34-.264 10.42-4.882 1.757-3.899 1.963-9.073.424-10.612-.497-.498-1.776.03-2.973 1.226-1.314 1.315-3.38 2.1-5.518 2.1-7.53 0-8.203-2-3.582-10.66 1.65-3.091 3-6.645 3-7.897 0-3.02-3.307-10.623-5.363-12.33-.9-.746-1.637-2.093-1.637-2.993 0-2.79-4.995-11.483-8.226-14.318-2.114-1.855-3.313-4.043-3.834-7-.417-2.366-1.28-7.227-1.916-10.802-.637-3.575-1.185-9.425-1.218-13-.07-7.53-1.932-11.558-5.717-12.368-1.424-.305-4.052-1.465-5.839-2.578-3.615-2.252-4.21-5.237-1.746-8.756 1.048-1.497 1.242-2.851.638-4.472-.888-2.387-.853-3.31.33-8.702.757-3.445.201-3.648-8.902-3.263-2.162.092-3.691-.072-3.4-.364.293-.293-.23-3.786-1.163-7.764-1.329-5.672-2.113-7.295-3.636-7.524-1.068-.16-2.437-1.084-3.041-2.053-1.423-2.278-5.545-17.274-4.92-17.9 1.047-1.046 12.68 9.263 16.731 14.826 2.371 3.255 5.078 5.918 6.017 5.918.938 0 2.644 1.319 3.792 2.93 1.147 1.611 3.599 3.865 5.448 5.007 2.195 1.357 4.108 3.812 5.51 7.07 1.381 3.211 2.762 4.998 3.87 5.006.947.007 2.697 1.518 3.889 3.359 1.678 2.591 3.084 3.493 6.234 3.997 3.51.561 4.37 1.231 6.269 4.89 1.21 2.333 2.455 6.027 2.766 8.209.528 3.717.855 4.05 5.177 5.27 2.536.715 5.38 2.149 6.317 3.185 1.554 1.717 1.576 2.32.244 6.803-1.226 4.13-1.247 5.308-.129 7.347.733 1.335 1.57 3.552 1.86 4.927.457 2.162 1.988 3.008 11.312 6.251 5.93 2.063 11.589 3.75 12.573 3.75.985 0 3.513 1.865 5.619 4.146l3.828 4.146 8.882.41c4.884.225 10.59 1.064 12.677 1.864 3.898 1.493 6.332.949 9.379-2.099.955-.954 2.785-.787 8.52.78 4.018 1.097 7.574 2.42 7.904 2.938 1.288 2.03-.383 5.69-3.115 6.821-1.548.641-5.214 3.884-8.149 7.206-2.934 3.322-6.685 7.47-8.335 9.219l-7.673 8.123c-4.78 5.058-6.993 11.06-4.44 12.04 2.128.817 12.414-10.019 13.13-13.83.443-2.367 2.96-5.874 8.31-11.58 6.937-7.4 8.03-8.185 11.387-8.185 3.078 0 4.106.568 6 3.313 1.912 2.77 2.695 3.196 4.786 2.6 4.701-1.34 9.682-.95 12.115.95 1.312 1.023 5.085 3.352 8.385 5.175s6.13 3.402 6.287 3.509c.158.107-.25 1.377-.909 2.821-1.684 3.696.29 9.735 4.589 14.033 3.28 3.28 7.533 10.398 7.533 12.608 0 1.649-6.808 12.069-10.25 15.69l-3.041 3.197-4.08-5.198c-2.244-2.859-4.513-5.501-5.042-5.872-.529-.371-2.565.13-4.524 1.114-1.96.984-5.921 2.344-8.803 3.022-2.883.678-8.508 2.49-12.5 4.025a4601.256 4601.256 0 0 1-18.26 6.956c-6.05 2.29-13.15 5.057-15.776 6.15-9.537 3.965-30.32 11.15-34.224 11.831-3.245.566-5.052.181-9.567-2.035-3.062-1.503-6.03-2.43-6.595-2.06-.565.369-1.085 2.471-1.155 4.671-.156 4.938-1.239 13.865-1.744 14.384-.481.495-5.196 1.02-5.618.625zm46.84 214.169c-5.844-1.264-8.686-4.567-11.05-12.85-1.158-4.052-1.346-6.392-.66-8.198 1.467-3.856 8.09-13.629 12.436-18.35 2.137-2.322 4.489-5.083 5.226-6.136.738-1.053 2.475-2.2 3.861-2.547 2.842-.714 11.527-6.563 11.527-7.764 0-1.041-4.488.7-9.807 3.804-9.246 5.397-7.949-3.368 2.206-14.904 4.464-5.072 5.524-5.771 8.596-5.674 9.53.3 20.23-1.4 23.723-3.771 2.169-1.472 4.168-2.133 5.161-1.708.892.382 3.704.77 6.25.863 5.272.192 9.436 2.508 11.108 6.179 1.067 2.34.699 2.962-5.295 8.948-3.543 3.538-7.117 7.147-7.942 8.02-3.555 3.762-12.35 10.46-14.418 10.98-1.319.33-3.455 2.625-5.166 5.548-2.677 4.575-3.172 4.945-6.043 4.516-2.588-.387-3.321-.043-4.25 1.996-.618 1.356-1.123 2.925-1.123 3.487 0 .562-1.354 4.275-3.009 8.25-2.274 5.462-4.606 8.864-9.549 13.93-3.597 3.687-6.63 6.641-6.741 6.566-.11-.076-2.379-.609-5.04-1.185zm67.315-75.959c-.838-.67-3.709-3.577-6.379-6.46-3.56-3.844-4.581-5.578-3.83-6.5.563-.692 2.414-5.424 4.112-10.516 3.443-10.32 6.69-17.243 8.086-17.243 1.766 0 4.036 4.469 4.05 7.973.022 5.702.969 7.807 3.83 8.514 3.485.86 8.156 5.365 8.156 7.863 0 1.086-1.397 4.152-3.104 6.813-2.252 3.509-3.744 4.837-5.432 4.837-1.445 0-3.138 1.138-4.464 3-2.369 3.327-2.819 3.481-5.025 1.719z"/><path d="M212.273 374.958c-1.697-.029-4.132.28-7.625.72-5.371.675-10.36 1.436-11.094 1.718-.961.369-1.2 1.867-.844 5.344.576 5.628-.7 7.104-3.062 3.5-.913-1.393-1.975-2.532-2.344-2.532-1.668 0-16.203 26.309-19.063 34.5-1.728 4.95-3.799 10.001-4.593 11.22-2.298 3.521-1.75 4.52 4.843 9 14.004 9.512 14.385 10.467 8.625 22.28-2.01 4.125-3.891 9.382-4.156 11.688-.448 3.906-.21 4.406 3.406 7.312 2.135 1.716 3.691 3.465 3.438 3.875-.254.41-.59 3.344-.719 6.532-.25 6.174-1.439 8.207-5.469 9.218-2.83.71-4.406 3.14-4.406 6.813 0 1.411-.416 2.562-.906 2.562-.49 0-1.168 1.179-1.531 2.625-.481 1.916-.12 3.222 1.375 4.813 1.428 1.52 2.056 3.538 2.062 6.625.005 2.62.991 6.452 2.406 9.375 1.651 3.41 2.24 5.973 1.875 8.219-.355 2.187.149 4.566 1.532 7.218 2.025 3.887 2.018 4.035.25 9.875-2.396 7.911-4.82 21.129-5.47 29.75-.289 3.85-.798 7.916-1.124 9.032-.38 1.3.187 2.917 1.562 4.5 2.66 3.06 4.268 6.858 5.938 13.968 1.503 6.4 3.428 10.596 6.312 13.75l2.063 2.25-2.156 2.313c-1.435 1.527-2.188 3.587-2.188 6.062 0 2.064-.482 4.635-1.062 5.72-.948 1.77-.414 2.264 5.25 4.843 3.467 1.58 8.045 4.06 10.156 5.5 3.044 2.078 4.542 2.477 7.25 1.969 4.048-.76 3.764-1.785 3.844 14.437l.062 12.344 11 4.437c35.703 14.424 77.83 28.78 118.5 40.375 11.825 3.372 28.025 8.091 36 10.5 7.975 2.41 15.85 4.647 17.5 4.938 1.65.29 9.75 1.886 18 3.562 8.25 1.677 16.243 3.263 17.75 3.532 1.507.268 7.357 1.416 13 2.53 5.643 1.116 11.6 2.244 13.25 2.532 1.65.288 9.3 1.817 17 3.375 15.773 3.193 21.448 3.656 21.563 1.781.042-.687.242-2.086.437-3.125.195-1.038.643-5.763 1-10.5.357-4.736.83-9.75 1.031-11.125.202-1.375.619-5.425.938-9 .91-10.209 2.485-26.513 3.031-31.5.18-1.65.636-7.05 1-12s.828-9.675 1.031-10.5c.204-.825.633-5.325.969-10 .336-4.675 1.055-12.22 1.594-16.78.538-4.561.734-8.707.437-9.188-.297-.481-6.948-4.211-14.781-8.313-16.567-8.674-33.558-17.665-46.187-24.437l-8.907-4.782-6.156-10-6.156-10-11.313-2.406-11.312-2.437-9.688-13.063a2786.8 2786.8 0 0 1-18.687-25.594c-4.95-6.875-14.728-20.302-21.719-29.843-6.99-9.542-13.397-18.418-14.25-19.72-1.448-2.208-1.312-2.985 1.969-11.655 12.34-32.611 12.314-32.448 6.094-40.594-1.884-2.467-3.438-4.873-3.438-5.344 0-.47-.491-.844-1.094-.844-.602 0-2.29-.844-3.75-1.875-1.46-1.03-4.456-2.086-6.656-2.343-3.422-.4-4.592.03-8.125 2.906-3.564 2.902-4.487 3.204-6.75 2.344-3.34-1.27-3.293-2.016.344-5.5 1.63-1.562 2.662-3.334 2.281-3.938-.38-.603-.707-3.421-.719-6.281-.036-8.662-1.394-8.668-10.093.031-4.212 4.211-7.873 7.656-8.125 7.656-.722 0-3.8-3.275-3.938-4.187-.069-.452-.181-6.595-.25-13.656-.124-12.736-.16-12.85-2.687-14-3.59-1.636-5.249-1.462-8.22.875-1.919 1.51-3.832 2.005-7.374 1.843-3.24-.147-4.507-.586-3.938-1.312.463-.59 1.066-2.336 1.344-3.875.453-2.51.017-3.036-4.125-5.125-4.632-2.336-11.948-2.837-18.125-1.281-1.375.346-7.232.888-13 1.218-7.646.438-10.69 1.005-11.281 2.063-.447.798-2.159 1.437-3.781 1.437-2.802 0-2.923-.213-2.938-4.25-.017-4.837-.205-6.435-3.937-6.5zm82.843 140.157c26.007.093 28.094.455 28.094 4.625 0 .975-2.137 3.564-4.75 5.78-3.166 2.687-4.416 4.366-3.75 5.032 1.186 1.186 14.971 6.754 21.813 8.813 4.7 1.414 4.79 1.542 4.125 4.656-.736 3.441-2.156 5.687-3.594 5.687-.495 0-2.653 1.165-4.813 2.594l-3.937 2.594-5.781-2.688c-3.191-1.477-6.656-3.137-7.688-3.687-2.503-1.335-3.942.317-6.062 6.875-2.018 6.24-2.404 6.57-10.282 9.219-3.42 1.15-6.682 2.093-7.25 2.093-1.88 0-1.064-2.887 1.75-6.218 5.854-6.93 5.784-6.782 2.407-6.782-1.81 0-4.256 1.043-6.063 2.563-4.924 4.143-8.675 4.753-13.187 2.156-2.11-1.214-4.343-3.343-4.97-4.719-1.064-2.337-.697-2.92 5.907-9.218 3.887-3.707 9.067-7.7 11.5-8.844 2.432-1.143 4.638-2.91 4.906-3.938.755-2.887-3.236-5.991-7.843-6.093-2.165-.048-6.818-1.06-10.344-2.25-5.264-1.776-6.486-2.6-6.781-4.594-.199-1.335.13-2.73.718-3.094.588-.363 12.236-.611 25.875-.562zm34 128.593c.411 0 2.249 2.068 4.063 4.594 1.814 2.526 4.873 6.014 6.812 7.75 5.38 4.816 9.336 9.302 11.813 13.406 1.973 3.27 3.034 3.901 8.875 5.375 6.196 1.564 7.044 1.574 12.5.032 3.949-1.117 6.562-2.569 8.031-4.438 3.04-3.867 6.788-5.545 13.094-5.906 5.364-.307 5.408-.276 5.219 2.469-.276 3.998-4.228 8.474-8.563 9.718-2.061.592-5.661 2.934-8 5.188-2.339 2.254-7.175 5.407-10.75 7.031-3.575 1.624-8.212 3.861-10.312 4.969-2.205 1.162-4.884 1.81-6.344 1.531-1.799-.344-3.45.318-5.688 2.281-1.732 1.52-4.894 3.483-7.031 4.375-2.137.893-5.062 1.536-6.5 1.407-18.461-1.655-20.203-2.288-29.031-10.5-7.952-7.397-7.875-9.282.437-9.282 3.079 0 6.468.462 7.532 1.032 2.269 1.214 4.992.067 9.218-3.875 2.2-2.053 3.588-2.512 6.782-2.282 4.59.332 6.937-1.119 6.937-4.312 0-2.974-4.071-14.701-7.687-22.125-2.738-5.62-3.214-8.438-1.407-8.438zM435.71 451.69a4673.67 4673.67 0 0 1-25-7.373c-6.6-1.972-15.6-4.6-20-5.843-7.523-2.123-7.791-2.291-4.5-2.823 1.925-.31 8.45-.37 14.5-.13 8.914.352 11.867.872 15.571 2.738 4.59 2.311 16.805 5.907 17.547 5.165.218-.218-2.29-2.96-5.574-6.092-6.247-5.96-11.081-8.61-15.762-8.644-3.554-.025-19.3-4.13-25.672-6.692-4.636-1.864-4.987-2.274-6.736-7.877-1.014-3.25-1.851-6.454-1.86-7.118-.012-1.088 4.666-2.748 17.986-6.381l4.5-1.228-3.5-.806c-1.925-.444-4.777-.922-6.338-1.062-3.046-.273-6.272-4.785-5.276-7.38.292-.76-.024-1.732-.701-2.16-.678-.426-2.04-2.042-3.024-3.59-2.36-3.708-1.498-7.382 2.805-11.943 3.964-4.203 5.534-6.895 5.534-9.49 0-5.081 14.833-13.17 29.645-16.165 5.42-1.096 11.938-2.27 14.484-2.606 4.452-.59 4.67-.5 5.665 2.358 1.243 3.565.14 9.308-2.914 15.166-1.17 2.245-1.858 4.35-1.529 4.679.33.329 2.64-1.076 5.137-3.122l4.54-3.72 6.236 3.568c3.43 1.961 7.328 4.495 8.662 5.63l2.426 2.065-2.031 4.809-2.032 4.808 4.106-.919c2.258-.505 4.405-1.23 4.772-1.61.367-.382-.002-2.65-.82-5.04s-1.343-4.44-1.167-4.553c4.246-2.734 5.799-3.444 6.182-2.824.546.883-21.189 88.42-22.187 89.358-.371.35-6.525-1.07-13.675-3.153z"/><path d="M336.771 386.566c-.252-.747-.908-5.239-1.458-9.983-.912-7.864-1.49-9.441-6.551-17.878-3.054-5.088-5.542-9.757-5.53-10.374.031-1.56 2.994-4.946 5.978-6.83 1.375-.868 4.97-5.564 7.99-10.436 3.02-4.87 6.342-9.757 7.381-10.857 1.04-1.1 5.206-6.42 9.26-11.82 7.05-9.397 7.374-10.068 7.488-15.5.065-3.124.035-6.286-.067-7.028-.245-1.79 2.83-5.116 4.292-4.64.636.207 2.82.574 4.855.816 2.034.241 6.084 1.384 9 2.539 2.915 1.155 7.182 2.566 9.48 3.136 3.416.847 4.381 1.626 5.289 4.267.61 1.777 3.535 5.685 6.5 8.684 5.365 5.43 5.416 5.453 11.21 5.3 8.164-.215 9.275 1.005 13.928 15.29 5.914 18.159 5.133 20.004-10.014 23.666-6.96 1.683-13.868 4.693-15.592 6.794-.275.336-1.874 1.165-3.553 1.843-1.68.678-4.157 2.228-5.505 3.443-1.349 1.216-5.476 4.46-9.173 7.21-5.361 3.99-7.443 6.364-10.295 11.742-1.966 3.708-4.564 7.272-5.774 7.92-1.21.647-2.2 1.04-2.2.873 0-.278-1.205-.058-8.5 1.55-1.375.304-5.983.795-10.24 1.091-5.995.418-7.843.234-8.199-.818zm116.059-74.935c-2.54-2.792-4.62-5.89-4.62-6.885 0-2.476 3.948-4.853 10.237-6.163 10.118-2.106 13.08-5.375 4.873-5.375-3.325 0-4.622-.527-6.09-2.474-1.795-2.379-1.942-2.406-3.816-.71-2.375 2.15-8.131 2.84-10.914 1.31-2.915-1.604-12.212-12.69-12.926-15.416-.65-2.478 1.928-6.21 4.291-6.21.74 0 1.38-.337 1.421-.75.32-3.132 1.12-4.845 3.353-7.176 1.414-1.476 2.571-3.568 2.571-4.65 0-2.666 5.707-9.424 7.958-9.424.997 0 2.55-1.125 3.45-2.5 1.374-2.096 2.419-2.5 6.48-2.5 6.415 0 10.112 2.764 10.112 7.559 0 2.848.633 3.832 3.822 5.942 5.12 3.388 7.499 8.462 7.685 16.388.166 7.013 1.636 9.098 6.434 9.127 4.928.03 5.01.708 1.738 14.234-2.253 9.313-3.49 12.75-4.589 12.75-.826 0-4.07 1.8-7.206 4-5.33 3.74-6.157 4-12.672 4h-6.97l-4.621-5.077zm-30.842-44.606c-.951-.25-2.18-2.1-2.746-4.134-1.386-4.977.698-7.655 8.388-10.778 6.677-2.712 8.897-2.96 10.321-1.155 1.823 2.311.949 4.914-2.552 7.59-1.912 1.464-5.08 4.123-7.041 5.91-1.96 1.788-3.808 3.198-4.106 3.134a81.358 81.358 0 0 1-2.264-.567zm-9.207-16.888c-.864-.864-1.571-2.664-1.571-4 0-2.277-.343-2.429-5.5-2.429-8.886 0-11.753-4.365-7.25-11.038 1.646-2.44 3.461-3.643 6.764-4.484 2.483-.633 6.676-2.357 9.317-3.831 2.642-1.475 5.181-2.448 5.644-2.162.462.285 4.081-2.52 8.043-6.233 9.184-8.61 10.716-9.382 18.267-9.214 3.418.076 7.34-.064 8.715-.31 2.964-.533 7.503 1.536 8.379 3.817 1.919 5-.178 10.565-4.998 13.262-1.072.6-1.82 2.712-2.14 6.036-.46 4.79-.768 5.276-4.848 7.667-2.396 1.404-4.814 3.409-5.373 4.454-1.33 2.484-4.734 3.519-6.568 1.997-2.209-1.834-1.86-8.63.548-10.693 1.1-.941 2-2.058 2-2.48 0-1.216-3.67 2.014-13.594 11.962-9.625 9.65-12.48 11.034-15.835 7.679zm77.775-27.385c-3.238-1.45-4.371-2.746-6.157-7.044-1.204-2.896-2.189-5.877-2.189-6.624 0-.747-.926-1.925-2.057-2.617-5.386-3.296-7.67-12.759-3.079-12.759 2.045 0 5.136 2.974 5.136 4.943 0 .93.894 1.085 3.25.56 4.234-.942 21.555-1.791 23.253-1.14 1.022.393 1.094 1.463.322 4.821-.546 2.374-1.168 5.216-1.384 6.316-1.487 7.583-2.847 11.558-4.453 13.01-2.629 2.38-8.011 2.607-12.642.534zm17.654-28.922c0-.484-1.318-1.425-2.928-2.092-1.61-.667-3.72-2.088-4.689-3.159-1.269-1.402-2.521-1.78-4.477-1.35-1.494.328-3.002.133-3.352-.434-1.533-2.48 6.007-9.094 8.565-7.513.533.33 1.628.051 2.434-.618 1.265-1.05 8.936-.887 9.908.21.866.977-3.057 15.834-4.18 15.834-.705 0-1.281-.395-1.281-.878zm4.5 315.952c-4.903-1.18-12.266-5.441-17.558-10.163-1.596-1.424-4.71-3.404-6.922-4.401-2.211-.998-4.076-2.42-4.145-3.161-.069-.742-.181-1.911-.25-2.599-.223-2.234-4.39-2.068-5.11.203-.94 2.961-5.987 5.232-12.93 5.817-3.302.279-6.58 1.083-7.285 1.788-2.97 2.969-8.414 3.695-22.687 3.028-21.249-.994-27.555-2.09-27.664-4.81-.028-.702-.235-3.076-.46-5.276-.227-2.2-.616-6.65-.867-9.889-.526-6.79-2.341-9.206-7.6-10.117-5.965-1.033-18.022-9.496-18.022-12.65 0-.464-.074-1.181-.164-1.594-.09-.412-.979-4.35-1.974-8.75-.996-4.4-1.822-8.305-1.836-8.679-.029-.758.198-.694 43.333 12.124 16.972 5.044 31.014 9.015 31.205 8.825.19-.19 5.342-20.354 11.449-44.808s11.33-45.133 11.607-45.953c.276-.82 2.296 3.004 4.488 8.5 3.873 9.712 3.973 10.263 3.564 19.723-.493 11.435.617 14.48 4.036 11.06 1.723-1.723 1.966-3.072 1.692-9.401-.175-4.065-.527-12.97-.78-19.79l-.462-12.401 3.17-3.321c2.96-3.1 3.432-3.26 7.079-2.42 2.26.522 4.917 2.09 6.305 3.721 2.318 2.725 2.345 2.732.809.193-.875-1.445-1.976-3.973-2.448-5.618-1.216-4.242 1.968-7.854 7.927-8.991 5.345-1.02 9.295.812 13.426 6.228 3.764 4.936 2.8 9.099-4.086 17.62l-5.485 6.789.235 12.529c.264 14.04 1.187 22.259 3.158 28.112 1.224 3.633 1.136 4.397-1.073 9.301-1.744 3.872-2.246 6.335-1.822 8.947.893 5.504 7.173 13.715 16.353 21.383 10.582 8.838 14.32 15.588 12.122 21.891-1.039 2.98-1.101 3.002-6.688 2.374-3.102-.349-6.067-1.04-6.59-1.536-.523-.496-1.487-.902-2.143-.902-2.626 0-2.191 3.299 1.117 8.47 5.512 8.618 4.401 14.002-3.675 17.81-3.805 1.793-7.27 2.016-12.349.794zm278.612 453.16c-5.13-2.053-6.112-2.835-6.112-4.87 0-2.742.546-3.018 7.438-3.767 4.597-.499 5.135-.315 7.794 2.663 3.674 4.115 3.496 8.085-.37 8.284-1.45.075-5.388-.965-8.75-2.31z"/><path d="M582.127 773.322c-.23-.213-4.016-.706-8.416-1.095-4.399-.39-8.224-.839-8.5-.999-.275-.16-4.1-.61-8.5-1-4.399-.39-8.224-.837-8.5-.994-.275-.157-3.426-.578-7.001-.936-3.575-.358-8.525-.877-11-1.154-9.408-1.052-12.83-1.41-24-2.502-11.624-1.138-13.37-1.52-12.616-2.753.23-.374.735-4.956 1.124-10.18.389-5.226.834-10.176.99-11 .155-.826.577-5.326.938-10 .361-4.676.843-9.626 1.07-11 .228-1.376.67-5.65.982-9.5.679-8.37 1.405-16.365 2.045-22.5.259-2.476.674-6.75.923-9.5 1.631-18.013 2.04-22.25 3.083-32 .353-3.3.714-7.031.802-8.29.132-1.898-1.212-3.02-7.841-6.542a14125.617 14125.617 0 0 0-43.5-22.984c-6.325-3.328-13.3-7.033-15.5-8.233-3.868-2.11-5.933-4.712-13.605-17.138l-3.605-5.84-11.42-2.396-11.42-2.396-5.563-7.59c-3.06-4.176-14.723-20.192-25.92-35.592a21535.45 21535.45 0 0 0-26.162-35.927c-3.193-4.36-5.808-8.41-5.813-9-.007-.972 12.921-36.623 13.564-37.404 1.2-1.458 10.888 7.28 14.822 13.371 2.654 4.109 9.991 10.316 14.745 12.475 2.011.913 3.135.917 4.814.02 1.91-1.023 2.75-.713 6.577 2.423 2.413 1.978 5.249 4.821 6.3 6.32 2.362 3.362 6.186 11.968 6.186 13.921 0 2.572-2.568 4.112-8.012 4.803-5.442.69-9.988 2.876-9.988 4.802 0 .59.992 2.52 2.203 4.288 1.874 2.734 3.708 3.674 12.25 6.276 15.79 4.809 18.816 5.288 26.078 4.127 3.55-.567 7.647-1.574 9.105-2.239 2.383-1.085 2.814-.96 4.258 1.242.883 1.348 4.306 5.997 7.606 10.333 7.8 10.247 10.376 15.251 9.84 19.113-.32 2.31-.174 2.69.598 1.556.633-.93.792-5.375.418-11.694l-.604-10.194 10.559-5.251c6.064-3.017 10.75-5.983 11.008-6.97.422-1.616.2-1.613-3.685.045-2.274.97-6.5 2.368-9.39 3.105-4.896 1.249-5.444 1.2-8-.708-6.752-5.041-1.056-14.594 9.094-15.252 2.111-.137 6.161-1.01 9-1.94 2.84-.93 6.41-1.537 7.934-1.347 3.305.41 6.032 4.143 6.255 8.562.087 1.73.941 4.655 1.897 6.502 2.491 4.812 10.125 12.122 12.8 12.258 1.252.063 2.726.22 3.276.347.55.128 1.51.301 2.132.385.623.084 2.998 3.015 5.277 6.513l4.144 6.36 6.12.64c3.366.352 9.093.64 12.727.64 3.633 0 9.753.9 13.6 2l6.997 2c.002-.001.093-1.642.203-3.647.11-2.006.898-5.39 1.75-7.52.853-2.13 1.55-5.051 1.55-6.49 0-2.533.145-2.596 4.601-1.985 5.722.785 11.899 2.855 18.679 6.26 2.87 1.442 5.375 2.76 5.565 2.93.273.244-3.37 13.906-5.396 20.233-.226.706.65 1.686 1.947 2.179 1.304.496 2.924 2.381 3.623 4.218l1.265 3.321.68-3c.436-1.93.134-4.068-.85-6-.908-1.782-1.546-5.754-1.571-9.784-.046-7.182.958-8.92 4.598-7.969 3.567.933 10.606-2.638 13.823-7.013 2.536-3.447 3.036-5.058 3.036-9.776 0-4.378-.45-6.055-2-7.458-2.3-2.08-2.79-9.31-.769-11.33 1.71-1.711-4.444-7.26-10.136-9.138-3.435-1.134-4.963-2.485-7.766-6.866-2.977-4.655-3.485-6.31-3.461-11.278.015-3.203.5-6.708 1.08-7.79.82-1.533.46-3.329-1.634-8.16l-2.686-6.193 1.936-5.613c1.633-4.732 2.595-5.974 6.142-7.922 3.85-2.116 4.114-2.51 3.126-4.68-.93-2.042-.614-2.944 2.294-6.538 7.83-9.676 7.113-9.116 10.734-8.38 2.336.474 3.708 1.498 4.5 3.356.627 1.471 2.834 4.157 4.905 5.97 6.814 5.965 7.783 8.074 8.17 17.787.34 8.55.494 9.037 5.456 17.287 6.244 10.382 6.924 16.01 1.693 14.02-2.021-.768-2.172-.584-1.769 2.162.242 1.651-.158 4.815-.89 7.031-1.246 3.778-1.191 4.142.881 5.82 1.837 1.487 2.834 1.617 5.896.772 3.83-1.057 7.192-.43 14.848 2.769 3.17 1.324 3.524 1.765 2.342 2.918-.766.748-3.417 1.641-5.892 1.986-7.042.981-7.555 2.638-2.912 9.405 3.675 5.355 4.494 8.068 4.86 16.105.192 4.252 1.76.18 2.5-6.5 1.154-10.397 2.506-13.582 6.467-15.237l3.518-1.47 6.718 7.354c4.698 5.142 7.038 8.614 7.783 11.546 1.595 6.275 1.308 10.066-.934 12.307-1.1 1.1-2 3.283-2 4.851 0 2.922 1.839 9.254 2.947 10.15.34.274 2.113 2.862 3.94 5.75 1.827 2.887 3.625 5.25 3.995 5.25 1.547 0 5.307-3.366 6.105-5.465.473-1.245 1.13-4.912 1.46-8.15.33-3.237 1.24-7.236 2.025-8.886.784-1.65 2.334-6.174 3.446-10.053 1.111-3.88 3.376-9.055 5.033-11.5 3.575-5.276 3.777-7.543.942-10.56-2.382-2.536-5.279-14.546-4.292-17.794 1.296-4.267 3.447-5.593 9.073-5.593 4.044 0 6.747.739 10.986 3 3.092 1.65 6.518 3 7.613 3 1.095 0 3.432 1.528 5.193 3.395 1.76 1.867 5.157 4.393 7.548 5.613 4.211 2.148 7.885 5.558 7.953 7.382.018.49-.708 1.432-1.613 2.093-1.51 1.104-1.473 1.444.446 4.11 1.15 1.6 2.38 4.537 2.733 6.53.595 3.36.424 3.697-2.368 4.67-1.656.577-3.51 1.985-4.123 3.128-.612 1.144-1.996 2.08-3.077 2.08-2.654 0-2.47 1.909.516 5.381 1.363 1.585 2.757 4.37 3.098 6.19.413 2.2 1.713 4.056 3.883 5.543 7.083 4.854 7.088 14.889.013 26.98-8.378 14.317-8.96 14.951-13.312 14.528-2.121-.207-5.049-1.157-6.506-2.112l-2.649-1.735 1.57 3.757c1.744 4.173.653 5.961-2.952 4.838-3.71-1.156-5.152-1.098-6.72.268-1.362 1.187-2.091 1.18-5-.048-1.873-.79-4.081-2.392-4.906-3.558-1.265-1.79-2.126-2.018-5.5-1.46-2.2.362-4.797 1.078-5.772 1.59-1.585.833-1.391 1.29 1.845 4.342 3.385 3.192 3.571 3.681 2.906 7.62-.513 3.035-2.207 5.973-6.073 10.53-2.949 3.476-5.645 7.45-5.992 8.833-.347 1.382-1.144 2.515-1.772 2.517-.628.003.138 1.03 1.703 2.282 2.404 1.924 2.798 2.893 2.54 6.245-.168 2.183-1.028 5.093-1.91 6.468a552.38 552.38 0 0 1-3.593 5.5c-1.094 1.65-3.99 6.478-6.435 10.729-5.062 8.798-6.701 9.771-16.441 9.771-7.158 0-9.157 1.447-9.678 7-.323 3.444-.4 3.5-4.828 3.438-2.475-.034-5.73-.34-7.234-.68-4.006-.907-4.27.758-.528 3.342a306.227 306.227 0 0 1 3.639 2.536c1.046.789 1.16 8.722.169 11.726-1.323 4.009-5.039 5.939-11.985 6.227-7.852.325-7.477.153-5.802 2.661 1.417 2.12 1.294 2.455-2.128 5.785-5.068 4.932-10.916 12.643-13.625 17.965-1.26 2.475-3.284 5.4-4.5 6.498-2.637 2.383-5.006 6.72-5.006 9.163 0 .969-2.329 6.688-5.175 12.71-4.344 9.19-5.157 11.806-5.067 16.289l.109 5.34h-4.267c-2.347 0-4.454-.174-4.683-.386zm201.94-55.307c-5.328-3.306-5.112-13.076.422-19.066 2.246-2.432 4.789-2.262 7.971.533 3.204 2.813 1.622 14.404-2.487 18.233-2.555 2.38-2.555 2.38-5.906.3zm-51.794-11.189c-2.322-4.339.959-14.182 5.835-17.507 3.907-2.664 5.005-2.9 12.73-2.726 4.705.106 5.232.363 6.365 3.1 1.126 2.716.955 3.422-1.911 7.888-4.168 6.494-10.109 10.374-16.735 10.928-4.466.374-5.304.15-6.284-1.683z"/><path d="M709.96 684.943c-1.366-.297-1.75-1.418-1.75-5.108 0-2.6-.54-5.267-1.2-5.927-.66-.66-3.697-1.244-6.75-1.3-11.806-.211-13.64-2.76-7.092-9.854 3.763-4.076 4.425-5.872 4.257-11.546-.584-19.647.008-25.889 3.905-41.18 1.217-4.776 1.593-5.23 4.824-5.837 3.048-.572 3.801-.287 5.778 2.18 1.25 1.56 3.061 4.748 4.025 7.084 1.5 3.633 2.186 4.254 4.753 4.304 1.979.038 5.894 2.077 11.5 5.989 4.675 3.262 11.303 7.85 14.73 10.196 3.425 2.345 6.24 4.94 6.254 5.764.015.825 1.135 3.3 2.49 5.5 1.355 2.2 2.478 4.792 2.495 5.76.027 1.528.716 1.68 5.281 1.156 4.717-.541 5.625-.314 8.944 2.241 3.209 2.47 3.649 3.303 3.35 6.343-.505 5.164-1.196 6.284-5.311 8.615-3.732 2.114-3.734 2.114-8.233.167-2.89-1.25-5.814-1.777-8.175-1.47-2.915.38-4.117.006-5.819-1.805-1.18-1.256-2.001-3.083-1.826-4.061.47-2.615-8.542-7.22-10.67-5.453-.83.689-1.51 2.293-1.51 3.565 0 3.558-1.817 7.54-4.796 10.51-1.487 1.483-3.705 4.02-4.928 5.64-3.137 4.153-7.038 8.27-7.978 8.42-2.513.402-5.01.443-6.548.107zM578.605 527.364c-3.352-1.09-7.627-3.917-11.895-7.869-1.65-1.527-3.38-2.78-3.846-2.782-1.978-.01-6.654-4.3-6.654-6.105 0-2.512 15.855-23.9 17.718-23.9 2.51 0 11.717 9.695 14.4 15.164 4.06 8.279 6.882 16.108 6.882 19.092 0 2.042-.953 3.347-3.841 5.258-3.956 2.618-7.302 2.918-12.764 1.142zm371.351 150.757c-.184-.184-6.524-.6-14.088-.925-10.826-.464-14.2-.95-15.848-2.288a391.411 391.411 0 0 1-5.267-4.39c-2.66-2.257-3.965-2.644-8.107-2.406-5.458.314-8.719-.62-19.176-5.492-6.287-2.929-7.207-3.723-8.356-7.203-1.145-3.468-1.099-4.02.402-4.86 1.863-1.043 2.288-2.849.67-2.849-.563 0-3.261-1.538-5.995-3.419-2.734-1.88-6.331-3.718-7.994-4.083-1.911-.42-3.561-1.707-4.49-3.502-2.207-4.27-7.312-7.418-12.958-7.991-4.208-.428-5.303-.163-7.205 1.745-1.638 1.644-3.414 2.25-6.583 2.25-3.681 0-4.99.607-8.63 4l-4.289 4h-8.294c-13.788 0-16.897-2.527-18.198-14.793-.452-4.265-.21-4.982 2.58-7.644 2.378-2.267 3.08-3.798 3.08-6.714 0-2.577.556-4.074 1.75-4.708.963-.511 7.092-.996 13.62-1.076 10.764-.133 12.163-.365 15-2.488 4.44-3.32 9.172-5.577 11.697-5.577 1.777 0 2.047-.403 1.5-2.25-.785-2.647-1.383-5.003-1.49-5.867-.043-.34-1.93-1.843-4.196-3.343-3.873-2.562-4.088-2.956-3.603-6.573.283-2.115 1.17-5.11 1.97-6.656a3341.67 3341.67 0 0 0 6.63-12.981l5.173-10.171-1.959-7.069c-1.865-6.73-7.704-16.033-12.629-20.12-.954-.792-2.808-3.14-4.119-5.216-1.361-2.157-4.499-4.95-7.317-6.515-3.938-2.186-5.102-3.444-5.772-6.239-.753-3.141-1.142-3.464-3.797-3.157-1.627.188-3.633.923-4.458 1.633-.825.71-3.369 2.23-5.652 3.378-3.553 1.786-4.323 1.882-5.333.665-1.675-2.019-.335-5.544 3.323-8.742 3.046-2.663 3.072-2.758 1.139-4.219-2.538-1.918-3.885-1.915-7.617.015-3.91 2.021-5.86 1.226-5.86-2.388 0-1.93.67-3.178 2.031-3.785 1.892-.845 1.704-1.226-2.75-5.566-8.129-7.922-12.728-11.562-14.031-11.105-.688.24-1.25 1.976-1.25 3.855v3.416l-10.25.235c-5.638.13-13.23.175-16.872.102-5.581-.111-6.603.127-6.5 1.516.105 1.418-1.062 1.633-8.378 1.542-4.675-.058-13.225-.451-19-.874-6.433-.47-11.89-.381-14.09.23-4.422 1.231-7.752-.848-9.48-5.919-.973-2.852-1.554-3.295-4.033-3.08-11.798 1.025-12.374.978-15.37-1.232-6.62-4.884-12.027-12.684-12.027-17.352 0-1.497.975-2.03 4.64-2.532 2.551-.35 6.473-.636 8.714-.636 3.495 0 3.866-.194 2.61-1.368-2.168-2.027-7.694-3.632-12.506-3.632-3.103 0-4.436-.47-4.96-1.75-1.766-4.323-3.212-12.659-2.948-17.001 1.252-20.592 1.643-22.93 5.937-35.44 6.24-18.185 10.876-26.594 16.513-29.954 8.937-5.326 23.423-3.845 25.139 2.57.665 2.488.276 3.481-2.623 6.689-1.963 2.173-3.702 5.379-4.11 7.577-.39 2.095-1.378 4.84-2.197 6.098-1.806 2.775-4.339 13.192-3.527 14.506.32.519.716 4.254.878 8.302.329 8.226.753 9.403 3.39 9.403 1.167 0 2.083-1 2.52-2.75.377-1.512 1.42-3.563 2.316-4.558 1.312-1.456 1.394-2.138.42-3.5-2.511-3.509-3.561-6.842-3.633-11.53-.056-3.727.398-5.22 1.976-6.5 1.126-.914 2.35-2.45 2.718-3.412.369-.962 1.134-1.75 1.702-1.75.567 0 1.031-.91 1.031-2.024 0-3.569 7.613-14.39 11.766-16.724 4.418-2.483 13.981-4.26 16.973-3.152 1.8.666 3.496 3.22 9.557 14.4 3.824 7.054 6.655 14.846 6.14 16.899-.713 2.841 2.977 7.603 5.887 7.596 1.197-.003 3.886-.48 5.975-1.06 3.133-.87 3.69-1.4 3.175-3.02-1.084-3.416 4.97-8.34 12.092-9.836 5.644-1.185 6.305-1.128 9.5.82 1.89 1.152 4.56 2.112 5.935 2.134 3.122.05 7.53 3.661 8.501 6.967.993 3.375 3.428 6 5.566 6 1.27 0 1.944 1.108 2.433 4 .372 2.2 1.066 4 1.544 4s3.373 2.486 6.435 5.523c4.585 4.548 5.664 5.21 6.117 3.75.302-.975 1.19-3.244 1.97-5.043 1.57-3.614 2.52-3.663 11.193-.574 3.632 1.293 4.572 2.244 6.383 6.452 1.246 2.897 3.275 5.616 4.912 6.583 1.534.907 3.302 2.606 3.928 3.776 2.099 3.92 4.535 4.7 7.471 2.391 3.186-2.506 5.613-2.041 11.459 2.194 3.73 2.702 4.204 3.457 3.629 5.778-1.719 6.932-1.787 8.252-.415 7.96.75-.16 2.147-1.527 3.104-3.04 2.521-3.983 5.59-3.542 10.445 1.5 4.59 4.769 6.746 8.29 6.887 11.25.267 5.575.578 6.197 3.893 7.778 1.9.906 4.151 2.994 5.003 4.64l1.548 2.995-4.566 2.675c-3.756 2.202-4.98 2.487-6.903 1.611-3.101-1.413-3.788-.512-1.857 2.435 1.514 2.31 1.45 6.444-.163 10.514-.866 2.188 2.487 5.237 7.367 6.7 2.105.63 5.58 2.34 7.722 3.797 2.142 1.457 5.469 2.723 7.394 2.811 1.925.089 4.625.63 6 1.205 1.375.573 5.108.846 8.296.605l5.797-.437 5.367 5.586c4.707 4.899 5.87 5.6 9.454 5.71 2.247.07 4.63.182 5.295.25.665.07 1.513 1.61 1.884 3.426s.968 3.594 1.326 3.952c.358.358 3.777-.433 7.597-1.758l6.947-2.409 3.768 2.148c3.518 2.005 3.79 2.497 4.078 7.404.38 6.47-.174 8.825-2.79 11.84-1.906 2.199-1.93 2.464-.368 4.189 1.34 1.481 1.45 2.317.56 4.27-.609 1.336-.852 4.002-.54 5.925.735 4.529-2.608 9.638-6.307 9.638-2.13 0-2.396.332-1.803 2.25 1.069 3.458 4.291 9.541 5.425 10.242 2.09 1.292.884 3.364-3.11 5.34-4.057 2.007-4.179 2.01-7.62.166-1.923-1.031-5.708-2.441-8.41-3.134-4.25-1.089-5.375-1.954-8.32-6.391-3.827-5.766-10.795-12.473-12.957-12.473-.785 0-2.02-.58-2.748-1.29-4.046-3.953-10.821-6.376-10.821-3.87 0 .462-1.19 1.382-2.645 2.044l-2.644 1.205 2.722 2.841c3.25 3.393 3.236 7.945-.028 9.562-1.572.78-1.902 1.535-1.32 3.024.426 1.091.806 1.64.845 1.221.115-1.25 7.305 2.153 8.671 4.105.694.99 3.079 3.831 5.3 6.312 3.93 4.391 5.273 5.056 15.743 7.786 3.119.813 4.297 1.69 4.762 3.542.34 1.353 1.519 2.943 2.62 3.533 1.102.59 3.11 2.824 4.461 4.965 1.352 2.142 5.632 7.131 9.51 11.087l7.052 7.193-.206 13.924c-.113 7.657-.527 14.121-.92 14.364-1.087.672-19.226-5.13-28.864-9.233-4.707-2.004-9.947-4.84-11.642-6.302-2.853-2.46-5.685-2.974-11.667-2.12-1.709.244-.56 1.943 2.041 3.021 1.536.636 3.607 2.67 4.604 4.52 1.487 2.763 3.182 3.887 9.458 6.273 4.206 1.6 12.486 6.032 18.4 9.85l10.751 6.943-.252 6-.252 6-5.71.125c-3.14.068-5.86-.027-6.044-.212zm-145.491-3.725c-3.758-2.534-4.93-5.17-3.215-7.236 1.654-1.993 3.633-1.82 7.056.617 3.053 2.174 3.813 5.622 1.704 7.731-1.53 1.53-1.666 1.504-5.545-1.112zm10.936-11.401c-1.83-.35-2.245-.995-2-3.114.234-2.027.931-2.745 2.887-2.972 3.362-.391 7.276 2.714 6.376 5.058-.65 1.697-2.439 1.95-7.263 1.028z"/><path d="M799.219 551.871c-6.735-6.734-4.515-27.509 3.5-32.76 3.55-2.326 8.983-1.082 12.609 2.888 2.813 3.08 2.882 3.42 2.882 14.258 0 12.385-.427 13.265-8.151 16.787-5.148 2.347-7.584 2.083-10.84-1.173zm27.491-18.354c-2.982-1.398-5.485-5.214-4.484-6.835 1.197-1.936 9.122-1.38 10.734.754 1.92 2.543 1.508 4.09-1.5 5.62-1.89.961-3.376 1.105-4.75.461zm-59.833-26.475c-1.048-1.048-.825-1.647 1.706-4.59 1.477-1.717 2.626-4.682 3.048-7.86.65-4.906 2.961-9.884 4.587-9.884 1.495 0 1.975 3.163.809 5.323-.647 1.198-1.08 3.65-.964 5.45.354 5.452-6.575 14.172-9.186 11.56zm-204.353-71.386c-2.573-2.126-4.746-4.672-4.828-5.657-.896-10.769-2.494-13.489-11.578-19.713-1.743-1.195-4.597-4.85-6.342-8.125-3.092-5.803-3.136-6.066-1.756-10.453.779-2.475 2.512-5.325 3.852-6.333 2.421-1.823 2.466-1.81 7.777 2.2 5.133 3.875 5.407 3.961 7 2.201.911-1.007 2.12-3.506 2.685-5.554.881-3.193.747-4.029-.943-5.868-4.79-5.214-5.978-8.457-4.925-13.444 1.142-5.407 4.169-10.202 6.44-10.202.859 0 3.922 1.351 6.808 3.003 4.504 2.576 5.418 2.796 6.452 1.55 2.453-2.956 13.434-5.275 15.794-3.335.712.585 1.25 3.296 1.25 6.298 0 4.094-.39 5.422-1.75 5.949-1.667.646-1.667.74 0 1.967 2.569 1.892 2.223 2.969-2.75 8.568-2.475 2.787-4.5 5.526-4.5 6.086 0 .56 1.35 1.49 3 2.064 2.31.805 3.003 1.657 3.015 3.698.008 1.459.663 3.777 1.457 5.152 2.978 5.162 3.695 7.692 4.164 14.678.428 6.395.208 7.608-2.014 11.129-2.587 4.098-8.11 8.193-11.05 8.193-.93 0-1.435.412-1.124.916.977 1.582-4.149 6.657-7.88 7.802-3.38 1.037-3.83.887-8.254-2.77zm41.321-19.02c-2.127-1.673-2.635-2.913-2.635-6.435 0-2.4-.464-5.583-1.032-7.076-2.351-6.185-.514-29.133 2.962-36.991 1.153-2.607 2.37-6.454 2.706-8.548.85-5.315 3.903-7.049 14.984-8.508 3.017-.397 5.216.016 8.21 1.544 2.25 1.148 5.023 2.086 6.162 2.086 2.888 0 8.78 2.59 12.704 5.582 3.292 2.51 3.297 2.53 1.683 5.719-.891 1.76-2.26 3.932-3.044 4.827-.782.895-1.655 2.92-1.938 4.5-.283 1.58-2.029 5.122-3.879 7.872-1.893 2.815-3.914 7.558-4.623 10.852-.692 3.218-1.74 5.997-2.327 6.176-.587.179-3.961.574-7.498.879-3.536.304-6.765.9-7.174 1.323-.604.626-1.546 7.795-1.838 13.995-.076 1.606-5.304 4.275-8.373 4.275-1.329 0-3.601-.932-5.05-2.072zm144.529-33.178c-4.64-7.544-11.306-21.936-10.788-23.288.866-2.255 21.002-1.992 25.245.33 5.75 3.146 12.874 10.564 16.221 16.889 1.96 3.704-.902 5.491-8.36 5.221-4.774-.173-7.224.283-10.395 1.936-6.1 3.18-9.488 2.87-11.923-1.088zm-99.664-47.276c-2.2-1.355-5.377-2.466-7.059-2.468-5.12-.009-6.611-1.88-6.986-8.773-.184-3.377-.786-6.982-1.336-8.011-1.565-2.924-2.17-12.256-.945-14.548.604-1.128 1.179-4.553 1.278-7.612.151-4.69-.248-6.11-2.549-9.062-1.5-1.925-2.885-4.4-3.076-5.5-.3-1.724-1.38-2.083-7.837-2.604-4.12-.333-8.22-.921-9.112-1.308-2.271-.985-11.457-12.609-12.14-15.362-.31-1.25-.133-3.835.394-5.742 1.15-4.164 3.583-5.027 11.534-4.093 8.255.97 13.176 4.085 14.782 9.357.824 2.702 3.384 3.443 10.052 2.91 7.986-.64 11.454 1.302 11.485 6.432.01 1.787.794 2.944 2.53 3.735 3.832 1.746 4.887 4.98 3.211 9.844-1.397 4.056-1.385 4.101 1.934 7.347 1.837 1.796 3.34 4.27 3.34 5.497 0 1.86.707 2.336 4.25 2.859 2.338.344 8.075 1.372 12.75 2.284l8.5 1.657 5.597-2.656c3.078-1.461 6.072-2.657 6.655-2.657.582 0 2.97-1.596 5.306-3.548 4.158-3.474 4.417-3.544 12.344-3.357 9.354.222 12.217 1.046 19.098 5.501 8.275 5.358 12.7 12.804 9.508 15.996-.655.656-.587 2.062.2 4.15 1 2.65.932 3.448-.428 4.958-.892.99-1.784 3.375-1.983 5.3-.316 3.05-.983 3.81-5.185 5.907-8.303 4.144-20.405 4.114-22.265-.055-.81-1.813-1.152-1.917-2.42-.732-.813.76-3.492 2.377-5.953 3.595-3.875 1.917-6.48 2.265-19.474 2.596-16.034.408-19.743-.351-20.996-4.3-.873-2.75-1.581-2.558-5.504 1.49-1.866 1.924-3.867 3.485-4.446 3.468-.58-.017-2.854-1.14-5.054-2.495z"/><path d="M614.71 332.984c-2.057-.508-13.126-8.044-15.927-10.845-2.444-2.445-1.899-5.597 2.348-13.57 3.362-6.31 4.468-7.549 7.75-8.68 4.529-1.561 9.294-.488 13.554 3.054 2.595 2.156 2.758 2.826 3.392 13.92.662 11.608.655 11.665-1.93 14.25-2.48 2.48-4.798 2.952-9.187 1.87zm-39.16-18.358c-4.561-2.1-9.34-7.099-9.34-9.772 0-.935 1.441-2.965 3.203-4.51l3.203-2.812-9.308.305c-10.53.344-12.098-.549-12.098-6.885 0-4.776-1.273-6.625-6.984-10.139-2.759-1.697-5.016-3.358-5.016-3.691 0-.333.76-1.892 1.689-3.464 1.57-2.657 2.012-2.817 6.25-2.266 5.414.705 8.061 1.91 8.061 3.673 0 .707 2.017 3.391 4.483 5.965 3.326 3.47 5.234 4.678 7.39 4.678 2.6 0 2.953-.385 3.332-3.633.454-3.884-.953-5.88-6.455-9.16-1.513-.9-2.75-2.205-2.75-2.899s2.242-3.033 4.981-5.198c3.73-2.948 5.677-3.838 7.75-3.542 1.523.218 5.203.624 8.177.903 2.974.279 6.497 1.22 7.828 2.092l2.42 1.586-.554 18.545c-.33 11.002-.996 19.076-1.638 19.85-.628.757-.81 2.763-.432 4.775 1.012 5.394-.752 7.698-5.817 7.597-2.318-.046-6.087-.946-8.375-1.998zm-72.723-6.366c-4.107-2.524-6.843-2.562-9.527-.133-.9.814-2.165 1.153-2.812.753-1.54-.951 3.912-23.792 5.59-23.422.733.162 1.132-1.634 1.132-5.09 0-6.702 4.688-30.398 6.61-33.41 2.957-4.633 10.818-.787 8.24 4.032-.69 1.287-.726 2.709-.106 4.095 1.072 2.395.75 8.785-.574 11.396-.481.95-.83 3.527-.773 5.727.088 3.425.448 4.05 2.5 4.34 1.318.186 4.388-.22 6.822-.9 3.991-1.118 4.613-1.052 6.34.674 3.695 3.696 4.578 17.553 1.392 21.846-.833 1.122-2.436 3.488-3.562 5.258-4.654 7.311-13.842 9.4-21.272 4.834zm27.345-.151c-.71-1.867-.523-3.172.743-5.197.93-1.487 1.727-2.792 1.773-2.9.045-.109 1.51-.449 3.253-.756 2.99-.527 3.288-.293 5.242 4.125 1.26 2.846 1.711 5.043 1.153 5.602-.505.505-3.236 1.076-6.067 1.269-4.717.32-5.228.14-6.097-2.143zm194.541-31.392c-.348-1.095-.408-2.354-.133-2.797.76-1.23-.559-2.76-3.85-4.464-2.846-1.475-3.083-1.432-5.298.958-1.711 1.846-2.896 2.323-4.52 1.818a61.231 61.231 0 0 0-4.702-1.206c-1.375-.286-3.481-1.68-4.68-3.099-1.847-2.183-2.422-2.378-3.75-1.276-.864.716-1.57 2.489-1.57 3.94 0 3.436-3.184 5.456-7.208 4.572-1.672-.367-8.583-.737-15.357-.822-10.79-.135-12.666-.414-15.126-2.245-2.407-1.792-2.852-2.893-3.108-7.695-.194-3.651.248-6.66 1.268-8.632 2.4-4.641 8.294-10.06 10.942-10.06 4.278 0 4.898-2.333 1.481-5.581-5.563-5.289-7.266-10.94-4.742-15.735 1.665-3.164 2.776-3.652 8.35-3.668 6.078-.017 10.092 2.924 11.64 8.527.563 2.041 2.11 4.797 3.436 6.123 1.98 1.98 2.773 2.217 4.439 1.326 1.93-1.033 1.811-1.308-2.425-5.667-2.45-2.52-4.988-5.873-5.642-7.452-1.059-2.555-.897-3.252 1.482-6.371l2.672-3.503h-6.829c-8.513 0-11.273-1.615-11.273-6.596 0-1.916.931-5.309 2.07-7.54 1.138-2.232 1.831-4.296 1.54-4.587-1.576-1.576 2.89-6.275 8.889-9.351l6.61-3.391 6.63 3.483c8.437 4.432 7.92 4.253 7.975 2.76.026-.703.375-2.065.774-3.028.4-.962.34-1.794-.131-1.849-.471-.054-2.16-.213-3.752-.353-4.121-.362-10.921-7.968-13.151-14.709-.971-2.936-3.27-7.316-5.11-9.732-1.84-2.417-3.344-4.75-3.344-5.183 0-.434-.862-1.062-1.916-1.397-2.84-.901-3.948-5.344-3.181-12.752.897-8.667 1.927-9.808 8.344-9.242 6.665.588 8.478 1.91 15.796 11.524 3.384 4.445 6.299 7.935 6.478 7.756 1.108-1.108-1.594-7.202-4.82-10.867-4.965-5.643-4.755-8.656.799-11.478 2.2-1.118 5.792-3.255 7.982-4.75 2.19-1.495 4.778-2.718 5.75-2.718 1.113 0 1.768-.755 1.768-2.04 0-1.12 1.83-3.833 4.067-6.025l4.067-3.987-2.567-3.05c-1.412-1.678-2.581-3.804-2.598-4.724-.018-.92-1.06.351-2.318 2.826-6.182 12.167-10.956 16.45-18.486 16.583-2.566.046-7.242.699-10.391 1.452-7.933 1.896-11.166.722-11.578-4.204-.168-1.999.372-5.253 1.199-7.232.826-1.98 1.241-3.599.921-3.599-1.07 0-4.316 4.289-4.316 5.701 0 .767-1.15 2.46-2.554 3.762-2.055 1.904-3.105 2.209-5.373 1.558-6.698-1.92-11.56-7.523-9.101-10.486 1.076-1.297.945-1.535-.85-1.535-1.167 0-2.46-.067-2.872-.15-1.654-.333-3.188-3.534-3.218-6.715-.025-2.671.793-4.12 3.968-7.022 4.292-3.923 4.874-5.113 2.5-5.113-.825 0-2.4-.9-3.5-2s-3.039-2-4.309-2c-8.67 0-6.307-9.304 3.309-13.033 1.925-.747 5.135-3.07 7.134-5.162 3.087-3.232 4.269-3.805 7.858-3.805 3.967 0 4.188-.147 3.62-2.413-.47-1.872.065-2.979 2.39-4.935 1.65-1.388 2.998-3.396 2.998-4.465 0-2.505 2.038-4.172 4.534-3.706 1.081.201 2.466.4 3.077.443.61.042 2.714 1.165 4.674 2.495 3.822 2.594 4.715 2.072 4.715-2.754 0-1.194 1.575-4.386 3.5-7.094 1.925-2.707 3.5-5.724 3.5-6.704 0-.98 1.783-3.657 3.963-5.948 3.192-3.356 4.474-4.068 6.594-3.663 2.191.419 2.795.034 3.61-2.304 1.065-3.056 5.243-5.099 9.056-4.429 7.572 1.33 9.957 1.124 14.419-1.251 4.97-2.646 12.688-3.644 15.755-2.038 1.354.71 3.572.487 7.753-.779 4.24-1.284 6.476-1.502 8.103-.791 1.236.54 4.722.824 7.747.63 7.435-.475 9.28.126 10.762 3.505 1.369 3.12 4.077 4.885 8.669 5.648 3.861.641 5.523 2.44 6.619 7.163 1.397 6.022 1.123 11.309-.98 18.912-1.48 5.355-2.693 7.618-5.212 9.728-1.805 1.513-3.815 2.75-4.467 2.75-1.804 0-6.92 6.271-9.809 12.024-1.42 2.827-2.582 5.35-2.582 5.605 0 1.294 5.05-3.47 5.972-5.634.588-1.378 2.408-3.403 4.045-4.5 1.638-1.097 2.979-2.332 2.98-2.745.005-1.133 4.793-.899 5.515.27.347.562.63 3.528.63 6.593 0 4.23-.586 6.46-2.434 9.253-3.741 5.653-6.867 12.159-6.446 13.419.208.624-1.726 5.878-4.297 11.675-2.57 5.797-5.139 11.665-5.706 13.04-1.263 3.059-3.421 14.063-3.824 19.494-.391 5.27-5.11 9.79-9.732 9.322-2.82-.285-3.184.003-3.798 3-.373 1.823-1.687 4.388-2.919 5.699-2.099 2.235-10.326 5.813-11.246 4.892-.23-.23-1.279.537-2.33 1.706-1.886 2.1-1.882 2.144.34 3.628 2.682 1.792 2.966 5.81.595 8.43-1.33 1.47-1.379 1.852-.25 1.945.773.063 1.855.22 2.405.347.55.128 1.832.301 2.849.385 1.017.084 3.154 1.55 4.75 3.258 3.666 3.925 4.158 11.092.901 13.127-2.617 1.634-2.523 2.568.5 4.946 1.375 1.082 2.5 2.825 2.5 3.875 0 1.202-.926 2.14-2.5 2.536-2.017.506-2.5 1.247-2.5 3.839 0 4.492-4.458 9.308-9.017 9.74l-3.483.331.341 7.523c.307 6.77.107 7.77-2 10-6.153 6.511-6.169 6.547-4.271 9.444.95 1.45 3.123 3.357 4.829 4.238 1.705.882 3.606 2.293 4.224 3.136 1.497 2.043.913 7.164-1.413 12.395-4.438 9.982-18.784 18.831-20.707 12.773zm-187.01-37.424c-2.757-2.757-3.247-7.124-1.395-12.435 1.358-3.895 3.16-4.001 5.767-.339 3.932 5.521 3.986 12.129.117 14.2-1.63.872-2.452.61-4.489-1.426zm73.625-1.367c-7.129-3.699-7.88-7.289-2.522-12.034 4.369-3.867 9.886-4.285 14.984-1.134 5.592 3.456 5.684 7.868.261 12.43-3.386 2.85-8.123 3.125-12.723.738zm-8.773-16.668c-3.306-1.439-4.864-4.34-3.923-7.304.347-1.094-.579-3.072-2.457-5.25-3.66-4.245-4.37-6.704-3.688-12.766.606-5.372 3.668-8.668 7.112-7.655 1.161.342 4.769 2.378 8.017 4.524 3.249 2.146 6.214 3.901 6.59 3.901 1.605 0 3.004 5.59 3.004 12.002v6.907l-4.644 3.546c-5.179 3.954-5.555 4.033-10.01 2.095zm-21.641-1.873c-1.212-1.278-3.779-4.123-5.704-6.324-6.165-7.046-9.238-8.726-15.503-8.472-4.967.2-5.857-.086-8.521-2.751-3.11-3.11-3.798-6.724-1.94-10.195.568-1.064 1.693-1.935 2.5-1.935.805 0 2.336-.871 3.4-1.936 1.67-1.67 1.794-2.463.897-5.75-.62-2.274-2.412-4.954-4.437-6.636-6.412-5.33-3.649-13.678 4.527-13.678 4.456 0 10.077 3.922 10.077 7.03 0 1.862 1.443 3.254 3.732 3.601 2.439.37 7.144 4.952 9.319 9.075 1.22 2.313 2.997 5.042 3.948 6.063 3.436 3.688 3.89 5.515 2.42 9.738-1.98 5.693-1.79 7.002 1.581 10.84 1.65 1.88 3 4.124 3 4.988 0 2.877-2.191 6.432-4.656 7.555-2.075.945-2.762.765-4.64-1.213z"/><path d="M638.3 208.562c-2.244-2.335-4.342-5.072-4.662-6.082-.321-1.01-1.72-3.059-3.11-4.554-3.594-3.865-7.318-11.616-7.318-15.23 0-3.956 3.903-7.988 7.732-7.988 2.598 0 6.268-2.84 6.268-4.85 0-.893-4.855-3.509-6.5-3.503-.55.001-3.132.357-5.737.79-6.055 1.006-9.15.206-10.477-2.708-.791-1.737-.701-2.997.36-5.024.844-1.61 1-2.705.386-2.705-.568 0-1.932-.9-3.032-2-2.247-2.247-2.606-6.962-.902-11.85.983-2.82 1.514-3.15 5.067-3.15 3.66 0 3.914-.175 3.257-2.245-.392-1.234-2.049-3.412-3.682-4.838-2.517-2.197-2.867-3.064-2.29-5.685.807-3.678 2.81-5.545 6.41-5.976 6.237-.748 6.42-1.482 1.628-6.563l-3.513-3.724 2.022-3.963c1.113-2.18 3.34-4.646 4.952-5.48 2.328-1.203 2.993-2.286 3.24-5.27.29-3.507.545-3.775 3.843-4.053 3.65-.307 9.484 2.753 11.053 5.797 2.216 4.299 4.915 10.772 4.915 11.786 0 2.143 4.199 8.686 8.612 13.422 3.23 3.464 4.388 5.526 4.388 7.81 0 2.351 1.21 4.382 5 8.389 4.379 4.63 5 5.812 5 9.517 0 4.478.374 4.964 9.957 12.942 3.573 2.975 4.043 3.865 4.043 7.657 0 3.692-.833 5.394-5.972 12.2-3.285 4.35-7.11 8.518-8.5 9.263-1.657.886-2.528 2.204-2.528 3.824 0 1.36-1.668 4.66-3.706 7.331-4.116 5.398-4.748 5.71-8.977 4.428-1.902-.576-2.224-.236-2.5 2.635-.31 3.217-.441 3.304-5.483 3.596-4.925.285-5.355.102-9.244-3.946zm-123.782-15.854a204.65 204.65 0 0 0 1.235-6.25c.374-2.062 1.092-3.75 1.596-3.75 1.437 0-.133 9.32-1.852 11-1.373 1.342-1.476 1.236-.98-1zm75.669-43.281c-3.407-2.724-5.773-6.784-5.236-8.98.845-3.452 2.258-4.739 5.204-4.739 2.057 0 3.338.975 5.377 4.09 3.204 4.894 3.31 6.279.678 8.91-2.279 2.28-3.84 2.465-6.024.719zm199.494 1100.337c1.06-2.05 2.443-2.953 5.235-3.42 2.087-.349 4.372-1.008 5.08-1.466 1.859-1.203 2.819-8.178 1.258-9.142-.88-.544-.962-1.33-.279-2.65.535-1.033 1.274-3.552 1.643-5.599.37-2.046 1.492-4.296 2.494-5 3.604-2.529 6.746-8.359 6.411-11.898-.175-1.86-.39-7.033-.477-11.497-.148-7.599.072-8.526 3.436-14.542l3.594-6.426-1.792-3.958c-.985-2.177-2.755-4.815-3.933-5.863-2.088-1.858-2.907-4.595-1.375-4.595.421 0 3.401 2.687 6.622 5.97 5.318 5.422 10.725 8.91 16.112 10.397 5.477 1.512 8.495-7.678 4.448-13.541-2.644-3.83-13.536-15.648-16.346-17.736-1.045-.776-4.87-1.752-8.5-2.17-3.631-.417-9.063-1.47-12.07-2.339-3.88-1.122-9.742-1.58-20.193-1.58-13.735 0-14.823-.14-16.169-2.06-.793-1.134-3.818-3.288-6.72-4.788-4.288-2.216-5.3-3.23-5.396-5.407-.064-1.474-1.412-4.032-2.994-5.683-2.469-2.577-2.642-3.094-1.219-3.64 2.217-.85 2.091-3.006-.378-6.474-1.12-1.573-2.915-4.847-3.99-7.275-1.709-3.865-2.43-4.491-5.793-5.029-3.843-.614-14.47-5.695-17.05-8.151-.752-.717-1.486-3.034-1.63-5.149-.143-2.114-.602-5.137-1.02-6.717l-.758-2.873-8.075.53c-7.482.49-8.498.314-13.859-2.392l-5.785-2.92-4.125 2.604c-3.754 2.37-3.984 2.746-2.55 4.18 1.433 1.433.971 1.967-5.127 5.942-3.685 2.402-8.33 6.109-10.32 8.237-4.05 4.328-4.532 4.38-18.881 2.013-4.125-.68-10.686-1.326-14.579-1.435-6.71-.188-13.421-2.552-13.421-4.73 0-.43-1.155-.784-2.567-.784-1.562 0-4.008-1.366-6.25-3.49-3.656-3.466-3.75-3.492-12.862-3.5-6.61-.007-9.578-.41-10.606-1.437-.785-.786-3.18-1.744-5.321-2.13-5.504-.994-6.083-1.731-6.847-8.72-.624-5.706-.944-6.356-3.864-7.826-3.06-1.54-3.179-1.832-3.077-7.5.115-6.391 1.303-33.2 1.9-42.897.203-3.3.657-13.15 1.009-21.891.802-19.953-.923-16.82 22.917-41.609 5.025-5.225 12.046-12.826 15.602-16.891 3.557-4.065 6.932-7.89 7.501-8.5.57-.61 6.417-7.409 12.994-15.109s14.211-16.49 16.965-19.536c13.483-14.91 19.515-21.682 21.344-23.964l2.003-2.5 3.33 1.888c4.084 2.316 10.829 8.619 10.829 10.12 0 .605 1.48 2.534 3.288 4.287 2.429 2.354 4.847 3.487 9.25 4.335 4.112.792 6.899 2.027 8.98 3.98 2.861 2.686 5.39 3.648 10.032 3.816 1.128.041 4.503 2.256 7.5 4.922l5.45 4.848 18.738.626c16.323.545 19.271.898 22.872 2.735l4.134 2.109-.678 8.667c-.374 4.767-1.066 9.057-1.538 9.533-.479.483-.025 2.236 1.028 3.967 1.038 1.706 2.164 5.142 2.504 7.635 1.09 8 1.26 8.825 2.2 10.695.51 1.01.784 3.906.61 6.435-.254 3.713.257 5.5 2.658 9.286 3.86 6.086 15.886 20.616 17.063 20.616 2.287 0 8.67 8.255 10.464 13.531l1.929 5.675 6.183-.466 6.183-.465.634 5.112c1.002 8.084 1.415 11.72 2.002 17.613.3 3.025.742 6.625.98 8s.705 5.2 1.038 8.5c.332 3.3.77 7.125.97 8.5.483 3.287 1.424 11.261 2.067 17.5.284 2.75.712 6.575.952 8.5 1.5 12.042 2.475 20.237 3.017 25.386.34 3.237 1.97 8.907 3.621 12.6 2.533 5.664 3.912 7.356 8.811 10.811 6.462 4.557 15.488 7.759 24.558 8.711 4.15.436 7.415 1.534 10.588 3.561 2.523 1.612 5.448 2.941 6.5 2.953 1.066.012 3.122 1.732 4.648 3.89l2.736 3.869 8.635-.476c7.478-.412 9.48-.94 14.945-3.944 6.326-3.477 11.381-5.07 11.524-3.63.153 1.53.725 4.065 1.391 6.166.535 1.686-.133 2.833-3.131 5.373-6.245 5.293-11.431 10.79-18.836 19.966-3.85 4.771-7.45 8.71-8 8.753-1.686.132-5.686 3.901-5.117 4.822 1.163 1.882-6.853 4.923-13.496 5.12-11.936.356-29.132 7.43-32.798 13.492-3.634 6.01-3.605 7.464.18 9.045 1.879.785 4.29 1.199 5.36.92 1.47-.385 2.346.336 3.6 2.967 1.945 4.079 1.282 4.645-5.436 4.645-4.048 0-14.972 4.124-17.793 6.717-1.32 1.214-1.204 1.603.976 3.256l2.475 1.876-2.746.69c-1.51.378-4.736.187-7.168-.425-9.484-2.388-11.73-1.336-23.537 11.03-6.472 6.78-7.98 7.868-11 7.943-1.925.048-4.956.237-6.735.421l-3.234.334 1.44-2.786zm351.199-177.719c-.289-.289-4.27-.686-8.848-.883-4.577-.197-10.797-1.085-13.822-1.974-6.7-1.968-8.074-2.3-10-2.418-4.076-.25-4.502-1.719-2.031-6.995 1.305-2.787 2.963-5.067 3.684-5.067.722 0 3.35 1.953 5.84 4.34 3.643 3.49 4.747 4.077 5.64 3 .655-.789 3.145-1.34 6.055-1.34 2.719 0 5.701-.402 6.628-.893 3.197-1.697 12.142-3.984 12.611-3.224.259.418-.161 1.979-.934 3.467-.772 1.49-1.507 4.703-1.633 7.143-.205 3.956-1.743 6.291-3.19 4.844z"/><path d="M939.008 1145.944c-.898-1.521-1.81-4.333-2.026-6.25-.371-3.293-.62-3.502-4.516-3.79-4.122-.304-9.483 1.76-15.41 5.935-2.02 1.422-4.442 1.87-10.121 1.87-7.41 0-7.485-.027-9.846-3.494-1.308-1.921-3.23-3.496-4.268-3.5-1.04-.003-4.168-1.408-6.953-3.122-3.533-2.174-6.739-3.258-10.61-3.587-8.441-.717-17.83-3.815-23.59-7.783-4.248-2.925-5.74-4.791-8.231-10.294-1.84-4.062-3.297-9.292-3.685-13.22-.354-3.576-.823-7.85-1.044-9.5-.221-1.65-.898-7.276-1.503-12.5a4314.935 4314.935 0 0 0-1.523-13l-.963-8c-.298-2.476-1.887-16.2-3.53-30.5-1.645-14.3-3.235-27.177-3.534-28.616-.478-2.295-.162-2.691 2.587-3.24 2.894-.58 3.08-.859 2.457-3.696-.528-2.402-.074-3.978 2.085-7.24 1.518-2.293 2.756-5.303 2.75-6.689-.004-1.386-1.834-6.345-4.067-11.02s-4.543-10.3-5.133-12.5c-.591-2.2-1.842-5.092-2.781-6.428-1.158-1.648-1.624-3.982-1.45-7.261.278-5.234-2.37-10.925-5.982-12.858-1.15-.615-1.92-2.105-1.933-3.738-.012-1.493-.903-3.84-1.978-5.215s-1.966-2.951-1.978-3.503c-.033-1.49 4.854-5.822 10.498-9.306 2.74-1.69 6.408-4.787 8.153-6.882 1.745-2.095 5.18-6.007 7.633-8.693 2.987-3.271 5.671-7.845 8.126-13.848 3.325-8.128 3.65-9.751 3.48-17.418-.137-6.201-.92-10.638-2.943-16.652-1.517-4.509-3.028-9.393-3.359-10.855-1.047-4.624-9.978-14.227-16.43-17.666-7.718-4.114-13.669-10.053-13.965-13.938-.124-1.632.53-4.716 1.456-6.853.926-2.137 1.805-4.56 1.954-5.384.149-.825 1.194-2.247 2.323-3.16 1.55-1.256 2.052-2.828 2.052-6.437 0-3.368.578-5.391 1.961-6.863 1.818-1.935 1.857-2.39.536-6.225-.784-2.275-1.627-5.248-1.873-6.606-.554-3.053-3.186-8.241-6.194-12.21-2.054-2.71-2.276-4.1-2.285-14.348-.008-8.185-.397-11.808-1.395-13-.76-.909-2.661-4.737-4.224-8.507l-2.84-6.855 2.574-5.248c2.453-5 2.796-5.278 7.296-5.895 7.511-1.03 13.875-.76 18.22.773 5.72 2.018 13.699 2.73 16.912 1.508 1.508-.573 4.534-2.817 6.724-4.985 2.19-2.17 4.456-3.933 5.035-3.92 1.756.037 21.078 10.21 27.498 14.476 4.888 3.25 5.983 4.47 5.834 6.5-.1 1.375.575 3.648 1.503 5.051 1.514 2.29 2.739 2.678 11.952 3.794 5.647.684 12.449 1.95 15.117 2.813l4.851 1.57-.683 5.465c-.666 5.332.077 8.782 4.696 21.807.586 1.65 1.02 4.236.965 5.746-.061 1.698.863 3.707 2.425 5.269 1.389 1.388 3.417 4.54 4.507 7.005l1.982 4.48 4.926-.6c4.744-.577 5.123-.432 10.22 3.923 2.912 2.487 6.524 4.831 8.027 5.208 1.503.378 2.733 1.087 2.733 1.578 0 1.862 2.116.746 6.368-3.359 3.282-3.167 4.577-5.3 5.084-8.369.478-2.901 1.343-4.422 2.923-5.142 1.385-.63 2.768-2.69 3.615-5.38 1.554-4.938 1.387-15.327-.295-18.347-.616-1.107-.99-2.452-.831-2.99.159-.538.744-3.443 1.3-6.455.916-4.953 3.283-8.526 4.962-7.489.356.22.957 2.093 1.335 4.161.85 4.652 5.16 12.261 6.945 12.261 1.216 0 4.064 10 3.559 12.5-.55 2.728.267 3.111 5.785 2.712l5.75-.416-.152 6.352c-.084 3.494-.632 7.872-1.217 9.73-.69 2.186-.728 4.007-.11 5.16 1.16 2.169 6.492 5.56 10.193 6.484 3.358.838 3.643 1.726 4.313 13.458.297 5.194 1.163 11.71 1.925 14.482.761 2.771 1.651 6.645 1.978 8.609.4 2.411 1.593 4.31 3.673 5.847 2.997 2.216 7.868 10.971 7.887 14.177.006.878.848 2.354 1.871 3.28 1.024.927 2.644 3.418 3.6 5.537 1.68 3.728 1.668 4.008-.358 8.59l-2.095 4.735-5.254-.545c-2.89-.3-6.632-.842-8.315-1.206-2.715-.585-3.338-.255-5.5 2.92-2.675 3.927-4.374 4.416-7.023 2.018-.958-.867-4.488-2.142-7.844-2.833-6.673-1.375-7.317-1.094-8.462 3.693-.377 1.58-1.735 3.272-3.138 3.911-1.913.872-2.472 1.884-2.472 4.475 0 2.381-.896 4.285-3.1 6.59-2.715 2.838-3.032 3.742-2.547 7.285.304 2.224 1.168 5.23 1.92 6.679 2.286 4.407 8.235 10.374 12.341 12.38 4.336 2.116 5.054 4.513 3.072 10.245-1.08 3.12-.961 3.518 1.738 5.84 2.92 2.512 6.384 2.752 12.187.845 1.915-.63 2.173-.216 2.796 4.478.474 3.57 1.466 5.952 3.202 7.688 2.295 2.295 2.999 2.455 8.034 1.826 4.536-.567 5.869-.373 7.486 1.09 1.082.98 2.733 1.921 3.669 2.093 4.651.85 14.878 1.11 16.017.406.71-.44 1.49-2.782 1.73-5.207.563-5.644 1.292-12.33 1.384-12.678.039-.149 1.93.679 4.204 1.838 3.047 1.555 5.215 1.963 8.25 1.556 4.339-.582 20.359-6.03 37.117-12.62 25.711-10.113 41.535-15.925 47.427-17.421 3.535-.898 7.042-2.142 7.793-2.765.803-.667 1.685-.76 2.144-.225 2.34 2.723 7.136 9.272 7.136 9.743 0 .301-2.813 2.693-6.25 5.316-9.17 6.996-14.635 13.21-15.255 17.348-.29 1.925-2.544 7.55-5.012 12.5-2.468 4.95-4.893 10.125-5.39 11.5-1.122 3.109-17.295 11.798-27.593 14.825-3.85 1.132-12.4 3.621-19 5.533-38.673 11.198-57.357 18.231-60.846 22.904-1.027 1.376-2.272 4.693-2.767 7.37-.494 2.678-1.833 7.906-2.976 11.618-1.804 5.863-2.39 6.75-4.46 6.75-4.755 0-14.556 11.156-18.012 20.5-1.017 2.75-3.281 7.263-5.032 10.028-1.751 2.765-3.395 6.59-3.654 8.5-1.135 8.378-16.476 33.216-24.46 39.601-11.212 8.967-26.635 25.375-25.192 26.802.22.216 4.224-3.837 8.899-9.008 4.675-5.172 11.459-11.63 15.076-14.35 6.213-4.676 13.016-11.866 17.572-18.573 4.067-5.986 11.352-20.427 11.352-22.503 0-1.17.515-3.111 1.144-4.312 1.82-3.473 11.025-14.821 14.856-18.314 1.925-1.754 5.738-5.254 8.474-7.777 2.736-2.522 7.686-6.236 11-8.253 3.314-2.017 9.401-6 13.526-8.852 5.225-3.611 9.483-5.672 14.037-6.794 6.137-1.511 6.896-1.499 12.4.204 4.803 1.486 6.185 2.428 7.645 5.208 3.972 7.563 3.348 12.708-2.386 19.667-5.564 6.754-7.618 8.076-13.48 8.678-11.473 1.179-21.023 3.862-24.15 6.785-4.057 3.79-7.393 4.933-15.305 5.239-9.463.366-10.023 1.037-9.237 11.055l.643 8.187-3.855.617c-2.12.339-5.054.398-6.52.132-1.976-.358-3.08.102-4.263 1.775-1.958 2.77-6.22 16.632-6.996 22.758a640.488 640.488 0 0 1-1.538 11c-.533 3.575-1.164 8.44-1.403 10.81-.777 7.715-3.756 14.316-7.726 17.122-2 1.413-4.65 4.038-5.89 5.835-1.24 1.796-3.205 3.457-4.366 3.69-1.16.234-9.394 2.027-18.296 3.984-8.902 1.958-18.593 3.56-21.534 3.56-4.782 0-5.522-.294-6.982-2.765z"/><path d="M1102.223 992.913c-1.368-.223-3.618-1.183-5-2.133-1.382-.95-5.079-2.283-8.215-2.96-7.148-1.546-8.536-4.12-4.156-7.702 2.28-1.864 4.174-2.37 9.358-2.494 13.666-.33 18.586.264 27.75 3.344 9.13 3.068 9.25 3.15 9.25 6.357 0 3.817-.37 3.975-11.5 4.91-12.117 1.018-14.777 1.12-17.487.678zm-642.096 66.409c-.23-.213-4.017-.691-8.417-1.063-4.4-.372-9.125-.842-10.5-1.045-1.375-.202-5.425-.655-9-1.006-3.575-.35-7.625-.795-9-.99-1.375-.193-5.425-.65-9-1.014s-17.525-3.138-31-6.164a12713.661 12713.661 0 0 0-26-5.823c-4.545-.972-7.117-1.553-13-2.934-3.575-.84-7.4-1.683-8.5-1.875-1.1-.191-5.502-1.15-9.783-2.131-6.324-1.45-7.687-2.092-7.272-3.426.477-1.533 8.34-33.84 9.04-37.143.175-.825 1.731-7.35 3.458-14.5 1.726-7.15 4.746-19.75 6.711-28 1.965-8.25 5.813-24.225 8.55-35.5 2.738-11.275 5.157-21.395 5.376-22.49.219-1.095 1.754-7.62 3.413-14.5 1.658-6.88 5.06-21.06 7.558-31.51 2.499-10.45 6.062-25.3 7.919-33 1.856-7.7 5.019-20.827 7.027-29.171l3.653-15.172 5.175.428c2.846.236 7.384.763 10.083 1.172 2.7.409 8.403.33 12.674-.177 7.329-.87 8.108-.768 13.845 1.807 5.666 2.543 8.073 2.728 8.073.622 0-1.125-21.247-11.472-26.5-12.905-2.2-.601-5.012-1.095-6.25-1.098-1.237-.003-3.15-.906-4.25-2.006-2.205-2.204-5.101-2.55-8.066-.964-2.281 1.22-2.327.895-.843-6.025.856-3.992 1.449-4.986 2.75-4.618 1.482.42 8.548 1.873 15.23 3.133a268.8 268.8 0 0 1 4.429.877c3.337.698 44.82 8.774 47.5 9.247 1.375.242 7.9 1.515 14.5 2.827s13.8 2.558 16 2.769c3.852.368 3.994.509 3.848 3.818-.084 1.89-1.31 11.761-2.723 21.936-1.414 10.175-2.855 20.75-3.202 23.5-.62 4.905-1.835 7.5-3.512 7.5-1.533 0-7.52 6.643-8.824 9.791-.948 2.289-1.01 3.951-.238 6.4 2.224 7.055 1.834 10.51-1.586 14.038-2.219 2.29-2.919 3.71-2.312 4.692.707 1.144 1.463.909 4.036-1.256 1.742-1.466 3.833-2.665 4.647-2.665 1.501 0 1.482 3.151-.137 23-.247 3.025-.706 9.55-1.02 14.5-.314 4.95-.76 11.025-.99 13.5-.23 2.475-.686 9-1.013 14.5-.327 5.5-.77 11.575-.986 13.5-.216 1.925-.675 8.45-1.02 14.5-.346 6.05-.787 12.125-.979 13.5-.193 1.375-.66 7.9-1.038 14.5s-.808 12.675-.956 13.5c-.148.825-.596 7.125-.995 14-.4 6.875-.85 13.175-1 14-.15.825-.6 7.125-1 14s-.877 13.3-1.061 14.279c-.184.978-.43 4.69-.545 8.25-.187 5.778-1.162 7.77-2.977 6.085zM200.65 681.384c-1.067-.704-5.315-2.795-9.44-4.647-6.298-2.828-28.022-14.104-63.674-33.051-11.333-6.023-52.852-31.826-83.576-51.942-10.88-7.123-15.75-10.88-15.75-12.15 0-2.53 3.087-7.38 6.315-9.919 5.8-4.562 2.452-7.506-8.948-7.867-2.259-.072-3.282-.666-3.664-2.128-.292-1.116-.907-1.927-1.367-1.802-1.87.507-5.274-1.399-5.875-3.291-.477-1.506 1.891-5.753 9.313-16.699 13.763-20.3 39.208-57.983 58.867-87.18a71810.958 71810.958 0 0 1 63.213-93.674l12.28-18.175 3.183 1.097c6.56 2.261 8.459 4.512 9.201 10.91.377 3.248 1.736 7.98 3.02 10.517 1.284 2.536 2.627 6.345 2.986 8.465.478 2.831 1.733 4.78 4.73 7.345 3.72 3.185 3.947 3.646 2.583 5.253-2.1 2.475-12.218 18.954-14.59 23.762-1.085 2.2-2.772 6.475-3.748 9.5-.977 3.025-2.78 7.525-4.008 10-4.36 8.792-4.609 8.123 5.96 16.066 7.278 5.471 9.549 7.732 9.549 9.507 0 1.281-1.61 5.411-3.577 9.178-2.335 4.47-3.758 8.76-4.1 12.354-.511 5.395-.449 5.562 3.121 8.285 3.898 2.973 3.741 2.147 2.62 13.781-.035.369-1.38.96-2.99 1.313-3.165.695-6.074 4.25-6.074 7.424 0 1.088-.91 3.522-2.024 5.408-2.182 3.699-1.699 7.01 1.398 9.58 1.14.946 1.442 2.419 1.084 5.276-.383 3.04.02 4.691 1.73 7.093 1.596 2.24 2.27 4.709 2.372 8.695.079 3.074.927 7.081 1.894 8.95 1.683 3.256 1.672 3.656-.293 10.488-2.611 9.082-3.882 16.173-4.613 25.756-.322 4.21-1.081 9.078-1.688 10.818-.98 2.814-.826 3.463 1.396 5.847 3.338 3.581 4.27 5.555 6.236 13.205.915 3.562 2.921 8.813 4.458 11.668 2.041 3.792 2.452 5.324 1.524 5.68-.7.268-1.5 2.657-1.777 5.308-.278 2.651-.83 6.08-1.227 7.618-.86 3.336.418 4.577 8.53 8.284 3.025 1.382 7.23 3.708 9.346 5.168 2.115 1.46 5.04 2.677 6.5 2.703l2.654.047-.279 10.446c-.153 5.745-.406 10.572-.56 10.727-.155.155-1.155-.294-2.221-.997z"/></g></svg>