<svg xmlns="http://www.w3.org/2000/svg" xmlns:xlink="http://www.w3.org/1999/xlink" viewBox="0 0 231.5 199.7"><symbol id="b" viewBox="-6.7 -6.7 13.4 13.5"><use xlink:href="#a" width="13.4" height="13.5" x="-6.7" y="-6.7" overflow="visible"/><text transform="matrix(.95 0 0 -1 -4.88 -2.5)" class="st0" font-family="AvenirNextLTPro-DemiCn" font-size="7">35E</text></symbol><symbol id="g" viewBox="-6.7 -6.7 13.4 13.5"><use xlink:href="#a" width="13.4" height="13.5" x="-6.7" y="-6.7" overflow="visible"/><text transform="matrix(.95 0 0 -1 -6.057 -2.48)" class="st0" font-family="AvenirNextLTPro-DemiCn" font-size="7">35W</text></symbol><symbol id="d" viewBox="-6.7 -6.7 13.4 13.5"><use xlink:href="#a" width="13.4" height="13.5" x="-6.7" y="-6.7" overflow="visible"/><text transform="matrix(.95 0 0 -1 -4.951 -2.5)" class="st0" font-family="AvenirNextLTPro-DemiCn" font-size="7">394</text></symbol><symbol id="e" viewBox="-6.7 -6.7 13.4 13.5"><use xlink:href="#a" width="13.4" height="13.5" x="-6.7" y="-6.7" overflow="visible"/><text transform="matrix(.95 0 0 -1 -4.952 -2.521)" class="st0" font-family="AvenirNextLTPro-DemiCn" font-size="7">494</text></symbol><symbol id="c" viewBox="-6.7 -6.7 13.4 13.5"><use xlink:href="#a" width="13.4" height="13.5" x="-6.7" y="-6.7" overflow="visible"/><text transform="matrix(.95 0 0 -1 -4.952 -2.521)" class="st0" font-family="AvenirNextLTPro-DemiCn" font-size="7">694</text></symbol><symbol id="f" viewBox="-6.7 -6.7 13.4 13.5"><use xlink:href="#a" width="13.4" height="13.5" x="-6.7" y="-6.7" transform="translate(.001)" overflow="visible"/><text transform="matrix(.95 0 0 -1 -3.41 -2.48)" class="st0" font-family="AvenirNextLTPro-DemiCn" font-size="7">94</text></symbol><symbol id="a" viewBox="-6.7 -6.7 13.4 13.5"><path class="st1" d="M0-6.6C-2-6.3-6.6-4-6.6 1.3c0 2.3 1.1 4.5 1.8 5.2.9-.3 1.6-.4 2.4-.4.8 0 1.5.1 2.4.4.8-.3 1.6-.4 2.4-.4.8 0 1.5.1 2.4.4.7-.8 1.8-2.9 1.8-5.2C6.6-4 2-6.3 0-6.6z"/><path class="st0" d="M-6.1 3.9c.4 1.2.9 2.1 1.3 2.6.8-.3 1.6-.3 2.3-.3.8 0 1.6.1 2.5.4.9-.3 1.6-.4 2.5-.4.8 0 1.5.1 2.4.4.3-.6.8-1.5 1.2-2.7H-6.1z"/></symbol><path class="st2" d="M0 0h231.5v199.7H0z"/><path class="st3" d="M94.7 98.7s-.5.3-.2.4c.2.1.2.1.4 0 .1-.1.1-.5-.2-.4zm.7-.3s-.4.1-.2.3c.2.2.3.1.6 0s.6-.3.6-.3-.8-.3-1 0z"/><path class="st4" d="M186-31.5c0 .6.1 27.7.1 27.7l-.4 2.4v7.7s0 1.1-.7 2.5c-.6 1.2-5 7.9-5 7.9s-.3.6-.2 1.8c0 1.2.2 8.3.2 8.3s-.9 5.2-.9 6.2c0 .9.1 7.3 0 8.4-.1 1.1-.6 3.3-1 4.8l-.5 5.4s-.5 2.1-.6 2.7c-.1.5-.6 3.4-.6 3.4l-.1.8"/><path class="st4" d="M186-27l-2.8 3.2-3.4 4.1s-2.2 2-3.2 2.7c-.6.4-5.5 2.6-6.5 3-1 .4-12.6 5.6-12.8 5.8-.2.2-1 .7-1.5 1.5s-1.8 1.6-2.5 2.1c-1.6 1.2-4 2-4 2s-5 1.9-6 2.4c-1.1.6-8.7 9.3-9.2 9.8-.2.2-.5 1.6-.7 3v3.1l.4 17.3s.7 3.8.7 4.1c0 .3.5 5.3.5 5.5-.1.1-.3 6-.3 6s-.5 3.4-.4 3.6c.1.1-.2 3.1-.2 3.3 0 .1-.3 4.7-.3 4.7l-.2 4s.1 1.4.2 2c.1.6 1 4 1.1 4.3 0 .3.1 1.3.1 1.3m32.5-10.6s4.1-2.5 5-2.5c1.7 0 22.4-.3 22.4-.3s3.7.7 4.6.9c.9.1 3.9.9 4.7.9.9 0 3.3 0 4.1.3.9.3 2.2 1.3 2.5 3.4.3 2.1.6 7.1.6 7.6 0 .4 0 3-.3 4.3-.3 1.3-.7 4.7-.6 5.3.1.6.7 6.1.7 6.1l.3 14.2s-.3 4.7-.6 5.3c-.3.6-2.7 4-3 4.4-.3.4-5.8 8-5.8 8s-2.1 2.3-2.3 3.2c-.2.9-1.9 6.1-2.5 6.6-.6.5-1.8 1.7-2.9 1.9-1.1.2-2.6.5-3.3.9-.7.4-2.8 2.3-3.3 2.9-.5.6-2.5.2-3.4.2-.9 0-11.1.1-11.4 0"/><path class="st4" d="M173.4 134.8s-3 2.4-3.9 3.7c-.9 1.3-2.1 3.5-3.5 3.9-1.8.6-2-.3-2.7-.5-.8-.2-1.8-1-3-1-1.6 0-10.3.2-10.3.2s-2.3.7-3.5.7c-1.8 0-10.1.2-10.1.2s-4.5-.5-4.9-.4c-.4.1-1.9-.6-2.2-.7m38.1-43.2s1.4 1.9 2 1.7c.6-.2 1.7-.8 1.7-.8s.7-.7 1-.5c.3.1 1.9.1 2.3.1 1.8-.1 21.4 0 23 .4 1.3.3 4 .8 4.6.8.7 0 54.9-1 56.6-1.2 1.7-.2 5-2.5 6.4-2.8 1.3-.3 6.7-3 7.3-3.3.6-.2 2.2-.8 3.5-.7 1.3.1 17.8-.3 17.8-.3M8.4-15.6s2.9 1.7 3.2 1.8c.3.2 1.9 1.2 2.3 1.8.4.6 5.7 6.5 6 6.7.3.2.5 1.4.4 2.3-.1.9.2 2.5.7 3.2.5.7 7 6.7 7 6.7s1.3 1.4 1.8 3.5 2.2 3.9 2.3 4.4c.1.5 2.7 3.9 2.9 5 .2 1.1 1.1 2.7 1.5 3.3 2.1 2.8 5.2 4.2 6.6 5.7 1.1 1.2 3.6 4.4 3.6 4.4s.7.9.7 3.1.4 6.8.4 6.8.2 1.6-.1 2.7c-.4 1.1-1.6 5.4-1.6 5.9s-.1 5.8-.1 5.8v6.4s-.1 2.5-.4 3.3c-.3.8-1.1 3.7-1.1 4.5v7s-.3 2.9-.4 3.1c-.1.2-.3 4-.3 4l-.1 5.8.4 6.4.2 3.8 1 4s-.2 1.7-.1 2.6c.1.9.7 1.8 1.2 2.6.4.8.7 2.4.7 3 .1.6.3 3.8.4 4.3.1.5.5 4.4.5 4.4s.5 1.7.7 2.1c.2.4.7 2.7.8 3 .1.4.5 2.9.6 3.4.1.5 1 2.1 1.4 3 .4.9 1.2 3.8 1.3 4.1.1.2.1 2.6 2.6 4.2s2.6 1.3 3.8 1.5c1.2.2 9.3-.2 9.3-.2s2-.1 2.8 0c.8.1 3.9-.2 4.3-.1.4-.1 8.4.3 8.4.3s3 .1 3.8-.2c.7-.3 3.6-1.5 3.9-1.6.3-.1 16-.2 16-.2s18.6-.7 19.8-.7c.4 0 .8-.1 1.2-.2"/><path class="st4" d="M101.3 44.7c0 1.9-.2 4.4-.2 4.9-.1.6.1 2.2.3 2.6.2.4.6 2 .6 2.4 0 .4-.1 5.5-.1 5.5s-.8 3.4-.3 4.4c.4 1 1.2 2.5 1.2 3.2 0 .7.1 10.2.1 10.2s.1 2.2-.7 3.3c-.8 1.1-.7 2-.7 3.4s.2 7.4.2 7.4-.3 1.3.3 1.8 1.2 0 1.6-.1c.4-.1 1.7-.7 2.3-.7.6 0 7.8.1 7.8.1s1.7.1 1.9.4c.2.2.3.5.7.6.4.1 2.7.1 2.7.1s1.5-.1 2-.2 1.7-1 2.2-1c.4 0 1.4-.2 2 .4.6.6 1.5 1.8 2.4 2.3.8.5 2.6.4 2.6.4s1.1.2 2.1.9c.9.7 4.3 2.2 4.3 2.2s2.4.8 3.6.8c1.2 0 4.7-.2 4.7-.2l6.9-.1 7.5-.1s1.1.2 1.6.2 3.8 0 4.4-.3c.6-.2 2.2-1.5 2.3-2.3.1-.8 0-4.5 0-4.5s.7-2.4.7-2.9c0-.4-.4-6.4-.4-6.4v-4.8l-.3-8.7.3-6.2s-.2-3.6-.4-4c-.1-.4-1.2-1.6-1.6-1.7-.4-.1-2.1-.9-2.6-1.1-.4-.2-3-2-3.2-2.3-.7-1.3-1.6-2.1-2.2-2.5-.6-.4-3-1.2-3.5-1.3-.5-.1-2.7-1-3.8-1.2-1.1-.2-5.6-1.9-6-2.1-.4-.3-2.3-1.7-2.8-2-.4-.3-5-.3-5-.3H133s-1.9.3-3.1.8c-1.2.5-4.7.4-5 .4-1.1.1-4.4-.2-5.2-.3-.8-.1-4.7-.8-4.9-.9-.2-.1-3.4-.6-5.1-.5-1.8 0-6.5-.2-6.5-.2h-3.7s-2.9-.1-3.4-.1-2.2-.9-2.7-1c-.5-.1-3.7-1.4-4.1-1.5-.4 0-3.5-.3-3.6-.3-.1 0-6.9-.2-6.9-.2s-3-.4-3.3-.4c-.3-.1-3.1-.4-3.1-.4l-4.4-.1s-2-.4-3.3-1c-1.3-.6-5-2.2-5.6-2.4-.6-.2-6.9-1.9-7.5-1.9-.6 0-2-.1-2.4-.3L47 33.8M105.1 208c.2-1.1-.8-6-.8-6s.6-4.1.3-4.9c-.3-.8-2.1-4.7-2.2-5.2-.1-.5-.1-7.1-.1-7.1l-.1-8-.8-6.9-.3-6s-.1-4.4-.1-5c0-.7-2.6-4.4-2.5-5.7.1-1.3-.1-10.5-.1-11s-.2-4.2-.2-4.2.8-4 .9-4.3c.1-.3-.7-4.5 0-4.9.7-.4 7.2-.1 7.2-.1"/><path class="st4" d="M43.7 91.5c5.8-.1 11.9-.2 11.9-.2s2.8-.5 3.6-.8c.8-.3 2.2-.4 3-.4.8 0 4.6-.4 5.3-.2.7.2 1.3.1 2.1.8.8.7 5.3.3 5.9.3.6 0 13.6.1 13.6.1h7.7c.3 0 3-1.5 3.2-1.9.2-.4 1.2 0 1.8-.4 1.1-.6 1.3-.1 1.3-.1m1.6 111.1l2.2-2.1s7-6.2 8.1-6.5c1.2-.3 4.3-3.4 4.8-3.8.4-.4 7-6.5 7-6.5s3.6-3.2 4.4-5c.7-1.8 3.2-5.3 3.2-5.3s2.6-4.5 3.1-4.8c.5-.3 2.3-1.8 2.6-2.1.3-.4.5-2.6.4-3.3-.1-.7.6-2.4 1.1-2.6.5-.1 2.9-4.2 3.6-5.9.7-1.7 2.6-5.5 3.2-6.1.6-.6 1.6-2.7 1.6-3.6.1-.8-.1-3.5 0-4.4.1-.9 1.4-7 2.4-7.5s2.2-1.8 2-3.1c-.2-1.3-.8-3-1.3-3.6-.4-.7-3.1-3.8-3.3-4.5-.1-.7-.4-6.9-.4-6.9s-.2-2.7 1.3-3c1.5-.4 3.3-.3 4.1-.7.7-.4 1.8-2.7 2.7-2.9.8-.2 3.5-1.8 3.8-2.1.4-.4 1.9-2.7 2-3.2.1-.4.1-.7.1-.7m-55.9-6.8c0 1.3 0 3.6.1 4.3.1.7-.1 1.5-.9 2.7-.8 1.2-.8 1.8-.8 1.8l.2 15.8s.3 8.1.1 10.1c-.1 1.4.9 1.1.9 1.1m6-36.3c0-.8 1.4-3 1.8-3.9.4-.9.7-2.7 1.4-3.4.5-.5 1.8-1.6 2.5-2.6.6-.9 0-1.4-.7-2.1-.6-.6-.5-2-.2-2.8.3-.8 1.3-1.5 2.7-1.3.5.1 2.5.5 3.3.3.8-.2 3.9-2.2 4.7-2.6.7-.4 1.3-1.9 2.1-2 .2 0 2-.1 4.6-.1"/><path class="st5" d="M173.4 134.8c-1.6-.8-5.3-3.3-5.3-3.3s-1.5-.5-2.9-.4c-1.4.1-21 .1-21 .1l-1 .7M106 9.9h-3.1s-.9.5-1.9 1c-1 .5-2.5 1.6-3.2 2.8-.6 1.2-2.1 4.1-2.3 4.6-.2.5-1.1 1.9-1.4 2.4-.2.5-.3 1 0 1.8.4.8 1.6 1.7 1.8 2.2.2.5.2 1 .2 1v2.9s-.1 1.1 1.5 1.9c1.6.8 1.9 1.5 2 2 .1.4.9 3 1.1 3.4.2.4-.1 3 0 3.2.1.2.3 2.8.5 3.7.1.3.1 1.1.1 2"/><path class="st6" d="M16.4 88.4s.6 2 1.5 2.2c.9.3 1.9-.1 3.2-.8 1.3-.7 1.9-1.5 2.7-1.1.8.4 3 .7 4 .7 1.1 0 2.5-.4 3.3.4.8.8 1.7 1.5 2.2 1.7.2.1 5.2 0 10.5 0"/><path class="st5" d="M107.1 128.6s3.6.1 4.7-.1c1-.2 1.4-1 2.1-1.6.7-.6 1.9-.7 3-1.1 2.5-1 3.6-.5 3.6-.5s2.6.1 3.7-.2c1.1-.3 3.7-.2 4.7-.4 1.5-.4 2.3-.2 2.9.1.6.3 1.1 1.9 4.3 2.8 1.2.3 2.3 2.1 2.3 2.1.5.8 3.1 2.1 4 2.1 1.7.1 1.4 2.4 1.4 2.4-.3 2 2.9 5.7 3.3 6 .4.3 1.3 2.4 2.1 2.8.7.4 3.4 1.5 4.4 1.8 1 .3 2 1.4 3 3s1.7 1.1 3.9 1.4c2.2.3 4.6 2.2 6.4 3.8 1.8 1.6 3 1.3 4.5 1.5 1.5.1 4.1 1.7 4.7 1.9.5.2 6.4 5 8.1 6.6 1.7 1.6 1.5 3.9 1.7 4.7.2.9 2 7 2 8.9 0 1.9-.1 6.3-.1 6.3l.2 16.7s.1 9.9.1 10.8M133.8 57.3s-2.1 1.7-2.3 2.1c-.2.4-1.9 3.6-2.4 4.1-.5.5-4.2 4.8-4.4 5.3-.1.5-3 5.5-3.6 5.8-.6.3-1 1.5-1 1.5m-7 16.2c0 .8 1.9 3.5 2.3 4.3l3.3 5.2c0 .3 3.3 7 4.4 9.2.2.4.3.6.4.7l5.4 12.7m6.3-52.6c7.4-.1 21.2-.2 21.6-.1.4.1 2.7.4 3 .4.2 0 3.7.1 4.3-.1.6-.2 2.9-.6 3.4-.7.4-.1 2.7.5 3.3.5.5 0 2.6.1 3.1 0s1.1-.1 2-.6c.9-.5 2.3-.4 2.3-.4s17.3-.3 18.8-.4c1.5-.1 3.6-2 3.6-2s6.6-5.4 7-5.7c.4-.3 1.8-.4 2.4-.7.6-.3 2.7-2 3.4-2.7.6-.6 1.2-.5 1.2-.5l4 .1 24.9-.5s18.1-.5 20.4-.5c1.4 0 1.9-1.5 1.6-2.6-.3-1.1-1.6-3-1.6-3M117.8 13.6s2.4 1 3 1.1c.7.1 2.9 1.3 3.1 1.6.2.4 3.7 4.4 4.4 4.6.5.5 3.7 1.4 5.2 1.3m44.8 135.7s.1-25.2 0-25.6c-.2-.9-.3-.7-1.3-1.9s-.7-1.7-.8-2.6c-.1-.9 0-8.7 0-8.7s.8-2.5.6-3.6c-.2-1.1-1.9-4.3-1.9-4.3s-1-3.5-1.1-3.8c-.1-.2-3.7-8.6-3.7-8.6M61.7-19.6c.6.5 3.5.7 3.5.7h13.1c1.4 0 1.9.8 2.7 1.8.8 1 3.6 4.6 4.7 5.5 1.1.9 2.3 1.8 2.3 1.8l3.3 2.1s2.5 1.8 3.3 2.3c.7.5 5.5 5.2 5.5 5.2l4.8 6.6s1.2 1.5 1.2 2.1c0 .6-.1 6.2 0 6.8.1.9 2.1 2.5 2.2 3.6 0 1.1.1 6.9.1 6.9l.5 19.1.3 13v22l1.8 3.7 4.6 1.5m13.3-11.5V76l-.5.9.2 2.8s.3 2.4.5 3.3c.2.9.4 1.8.4 3.8 0 1 .4 6 .4 6l.2 3.2M65.5 28.3l1.5 2.8 4.1 8.4 3 6.6 4.1 7.3 3.2 4.7.9 2.1s.8 1 1.5 2 3 3.6 3 3.6l4.9 6.3 4.5 4.8h6.3"/><path class="st6" d="M61.5 22.7s-.1.3.8 1c.7.5 1.5 1.6 1.7 1.8.2.2 1 2.1 1 2.1l.4.8"/><path class="st5" d="M65.8-7.2s-.4 22.1 0 23.9c0 0 .9 2.4.8 3.1-.1.7-.7 3.5-.7 3.8 0 .3.2 2.5 0 3-.1.4-.4 1.9-1 2.2-.5.4-2.7.8-2.7 3.1s.2 8.4.2 8.4l.3 4.7.3 6.9v5.7l.1 8.4.1 8.2.4 17.6.2 11s-.4.7.4 2.1c.8 1.4 1 2.7 1 3.3 0 .5-.7 3.9-1.2 4.4-.4.5-.4 2.1-.4 3 0 .9.1 6.1.1 6.1s.1 4.9.1 5.4.8 1.5.8 2.2c0 .7-.2 3.4-.1 3.8 0 .5.1.3.5 1.3s.4 1.8.4 2.7c0 .8.1 3.8.1 3.8s.7 3.4.9 3.8c0 0-3.4 1.1-3 5.9s.7 21 .7 21-.1 5.5-7.7 7.5c-7.6 2-14.5.6-22.9 2.1s-16.8 2.5-23 1.7c-6.2-.8-5 2.3-8.5 6.1"/><path class="st5" d="M47.7 112.7c.4-.3.8-.3 1.4-.4.5-.1 2.1-.4 2.4-.3.5.1 4.4-2.5 5-2.8.6-.3 1.3-.4 2.5-.4 1.2-.1 6.3-.7 7-.6.7.1 8.3-1.1 8.3-1.1s2.6-.1 2.9-.1c.6 0 2.1-1 2.6-1.3.5-.4 2.3-1.8 2.7-1.9.5 0 5.3-2.6 5.3-2.6s4-1.2 5-1.2 12.9-.2 12.9-.2"/><path class="st6" d="M2.1 129.3s2.1.2 2.7-.6c.6-.7 3-2.5 3.6-2.6.5-.1 2.1-.9 2.4-1 .3-.1.4-.3 1.4-.4 1-.1 1.9-.7 2.3-1 .4-.4 1.2-1.1 1.9-1.1s2.9-.8 3.5-1.2c.6-.4 3.8-2.1 4.1-1.9.4.1 1.1.4 1.8.5.7.1 2.1-.4 2.8-.8.7-.4 6-3 6-3l10.4-2.6s2.3-.5 2.7-.8"/><path class="st5" d="M61.9 176.3c.6.4 1.2.8 1.9 1.2.5.3.8 1.1 2.8 2 2 .9 1.5.8 3.8 1.3s7.4 1 7.9.9c.5-.1 7.5-.8 9.5 0s9.2 2.9 9.2 2.9 4.3-1 4.7-1.1c.4-.1 3.8-1.2 4.2-1.3"/><path class="st7" d="M18 173.8c.9-.2 9.9-2.5 15.5-2.7 1.6-.1 2.1-.7 4 0 1.3.4 10.4 2.3 10.7 2.5.3.2 1.5.4 1.5.4s6.8-.1 7.7-.2c.9-.1 2.2.9 3.2 1.6.4.3.9.6 1.3 1"/><path class="st5" d="M106.4 128.4s-.7.3-3.5.2c-2.8-.1-9.5 0-9.5 0s-3.2-.1-3.7.9c-.3.5-2 1.3-4 1.2-1.8-.1-2.4-.4-3-.7-.6-.3-2.6-1-3.5-.6-.9.4-2.7.7-3.3.8-.6.1-2.5-.1-3.6-.3-1.1-.2-6-.9-6.7-1-.7-.1-3.3.3-4.1 1.4-.8 1.1-1.8 3.5-1.9 4-.1.6-.1 4.9-1 5.5-.8.6-2.2 1.5-3.3 1.7 0 0-4.3.5-14.1 1.1-7.2.4-4.4 5.6-19.4 7.2-4 .4-7.4 1.5-9.8 4.9-3 4.3-4.2 7.9-10.2 7.9 0 0-7.6.9-11.8 4.2-4.2 3.3-5.4 3.7-5.5 9s.1 6.8-4.1 7.5m69.4-54.2s1.8-.9 2.8-.9c4.1 0 5.1-.3 5.8-.4.8 0 3.4.4 4 1.7"/><path class="st6" d="M43.7 72.3c-.9-.2-4-1.6-5-2.2-.6-.4-2.6-1.3-3.2-1.1-1.4.4-2.7-1.3-2.7-1.3l-8.4-8.3s-1.3-1.5-4.1-1.6"/><path class="st5" d="M102.6 84.4l-24.8.2s-2.8.6-4.2.7c-1.5.1-4.1-.5-4.7-.7-.6-.2-2.7.1-3.2.4-.5.3-1.5.5-2.2.4-.7-.1-2-.4-2.6-.4-.6 0-2-1-2.7-1.3-.7-.3-2.2-1.2-2.7-1.2s-3.3-1.7-3.7-2.2c-.4-.5-3.2-5.2-3.8-5.7-.6-.5-3.3-2.2-4.2-2.4"/><path class="st5" d="M96.7 44.6s.6 1.9-.1 2.5c-.7.6-3.5 3-4 3.5s-3.2 2.4-3.5 3.1c-.3.7-2 4-3.1 4.5s-4 2.1-4.2 2.6c-.2.5-.9 3.4-.8 3.8.1.4-.1 2.2-.1 2.2s-.7 1.1-.7 1.6c.1 1 .3 15.6.3 15.6s-.2 2.4.5 3.3c.5.6 2.9 1.4 2.9 3.2 0 .6-.8 2.9-1 3.5-.2.6-1.7 4.2-1.6 4.9.1.7.1 5.8 0 6.4-.1.6-.5 2.6-.7 3.1-.2.5.4 1.7.4 2.4m.1-.3s0 3.7-.1 4.3c-.1.7-.1 3.6-.1 4.6 0 1.1.1 4.1.2 5.1s-.2 14-.2 14l-.1 5.5m103.5-45.8s-.4 2.4.1 3.1c.2.2.8.3 1.1.7.3.4 1 1.6 1.2 1.9.1.4 1.3 1.8 1.5 2.4.2.6 2.2 2.9 2.4 3.5.2.6 1 1 1.1 1.3.2.3 1 3 1.1 3.5.1.5 2.8 10.1 2.8 10.1s1.3 3.6 1.5 3.9c.2.4.7 4.5.7 5.2 0 .7 1.6 7.2 1.9 8.1.3 1 1.7 2.8 2.2 3.6.5.7 5.9 5.5 6.1 6 .2.5 3.7 4 4.1 4.4.4.4 3 2 3.3 2.2.2.2 4.7 4.1 5.7 4.7 1 .6 3.8 2.2 3.8 2.2s6.8 4.3 7.6 5.3c1.1 1.3 1.8.7 2.7 1.3 1 .7 2.2 1.8 2.7 2.4.5.6 2.6 2 3.3 2.7.7.7 3.8 2.4 4 2.7.2.3-.1 3.6.3 4.2.4.5 3.1 3.4 3.2 3.8.1.4.4 8.8.4 9 0 .2-.1 8.4-.1 8.4M117.1-20.8l.4 8.5.3 30.1s0 1.3-.4 2.1-2.3 3.9-2.4 5.4c-.1.9.3 13 .4 14.1 0 1.5-1.5 3.2-1.4 5 0 1.3.1 4.9.1 4.9l.3 18v3.1s-.5 5.9-.5 7.8c0 2-4.6 8.3-4.6 8.3"/><path class="st5" d="M141.5 45.3s-1.2-3.5-2-4.3c-.8-.9-5.5-6.4-6-7.3-.5-1-3.3-3.9-4.6-4.7-1.3-.9-8.7-7.3-9.4-7.7-.7-.4-1.1-1.1-2.9-1.3-1.6-.2-2.7-1.4-3.5-1.8-1.2-.5-4-2.3-4.4-2.7.2.2-1.1-.6-2.6-2.1m20.4 193.9l-.2-21s.4-4.4-.2-5.8c-.6-1.4-1.6-4.7-1.6-6 0-1.3-.1-4.5.3-5.1.4-.6.8-4.4-.1-6.1-.6-1.1-.9-2.2-1.4-2.7-2.5-3-2.8-2.7-4.4-5.3-.3-.5-2.7-3.9-3-4.7-.3-.8-.4-10.2-.4-10.2v-14.1"/><path class="st5" d="M118.3 175.1c.3-.4 2.6-4.3 2.6-4.3l-.1.1s1.8-2 1.8-2.7c0-.7.2-3.4 1-3.6.8-.2 3.6-1.9 4.1-2.2.6-.3 2.8-2.4 3.2-2.7 0 0 7.5-13.9 8-16.5s2.8-6.5 5.6-6.6"/><path class="st5" d="M105.9 182.2c.2 0 1.1-1 2.1-1.8 1-.7 3.9-1.3 3.9-1.3h-.2s2.1-.1 2.9-.7c.8-.6 3.6-3 3.9-3.6m-24.4-154H83.7c-3.2 0-2.5-2.2-5.7-2.2H51.8L46.6 16H33.8"/><use xlink:href="#b" width="13.4" height="13.5" x="-6.7" y="-6.7" transform="matrix(.6 0 0 -.6 179.583 26.815)" overflow="visible"/><use xlink:href="#b" width="13.4" height="13.5" x="-6.7" y="-6.7" transform="matrix(.6 0 0 -.6 150.311 117.448)" overflow="visible"/><use xlink:href="#c" width="13.4" height="13.5" x="-6.7" y="-6.7" transform="matrix(.6 0 0 -.6 211.108 76.9)" overflow="visible"/><use xlink:href="#c" width="13.4" height="13.5" x="-6.7" y="-6.7" transform="matrix(.6 0 0 -.6 73.507 40.54)" overflow="visible"/><use xlink:href="#d" width="13.4" height="13.5" x="-6.7" y="-6.7" transform="matrix(.6 0 0 -.6 76.004 91.531)" overflow="visible"/><use xlink:href="#e" width="13.4" height="13.5" x="-6.7" y="-6.7" transform="matrix(.6 0 0 -.6 189.757 132.932)" overflow="visible"/><use xlink:href="#e" width="13.4" height="13.5" x="-6.7" y="-6.7" transform="matrix(.6 0 0 -.6 109.357 141.552)" overflow="visible"/><use xlink:href="#e" width="13.4" height="13.5" x="-6.7" y="-6.7" transform="matrix(.6 0 0 -.6 45.456 60.571)" overflow="visible"/><use xlink:href="#f" width="13.4" height="13.5" x="-6.7" y="-6.7" transform="matrix(.6 0 0 -.6 193.76 98.19)" overflow="visible"/><use xlink:href="#f" width="13.4" height="13.5" x="-6.7" y="-6.7" transform="matrix(.6 0 0 -.6 142.024 99.696)" overflow="visible"/><use xlink:href="#f" width="13.4" height="13.5" x="-6.7" y="-6.7" transform="matrix(.6 0 0 -.6 39.065 25.739)" overflow="visible"/><use xlink:href="#g" width="13.4" height="13.5" x="-6.7" y="-6.7" transform="matrix(.6 0 0 -.6 106.401 116.29)" overflow="visible"/><use xlink:href="#g" width="13.4" height="13.5" x="-6.7" y="-6.7" transform="matrix(.6 0 0 -.6 133.827 31.62)" overflow="visible"/><path class="st8" d="M59 35.2c1.1 0 1.9-.9 1.9-1.9 0-1.1-.9-1.9-1.9-1.9-1.1 0-1.9.9-1.9 1.9 0 1 .9 1.9 1.9 1.9"/><text transform="translate(46.736 31.088)"><tspan x="0" y="0" class="st8 st9 st10">1</tspan><tspan x="4.3" y="0" class="st8 st9 st10">3</tspan></text><path class="st11" d="M129.6 23.5c1.1 0 1.9-.9 1.9-1.9 0-1.1-.9-1.9-1.9-1.9-1.1 0-1.9.9-1.9 1.9 0 1.1.8 1.9 1.9 1.9"/><text transform="translate(120.446 24.42)" class="st11 st9 st10">1</text><path class="st12" d="M204.9 64.2c1 0 1.9-.8 1.9-1.9 0-1-.8-1.9-1.9-1.9-1 0-1.9.8-1.9 1.9.1 1 .9 1.9 1.9 1.9"/><text transform="translate(203.287 59.263)" class="st12 st9 st10">7</text><path class="st12" d="M193.6 63.7c1 0 1.9-.8 1.9-1.9 0-1-.8-1.9-1.9-1.9s-1.9.8-1.9 1.9c0 1.1.8 1.9 1.9 1.9"/><text transform="translate(179.966 65.202)"><tspan x="0" y="0" class="st12 st9 st10">1</tspan><tspan x="4.2" y="0" class="st12 st9 st10">0</tspan></text><path class="st12" d="M203.1 152.9c1.1 0 1.9-.9 1.9-1.9 0-1.1-.9-1.9-1.9-1.9-1.1 0-1.9.9-1.9 1.9-.1 1.1.8 1.9 1.9 1.9"/><text transform="translate(193.903 156.1)" class="st12 st9 st10">9</text><path class="st12" d="M177.6 112.6c1.1 0 1.9-.9 1.9-1.9 0-1.1-.9-1.9-1.9-1.9-1.1 0-1.9.9-1.9 1.9-.1 1.1.8 1.9 1.9 1.9"/><text transform="translate(169.377 113.696)" class="st12 st9 st10">8</text><path class="st13" d="M141.6 155.4c1.1 0 1.9-.9 1.9-1.9 0-1.1-.9-1.9-1.9-1.9s-1.9.9-1.9 1.9c0 1.1.8 1.9 1.9 1.9"/><text transform="translate(130.356 151.349)"><tspan x="0" y="0" class="st13 st9 st10">1</tspan><tspan x="4.3" y="0" class="st13 st9 st10">5</tspan></text><path class="st13" d="M21.4 186.6c1.1 0 1.9-.9 1.9-1.9 0-1.1-.9-1.9-1.9-1.9-1.1 0-1.9.9-1.9 1.9 0 1.1.8 1.9 1.9 1.9"/><text transform="translate(10.14 182.589)"><tspan x="0" y="0" class="st13 st9 st10">1</tspan><tspan x="4.3" y="0" class="st13 st9 st10">6</tspan></text><path class="st13" d="M112 182.4c1.1 0 1.9-.9 1.9-1.9 0-1.1-.9-1.9-1.9-1.9-1.1 0-1.9.9-1.9 1.9 0 1.1.9 1.9 1.9 1.9"/><text transform="translate(102.987 177.522)"><tspan x="0" y="0" class="st13 st9 st10 st14">1</tspan><tspan x="3.5" y="0" class="st13 st9 st10">4</tspan></text><path class="st11" d="M125 149.6c1.1 0 1.9-.9 1.9-1.9 0-1.1-.9-1.9-1.9-1.9-1.1 0-1.9.9-1.9 1.9 0 1 .8 1.9 1.9 1.9"/><text transform="translate(121.462 157.974)" class="st11 st9 st10">5</text><path class="st15" d="M94.4 135.5c1.1 0 1.9-.9 1.9-1.9 0-1.1-.9-1.9-1.9-1.9-1.1 0-1.9.9-1.9 1.9-.1 1 .8 1.9 1.9 1.9"/><text transform="translate(92.792 130.088)"><tspan x="0" y="0" class="st15 st9 st10">1</tspan><tspan x="4" y="0" class="st15 st9 st10">2</tspan></text><path class="st16" d="M60.4 133.7c1.1 0 1.9-.9 1.9-1.9 0-1.1-.9-1.9-1.9-1.9-1.1 0-1.9.9-1.9 1.9 0 1 .9 1.9 1.9 1.9"/><text transform="translate(51.228 127.555)"><tspan x="0" y="0" class="st16 st9 st10">1</tspan><tspan x="4.2" y="0" class="st16 st9 st10">7</tspan></text><path class="st16" d="M46.5 147.3c1.1 0 1.9-.9 1.9-1.9 0-1.1-.9-1.9-1.9-1.9s-1.9.9-1.9 1.9c-.1 1.1.8 1.9 1.9 1.9"/><text transform="translate(42.331 155.107)"><tspan x="0" y="0" class="st16 st9 st10">1</tspan><tspan x="4.1" y="0" class="st16 st9 st10">8</tspan></text><path class="st16" d="M19 156.7c1.1 0 1.9-.9 1.9-1.9 0-1.1-.9-1.9-1.9-1.9-1.1 0-1.9.9-1.9 1.9 0 1 .9 1.9 1.9 1.9"/><text transform="translate(20.881 164.38)"><tspan x="0" y="0" class="st16 st9 st10">2</tspan><tspan x="4.1" y="0" class="st16 st9 st10">0</tspan></text><path class="st11" d="M94.7 97.1c1.1 0 1.9-.9 1.9-1.9 0-1.1-.9-1.9-1.9-1.9-1.1 0-1.9.9-1.9 1.9 0 1.1.9 1.9 1.9 1.9"/><text transform="translate(85.508 98.185)" class="st11 st9 st10">4</text><path class="st12" d="M193.9 141.3c1.1 0 1.9-.9 1.9-1.9 0-1.1-.9-1.9-1.9-1.9-1.1 0-1.9.9-1.9 1.9 0 1 .8 1.9 1.9 1.9"/><path class="st11" d="M58.6 98.2c1.1 0 1.9-.9 1.9-1.9 0-1.1-.9-1.9-1.9-1.9-1.1 0-1.9.9-1.9 1.9 0 1 .9 1.9 1.9 1.9"/><text transform="translate(50.344 101.288)" class="st11 st9 st10">3</text><path class="st12 park-ride-6" data-toggle="popover" data-placement="top" data-content="Insert content here." d="M105.4 42.1c1 0 1.9-.8 1.9-1.9 0-1-.8-1.9-1.9-1.9-1 0-1.9.8-1.9 1.9 0 1.1.9 1.9 1.9 1.9"/><text transform="translate(102.215 36.6)" class="st12 st9 st10">6</text><path class="st16" d="M34.5 150.4c1.1 0 1.9-.9 1.9-1.9 0-1.1-.9-1.9-1.9-1.9s-1.9.9-1.9 1.9c0 1 .9 1.9 1.9 1.9"/><text transform="translate(28.283 144.398)"><tspan x="0" y="0" class="st16 st9 st10">1</tspan><tspan x="4.1" y="0" class="st16 st9 st10">9</tspan></text><path class="st11" d="M65.1 48.2c1.1 0 1.9-.9 1.9-1.9 0-1.1-.9-1.9-1.9-1.9-1.1 0-1.9.9-1.9 1.9 0 1.1.9 1.9 1.9 1.9"/><text transform="translate(62.509 58.874)" class="st11 st9 st10">2</text><text transform="translate(197.33 142.118)"><tspan x="0" y="0" class="st12 st9 st10 st14">1</tspan><tspan x="3.5" y="0" class="st12 st9 st10">1</tspan></text></svg>