<svg xmlns="http://www.w3.org/2000/svg" xmlns:xlink="http://www.w3.org/1999/xlink" viewBox="0 0 330 280"><defs><style>.cls-1,.cls-2,.cls-3{font-size:7px;font-family:AvenirNextLTPro-DemiCn, Avenir Next LT Pro;}.cls-1,.cls-2,.cls-3,.cls-5{fill:#231f20;}.cls-1{letter-spacing:-0.02em;}.cls-2{letter-spacing:-0.05em;}.cls-4,.cls-8{fill:#fff;}.cls-4{stroke:#231f20;stroke-width:0.3px;}.cls-6{fill:#f5f1e9;}.cls-7{fill:none;stroke:#d1d3d4;stroke-linecap:round;stroke-width:3.9px;}.cls-8{font-size:14px;font-family:AvenirLTStd-Black, Avenir LT Std;}</style><symbol id="Hwy:_Shield_-_Interstate" data-name="Hwy: Shield - Interstate" viewBox="0 0 13.44 13.47"><path class="cls-4" d="M6.72,13.32A8.14,8.14,0,0,1,.15,5.4,8.51,8.51,0,0,1,2,.18a6.06,6.06,0,0,0,2.35.4A6.32,6.32,0,0,0,6.72.19,6.34,6.34,0,0,0,9.1.58a6.17,6.17,0,0,0,2.37-.4A8.61,8.61,0,0,1,13.29,5.4,8.14,8.14,0,0,1,6.72,13.32Z"/><path class="cls-5" d="M.64,2.86A8.21,8.21,0,0,1,1.91.2,6.38,6.38,0,0,0,4.26.57,6.7,6.7,0,0,0,6.72.18,6.71,6.71,0,0,0,9.18.57,6.37,6.37,0,0,0,11.53.2,8.25,8.25,0,0,1,12.8,2.86Z"/></symbol><symbol id="Hwy:_I-35E" data-name="Hwy: I-35E" viewBox="0 0 13.44 13.47"><use width="13.44" height="13.47" xlink:href="#Hwy:_Shield_-_Interstate"/><text class="cls-1" transform="translate(1.7 9.25)">35E</text></symbol><symbol id="Hwy:_I-694" data-name="Hwy: I-694" viewBox="0 0 13.44 13.47"><use width="13.44" height="13.47" xlink:href="#Hwy:_Shield_-_Interstate"/><text class="cls-3" transform="translate(1.3 9.27)">694</text></symbol><symbol id="Hwy:_I-394" data-name="Hwy: I-394" viewBox="0 0 13.44 13.47"><use width="13.44" height="13.47" xlink:href="#Hwy:_Shield_-_Interstate"/><text class="cls-3" transform="translate(1.3 9.25)">394</text></symbol><symbol id="Hwy:_I-494" data-name="Hwy: I-494" viewBox="0 0 13.44 13.47"><use width="13.44" height="13.47" xlink:href="#Hwy:_Shield_-_Interstate"/><text class="cls-3" transform="translate(1.3 9.27)">494</text></symbol><symbol id="Hwy:_I-94" data-name="Hwy: I-94" viewBox="0 0 13.44 13.47"><g id="ICONS"><use width="13.44" height="13.47" xlink:href="#Hwy:_Shield_-_Interstate"/><text class="cls-3" transform="translate(3.05 9.23)">94</text></g></symbol><symbol id="Hwy:_I-35W" data-name="Hwy: I-35W" viewBox="0 0 13.44 13.47"><use width="13.44" height="13.47" xlink:href="#Hwy:_Shield_-_Interstate"/><text class="cls-2" transform="translate(1 9.23) scale(0.95 1)">35W</text></symbol></defs><title>Artboard 1</title><g id="background"><rect class="cls-6" width="330" height="280"/></g><g id="ROADS:_Interstate" data-name="ROADS: Interstate"><path class="cls-7" d="M125.34,70.78c0,2.71-.38,5.42-.37,8.12,0,2.39,1.65,13.35,1.35,16.46-.17,1.76,1,9.75,1.42,12.22.53,3.54.07,7.5.1,11.07,0,2.67-2.31,12.94-2.31,16,0,2.32.19,10,.31,11.48.25,3.1.82,3.39,3.77,2.31,3.77-1.38,7.75-.84,11.73-.79,1.23,0,2.49,0,3.72.05,2.08.17,2.88,1.18,4.6,1.71a13.53,13.53,0,0,0,4.2.07c2.5-.15,3.95-1.56,6.23-2,3.37-.68,4.06,2.45,6.49,3.92a128.23,128.23,0,0,0,17.58,6.78c6.44,1.63,14.79.31,21.44.24,6.15-.06,12.49.52,18.58.13,0,0,8.47-.58,9.82-.52s3.37-1.8,4.75-2c2.44-.38,25.36.08,34,.36,4.87.16,9.57,1.54,14.41,1.6s9.63-.17,14.44-.26q25.45-.46,50.91-1c6.37-.13,12.74-.26,19.11-.43a39.5,39.5,0,0,0,4.39-.14c3.76-.53,7-3.12,10.5-4.47,4-1.53,7.69-3.67,11.65-5.2,3.55-1.37,7.27-1.08,11-1.13,7.66-.11,15.32-.28,23-.45"/><path class="cls-7" d="M33.59,145.37c6.23-.09,12.69.29,18.9-.31,4.29-.42,8.3-1.85,12.65-2.12a32.69,32.69,0,0,1,6.58-.24c2.48.35,4.08,1.81,6.68,1.94,3,.15,5.95-.17,8.91-.14,6.67.07,13.33.16,20,.22,3.46,0,7.77.79,11.15.07,2.7-.57,7.24-5.72,10.11-3.77"/><path class="cls-7" d="M38.69,53.32C42,55,45,55.2,48.52,56.06a96.64,96.64,0,0,1,11.25,3.17C63.93,60.8,68,63.44,72.45,64c3.17.42,6.39.16,9.57.62,2.74.39,5.49.88,8.26,1.05,7,.44,26.79,4.67,30.71,4.72,2.59,0,5.19,0,7.78,0,4.79.13,9.73,0,14.49.6,3.79.46,30.81.53,34.79.48a67.14,67.14,0,0,1,10,.16c3.35.48,17.78,7.34,22.1,8.69,2.23.7,9,6.15,10.84,7.59,7.71,6,26,4.62,29.09,4.58,8-.11,15,0,23.06.08,6.48.09,12.75,2.59,19.27,2.85,6.27.25,7.76,3.73,8.27,9.58.4,4.49.85,9.1.32,13.6-.5,4.18.55,34.31.46,41.79,0,2.66,0,5.79-.72,8.34a7.16,7.16,0,0,1-.84,1.76c-3.38,5.4-15,20.34-16.42,22.82-2,3.61-1.91,8.47-4.53,11.77-2.25,2.84-5.42,2.7-8.46,3.89-2.57,1-3.9,3.14-6.1,4.64-2.7,1.85-17.06.89-19.93.87a10.14,10.14,0,0,0-7.21,2.94,37.62,37.62,0,0,0-4.14,4.66c-2.53,3.67-4.52,5.67-8.77,3.71-5.82-2.68-14.53-2-20.82-1.31-10.44,1.1-39.22.56-41.36.63-11.6.42-23.18,1-34.78,1.11-5.52.06-12.16-.87-17.55.37-3.79.87-15.13,2.45-17.55,2.3-6.42-.37-12.72-.48-19.16-.28-5.5.17-12.69,1.78-17.94-.29-4.15-1.63-6-4.61-7.12-8.59s-7.47-24-8.36-30.49c-.45-3.27-3.92-21-4.11-22.22-.44-3-1.44-11.32-1.56-12.64-1.08-11.83.74-23.29.74-35,0-6.61,2-30.94,2.47-36.77.26-3.4,2.48-16.72,2.25-20.13s.28-7.47-1.65-10.55a34.49,34.49,0,0,0-8.75-9.26c-4.9-3.59-7.41-6.64-9.7-12.2A31.33,31.33,0,0,0,15,22.86c-3-3.73-3.43-9-6.61-12.5C6.24,7.95,3.57,5.88,1.23,3.64-1.85.7-3.47-.78-3.76-5.27c-.25-3.81-2-5-4.52-7.77-2.08-2.29-4-4.94-6.21-7.08s-5.54-3.69-8.29-5.27"/><path class="cls-7" d="M130.82,318.29c8.31-7.74,17.74-13.82,26-21.49,4.23-3.93,8.71-7.69,12.71-11.87,4.62-4.83,7.52-11.51,11.05-17.21a18.87,18.87,0,0,1,2.55-3.62c1.16-1.14,3.06-1.84,4-3.25,1.92-3,.47-6.55,2.77-9.59,4.65-6.12,7.38-13.46,11.41-20,2.38-3.85,1.58-7.15,1.91-11.39a32.36,32.36,0,0,1,2.55-10c.77-1.74,1.54-2,2.84-3.27,2.46-2.44,1.74-5.45.39-8.34s-4.71-5.23-5.81-8.38c-1-3-.57-7.21-.63-10.33-.08-4.12.79-5.53,5.06-6.14,3-.42,3.65-.91,5.5-3.18,1.56-1.92,3-2.3,5.07-3.46,3.06-1.69,12.92-11.09,12.95-15.89,0-3.16-.16-40.33.16-46.94,0-.94.09-2.6.12-4.38a7.13,7.13,0,0,1,7.64-7h0a6.61,6.61,0,0,0,7-5.41c1.76-9.67,3.63-19.41,3.59-29.18,0-5.31.86-10.1,1.33-15.36.43-4.79-1-9.93-.19-14.67s5.37-8.91,7.64-13c2.43-4.42,1.78-9.1,1.78-14,0-2.94.58-5.68.7-8.59.19-4.64-.05-9.35-.08-14-.05-9.71-.15-19.43-.15-29.15"/><path class="cls-7" d="M135.27,147.54c0,4,.56,7.47-1.3,11.1a9,9,0,0,0-1.28,4.28c-.37,5.38.59,32.43.72,36.47a4.78,4.78,0,0,1-4.78,4.93h-3.06a4.78,4.78,0,0,0-4.79,4.72c0,4.41-.08,10.75.06,13.79.33,6.93.26,13.89.4,20.81a5.7,5.7,0,0,0,.18,1.46c.74,2.59,2.91,4.68,3.57,7.27,1,3.77,1.58,25.6,1.58,25.6s.27,16.92.61,25.37c.2,4.86,3.89,8.58,3.61,13.51a39.85,39.85,0,0,0-.29,6.09c.25,2.69,1.4,5.61,1,8.34"/><path class="cls-7" d="M144.21,146.71c-.13-2.09,4-10.39,5.64-12.26.94-1.08,2.83-2.1,3.34-3.48.75-2-.33-1.7-1.1-3.31-1.07-2.24-1-5.17,1.67-6.29,2.24-.95,4.6.6,6.89.31s9.27-6.29,10.88-7.12a8.53,8.53,0,0,1,3.43-.61,3.19,3.19,0,0,0,3.05-3.88,48.47,48.47,0,0,1-1.27-8.12c-.08-3.17,1.79-23.4,2.18-30.33.36-6.46-.8-12.45-1.61-18.82-.75-6-.37-12.26-.51-18.28-.12-5.2-1.53-13.42.45-18.36,1.11-2.77,3.84-5,5.83-7.25C185.7,6,188.3,2.47,191.41,0c5.94-4.64,14.2-4.7,19.91-10.14,2.61-2.49,4-3.86,7.21-5.37,4-1.86,8.05-3.67,12.1-5.46,6.6-2.92,13.8-5.07,19.13-10.11,4-3.74,7.25-8.48,10.82-12.62"/></g><g id="ICONS:_interstate" data-name="ICONS: interstate"><use id="Hwy:_I-35E-3" data-name="Hwy: I-35E" width="13.44" height="13.47" transform="translate(243.6 35.5)" xlink:href="#Hwy:_I-35E"/><use id="Hwy:_I-35E-6" data-name="Hwy: I-35E" width="13.44" height="13.47" transform="translate(187.09 238.44)" xlink:href="#Hwy:_I-35E"/><use id="Hwy:_I-694-3" data-name="Hwy: I-694" width="13.44" height="13.47" transform="translate(293.89 115.4)" xlink:href="#Hwy:_I-694"/><use width="13.44" height="13.47" transform="translate(74.36 57.39)" xlink:href="#Hwy:_I-694"/><use id="Hwy:_I-394-3" data-name="Hwy: I-394" width="13.44" height="13.47" transform="translate(78.34 138.75)" xlink:href="#Hwy:_I-394"/><use id="Hwy:_I-494-3" data-name="Hwy: I-494" width="13.44" height="13.47" transform="translate(259.83 204.8)" xlink:href="#Hwy:_I-494"/><use width="13.44" height="13.47" transform="translate(29.6 89.35)" xlink:href="#Hwy:_I-494"/><use id="Hwy:_I-94-3" data-name="Hwy: I-94" width="13.44" height="13.47" transform="translate(266.22 149.37)" xlink:href="#Hwy:_I-94"/><use id="Hwy:_I-94-6" data-name="Hwy: I-94" width="13.44" height="13.47" transform="translate(183.68 151.77)" xlink:href="#Hwy:_I-94"/><use id="Hwy:_I-35W-3" data-name="Hwy: I-35W" width="13.44" height="13.47" transform="translate(114.65 239.33)" xlink:href="#Hwy:_I-35W"/><use id="Hwy:_I-35W-6" data-name="Hwy: I-35W" width="13.44" height="13.47" transform="translate(170.6 50.66)" xlink:href="#Hwy:_I-35W"/><use width="13.44" height="13.47" transform="translate(12.98 23.97)" xlink:href="#Hwy:_I-94"/><use width="13.44" height="13.47" transform="translate(120.41 96.75)" xlink:href="#Hwy:_I-94"/></g><g id="Park_And_Ride_locations" data-name="Park And Ride locations"><text class="cls-8" transform="translate(53.81 52.25)">1</text><text class="cls-8" transform="translate(162.08 38.78)">2</text><text class="cls-8" transform="translate(268.79 107.66)">3</text><text class="cls-8" transform="translate(53.21 159.86)">4</text><text class="cls-8" transform="translate(106.26 222.34)">5</text></g></svg>