<svg xmlns="http://www.w3.org/2000/svg" xmlns:xlink="http://www.w3.org/1999/xlink" viewBox="0 0 330 250"><defs><style>.cls-1{fill:#58595b;}.cls-11,.cls-2,.cls-4,.cls-7{fill:#fff;}.cls-3{font-size:7px;font-family:AvenirNextLTPro-DemiCn, Avenir Next LT Pro;letter-spacing:-0.05em;}.cls-3,.cls-5{fill:#231f20;}.cls-4{stroke:#231f20;stroke-width:0.3px;}.cls-6{fill:#f5f1e9;}.cls-7{stroke:#ed1b2e;stroke-miterlimit:10;}.Light-Gray-Ramp,.cls-7{stroke-width:2px;}.Gray-Ramp,.Gray-Street,.Light-Gray-Ramp,.White-Street,.cls-10,.cls-8,.cls-9{fill:none;}.Gray-Ramp,.Gray-Street,.cls-10,.cls-8{stroke:#bcbec0;}.Gray-Ramp,.Gray-Street,.Light-Gray-Ramp,.White-Street{stroke-linejoin:round;}.Gray-Ramp{stroke-width:3px;}.Gray-Street,.White-Street{stroke-linecap:round;}.Gray-Street{stroke-width:6px;}.cls-8{stroke-width:17.5px;}.Light-Gray-Ramp,.cls-9{stroke:#e7e7e7;}.cls-9{stroke-width:16.5px;}.cls-10{stroke-width:0.5px;}.White-Street{stroke:#fff;stroke-width:5px;}.cls-11{font-size:14px;font-family:AvenirLTStd-Black, Avenir LT Std;}.cls-12{font-size:10px;font-family:AvenirLTStd-Roman, Avenir LT Std;}.cls-13{fill:#c7c8ca;}</style><symbol id="Hwy:_Shield_-_Interstate" data-name="Hwy: Shield - Interstate" viewBox="0 0 13.44 13.47"><path class="cls-4" d="M6.72,13.32A8.14,8.14,0,0,1,.15,5.4,8.51,8.51,0,0,1,2,.18a6.06,6.06,0,0,0,2.35.4A6.32,6.32,0,0,0,6.72.19,6.34,6.34,0,0,0,9.1.58a6.17,6.17,0,0,0,2.37-.4A8.61,8.61,0,0,1,13.29,5.4,8.14,8.14,0,0,1,6.72,13.32Z"/><path class="cls-5" d="M.64,2.86A8.21,8.21,0,0,1,1.91.2,6.38,6.38,0,0,0,4.26.57,6.7,6.7,0,0,0,6.72.18,6.71,6.71,0,0,0,9.18.57,6.37,6.37,0,0,0,11.53.2,8.25,8.25,0,0,1,12.8,2.86Z"/></symbol><symbol id="Hwy:_I-35W" data-name="Hwy: I-35W" viewBox="0 0 13.44 13.47"><use width="13.44" height="13.47" xlink:href="#Hwy:_Shield_-_Interstate"/><text class="cls-3" transform="translate(1 9.23) scale(0.95 1)">35W</text></symbol><symbol id="Compass" data-name="Compass" viewBox="0 0 18 18"><circle class="cls-1" cx="9" cy="9" r="9"/><path class="cls-2" d="M5.77,8.36h2l2.9,4.74h0V8.36h1.5v6.82h-2l-3-4.85h0v4.85H5.77Z"/><polygon class="cls-2" points="5.12 6.07 12.88 6.07 9 2.19 5.12 6.07"/></symbol></defs><title>SuperBowl_PRMap_95thAve</title><g id="BACKGROUND"><rect class="cls-6" y="-30" width="330" height="280"/></g><g id="State_Fair_Express_lot" data-name="State Fair Express lot"><polygon class="cls-7" points="168.25 146.58 178.78 148.93 219.22 131.72 225.25 104.18 244.56 79.05 274.3 55.1 279.02 47.39 279.02 17.27 235.57 17.27 235.57 32.83 177 108.58 168.25 146.58"/></g><g id="ROADS"><path class="Gray-Ramp" d="M238.07,129.08s-48.16,17.51-68.29,36.77-19.26,52.53-19.26,52.53"/><path class="Gray-Street" d="M29.68,202.72S21.3,170.16,45,172s37.43,20.16,51.2,15.31,68-39.26,68-39.26l9-41.31L231.7,31v-94"/><line class="Gray-Ramp" x1="150.51" y1="218.39" x2="114.62" y2="367.23"/><path class="Gray-Ramp" d="M261.58,218.39s19.21-16.79,4.51-39.4c-11.38-17.51-48.59,3.5-48.59,3.5"/><path class="Gray-Ramp" d="M271.63,218.39a23.21,23.21,0,0,0,10.22-19.26c0-13.13-6.13-60.41,0-84.93S365.9-4.88,365.9-4.88"/><path class="cls-8" d="M450.54-85.14S142.34,122.66,93.31,521.92"/><path class="cls-9" d="M450.54-85.14S142.34,122.66,93.31,521.92"/><path class="cls-10" d="M450.54-85.14S142.34,122.66,93.31,521.92"/><path class="Gray-Street" d="M473.6,218.39H86.6S-38.61,216.55-38.61,73.44V-108.2"/><path class="Light-Gray-Ramp" d="M238.07,129.08s-48.16,17.51-68.29,36.77-19.26,52.53-19.26,52.53"/><line class="Light-Gray-Ramp" x1="150.51" y1="218.39" x2="114.62" y2="367.23"/><path class="Light-Gray-Ramp" d="M261.58,218.39s19.21-16.79,4.51-39.4c-11.38-17.51-48.59,3.5-48.59,3.5"/><path class="Light-Gray-Ramp" d="M271.63,218.39a23.21,23.21,0,0,0,10.22-19.26c0-13.13-6.13-60.41,0-84.93S365.9-4.88,365.9-4.88"/><path class="White-Street" d="M29.68,202.72S21.3,170.16,45,172s37.43,20.16,51.2,15.31,68-39.26,68-39.26l9-41.31L231.7,31v-94"/><path class="White-Street" d="M473.6,218.39H86.6S-38.61,216.55-38.61,73.44V-108.2"/></g><g id="ICONS"><use width="13.44" height="13.47" transform="translate(265.91 84.42)" xlink:href="#Hwy:_I-35W"/><use width="18" height="18" transform="translate(16 11)" xlink:href="#Compass"/><g id="Park_And_Ride_locations" data-name="Park And Ride locations"><text class="cls-11" transform="translate(217.56 82.51)">2</text></g></g><g id="TYPE"><g id="type:_Streets" data-name="type: Streets"><text class="cls-12" transform="translate(217.66 213.56)">Lowell Rd</text><text class="cls-12" transform="matrix(0.87, -0.48, 0.48, 0.87, 101.78, 178.56)">Naples St</text></g></g><g id="border"><path class="cls-13" d="M329,1V249H1V1H329m1-1H0V250H330V0Z"/></g></svg>