<svg xmlns="http://www.w3.org/2000/svg" xmlns:xlink="http://www.w3.org/1999/xlink" viewBox="0 0 330 250"><defs><style>.cls-1{fill:#58595b;}.cls-13,.cls-2,.cls-4,.cls-8{fill:#fff;}.cls-3{font-size:7px;font-family:AvenirNextLTPro-DemiCn, Avenir Next LT Pro;}.cls-20,.cls-3,.cls-5{fill:#231f20;}.cls-4{stroke:#231f20;stroke-width:0.3px;}.cls-6{fill:#f5f1e9;}.cls-7{fill:#d5eef4;}.cls-8{stroke:#ed1b2e;}.cls-19,.cls-8{stroke-miterlimit:10;}.Light-Gray-Ramp,.cls-8{stroke-width:2px;}.Gray-Ramp,.Gray-Street,.Light-Gray-Ramp,.White-Street,.cls-10,.cls-11,.cls-12,.cls-9{fill:none;}.Gray-Ramp,.Gray-Street,.cls-10,.cls-12,.cls-9{stroke:#bcbec0;}.Gray-Ramp,.Gray-Street,.Light-Gray-Ramp,.White-Street,.cls-9{stroke-linejoin:round;}.Gray-Street,.cls-9{stroke-width:6px;}.Gray-Ramp{stroke-width:3px;}.Gray-Street,.White-Street{stroke-linecap:round;}.White-Street{stroke:#fff;stroke-width:5px;}.cls-10{stroke-width:17.5px;}.Light-Gray-Ramp,.cls-11{stroke:#e7e7e7;}.cls-11{stroke-width:16.5px;}.cls-12{stroke-width:0.5px;}.cls-13{font-size:14px;font-family:AvenirLTStd-Black, Avenir LT Std;}.cls-14{font-size:10px;font-family:AvenirLTStd-Roman, Avenir LT Std;}.cls-15{letter-spacing:-0.02em;}.cls-16{letter-spacing:-0.02em;}.cls-17{letter-spacing:0em;}.cls-18{fill:#c7c8ca;}.cls-19{fill:#ffd200;stroke:#000;stroke-width:1.21px;}.cls-20{font-size:11px;font-family:AvenirLTStd-Heavy, Avenir LT Std;}</style><symbol id="Hwy:_Shield_-_Interstate" data-name="Hwy: Shield - Interstate" viewBox="0 0 13.44 13.47"><path class="cls-4" d="M6.72,13.32A8.14,8.14,0,0,1,.15,5.4,8.51,8.51,0,0,1,2,.18a6.06,6.06,0,0,0,2.35.4A6.32,6.32,0,0,0,6.72.19,6.34,6.34,0,0,0,9.1.58a6.17,6.17,0,0,0,2.37-.4A8.61,8.61,0,0,1,13.29,5.4,8.14,8.14,0,0,1,6.72,13.32Z"/><path class="cls-5" d="M.64,2.86A8.21,8.21,0,0,1,1.91.2,6.38,6.38,0,0,0,4.26.57,6.7,6.7,0,0,0,6.72.18,6.71,6.71,0,0,0,9.18.57,6.37,6.37,0,0,0,11.53.2,8.24,8.24,0,0,1,12.8,2.86Z"/></symbol><symbol id="Hwy:_I-394" data-name="Hwy: I-394" viewBox="0 0 13.44 13.47"><use width="13.44" height="13.47" xlink:href="#Hwy:_Shield_-_Interstate"/><text class="cls-3" transform="translate(1.3 9.25)">394</text></symbol><symbol id="Compass" data-name="Compass" viewBox="0 0 18 18"><circle class="cls-1" cx="9" cy="9" r="9"/><path class="cls-2" d="M5.77,8.36h2l2.9,4.74h0V8.36h1.5v6.82h-2l-3-4.85h0v4.85H5.77Z"/><polygon class="cls-2" points="5.12 6.07 12.88 6.07 9 2.19 5.12 6.07"/></symbol></defs><title>SuperBowl_PRMap_ctyRd73</title><g id="BACKGROUND"><rect class="cls-6" y="-30" width="330" height="280"/><path class="cls-7" d="M-70.44,156.9s15-9.5,24-7,9.5,1,16.5,4,9.5,6.5,12.5,7l12,2s18.5,2,23,5,24,22,29,23,21.5,2,26,4.5,16,6.5,16.5,18-2,31-.5,36,17,31.5,16,44.5,2.5,30-7,30.5-22.5,4-29.5,4-37-12-42.5-14.5-18-14.5-25-16-15-4-18.5-5-17-2.5-19.5-3a29,29,0,0,0-5-.5l-7.5,5.5-5-1,4-9.5,1-3-12-3s-4.5-4.5-5.5-7-5.5-5-5.5-5l-5-1.5-7,3-1-103Z"/></g><g id="State_Fair_Express_lot" data-name="State Fair Express lot"><rect class="cls-8" x="122.06" y="132.9" width="28.75" height="61.51"/></g><g id="ROADS"><path class="cls-9" d="M107.31,152.4s10.5-8,15.5-6.75"/><path class="Gray-Ramp" d="M161.56,194.9h13.5c3,0,24-2,32.75-17.5,7.25-14,21.2-39.32,29.75-49.25,17-19.75,63-42.75,65-43.25"/><path class="Gray-Ramp" d="M161.31,58.9c5.5-.25,10.25,0,14.75,0s14,2,18,5.5,16.7,22.48,1,35.5c-10.25,8.5-31.8,14.11-31.8,14.11"/><path class="Gray-Ramp" d="M156.24,123.94c10.5,0,33.32,1.21,41.32,10.46s11,18.75,9.25,30.25-15.75,20.5-21.75,21.5-22.5,1-22.5,1l-1.75-.5"/><path class="Gray-Ramp" d="M161.06,53.4c5.5-.5,22.5-.5,29.5,2.5s28,15,35,17,26.5,6.5,34.5,6.5,36.79-3.42,41-3.89"/><path class="Gray-Street" d="M-83.94,137.4l156.5.5c2.5,0,23,2.5,27.5,7.5s11,13.5,12.5,19,2,21,2,25,1,28.25,14,35.5c8,4.47,22.75,9.75,29.75,9.25s23.75-2,32.25-10.75,18.5-27,20-32,20.75-41,24.25-46.5,17.5-21.5,28-29.25S311.56,92.4,323.06,88.4s74.5-26.5,74.5-26.5l35-11"/><path class="Gray-Street" d="M-85.94,104.9s155.72,1.44,163,.5,31-8.18,31.44-25.83c.29-11.86.58-36.17,6.37-46.87s13.41-15.35,39.64-19.1c7-1,19.1-.72,28.5,4.48s15,15.25,19,20.11,15.1,19.21,25.1,24.21,27,7,27,7,19.81.26,23.5-.5,110.5-39,110.5-39l43.5-14"/><path class="Gray-Street" d="M197.06-160.1l5,44-1,48s4.25,13.75,4.5,17-.25,13.25,0,19,7.25,19.25,11.5,24,31.25,15.25,32.25,20.25-3.5,55.5-3.5,55.5"/><path class="Gray-Street" d="M200.06-69.6H6.06c-3,0-24.5,4.5-31,12s-18,25-21,27.5-26.5,37-29.5,44-5.5,30.5-6,39-2,51.5-2,51.5"/><path class="Gray-Street" d="M155.06-170.6s3,123,2.5,125-3,11-3,13.5,2,303,2,303l4.5,18v61"/><polyline class="Gray-Street" points="161.06 351.9 160.56 -30.1 157.56 -47.1"/><path class="White-Street" d="M-83.94,137.4l156.5.5c2.5,0,23,2.5,27.5,7.5s11,13.5,12.5,19,2,21,2,25,1,28.25,14,35.5c8,4.47,22.75,9.75,29.75,9.25s23.75-2,32.25-10.75,18.5-27,20-32,20.75-41,24.25-46.5,17.5-21.5,28-29.25S311.56,92.4,323.06,88.4s74.5-26.5,74.5-26.5l35-11"/><path class="White-Street" d="M-85.94,104.9s155.72,1.44,163,.5,31-8.18,31.44-25.83c.29-11.86.58-36.17,6.37-46.87s13.41-15.35,39.64-19.1c7-1,19.1-.72,28.5,4.48s15,15.25,19,20.11,15.1,19.21,25.1,24.21,27,7,27,7,19.81.26,23.5-.5,110.5-39,110.5-39l43.5-14"/><path class="White-Street" d="M197.06-160.1l5,44-1,48s4.25,13.75,4.5,17-.25,13.25,0,19,7.25,19.25,11.5,24,31.25,15.25,32.25,20.25-3.5,55.5-3.5,55.5"/><path class="White-Street" d="M200.06-69.6H6.06c-3,0-24.5,4.5-31,12s-18,25-21,27.5-26.5,37-29.5,44-5.5,30.5-6,39-2,51.5-2,51.5"/><path class="cls-10" d="M-86.44,120.9l161.5,1.5s49.5.5,74.5-1,23-1,57-9.5,102-32,107.5-34.5,114.5-42,114.5-42l11-5"/><path class="cls-11" d="M-86.44,120.9l161.5,1.5s49.5.5,74.5-1,23-1,57-9.5,102-32,107.5-34.5,114.5-42,114.5-42l11-5"/><path class="cls-12" d="M-86.44,120.9l161.5,1.5s49.5.5,74.5-1,23-1,57-9.5,102-32,107.5-34.5,114.5-42,114.5-42l11-5"/><path class="Light-Gray-Ramp" d="M161.56,194.9h13.5c3,0,24-2,32.75-17.5,7.25-14,21.2-39.32,29.75-49.25,17-19.75,63-42.75,65-43.25"/><path class="Light-Gray-Ramp" d="M161.31,58.9c5.5-.25,10.25,0,14.75,0s14,2,18,5.5,16.7,22.48,1,35.5c-10.25,8.5-31.8,14.11-31.8,14.11"/><path class="Light-Gray-Ramp" d="M156.24,123.94c10.5,0,33.32,1.21,41.32,10.46s11,18.75,9.25,30.25-15.75,20.5-21.75,21.5-22.5,1-22.5,1l-1.75-.5"/><path class="Light-Gray-Ramp" d="M161.06,53.4c5.5-.5,22.5-.5,29.5,2.5s28,15,35,17,26.5,6.5,34.5,6.5,36.79-3.42,41-3.89"/><path class="White-Street" d="M107.31,152.4s10.5-8,15.5-6.75"/><path class="White-Street" d="M155.06-170.6s3,123,2.5,125-3,11-3,13.5,2,303,2,303l4.5,18v61"/><polyline class="White-Street" points="161.06 351.9 160.56 -30.1 157.56 -47.1"/></g><g id="ICONS"><use width="13.44" height="13.47" transform="translate(35.95 115.43)" xlink:href="#Hwy:_I-394"/><use width="18" height="18" transform="translate(16 11)" xlink:href="#Compass"/><use width="13.44" height="13.47" transform="translate(221.95 98.99)" xlink:href="#Hwy:_I-394"/><g id="Park_And_Ride_locations" data-name="Park And Ride locations"><text class="cls-13" transform="translate(133.21 168.36)">4</text></g></g><g id="TYPE"><g id="type:_Streets" data-name="type: Streets"><text class="cls-14" transform="translate(4.89 151.17)">S F<tspan class="cls-15" x="13.9" y="0">r</tspan><tspan x="17.24" y="0">ontage Rd </tspan></text><text class="cls-14" transform="translate(7.64 100.17)">N F<tspan class="cls-16" x="16.12" y="0">r</tspan><tspan x="19.46" y="0">ontage Rd </tspan></text><text class="cls-14" transform="translate(167.8 136.9) rotate(90)">Hopkins C<tspan class="cls-15" x="46.31" y="0">r</tspan><tspan x="49.65" y="0">oss</tspan><tspan class="cls-15" x="64.11" y="0">r</tspan><tspan class="cls-17" x="67.45" y="0">oad</tspan></text><text class="cls-14" transform="translate(181.06 10.8) rotate(26.95)">N</text><text class="cls-14" transform="matrix(0.81, 0.59, -0.59, 0.81, 187.69, 14.39)"> </text><text class="cls-14" transform="matrix(0.74, 0.68, -0.68, 0.74, 189.83, 15.86)">F</text><text class="cls-14" transform="matrix(0.67, 0.74, -0.74, 0.67, 193.8, 19.57)">r</text><text class="cls-14" transform="matrix(0.62, 0.79, -0.79, 0.62, 195.99, 21.93)">o</text><text class="cls-14" transform="matrix(0.58, 0.81, -0.81, 0.58, 199.59, 26.56)">n</text><text class="cls-14" transform="translate(202.91 31.21) rotate(52.16)">t</text><text class="cls-14" transform="matrix(0.63, 0.78, -0.78, 0.63, 205.13, 34.04)">a</text><text class="cls-14" transform="matrix(0.65, 0.76, -0.76, 0.65, 208.36, 38.03)">g</text><text class="cls-14" transform="matrix(0.68, 0.73, -0.73, 0.68, 212.42, 42.76)">e</text><text class="cls-14" transform="matrix(0.71, 0.71, -0.71, 0.71, 216.32, 46.91)"> </text><text class="cls-14" transform="matrix(0.75, 0.66, -0.66, 0.75, 218.43, 49.07)">R</text><text class="cls-14" transform="translate(223.37 53.48) rotate(34.53)">d</text><text class="cls-14" transform="translate(229.04 57.17) rotate(25.36)"> </text><text class="cls-14" transform="translate(223.98 192.34) rotate(-63.39)">S</text><text class="cls-14" transform="translate(226.46 187.4) rotate(-62.93)"> </text><text class="cls-14" transform="matrix(0.46, -0.89, 0.89, 0.46, 227.73, 184.91)">F</text><text class="cls-14" transform="translate(230.29 179.98) rotate(-62.32)">r</text><text class="cls-14" transform="translate(231.83 177.03) rotate(-62.07)">o</text><text class="cls-14" transform="matrix(0.47, -0.88, 0.88, 0.47, 234.61, 171.79)">n</text><text class="cls-14" transform="matrix(0.48, -0.88, 0.88, 0.48, 237.24, 166.9)">t</text><text class="cls-14" transform="translate(238.91 163.82) rotate(-61.2)">a</text><text class="cls-14" transform="translate(241.39 159.28) rotate(-60.44)">g</text><text class="cls-14" transform="translate(244.24 154.05) rotate(-54.58)">e</text><text class="cls-14" transform="translate(247.46 149.62) rotate(-51.34)"> </text><text class="cls-14" transform="matrix(0.65, -0.76, 0.76, 0.65, 249.15, 147.48)">R</text><text class="cls-14" transform="translate(253.07 142.88) rotate(-47.66)">d</text></g></g><g id="border"><path class="cls-18" d="M329,1V249H1V1H329m1-1H0V250H330V0Z"/></g><g id="Boarding_location" data-name="Boarding location"><line x1="105.62" y1="222.85" x2="128.46" y2="197.03"/><polygon points="103.42 221.57 121.43 201.21 116.93 197.24 128.93 196.5 129.66 208.5 125.17 204.52 107.16 224.88 103.42 221.57"/><path class="cls-2" d="M128.46,197l.63,10.29-4-3.5-18,20.36-3-2.65,18-20.36-4-3.5,10.29-.63m.94-1.06-1,.06-10.29.63-2.41.15,1.81,1.6,3.21,2.84-17.35,19.61-.66.75.75.66,3,2.65.75.66.66-.75,17.35-19.61,3.21,2.84,1.81,1.6-.15-2.41L129.46,197l-.06-1Z"/><rect class="cls-19" x="35.95" y="212.51" width="78.62" height="16.4"/><text class="cls-20" transform="translate(40.08 225.11)">BOARD HERE</text></g></svg>