<svg xmlns="http://www.w3.org/2000/svg" xmlns:xlink="http://www.w3.org/1999/xlink" viewBox="0 0 330 250"><defs><style>.cls-1{fill:#58595b;}.cls-15,.cls-2,.cls-5,.cls-9{fill:#fff;}.cls-3,.cls-4{font-size:7px;font-family:AvenirNextLTPro-DemiCn, Avenir Next LT Pro;}.cls-3,.cls-4,.cls-6{fill:#231f20;}.cls-3{letter-spacing:-0.05em;}.cls-5{stroke:#231f20;stroke-width:0.3px;}.cls-7{fill:#f5f1e9;}.cls-8{fill:#c7c8ca;}.cls-9{stroke:#ed1b2e;stroke-miterlimit:10;stroke-width:1.86px;}.Gray-Ramp,.Gray-Street-2,.Light-Gray-Ramp-2,.White-Street-2,.cls-10,.cls-11,.cls-12,.cls-13,.cls-14{fill:none;}.Gray-Ramp,.Gray-Street-2,.cls-10,.cls-12,.cls-13{stroke:#bcbec0;}.Gray-Ramp,.Gray-Street-2,.Light-Gray-Ramp-2,.White-Street-2,.cls-13,.cls-14{stroke-linejoin:round;}.Gray-Ramp{stroke-width:3px;}.cls-10{stroke-width:17.5px;}.Light-Gray-Ramp-2,.cls-11{stroke:#e7e7e7;}.cls-11{stroke-width:16.5px;}.cls-12{stroke-width:0.5px;}.Gray-Street-2,.White-Street-2,.cls-13,.cls-14{stroke-linecap:round;}.Gray-Street-2{stroke-width:6px;}.cls-13{stroke-width:10.21px;}.Light-Gray-Ramp-2{stroke-width:2px;}.White-Street-2,.cls-14{stroke:#fff;}.White-Street-2{stroke-width:5px;}.cls-14{stroke-width:9.28px;}.cls-15{font-size:14px;font-family:AvenirLTStd-Black, Avenir LT Std;}.cls-16{font-size:10px;font-family:AvenirLTStd-Roman, Avenir LT Std;}.cls-17{letter-spacing:-0.02em;}.cls-18{font-size:8px;font-family:AvenirLTStd-BookOblique, Avenir LT Std;}</style><symbol id="Hwy:_Shield_-_Interstate" data-name="Hwy: Shield - Interstate" viewBox="0 0 13.44 13.47"><path class="cls-5" d="M6.72,13.32A8.14,8.14,0,0,1,.15,5.4,8.51,8.51,0,0,1,2,.18a6.06,6.06,0,0,0,2.35.4A6.32,6.32,0,0,0,6.72.19,6.34,6.34,0,0,0,9.1.58a6.17,6.17,0,0,0,2.37-.4A8.61,8.61,0,0,1,13.29,5.4,8.14,8.14,0,0,1,6.72,13.32Z"/><path class="cls-6" d="M.64,2.86A8.21,8.21,0,0,1,1.91.2,6.38,6.38,0,0,0,4.26.57,6.7,6.7,0,0,0,6.72.18,6.71,6.71,0,0,0,9.18.57,6.37,6.37,0,0,0,11.53.2,8.25,8.25,0,0,1,12.8,2.86Z"/></symbol><symbol id="Hwy:_I-35W" data-name="Hwy: I-35W" viewBox="0 0 13.44 13.47"><use width="13.44" height="13.47" xlink:href="#Hwy:_Shield_-_Interstate"/><text class="cls-3" transform="translate(1 9.23) scale(0.95 1)">35W</text></symbol><symbol id="Compass" data-name="Compass" viewBox="0 0 18 18"><circle class="cls-1" cx="9" cy="9" r="9"/><path class="cls-2" d="M5.77,8.36h2l2.9,4.74h0V8.36h1.5v6.82h-2l-3-4.85h0v4.85H5.77Z"/><polygon class="cls-2" points="5.12 6.07 12.88 6.07 9 2.19 5.12 6.07"/></symbol><symbol id="Hwy:_I-494" data-name="Hwy: I-494" viewBox="0 0 13.44 13.47"><use width="13.44" height="13.47" xlink:href="#Hwy:_Shield_-_Interstate"/><text class="cls-4" transform="translate(1.3 9.27)">494</text></symbol></defs><title>SuperBowl_PRMap_Knox</title><g id="BACKGROUND"><rect class="cls-7" y="-30" width="330" height="280"/><path class="cls-8" d="M116.72,65.47,184.44,65l15.77,16.24V104l-32,28.76L196,163.34l-10.21,8.35-28.76-25.51s-8.81,13-36.65,4.64L98.16,168.91l-13-5.1,25.51-27.37a13,13,0,0,1-8.35-11.13L62,124.38l-8.81-7,1.39-5.57h47.31l2.78-7.42-13.92-13Z"/></g><g id="State_Fair_Express_lot" data-name="State Fair Express lot"><polygon class="cls-9" points="207.02 194.88 115.79 194.88 72.19 185.61 72.19 173.86 207.02 173.86 207.02 194.88"/></g><g id="ROADS"><path class="Gray-Ramp" d="M305.05,97.7s-4.17,28.76-7.89,35.25-36.65,44.53-42.44,48.71-19.71,16-56.13,20.87"/><path class="Gray-Ramp" d="M377.3-52.24S348.54-48.07,342-44.36,297.51-7.71,293.34-1.91s-16,19.71-20.87,56.13"/><path class="Gray-Ramp" d="M211,210.54s28.76,4.17,35.25,7.89,44.53,36.65,48.71,42.44,16,19.71,20.87,56.13"/><path class="Gray-Ramp" d="M134.35,203.24c-2.78-.93-48.24-4.33-76.38-21.34a41.8,41.8,0,0,0-14.23-2.78c-8.66-.31-22.58-2.55-22.58-4.41"/><path class="Gray-Ramp" d="M136.12,211.52c-2.87.62-48.43-1-78.26,12.88a41.8,41.8,0,0,1-14.44,1.22c-8.64-.64-21.59-.34-21.79,1.51"/><line class="cls-10" x1="299.7" y1="-34.06" x2="321.94" y2="251.02"/><line class="cls-11" x1="299.7" y1="-34.06" x2="321.94" y2="251.02"/><line class="cls-12" x1="299.7" y1="-34.06" x2="321.94" y2="251.02"/><line class="Gray-Street-2" x1="332.88" y1="53.87" x2="-62.69" y2="58.16"/><line class="cls-10" x1="-46.66" y1="204.47" x2="372.87" y2="208.8"/><line class="cls-11" x1="-46.66" y1="204.47" x2="372.87" y2="208.8"/><line class="cls-12" x1="-46.66" y1="204.47" x2="372.87" y2="208.8"/><line class="cls-10" x1="-46.66" y1="204.47" x2="239.28" y2="207.23"/><line class="cls-11" x1="-46.66" y1="204.47" x2="239.28" y2="207.23"/><line class="cls-12" x1="-46.66" y1="204.47" x2="239.28" y2="207.23"/><line class="cls-13" x1="20.35" y1="378.58" x2="16.06" y2="-16.99"/><path class="Gray-Ramp" d="M46.52,179.42a84.29,84.29,0,0,0-24.66,14.77"/><path class="Gray-Ramp" d="M-96.27,201.15c2.78-.93,48.24-4.33,76.38-21.34A41.8,41.8,0,0,1-5.67,177c8.66-.31,20.1-1.24,20.1-3.09"/><path class="Gray-Ramp" d="M-8.45,177.34c14.23,5.26,23.35,17.32,23.35,17.32"/><path class="Gray-Ramp" d="M49.61,225.62c-14.87-3-27.75-11.72-27.75-11.72"/><path class="Gray-Ramp" d="M-97.66,210.36c2.87.62,48.43-1,78.26,12.88A41.8,41.8,0,0,0-5,224.46c8.64-.64,20.12-1,20.32.88"/><path class="Gray-Ramp" d="M-11.15,224.47c14.87-3,26.51-11.72,26.51-11.72"/><line class="Gray-Street-2" x1="204.85" y1="176.02" x2="204.85" y2="56.65"/><path class="Light-Gray-Ramp-2" d="M305.05,97.7s-4.17,28.76-7.89,35.25-36.65,44.53-42.44,48.71-19.71,16-56.13,20.87"/><path class="Light-Gray-Ramp-2" d="M377.3-52.24S348.54-48.07,342-44.36,297.51-7.71,293.34-1.91s-16,19.71-20.87,56.13"/><path class="Light-Gray-Ramp-2" d="M211,210.54s28.76,4.17,35.25,7.89,44.53,36.65,48.71,42.44,16,19.71,20.87,56.13"/><line class="White-Street-2" x1="332.88" y1="53.87" x2="-62.69" y2="58.16"/><path class="Light-Gray-Ramp-2" d="M134.35,203.24c-2.78-.93-48.24-4.33-76.38-21.34a41.8,41.8,0,0,0-14.23-2.78c-8.66-.31-22.58-2.55-22.58-4.41"/><path class="Light-Gray-Ramp-2" d="M46.52,179.42a84.29,84.29,0,0,0-24.66,14.77"/><path class="Light-Gray-Ramp-2" d="M-96.27,201.15c2.78-.93,48.24-4.33,76.38-21.34A41.8,41.8,0,0,1-5.67,177c8.66-.31,20.1-1.24,20.1-3.09"/><path class="Light-Gray-Ramp-2" d="M-8.45,177.34c14.23,5.26,23.35,17.32,23.35,17.32"/><path class="Light-Gray-Ramp-2" d="M136.12,211.52c-2.87.62-48.43-1-78.26,12.88a41.8,41.8,0,0,1-14.44,1.22c-8.64-.64-21.59-.34-21.79,1.51"/><path class="Light-Gray-Ramp-2" d="M49.61,225.62c-14.87-3-27.75-11.72-27.75-11.72"/><path class="Light-Gray-Ramp-2" d="M-97.66,210.36c2.87.62,48.43-1,78.26,12.88A41.8,41.8,0,0,0-5,224.46c8.64-.64,20.12-1,20.32.88"/><path class="Light-Gray-Ramp-2" d="M-11.15,224.47c14.87-3,26.51-11.72,26.51-11.72"/><line class="White-Street-2" x1="204.85" y1="176.02" x2="204.85" y2="56.65"/><line class="cls-14" x1="20.35" y1="378.58" x2="16.06" y2="-16.99"/></g><g id="ICONS"><use width="13.44" height="13.47" transform="translate(297.87 24.43)" xlink:href="#Hwy:_I-35W"/><use width="18" height="18" transform="translate(16 11)" xlink:href="#Compass"/><g id="Park_And_Ride_locations" data-name="Park And Ride locations"><text class="cls-15" transform="translate(143.21 189.21)">5</text></g><use width="13.44" height="13.47" transform="translate(259.51 200.49)" xlink:href="#Hwy:_I-494"/></g><g id="TYPE"><g id="type:_Streets" data-name="type: Streets"><text class="cls-16" transform="translate(144.3 50.95) rotate(-0.06)">78th St</text><text class="cls-16" transform="matrix(0, 1, -1, 0, 211.44, 63.7)">Knox <tspan class="cls-17" x="25.58" y="0">A</tspan><tspan x="32.44" y="0">ve</tspan></text><text class="cls-16" transform="translate(25.27 101.89) rotate(89.54)">Penn <tspan class="cls-17" x="25.39" y="0">A</tspan><tspan x="32.25" y="0">ve</tspan></text></g><text class="cls-18" transform="translate(120.72 90.39)">Best Buy<tspan x="0" y="9.6">Corporate</tspan><tspan x="0" y="19.2">Headquarters</tspan></text></g><g id="border"><path class="cls-8" d="M329,1V249H1V1H329m1-1H0V250H330V0Z"/></g></svg>