<svg xmlns="http://www.w3.org/2000/svg" xmlns:xlink="http://www.w3.org/1999/xlink" viewBox="0 0 330 280"><defs><style>.cls-1{fill:#58595b;}.cls-18,.cls-2,.cls-22,.cls-25,.cls-4,.cls-8{fill:#fff;}.cls-20,.cls-3{font-size:7px;}.cls-3,.cls-5{fill:#231f20;}.cls-3{font-family:AvenirNextLTPro-DemiCn, Avenir Next LT Pro;}.cls-10,.cls-4{stroke:#231f20;}.cls-4{stroke-width:0.3px;}.cls-6{fill:#f5f1e9;}.cls-7{fill:#c7c8ca;}.cls-8{stroke:#ed1b2e;stroke-miterlimit:10;}.Light-Gray-Ramp,.cls-8{stroke-width:2px;}.Gray-Ramp,.Gray-Street,.Light-Gray-Ramp,.White-Street,.cls-10,.cls-11,.cls-12,.cls-13,.cls-14,.cls-15,.cls-16,.cls-17,.cls-9{fill:none;}.Gray-Ramp,.Gray-Street,.cls-12,.cls-14,.cls-15,.cls-9{stroke:#bcbec0;}.Gray-Ramp,.Gray-Street,.Light-Gray-Ramp,.White-Street,.cls-17,.cls-9{stroke-linejoin:round;}.Gray-Ramp{stroke-width:3px;}.Gray-Street,.White-Street{stroke-linecap:round;}.Gray-Street,.cls-9{stroke-width:6px;}.Light-Gray-Ramp,.cls-13,.cls-16{stroke:#e7e7e7;}.White-Street,.cls-11,.cls-17{stroke:#fff;}.White-Street,.cls-17{stroke-width:5px;}.cls-10{stroke-width:12px;}.cls-11{stroke-width:10px;}.cls-12{stroke-width:17.5px;}.cls-13{stroke-width:16.5px;}.cls-14{stroke-width:0.5px;}.cls-15{stroke-width:9px;}.cls-16{stroke-width:8px;}.cls-18{font-size:14px;}.cls-18,.cls-25{font-family:AvenirLTStd-Black, Avenir LT Std;}.cls-19{font-size:10px;font-family:AvenirLTStd-Roman, Avenir LT Std;}.cls-20{font-family:Avenir-Oblique, Avenir;}.cls-21{fill:#ed1b2e;}.cls-22{font-size:12px;font-family:AvenirLTStd-Heavy, Avenir LT Std;}.cls-23{letter-spacing:-0.02em;}.cls-24{letter-spacing:-0.09em;}.cls-25{font-size:10.5px;}</style><symbol id="Hwy:_Shield_-_Interstate_2" data-name="Hwy: Shield - Interstate 2" viewBox="0 0 13.44 13.47"><path class="cls-4" d="M6.72,13.32A8.14,8.14,0,0,1,.15,5.4,8.51,8.51,0,0,1,2,.18a6.06,6.06,0,0,0,2.35.4A6.32,6.32,0,0,0,6.72.19,6.34,6.34,0,0,0,9.1.58a6.17,6.17,0,0,0,2.37-.4A8.61,8.61,0,0,1,13.29,5.4,8.14,8.14,0,0,1,6.72,13.32Z"/><path class="cls-5" d="M.64,2.86A8.21,8.21,0,0,1,1.91.2,6.38,6.38,0,0,0,4.26.57,6.7,6.7,0,0,0,6.72.18,6.71,6.71,0,0,0,9.18.57,6.37,6.37,0,0,0,11.53.2,8.25,8.25,0,0,1,12.8,2.86Z"/></symbol><symbol id="Hwy:_I-94" data-name="Hwy: I-94" viewBox="0 0 13.44 13.47"><g id="ICONS-2" data-name="ICONS"><use width="13.44" height="13.47" xlink:href="#Hwy:_Shield_-_Interstate_2"/><text class="cls-3" transform="translate(3.05 9.23)">94</text></g></symbol><symbol id="Hwy:_I-694" data-name="Hwy: I-694" viewBox="0 0 13.44 13.47"><use width="13.44" height="13.47" xlink:href="#Hwy:_Shield_-_Interstate_2"/><text class="cls-3" transform="translate(1.3 9.27)">694</text></symbol><symbol id="Compass" data-name="Compass" viewBox="0 0 18 18"><circle class="cls-1" cx="9" cy="9" r="9"/><path class="cls-2" d="M5.77,8.36h2l2.9,4.74h0V8.36h1.5v6.82h-2l-3-4.85h0v4.85H5.77Z"/><polygon class="cls-2" points="5.12 6.07 12.88 6.07 9 2.19 5.12 6.07"/></symbol></defs><title>SuperBowl_PRMap_MapleGrove</title><g id="BACKGROUND"><rect class="cls-6" width="330" height="280"/><polyline class="cls-7" points="94.2 102.53 110.41 102.8 120.28 104.56 120.95 100.91 130.28 101.99 128.38 116.99 109.33 114.02 94.07 114.29 94.2 102.53"/><polyline class="cls-7" points="137.84 100.64 146.35 100.64 146.35 104.15 163.24 104.02 163.38 98.61 171.35 98.34 171.62 105.1 170.4 105.23 170.27 115.91 138.65 116.45 138.79 107.8 137.84 107.8 137.84 100.64"/><polyline class="cls-7" points="180.26 98.07 191.08 96.99 191.62 103.21 199.86 102.26 199.59 99.83 205.8 99.29 205.94 100.37 207.56 100.23 207.83 103.21 207.29 103.34 208.1 111.45 182.29 114.83 180.26 98.07"/><polyline class="cls-7" points="216.74 97.67 223.64 94.83 225.8 100.37 226.07 100.23 226.88 102.13 226.61 102.94 227.42 105.23 228.77 104.83 229.85 107.8 230.39 111.31 230.8 115.1 230.66 118.75 229.18 120.37 229.18 122.39 229.45 122.53 229.18 125.91 228.64 125.91 228.1 131.45 220.8 130.91 220.8 129.01 218.64 128.74 219.18 125.09 218.64 124.83 219.18 119.56 218.5 119.29 218.37 114.29 217.83 110.23 217.01 108.34 217.83 107.8 216.34 104.56 217.01 104.15 215.26 99.83 217.01 99.02 216.74 97.67"/><polyline class="cls-7" points="179.72 123.47 210.8 119.83 211.88 130.5 212.29 130.5 212.69 134.28 204.86 135.1 204.45 131.18 190.94 132.8 191.35 135.77 180.81 137.26 179.72 123.47"/><polyline class="cls-7" points="135.68 125.09 143.65 124.96 143.65 126.31 163.11 125.91 164.05 124.55 170.4 124.42 170.54 135.64 153.38 135.77 153.25 134.56 135.54 134.56 135.68 125.09"/><polyline class="cls-7" points="95.69 120.37 128.92 124.96 127.3 135.64 93.93 131.18 95.69 120.37"/><polyline class="cls-7" points="157.16 140.77 170.81 140.09 173.11 167.66 154.87 169.41 154.87 167.79 158.25 166.71 157.16 140.77"/><polyline class="cls-7" points="70.69 114.02 82.04 114.02 82.04 121.45 82.85 121.45 82.85 129.69 81.64 129.69 81.64 135.77 73.66 135.64 73.66 134.82 55.56 134.56 55.56 135.5 47.72 135.5 47.72 129.42 46.51 129.42 46.64 121.18 47.45 121.18 47.45 113.88 58.94 113.88 58.94 119.83 70.69 119.96 70.69 114.02"/></g><g id="State_Fair_Express_lot" data-name="State Fair Express lot"><polygon class="cls-8" points="100.93 174.24 156.81 186.37 156.81 154.38 100.93 150.34 100.93 174.24"/></g><g id="ROADS"><path class="Gray-Ramp" d="M274.61,269.94s27.41,5.39,31.83,6.5,34.19,1.84,39-8.46,2.94-19.85-11.4-24.63-14.34-7-14.34-7"/><path class="Gray-Ramp" d="M272.77,273.25s33.3,10.54,41,11.28,32.72-5.88,37.5-8.09,33.46-12.5,39.34-12.87,16.54-2.94,22.43-2.2l11.76,1.47"/><path class="Gray-Street" d="M-77,11.74,35.49,66.52S63.06,74.61,70,76.08s79.78,4,89,3.31,75.37-7,75.37-7,48.16-7.72,54-8.82,40.16-1.84,59.56-1.84c7,0,43.75,4,43.75,4"/><polyline class="Gray-Street" points="269.31 -0.23 272.91 210.63 273.6 246.3 275.08 322.9"/><path class="Light-Gray-Ramp" d="M274.61,269.94s27.41,5.39,31.83,6.5,34.19,1.84,39-8.46,2.94-19.85-11.4-24.63-14.34-7-14.34-7"/><path class="Light-Gray-Ramp" d="M272.77,273.25s33.3,10.54,41,11.28,32.72-5.88,37.5-8.09,33.46-12.5,39.34-12.87,16.54-2.94,22.43-2.2l11.76,1.47"/><polyline class="White-Street" points="269.31 -0.23 272.91 210.63 273.6 246.3 275.08 322.9"/><path class="Gray-Ramp" d="M272.95,187.37s32.38,2.57,36.06,5.15,15.07,10.29,9.56,23.9-22.06,11.4-22.06,11.4"/><path class="cls-9" d="M36.49,8.17s-3.21,120.11-2.1,124.89,9.56,21.32,14.34,24.63,50.37,21,50.37,21,50.37,11,52.57,11,22.79,2.57,25,2.57,43.75-8.82,46.69-8.82,49.6,2.94,49.6,2.94"/><path class="Gray-Ramp" d="M272.31,184.49s46.26,1.84,54,5.15,27.57,15.44,36.76,25,17.28,19.85,28.68,26.47S428.86,258,428.86,258"/><path class="cls-10" d="M279,229.7c10.1,1.16,18.72,2.26,23.81,3.35,13.6,2.94,154.41,37.87,154.41,37.87"/><path class="cls-11" d="M279,229.7c10.1,1.16,18.72,2.26,23.81,3.35,13.6,2.94,154.41,37.87,154.41,37.87"/><polygon class="cls-2" points="264.43 220.47 283.83 222.78 284.82 226.27 284.36 227.72 270.04 226.41 263.12 224.95 262.26 221.79 264.43 220.47"/><path class="Light-Gray-Ramp" d="M272.31,184.49s46.26,1.84,54,5.15,27.57,15.44,36.76,25,17.28,19.85,28.68,26.47S428.86,258,428.86,258"/><path class="cls-12" d="M269.54,225.52c10.91,1.24,27.82,6.37,33.22,7.54,13.6,2.94,154.41,37.87,154.41,37.87"/><path class="cls-13" d="M269.54,225.52c10.91,1.24,27.82,6.37,33.22,7.54,13.6,2.94,154.41,37.87,154.41,37.87"/><path class="cls-14" d="M269.54,225.52c10.91,1.24,27.82,6.37,33.22,7.54,13.6,2.94,154.41,37.87,154.41,37.87"/><path class="cls-15" d="M-90.61,145.56s26.47,26.1,46.32,34.93,76.47,23.16,105.51,22.79,50.82,1.12,73.18,4.85c22,3.67,66.22,11.44,90.85,15.48,12.31,2,44.08,6.17,44.08,6.17"/><path class="cls-16" d="M-90.61,145.56s26.47,26.1,46.32,34.93,76.47,23.16,105.51,22.79,50.82,1.12,73.18,4.85c22,3.67,66.22,11.44,90.85,15.48,12.31,2,44.08,6.17,44.08,6.17"/><path class="Light-Gray-Ramp" d="M272.95,187.37s32.38,2.57,36.06,5.15,15.07,10.29,9.56,23.9-22.06,11.4-22.06,11.4"/><path class="cls-15" d="M-88.4,84.17s64.7,61.76,136,89,183.45,43,195.21,44.85c2.73.43,27.42,3.38,27.42,3.38"/><path class="cls-16" d="M-88.4,84.17s64.7,61.76,136,89,183.45,43,195.21,44.85c2.73.43,27.42,3.38,27.42,3.38"/><path class="White-Street" d="M-77,11.74,35.49,66.52S63.06,74.61,70,76.08s79.78,4,89,3.31,75.37-7,75.37-7,48.16-7.72,54-8.82,40.16-1.84,59.56-1.84c7,0,43.75,4,43.75,4"/><line class="White-Street" x1="269.31" y1="-0.23" x2="272.91" y2="210.63"/><path class="cls-17" d="M36.49,8.17s-3.21,120.11-2.1,124.89,9.56,21.32,14.34,24.63,50.37,21,50.37,21,50.37,11,52.57,11,22.79,2.57,25,2.57,43.75-8.82,46.69-8.82,49.6,2.94,49.6,2.94"/></g><g id="ICONS"><use width="13.44" height="13.47" transform="translate(167.55 204.35)" xlink:href="#Hwy:_I-94"/><use width="13.44" height="13.47" transform="translate(191.55 208.35)" xlink:href="#Hwy:_I-694"/><text class="cls-18" transform="translate(124.73 170.93)">1</text><use width="18" height="18" transform="translate(16 246)" xlink:href="#Compass"/></g><g id="TYPE"><g id="type:_Streets" data-name="type: Streets"><text class="cls-19" transform="translate(39.39 73.37) rotate(91.09)">Main St N</text><text class="cls-19" transform="translate(277.44 95.44) rotate(90)">Hemlock Ln N</text><text class="cls-19" transform="translate(112.82 73.66) rotate(2.03)">E</text><text class="cls-19" transform="translate(118.75 73.87) rotate(1.92)">l</text><text class="cls-19" transform="matrix(1, 0.03, -0.03, 1, 121.15, 73.96)">m</text><text class="cls-19" transform="translate(129.64 74.21) rotate(1.59)"> </text><text class="cls-19" transform="translate(132.44 74.3) rotate(1.41)">C</text><text class="cls-19" transform="translate(139.46 74.47) rotate(1.17)">r</text><text class="cls-19" transform="translate(142.79 74.54) rotate(0.91)">e</text><text class="cls-19" transform="translate(148.34 74.63) rotate(0.34)">e</text><text class="cls-19" transform="translate(153.93 74.67) rotate(-1.09)">k</text><text class="cls-19" transform="translate(159.16 74.51) rotate(-4.9)"> </text><text class="cls-19" transform="translate(161.91 74.28) rotate(-5.13)">B</text><text class="cls-19" transform="translate(168.19 73.71) rotate(-5.21)">l</text><text class="cls-19" transform="translate(170.59 73.5) rotate(-5.24)">v</text><text class="cls-19" transform="matrix(1, -0.09, 0.09, 1, 175.39, 73.05)">d</text><text class="cls-19" transform="translate(181.47 72.49) rotate(-5.3)"> </text><text class="cls-19" transform="translate(184.25 72.24) rotate(-5.31)">N</text><text class="cls-19" transform="matrix(1, 0.03, -0.03, 1, 220.06, 178.27)">M</text><text class="cls-19" transform="matrix(1, 0.06, -0.06, 1, 229.09, 178.66)">a</text><text class="cls-19" transform="translate(234.25 178.95) rotate(3.36)">i</text><text class="cls-19" transform="translate(236.66 179.09) rotate(3.42)">n</text><text class="cls-19" transform="matrix(1, 0.06, -0.06, 1, 242.21, 179.42)"> </text><text class="cls-19" transform="translate(244.98 179.59) rotate(3.49)">S</text><text class="cls-19" transform="translate(250.53 179.93) rotate(3.52)">t</text><text class="cls-19" transform="matrix(1, 0.06, -0.06, 1, 254.05, 180.15)"> </text><text class="cls-19" transform="translate(256.82 180.32) rotate(3.55)">N</text></g><text class="cls-20" transform="translate(104.16 121.37)">The Shoppes at Arbor Lakes</text></g><g id="border"><path class="cls-7" d="M329,1V279H1V1H329m1-1H0V280H330V0Z"/></g><g id="Header"><rect class="cls-21" width="330" height="27.77"/><text class="cls-22" transform="translate(34.75 18.19)">Maple G<tspan class="cls-23" x="48.01" y="0">r</tspan><tspan x="52.46" y="0">ove </tspan><tspan class="cls-24" x="76.45" y="0">T</tspan><tspan x="82.23" y="0">ransit Station</tspan></text><text class="cls-25" transform="translate(15.89 17.52)">1</text></g></svg>