<svg xmlns="http://www.w3.org/2000/svg" xmlns:xlink="http://www.w3.org/1999/xlink" viewBox="0 0 330 280"><defs><style>.cls-1{fill:#58595b;}.cls-13,.cls-2,.cls-25,.cls-27,.cls-4,.cls-7{fill:#fff;}.cls-3{font-size:7px;font-family:AvenirNextLTPro-DemiCn, Avenir Next LT Pro;}.cls-21,.cls-3,.cls-5{fill:#231f20;}.cls-4{stroke:#231f20;stroke-width:0.3px;}.cls-6{fill:#f5f1e9;}.cls-7{stroke:#ed1b2e;}.cls-19,.cls-20,.cls-7{stroke-miterlimit:10;}.Light-Gray-Ramp,.cls-20,.cls-7{stroke-width:2px;}.Gray-Ramp,.Gray-Street,.Light-Gray-Ramp,.White-Street,.cls-10,.cls-11,.cls-12,.cls-19,.cls-8,.cls-9{fill:none;}.Gray-Ramp,.Gray-Street,.cls-10,.cls-12,.cls-8{stroke:#bcbec0;}.Gray-Ramp,.Gray-Street,.Light-Gray-Ramp,.White-Street{stroke-linejoin:round;}.Gray-Ramp,.cls-9{stroke-width:3px;}.Gray-Street,.White-Street{stroke-linecap:round;}.Gray-Street{stroke-width:6px;}.cls-19,.cls-8{stroke-width:4px;}.White-Street,.cls-9{stroke:#fff;}.White-Street{stroke-width:5px;}.Light-Gray-Ramp,.cls-11{stroke:#e7e7e7;}.cls-10{stroke-width:17.5px;}.cls-11{stroke-width:16.5px;}.cls-12{stroke-width:0.5px;}.cls-13{font-size:11.86px;}.cls-13,.cls-27{font-family:AvenirLTStd-Black, Avenir LT Std;}.cls-14{font-size:10px;font-family:AvenirLTStd-Roman, Avenir LT Std;}.cls-15{letter-spacing:-0.02em;}.cls-16{letter-spacing:0em;}.cls-17{font-size:7px;font-family:Avenir-Roman, Avenir;}.cls-18{letter-spacing:0em;}.cls-19,.cls-20{stroke:#000;}.cls-20{fill:#ffd200;}.cls-21{font-size:11px;}.cls-21,.cls-25{font-family:AvenirLTStd-Heavy, Avenir LT Std;}.cls-22{letter-spacing:-0.03em;}.cls-23{fill:#c7c8ca;}.cls-24{fill:#ed1b2e;}.cls-25{font-size:12px;}.cls-26{letter-spacing:-0.09em;}.cls-27{font-size:10.5px;}</style><symbol id="Hwy:_Shield_-_Interstate" data-name="Hwy: Shield - Interstate" viewBox="0 0 13.44 13.47"><path class="cls-4" d="M6.72,13.32A8.14,8.14,0,0,1,.15,5.4,8.51,8.51,0,0,1,2,.18a6.06,6.06,0,0,0,2.35.4A6.32,6.32,0,0,0,6.72.19,6.34,6.34,0,0,0,9.1.58a6.17,6.17,0,0,0,2.37-.4A8.61,8.61,0,0,1,13.29,5.4,8.14,8.14,0,0,1,6.72,13.32Z"/><path class="cls-5" d="M.64,2.86A8.21,8.21,0,0,1,1.91.2,6.38,6.38,0,0,0,4.26.57,6.7,6.7,0,0,0,6.72.18,6.71,6.71,0,0,0,9.18.57,6.37,6.37,0,0,0,11.53.2,8.25,8.25,0,0,1,12.8,2.86Z"/></symbol><symbol id="Hwy:_I-694" data-name="Hwy: I-694" viewBox="0 0 13.44 13.47"><use width="13.44" height="13.47" xlink:href="#Hwy:_Shield_-_Interstate"/><text class="cls-3" transform="translate(1.3 9.27)">694</text></symbol><symbol id="Compass" data-name="Compass" viewBox="0 0 18 18"><circle class="cls-1" cx="9" cy="9" r="9"/><path class="cls-2" d="M5.77,8.36h2l2.9,4.74h0V8.36h1.5v6.82h-2l-3-4.85h0v4.85H5.77Z"/><polygon class="cls-2" points="5.12 6.07 12.88 6.07 9 2.19 5.12 6.07"/></symbol></defs><title>SuperBowl_PRMap_MaplewoodMall</title><g id="BACKGROUND"><rect class="cls-6" width="330" height="280"/></g><g id="State_Fair_Express_lot" data-name="State Fair Express lot"><polygon class="cls-7" points="132.78 244.1 122.6 229 119.92 222.96 117.59 211.83 108.15 212.52 108.67 258.09 142.87 258.09 132.78 244.1"/></g><g id="ROADS"><polyline class="Gray-Ramp" points="157.23 52.58 233.54 61.88 304.51 51.03 304.51 44.2 234.78 31.79 159.71 45.13"/><line class="Gray-Street" x1="333.43" y1="261.67" x2="-5.13" y2="261.48"/><line class="Gray-Street" x1="-7.5" y1="82.05" x2="331.8" y2="82.05"/><polyline class="Gray-Street" points="104.55 82.05 104.23 181.01 105.15 258.67"/><path class="cls-8" d="M105.88,210.27l13.81-1s-.31-6.51-1.86-8.69-5.27-4-5.27-5.27-3.41-22-2.79-23.27,11.48-6.2,13-8.07S149.16,119.9,151.64,118s17.68-3.1,25.13-2.48,16.75,10.24,20.16,13.34,12.72,20.16,13.34,26.06.31,25.75,0,28.54.62,14.58,1.55,17.37.62,12.72-.93,17.06-12.1,18.92-25.44,27.3-14.58,10.86-18.3,10.55-9,1.86-13.65.31-9.31-2.17-13-5.89-8.38-12.1-11.48-16.44-5.58-8.07-6.51-11.79-2.17-9.93-2.17-9.93l-.62-2.79"/><path class="cls-9" d="M105.88,210.27l13.81-1s-.31-6.51-1.86-8.69-5.27-4-5.27-5.27-3.41-22-2.79-23.27,11.48-6.2,13-8.07S149.16,119.9,151.64,118s17.68-3.1,25.13-2.48,16.75,10.24,20.16,13.34,12.72,20.16,13.34,26.06.31,25.75,0,28.54.62,14.58,1.55,17.37.62,12.72-.93,17.06-12.1,18.92-25.44,27.3-14.58,10.86-18.3,10.55-9,1.86-13.65.31-9.31-2.17-13-5.89-8.38-12.1-11.48-16.44-5.58-8.07-6.51-11.79-2.17-9.93-2.17-9.93l-.62-2.79"/><path class="Gray-Street" d="M236.33,11.94a37.24,37.24,0,0,0-2.48,15.82c.62,8.69.31,21.09.31,21.09l2.48,35.36s-.62,40.64-.62,44.67-5.59,43.12-6.21,45.6.62,30.09.62,33.81v75.07"/><polyline class="White-Street" points="104.55 82.05 104.23 181.01 105.15 259.58"/><path class="cls-9" d="M105.88,210.27l13.81-1s-.31-6.51-1.86-8.69-5.27-4-5.27-5.27-3.41-22-2.79-23.27,11.48-6.2,13-8.07S149.16,119.9,151.64,118s17.68-3.1,25.13-2.48,16.75,10.24,20.16,13.34,12.72,20.16,13.34,26.06.31,25.75,0,28.54.62,14.58,1.55,17.37.62,12.72-.93,17.06-12.1,18.92-25.44,27.3-14.58,10.86-18.3,10.55-9,1.86-13.65.31-9.31-2.17-13-5.89-8.38-12.1-11.48-16.44-5.58-8.07-6.51-11.79-2.17-9.93-2.17-9.93l-.62-2.79"/><line class="White-Street" x1="-7.5" y1="82.05" x2="331.8" y2="82.05"/><line class="White-Street" x1="333.43" y1="261.67" x2="-5.13" y2="261.48"/><polyline class="Light-Gray-Ramp" points="157.23 52.58 233.54 61.88 304.51 51.03 304.51 44.2 234.78 31.79 159.71 45.13"/><path class="White-Street" d="M236.33,11.94a37.24,37.24,0,0,0-2.48,15.82c.62,8.69.31,21.09.31,21.09l1.42,20.29.25,3.52.31,4.44.5,7.12s-.62,40.64-.62,44.67-5.59,43.12-6.21,45.6.62,30.09.62,33.81v75.07"/><polyline class="cls-10" points="331.98 47.8 234.36 48.59 -2.77 48.59"/><polyline class="cls-11" points="331.98 47.8 234.36 48.59 -2.77 48.59"/><polyline class="cls-12" points="331.98 47.8 234.36 48.59 -2.77 48.59"/><line class="Light-Gray-Ramp" x1="206.85" y1="36.76" x2="159.71" y2="45.13"/><polyline class="Light-Gray-Ramp" points="247.65 59.73 304.51 51.03 304.51 44.2 254.48 35.3"/><line class="Light-Gray-Ramp" x1="157.23" y1="52.58" x2="212.67" y2="59.34"/></g><g id="ICONS"><use width="13.44" height="13.47" transform="translate(129.61 41.38)" xlink:href="#Hwy:_I-694"/><use width="18" height="18" transform="translate(17.38 247.38) scale(0.85)" xlink:href="#Compass"/><g id="Park_And_Ride_locations" data-name="Park And Ride locations"><text class="cls-13" transform="translate(116.58 250.38)">3</text></g></g><g id="TYPE"><g id="type:_Streets" data-name="type: Streets"><text class="cls-14" transform="translate(16.16 76.85)">County Road D</text><text class="cls-14" transform="translate(109.84 88.27) rotate(90)">Southlawn Dr</text><text class="cls-14" transform="translate(236.32 167.77) rotate(90)">White Bear <tspan class="cls-15" x="52.8" y="0">A</tspan><tspan x="59.66" y="0">ve N</tspan></text><text class="cls-14" transform="translate(262.16 257.18)">Beam <tspan class="cls-15" x="28.35" y="0">A</tspan><tspan class="cls-16" x="35.21" y="0">ve</tspan></text></g><text class="cls-17" transform="translate(135.26 156.1)">Maplewood Ma<tspan class="cls-18" x="49.54" y="0">l</tspan><tspan x="51.22" y="0">l</tspan></text></g><g id="Boarding_location" data-name="Boarding location"><line x1="77.48" y1="210.89" x2="106.7" y2="229.18"/><line class="cls-19" x1="77.48" y1="210.89" x2="101.35" y2="225.83"/><polygon points="104.39 219.13 96.65 231.49 106.7 229.18 104.39 219.13"/><line x1="77.48" y1="210.89" x2="106.7" y2="229.18"/><polygon points="98.77 227.17 75.73 212.74 78.38 208.5 101.42 222.93 104.6 217.85 107.3 229.56 95.59 232.25 98.77 227.17"/><path class="cls-2" d="M78.54,209.19l23,14.42,2.81-4.48,2.31,10-10,2.31L99.46,227l-23-14.42,2.12-3.39m-.32-1.38-.53.85-2.12,3.39-.53.85.85.53,22.19,13.89L95.8,231l-1.28,2,2.35-.54,10-2.31,1-.22-.22-1-2.31-10-.54-2.35-1.28,2-2.28,3.64L79.07,208.35l-.85-.53Z"/><rect class="cls-20" x="6.6" y="161.86" width="91.33" height="49.84"/><text class="cls-21" transform="translate(10.74 174.46)">BOARD SUPER <tspan x="0" y="11">BOWL EVENT </tspan><tspan x="0" y="22">SHUTTLE ON </tspan><tspan x="0" y="33">SOUTHL</tspan><tspan class="cls-22" x="43.59" y="33">A</tspan><tspan x="51.26" y="33">WN</tspan></text></g><g id="border"><path class="cls-23" d="M329,1V279H1V1H329m1-1H0V280H330V0Z"/></g><g id="Header"><rect class="cls-24" width="330" height="27.77"/><text class="cls-25" transform="translate(34.75 18.19)">Maplewood Mall <tspan class="cls-26" x="97.77" y="0">T</tspan><tspan x="103.56" y="0">ransit Center</tspan></text><text class="cls-27" transform="translate(15.89 17.52)">3</text></g></svg>