<?xml version="1.0" encoding="utf-8"?>
<!-- Generator: Adobe Illustrator 15.1.0, SVG Export Plug-In . SVG Version: 6.00 Build 0)  -->
<!DOCTYPE svg PUBLIC "-//W3C//DTD SVG 1.1//EN" "http://www.w3.org/Graphics/SVG/1.1/DTD/svg11.dtd">
<svg version="1.1" id="Layer_1" xmlns="http://www.w3.org/2000/svg" xmlns:xlink="http://www.w3.org/1999/xlink" x="0px" y="0px"
	 width="936px" height="318px" viewBox="0 0 936 318" enable-background="new 0 0 936 318" xml:space="preserve">
<g>
	<path fill="#565959" d="M322.109,158.592V83.145l-16.52,49.619h-10.56l-16.18-48.77v74.598h-19.076V37.604h17.202l23.503,63.553
		l23.334-63.553h17.373v120.988H322.109z"/>
	<path fill="#565959" d="M358.386,61.734V41.852h19.927v19.882H358.386z M359.408,158.592V71.419h18.054v87.173H359.408z"/>
	<path fill="#565959" d="M430.939,158.592V94.189c0-3.51-0.852-6.117-2.554-7.816c-1.704-1.699-3.806-2.549-6.302-2.549
		c-2.499,0-4.598,0.85-6.301,2.549s-2.556,4.307-2.556,7.816v64.402h-18.053V69.041h17.372v6.626
		c0.793-1.019,1.703-2.065,2.725-3.143c1.022-1.075,2.1-1.896,3.236-2.464c2.611-1.585,5.621-2.379,9.027-2.379
		c3.633,0,6.753,0.567,9.367,1.699c2.61,1.134,4.939,2.889,6.983,5.268c1.815,2.04,3.122,4.477,3.917,7.307
		c0.793,2.833,1.192,6.855,1.192,12.065v64.572H430.939z"/>
	<path fill="#565959" d="M501.163,158.592V94.189c0-3.51-0.852-6.117-2.555-7.816c-1.704-1.699-3.804-2.549-6.294-2.549
		c-2.5,0-4.598,0.85-6.301,2.549c-1.704,1.699-2.555,4.307-2.555,7.816v64.402h-18.055V69.041h17.372v6.626
		c0.793-1.019,1.704-2.065,2.725-3.143c1.024-1.075,2.101-1.896,3.237-2.464c2.609-1.585,5.613-2.379,9.018-2.379
		c3.635,0,6.756,0.567,9.368,1.699c2.611,1.134,4.939,2.889,6.982,5.268c1.817,2.04,3.122,4.477,3.919,7.307
		c0.794,2.833,1.193,6.855,1.193,12.065v64.572H501.163z"/>
	<path fill="#565959" d="M551.745,118.999c0,5.098,0.171,9.49,0.512,13.169c0.34,3.683,1.078,6.372,2.214,8.071
		c0.683,1.02,1.619,1.87,2.812,2.55c1.192,0.68,2.579,1.02,4.171,1.02c2.952,0,5.224-1.131,6.815-3.398
		c0.791-0.906,1.361-2.096,1.701-3.569c0.343-1.471,0.513-3.001,0.513-4.588h18.053c-0.229,3.967-0.882,7.647-1.96,11.045
		s-2.979,6.57-5.704,9.518c-2.387,2.606-5.168,4.445-8.347,5.521c-3.18,1.075-6.87,1.614-11.071,1.614
		c-3.974,0-7.521-0.51-10.644-1.528c-3.124-1.021-6.046-2.944-8.771-5.778c-1.933-1.925-3.435-4.275-4.513-7.052
		c-1.082-2.775-1.903-5.833-2.47-9.176c-0.569-3.34-0.938-6.938-1.107-10.791c-0.171-3.849-0.255-7.816-0.255-11.895
		c0-8.157,0.45-15.689,1.362-22.601c0.906-6.908,3.234-12.346,6.982-16.313c2.726-2.83,5.707-4.729,8.942-5.692
		c3.235-0.961,6.668-1.444,10.302-1.444c3.748,0,7.182,0.483,10.308,1.444c3.122,0.963,6.101,2.862,8.94,5.692
		c3.632,3.627,5.933,9.206,6.896,16.738c0.965,7.535,1.448,16.682,1.448,27.443H551.745z M570.821,105.745
		c0-5.323-0.2-9.402-0.596-12.235c-0.399-2.83-1.052-4.928-1.957-6.288c-0.798-1.131-1.733-2.009-2.812-2.633
		c-1.079-0.622-2.469-0.934-4.174-0.934c-1.701,0-3.095,0.312-4.17,0.934c-1.08,0.624-2.019,1.502-2.811,2.633
		c-0.911,1.36-1.563,3.458-1.96,6.288c-0.399,2.833-0.597,6.912-0.597,12.235H570.821z"/>
	<path fill="#565959" d="M637.244,158.592v-7.646c-0.796,1.135-1.647,2.238-2.554,3.314c-0.91,1.077-1.874,1.953-2.896,2.633
		c-1.362,0.908-2.841,1.645-4.428,2.209c-1.593,0.565-3.521,0.85-5.793,0.85c-3.747,0-6.925-0.594-9.537-1.784
		c-2.612-1.188-5.052-3.084-7.323-5.692c-3.636-4.304-5.449-10.987-5.449-20.052c0-4.078,0.707-7.842,2.128-11.3
		c1.419-3.454,3.493-6.372,6.216-8.751c2.272-1.925,4.968-3.425,8.091-4.503c3.121-1.076,7.295-1.614,12.519-1.614h8.004V93.85
		c0-6.908-2.895-10.366-8.684-10.366c-2.501,0-4.489,0.851-5.964,2.55c-1.816,1.928-2.726,4.702-2.726,8.326h-18.052
		c0-3.625,0.567-7.052,1.702-10.281s3.121-6.258,5.962-9.091c2.155-2.15,4.94-3.909,8.345-5.269
		c3.408-1.358,6.925-2.038,10.562-2.038c3.746,0,7.293,0.509,10.645,1.529c3.348,1.019,6.158,2.719,8.429,5.098
		c2.385,2.379,4.285,5.268,5.707,8.667c1.419,3.398,2.13,7.535,2.13,12.405v63.212H637.244z M636.222,118.999h-5.96
		c-1.934,0-3.662,0.143-5.194,0.425c-1.534,0.284-2.925,1.049-4.173,2.294c-1.137,1.019-2.019,2.493-2.642,4.417
		c-0.625,1.928-0.936,3.797-0.936,5.608c0,8.271,3.123,12.404,9.367,12.404c2.726,0,4.996-1.074,6.812-3.229
		c1.816-2.15,2.725-5.039,2.725-8.666V118.999z"/>
	<path fill="#565959" d="M725.126,113.731c0,9.744-0.313,17.815-0.937,24.214c-0.625,6.402-2.414,11.416-5.364,15.039
		c-2.045,2.608-4.345,4.418-6.898,5.438c-2.555,1.019-5.535,1.528-8.942,1.528c-3.406,0-6.417-0.793-9.026-2.378
		c-1.933-1.245-3.692-2.831-5.28-4.757v37.212h-18.052V69.041h17.371v6.626c0.452-0.905,1.333-1.925,2.638-3.058
		c1.306-1.131,2.412-1.981,3.323-2.549c2.609-1.585,5.62-2.379,9.026-2.379c3.407,0,6.388,0.509,8.942,1.529
		c2.554,1.019,4.854,2.833,6.898,5.438c2.95,3.627,4.739,8.61,5.364,14.954C724.812,95.948,725.126,103.989,725.126,113.731z
		 M707.072,113.731c0-4.19-0.03-7.816-0.086-10.876c-0.058-3.058-0.198-5.607-0.425-7.646c-0.23-2.04-0.541-3.68-0.937-4.929
		c-0.399-1.246-0.88-2.265-1.448-3.059c-1.703-2.379-3.917-3.567-6.643-3.567c-2.614,0-4.656,0.85-6.131,2.548
		c-0.91,0.909-1.592,2.039-2.044,3.399c-0.456,1.359-0.682,3.003-0.682,4.927v38.575c0,3.738,0.908,6.516,2.726,8.327
		c1.589,1.587,3.632,2.379,6.131,2.379c2.837,0,5.051-1.131,6.643-3.398c0.568-0.792,1.049-1.812,1.448-3.06
		c0.396-1.244,0.706-2.916,0.937-5.013c0.227-2.095,0.367-4.645,0.425-7.647C707.042,121.691,707.072,118.038,707.072,113.731z"/>
	<path fill="#565959" d="M792.643,113.731c0,7.591-0.34,14.614-1.021,21.072c-0.682,6.456-2.443,11.669-5.28,15.632
		c-2.613,3.627-5.734,6.117-9.367,7.478c-3.635,1.358-7.609,2.038-11.922,2.038c-4.316,0-8.289-0.68-11.922-2.038
		c-3.636-1.36-6.758-3.851-9.368-7.478c-2.839-3.963-4.6-9.176-5.28-15.632c-0.68-6.458-1.021-13.481-1.021-21.072
		c0-7.589,0.341-14.614,1.021-21.071c0.681-6.458,2.441-11.667,5.28-15.634c2.61-3.625,5.732-6.088,9.368-7.392
		c3.633-1.3,7.605-1.954,11.922-1.954c4.312,0,8.287,0.653,11.922,1.954c3.633,1.304,6.754,3.768,9.367,7.392
		c2.837,3.967,4.599,9.176,5.28,15.634C792.303,99.118,792.643,106.143,792.643,113.731z M774.591,113.731
		c0-6.683-0.116-12.235-0.342-16.653c-0.23-4.418-0.967-7.647-2.215-9.686c-0.795-1.246-1.817-2.18-3.064-2.804
		c-1.251-0.622-2.556-0.934-3.918-0.934s-2.668,0.312-3.918,0.934c-1.25,0.624-2.271,1.558-3.065,2.804
		c-1.251,2.039-1.988,5.268-2.215,9.686c-0.229,4.417-0.339,9.97-0.339,16.653c0,6.686,0.11,12.264,0.339,16.737
		c0.227,4.478,0.964,7.732,2.215,9.771c0.794,1.249,1.815,2.155,3.065,2.72c1.25,0.567,2.556,0.85,3.918,0.85
		s2.667-0.283,3.918-0.85c1.247-0.565,2.27-1.471,3.064-2.72c1.248-2.039,1.984-5.293,2.215-9.771
		C774.475,125.996,774.591,120.417,774.591,113.731z"/>
	<path fill="#565959" d="M836.931,158.592c-4.202,0-8.064-0.339-11.582-1.019c-3.521-0.681-6.757-2.15-9.709-4.419
		c-2.839-2.15-5.054-4.955-6.643-8.411c-1.591-3.455-2.385-7.902-2.385-13.34v-93.8h18.054v92.78
		c0,8.045,4.089,12.065,12.265,12.065V158.592z"/>
	<path fill="#565959" d="M847.657,61.734V41.852h19.928v19.882H847.657z M848.682,158.592V71.419h18.051v87.173H848.682z"/>
	<path fill="#565959" d="M935.541,132.764c0,4.417-0.767,8.271-2.301,11.554c-1.53,3.288-3.435,6.062-5.705,8.327
		c-2.725,2.719-5.705,4.617-8.941,5.692c-3.235,1.075-6.785,1.614-10.645,1.614c-3.861,0-7.553-0.623-11.071-1.868
		c-3.52-1.245-6.415-3.06-8.688-5.438c-2.611-2.719-4.596-5.693-5.959-8.921c-1.363-3.228-2.044-6.993-2.044-11.3h17.883
		c0,3.628,1.021,6.457,3.066,8.497c0.907,0.908,1.959,1.588,3.15,2.04c1.192,0.454,2.41,0.68,3.662,0.68
		c2.838,0,5.166-0.85,6.982-2.55c0.909-0.791,1.562-1.811,1.96-3.059c0.396-1.244,0.597-2.604,0.597-4.079
		c0-2.49-0.627-4.699-1.875-6.626c-1.362-2.04-3.69-3.739-6.983-5.099l-11.923-5.267c-6.131-2.719-10.502-6.174-13.112-10.366
		c-1.934-3.059-2.896-7.138-2.896-12.235c0-4.304,0.706-7.957,2.128-10.96c1.42-3,3.321-5.748,5.705-8.241
		c2.496-2.491,5.422-4.36,8.773-5.608c3.346-1.245,6.896-1.869,10.644-1.869s7.265,0.567,10.56,1.699
		c3.291,1.134,6.074,2.833,8.345,5.098c2.385,2.268,4.258,5.013,5.621,8.241c1.362,3.229,2.044,7.111,2.044,11.641h-17.714
		c0-1.925-0.199-3.539-0.596-4.843c-0.399-1.302-1.052-2.405-1.958-3.314c-1.704-1.81-3.807-2.719-6.302-2.719
		c-2.726,0-4.94,0.851-6.643,2.55c-1.704,1.7-2.554,3.967-2.554,6.797c0,2.153,0.451,3.909,1.361,5.268
		c1.248,2.039,3.463,3.738,6.643,5.098l11.922,5.097c3.066,1.359,5.646,2.804,7.751,4.334c2.098,1.529,3.887,3.372,5.364,5.522
		C934.289,121.663,935.541,126.535,935.541,132.764z"/>
</g>
<g>
	<path fill="#565959" d="M289.873,213.738c-0.783,4.31-2.521,7.671-5.214,10.087c-2.695,2.412-6.037,3.621-10.027,3.621
		c-2.304,0-4.371-0.399-6.201-1.198c-1.831-0.795-3.425-1.907-4.781-3.327c-1.029-1.079-1.842-2.177-2.438-3.299
		c-0.597-1.121-1.04-2.393-1.326-3.816c-0.289-1.421-0.462-3.082-0.524-4.979c-0.062-1.896-0.093-4.16-0.093-6.788
		c0-2.629,0.031-4.893,0.093-6.79c0.062-1.896,0.235-3.557,0.524-4.98c0.287-1.421,0.729-2.692,1.326-3.813
		c0.596-1.122,1.409-2.22,2.438-3.298c1.356-1.423,2.951-2.532,4.781-3.331c1.83-0.796,3.897-1.196,6.201-1.196
		c3.99,0,7.332,1.208,10.027,3.621c2.693,2.414,4.431,5.777,5.214,10.089h-4.813c-0.576-2.846-1.769-5.11-3.578-6.79
		c-1.811-1.682-4.094-2.522-6.849-2.522c-3.003,0-5.533,1.078-7.589,3.233c-0.701,0.733-1.256,1.529-1.667,2.393
		c-0.411,0.862-0.72,1.887-0.926,3.071c-0.207,1.186-0.339,2.608-0.401,4.268c-0.062,1.66-0.092,3.677-0.092,6.047
		c0,2.372,0.031,4.386,0.092,6.046c0.062,1.661,0.194,3.082,0.401,4.266c0.206,1.189,0.515,2.211,0.926,3.073
		c0.411,0.861,0.965,1.66,1.667,2.392c2.056,2.158,4.585,3.236,7.589,3.236c2.755,0,5.059-0.844,6.911-2.523
		c1.85-1.681,3.063-3.947,3.64-6.789H289.873z"/>
	<path fill="#565959" d="M299.189,190.87v-5.237h4.998v5.237H299.189z M299.436,227.057v-31.812h4.442v31.812H299.436z"/>
	<path fill="#565959" d="M323.499,227.057c-1.317,0-2.458-0.227-3.424-0.678c-0.966-0.453-1.769-1.065-2.406-1.846
		c-0.638-0.774-1.122-1.681-1.451-2.714c-0.329-1.036-0.493-2.134-0.493-3.299v-19.722h-3.826v-3.555h3.826v-9.766h4.442v9.766
		h6.479v3.555h-6.479v19.595c0,1.465,0.329,2.606,0.987,3.426c0.658,0.822,1.707,1.231,3.147,1.231h2.345v4.006H323.499z"/>
	<path fill="#565959" d="M342.996,234.751c-0.577,1.684-1.297,2.931-2.16,3.75c-0.823,0.818-1.749,1.392-2.777,1.715
		c-1.028,0.325-2.077,0.485-3.146,0.485H333v-4.137h1.357c1.521,0,2.612-0.293,3.27-0.876c0.658-0.582,1.234-1.603,1.728-3.071
		l2.159-6.206l-10.921-31.167h4.812l8.33,25.539l8.268-25.539h4.813L342.996,234.751z"/>
	<path fill="#565959" d="M400.069,211.149c0,2.589-0.238,5.078-0.71,7.471c-0.474,2.39-1.472,4.406-2.994,6.044
		c-0.822,0.866-1.871,1.544-3.146,2.037c-1.275,0.495-2.695,0.745-4.258,0.745c-1.728,0-3.27-0.283-4.627-0.841
		c-1.357-0.561-2.674-1.683-3.949-3.362v3.813h-4.442v-46.039h4.442v17.911c1.275-1.638,2.601-2.726,3.98-3.266
		c1.377-0.537,2.909-0.808,4.596-0.808c1.563,0,2.982,0.248,4.258,0.743c1.275,0.496,2.324,1.175,3.146,2.036
		c0.742,0.778,1.358,1.685,1.852,2.715c0.494,1.036,0.873,2.138,1.142,3.298c0.267,1.166,0.453,2.384,0.555,3.654
		C400.015,208.574,400.069,209.858,400.069,211.149z M395.625,211.149c0-1.551-0.082-3.059-0.246-4.525
		c-0.167-1.465-0.515-2.76-1.049-3.882c-0.535-1.117-1.306-2.022-2.314-2.715c-1.008-0.688-2.334-1.035-3.98-1.035
		c-1.687,0-3.023,0.347-4.01,1.035c-0.987,0.692-1.76,1.598-2.314,2.715c-0.557,1.122-0.916,2.417-1.08,3.882
		c-0.165,1.467-0.247,2.975-0.247,4.525c0,1.554,0.082,3.062,0.247,4.525c0.164,1.468,0.523,2.763,1.08,3.881
		c0.554,1.122,1.327,2.026,2.314,2.716c0.986,0.692,2.323,1.035,4.01,1.035c1.646,0,2.972-0.343,3.98-1.035
		c1.008-0.689,1.779-1.594,2.314-2.716c0.534-1.118,0.883-2.413,1.049-3.881C395.543,214.212,395.625,212.703,395.625,211.149z"/>
	<path fill="#565959" d="M417.097,234.751c-0.577,1.684-1.296,2.931-2.159,3.75c-0.823,0.818-1.748,1.392-2.776,1.715
		c-1.029,0.325-2.078,0.485-3.147,0.485h-1.913v-4.137h1.357c1.521,0,2.612-0.293,3.27-0.876c0.658-0.582,1.234-1.603,1.728-3.071
		l2.159-6.206l-10.92-31.167h4.812l8.33,25.539l8.269-25.539h4.813L417.097,234.751z"/>
	<path fill="#565959" d="M478.859,227.057l-23.323-36.921v36.921h-4.689v-46.039h4.442l23.324,36.794v-36.794h4.689v46.039H478.859z
		"/>
	<path fill="#565959" d="M512.422,227.057v-3.039c-1.194,1.252-2.447,2.135-3.764,2.653c-1.317,0.516-2.982,0.775-4.998,0.775
		c-2.097,0-3.784-0.217-5.06-0.646c-1.275-0.433-2.448-1.188-3.515-2.268c-0.782-0.774-1.357-1.732-1.727-2.874
		s-0.557-2.34-0.557-3.591c0-2.845,0.905-5.086,2.715-6.724c1.808-1.64,4.42-2.459,7.834-2.459h9.07v-3.037
		c0-2.327-0.585-4.075-1.759-5.239c-1.172-1.164-3.177-1.744-6.015-1.744c-1.933,0-3.457,0.28-4.565,0.839
		c-1.112,0.563-2.141,1.512-3.085,2.846l-3.023-2.907c1.316-1.855,2.808-3.116,4.472-3.784c1.666-0.669,3.752-1.003,6.264-1.003
		c4.111,0,7.166,0.905,9.164,2.717c1.993,1.809,2.991,4.438,2.991,7.886v21.599H512.422z M512.422,212.382h-8.452
		c-4.566,0-6.85,1.873-6.85,5.624c0,1.853,0.556,3.221,1.666,4.105c1.111,0.883,2.899,1.324,5.368,1.324
		c1.274,0,2.467-0.116,3.578-0.355c1.11-0.236,2.159-0.829,3.147-1.778c1.026-1.034,1.542-2.864,1.542-5.496V212.382z"/>
	<path fill="#565959" d="M536.177,227.057c-1.318,0-2.46-0.227-3.425-0.678c-0.969-0.453-1.771-1.065-2.405-1.846
		c-0.64-0.774-1.121-1.681-1.451-2.714c-0.33-1.036-0.493-2.134-0.493-3.299v-19.722h-3.827v-3.555h3.827v-9.766h4.441v9.766h6.478
		v3.555h-6.478v19.595c0,1.465,0.329,2.606,0.987,3.426c0.659,0.822,1.706,1.231,3.148,1.231h2.342v4.006H536.177z"/>
	<path fill="#565959" d="M567.334,227.057v-3.554c-1.069,1.291-2.334,2.273-3.795,2.942c-1.462,0.665-3.054,1.001-4.783,1.001
		c-3.33,0-5.943-0.991-7.833-2.976c-1.071-1.122-1.853-2.426-2.347-3.914c-0.493-1.483-0.738-3.154-0.738-5.008v-20.305h4.441
		v19.593c0,2.846,0.656,4.968,1.975,6.369c1.314,1.4,3.125,2.101,5.429,2.101c2.303,0,4.145-0.71,5.523-2.134
		c1.378-1.421,2.067-3.534,2.067-6.336v-19.593h4.441v31.812H567.334z"/>
	<path fill="#565959" d="M599.79,201.322c-0.824-0.862-1.604-1.464-2.347-1.811c-0.738-0.346-1.707-0.52-2.898-0.52
		c-1.112,0-2.119,0.217-3.025,0.65c-0.905,0.428-1.664,1.033-2.282,1.809c-0.616,0.776-1.102,1.682-1.448,2.715
		c-0.351,1.036-0.525,2.157-0.525,3.363v19.527h-4.443v-31.812h4.443v3.878c0.821-1.335,2.007-2.381,3.547-3.136
		c1.544-0.754,3.198-1.131,4.97-1.131c1.437,0,2.745,0.216,3.916,0.646c1.171,0.432,2.293,1.207,3.363,2.329L599.79,201.322z"/>
	<path fill="#565959" d="M609.724,212.382c0,3.49,0.749,6.196,2.251,8.112c1.501,1.92,3.732,2.878,6.695,2.878
		c1.768,0,3.239-0.292,4.412-0.875c1.171-0.578,2.353-1.497,3.548-2.745l3.021,2.778c-0.782,0.818-1.551,1.531-2.312,2.134
		c-0.763,0.605-1.585,1.112-2.47,1.521s-1.841,0.723-2.868,0.938c-1.029,0.214-2.18,0.323-3.455,0.323
		c-2.017,0-3.847-0.323-5.49-0.972c-1.646-0.646-3.046-1.638-4.197-2.972c-1.151-1.338-2.037-3.029-2.652-5.078
		c-0.617-2.047-0.925-4.47-0.925-7.275c0-5.215,1.109-9.234,3.331-12.058c2.222-2.824,5.265-4.236,9.131-4.236
		c3.991,0,7.066,1.369,9.226,4.106c2.159,2.735,3.237,6.52,3.237,11.349v2.071H609.724z M625.827,208.886
		c-0.042-0.646-0.083-1.204-0.122-1.681c-0.044-0.472-0.094-0.904-0.157-1.295c-0.06-0.385-0.153-0.762-0.275-1.13
		c-0.124-0.364-0.271-0.763-0.434-1.195c-0.659-1.464-1.594-2.629-2.808-3.491c-1.212-0.861-2.644-1.295-4.288-1.295
		s-3.075,0.434-4.286,1.295c-1.214,0.862-2.15,2.027-2.808,3.491c-0.208,0.433-0.362,0.831-0.463,1.195
		c-0.104,0.368-0.186,0.745-0.248,1.13c-0.062,0.391-0.104,0.823-0.123,1.295c-0.022,0.477-0.052,1.035-0.092,1.681H625.827z"/>
</g>
<g>
	<g>
		<path fill="#00BCE2" d="M1.527,299.406c0,9.389,7.61,16.998,16.998,16.998h170.792c9.388,0,16.998-7.609,16.998-16.998V158.979
			H1.527V299.406z"/>
		<path fill="#BAC405" d="M189.317,1.062H18.525c-9.388,0-16.998,7.61-16.998,16.998v140.919h204.787V18.059
			C206.314,8.671,198.705,1.062,189.317,1.062z"/>
	</g>
	<g>
		<path fill="none" d="M59,201.993c-0.195,0.002-0.39,0.003-0.579-0.002c-0.051,0.103,0.276,0.557,0.261,0.562
			c-0.897,0.297-3.418-0.14-3.917,0.842c0.656,0.006,1.079,0.516,1.568,0.562c0.326,0.032,0.865-0.855,1.043,0
			c-0.695,0.391,0.208,0.197,0.731,0.27c0.062-0.056,0.124-0.109,0.171-0.144c0.169-0.117,0.815,0.149,0.941,0
			c0.826-0.96,1.429,0.091,2.352,0c-0.004-0.447,0.38-0.531,0.47-0.895C61.72,202.131,60.266,202.152,59,201.993z"/>
		<path fill="none" d="M77.086,257.335c-0.006,0.888-1.282,0.569-0.939,1.791c0.849,0.338,1.16-0.631,1.88-0.896
			c0.025-0.009,3.536,1.646,2.351,0c-0.251-0.349,1.024,0.278,0.94,0.447C82.556,257.787,78.521,257.29,77.086,257.335z"/>
		<path fill="none" d="M82.728,277.471c1.166-0.233,1.674-1.092,2.351-1.79C84.73,274.947,82.541,276.214,82.728,277.471z"/>
		<path fill="none" d="M66.75,201.667c-0.672-0.896-2.5,0.601-3.767,0.629c-0.094,3.25,2.757-1.095,2.821,1.341
			c1.657-0.236,2.102-1.311,3.76-0.447C68.7,202.437,64.75,201.75,66.75,201.667z"/>
		<path fill="none" d="M65.331,197.374c-1.104-0.282-2.331-0.624-3.081-0.041c-0.75-0.583-1.619-0.388-2.56-0.405
			c-1.166-0.022-2.56,0.746-3.107-0.095c0.325-0.027,0.565-0.193,0.693-0.459c-0.128-0.014-0.272-0.01-0.421,0
			c-0.62,0.106-1.949-0.151-2.09,0c-0.333,0.36-0.469,0.094-1.042,0.28c-0.077,0.023-0.046,0.222-0.262,0.279
			c-0.334,0.091-0.555,0.22-0.786,0.282c-0.154,0.043-0.369-0.062-0.52,0c-0.115,0.047-0.375,0.494-0.524,0.562
			c-0.274,0.127-0.765-0.113-0.781,0.28c0.055,0.316,0.291,0.438,0.522,0.562c0.464-0.156,1.083-0.145,1.303-0.562
			c0.888,0.076,2.12-0.219,2.615,0.281c0.144-1.084,1.007,0.215,1.566-0.562c0.08,0.304,0.356,0.345,0.521,0.562
			c0.072,0.095,0.442-0.087,0.522,0c0.132,0.141-0.049,0.616,0.263,0.562c0.335,0.156,0.7,0.281,1.067,0.403
			c0.001-0.052-0.014-0.088-0.009-0.143c2.059,0.081,2.418-1.451,4.233-0.447C62.113,196.689,65.469,199.199,65.331,197.374z"/>
		<path fill="none" d="M133.885,269.206c0.131-1.143-1.394-2.291-1.638-1.626C132.718,268.215,133.073,268.994,133.885,269.206z"/>
		<path fill="none" d="M85.079,278.812c-0.75,0.63-1.202,1.544-1.41,2.687C84.651,281.093,85.103,280.178,85.079,278.812z"/>
		<path fill="none" d="M87.9,263.598c0.306,1.263,0.545-1.029,0.471-1.341C88.152,261.358,87.488,261.895,87.9,263.598z"/>
		<path fill="none" d="M111.265,215.986c-0.144-0.5-0.419-0.833-0.984-0.812c-0.028-0.102-0.014-0.178,0.024-0.239
			c-0.974,0.089-2.428,0.111-3.68,0.689c-2.375-0.875-3.261-0.073-3.708,0.708c1.333-0.583,3.352,0.795,4.231,0.867
			c0.589,0.05,1.555-1.359,1.88,0c-0.94,0.468-0.256,0.411,0.542,0.401C110.359,216.768,110.032,215.983,111.265,215.986z"/>
		<path fill="none" d="M133.229,272.862c-0.144-1.04-0.459-1.868-0.982-2.439C132.231,271.661,132.545,272.492,133.229,272.862z"/>
		<path fill="none" d="M89.312,273.444c-0.311-0.602-1.006-0.834-1.881-0.896C86.955,273.895,88.477,273.343,89.312,273.444z"/>
		<path fill="none" d="M90.721,274.786c0.611,1.381,0.619-1.284-0.471-0.896C89.355,274.274,90.759,274.156,90.721,274.786z"/>
		<path fill="none" d="M90.25,270.312c-0.07-1.115-1.59-0.133-1.879,0C88.484,271.464,89.181,269.696,90.25,270.312z"/>
		<path fill="none" d="M28.655,194.687c-0.053,2.043,1.53-0.688,1.566,0.844c0.92-0.15,1.167-0.824,2.088-0.282
			C31.346,194.297,30.055,194.65,28.655,194.687z"/>
		<path fill="none" d="M40.926,242.739c-0.416,0.395-0.667,0.968-0.783,1.687C40.69,244.171,40.94,243.596,40.926,242.739z"/>
		<path fill="none" d="M175.467,211.019c0.452,0.174,0.469-0.347,0.663-0.585C175.691,210.63,175.467,210.739,175.467,211.019z"/>
		<path fill="none" d="M36.488,229.251c-0.003,0.559-0.713,0.357-0.521,1.124c0.471,0.212,0.626-0.463,1.044-0.562
			c0.577-0.139,0.901,0.434,1.306,0c0.171-0.188,0.569,0.174,0.521,0.28C39.526,229.535,37.284,229.223,36.488,229.251z"/>
		<path fill="none" d="M112.91,214.362c0.614-0.067,1.146-0.805,1.968-0.812c-0.313-0.715-1.273-0.909-2.292-0.981
			c-0.362,0.512-0.599,1.393-2.022,1.36c-0.072,0.128,0.27,0.596,0.41,0.797c0.64-0.017,1.375,0.122,0.62-0.364
			C111.82,213.128,112.497,214.406,112.91,214.362z"/>
		<path fill="none" d="M176.362,210.328c-0.101-0.003-0.176,0.036-0.232,0.105C176.204,210.4,176.275,210.368,176.362,210.328z"/>
		<path fill="none" d="M57.44,184.829c1.211-0.285,1.149,0.643,2.25,0.464c0.505-1.482,0.871-0.295,1.881-0.445
			c0.028-0.004-0.027-0.418,0-0.451c0.065-0.074,0.817,0,0.94,0c0.845,0.02,2.251,1.645,2.35,0
			c-1.423-0.038-2.748-0.167-3.445-0.896c-0.602,0.225-2.076,0.083-2.211,0.226c-0.523,0.564-2.087,0.127-2.35,1.127
			C57.1,184.792,57.284,184.796,57.44,184.829z"/>
		<path fill="none" d="M53.461,207.051c-0.024,0.44-0.666,0.219-0.523,0.842c0.606-0.09,1.004,0.044,1.307,0.281
			c0.038-0.614,0.657-0.605,1.304-0.562c0.009,0.1,0.046,0.161,0.091,0.209c0.578-0.19,1.256-0.284,2.169-0.155
			c-0.282-0.335-0.52-0.6-0.705-0.826C55.877,206.435,54.837,206.687,53.461,207.051z"/>
		<path fill="none" d="M43.277,239.367c-0.171-0.378-0.559-0.524-1.045-0.562C41.969,239.649,42.812,239.304,43.277,239.367z"/>
		<path fill="none" d="M53.461,192.437c0.461-0.251,0.761-0.677,1.304-0.842c0.042,0.33-0.044,0.798,0.263,0.842
			c0.63-0.799,0.908,0.353,1.305,0.283c0.293-0.053,0.503-1.449,1.043-0.562c-0.367,0.073-0.296,0.616-0.521,0.843
			c0.292,0.282,0.604,0.381,0.926,0.434c-0.031-0.14-0.037-0.304,0.028-0.534c1.243-0.012,2.946,0.417,2.349-1.342
			c1.759-0.48,1.341,1.111,2.825,0.896c0.103-0.846-0.533-0.988-0.471-1.79c1.817,0.059,1.854,1.815,3.292,2.236
			c-1.244-2.198,1.076-0.642,1.409-1.342c-1.439-1.674-4.276-1.172-6.582-0.895c-0.534,0.062-1.349-0.026-1.411-0.447
			c-0.032,0.005-0.058,0.008-0.089,0.013c-0.22,0.215-0.451,0.431-0.381,0.646c-1.319-0.459-1.019-1.334-2.417-1.246
			c-0.241,0.016-0.583,0.559-0.083,0.996c-0.539,0.201-1.812-0.286-2.005-0.153c-0.352,0.24-0.816,0.548-1.045,0.562
			c-0.293,0.017-0.128,0.206-0.261,0.279c-0.759,0.429-1.676,0.38-1.827,1.123c0.8-0.746,1.373-0.001,2.088-0.842
			C53.24,191.925,53.155,192.393,53.461,192.437z"/>
		<path fill="none" d="M39.621,241.897c0.648-0.147,0.931-0.687,1.305-1.125C40.733,240.312,39.518,241.105,39.621,241.897z"/>
		<path fill="none" d="M43.8,237.4c-0.041-0.699-0.885-0.083-1.044,0C42.816,238.123,43.205,237.014,43.8,237.4z"/>
		<path fill="none" d="M44.061,240.212c0.339,0.866,0.344-0.809-0.261-0.562C43.301,239.89,44.081,239.815,44.061,240.212z"/>
		<path fill="none" d="M130.28,256.611c0.288-1.546-0.78-0.694-1.364-1.361C128.863,255.533,130.75,257.583,130.28,256.611z"/>
		<path fill="none" d="M152.423,205.699c-0.01-0.005,0.249-0.541,0.209-0.664c-0.277,0.011-0.565,0.003-0.853-0.005
			c-0.133,0.217-0.309,0.471-0.522,0.801c1.283-0.236,1.903,0.35,2.622,0.812c-0.029,0.124-0.097,0.214-0.182,0.286
			c0.188,0.021,0.43,0.455,0.601,0.43c0.389-0.052,0.728-0.655,1.249-0.662C155.151,205.536,153.141,206.053,152.423,205.699z"/>
		<path fill="none" d="M143.062,201.769c1.157-0.785,1.468,0.19,2.622,0.406c0.044-2.21,2.031,1.733,1.966-1.219
			C145.896,200.905,144.274,200.394,143.062,201.769z"/>
		<path fill="none" d="M165.125,246.908c-0.127-0.098-0.8-0.826-0.832,0C164.767,246.452,165.076,247.766,165.125,246.908z"/>
		<path fill="none" d="M156.319,200.053c-0.118-0.08-0.326-0.61-0.417-0.667c-0.12-0.071-0.291,0.052-0.415,0
			c-0.184-0.071-0.359-0.225-0.627-0.331c-0.172-0.067-0.147-0.304-0.208-0.33c-0.457-0.223-0.565,0.094-0.833-0.335
			c-0.112-0.179-1.172,0.129-1.667,0c-0.294-0.028-0.589-0.054-0.625,0.335c-0.244-0.055-0.175-0.609-0.208-0.999
			c-0.788,0-1.578,0-2.366,0c0.342,0.203,0.729,0.419,1.319,0.388c0.059,0.888-0.269,1.292-0.983,1.221
			c0.203,0.962,2.017-0.064,2.293,0.812c-0.739,0.979-2.935,0.155-3.277,1.623c0.064,0.329,0.331,0.406,0.329,0.812
			c0.642,0.08,1.062-0.872,1.639,0c0.088,0.137,0.538-0.107,0.655,0c0.121,0.112,0.326,0.383,0.491,0.601
			c-0.069-0.577-0.371-1.131-0.607-1.182c0.969-1.375,1.206-0.05,2.028-0.62c0.249,0.063,0.104-0.498,0.208-0.662
			c0.065-0.104,0.359,0.11,0.417,0c0.132-0.258,0.353-0.306,0.416-0.665c0.446,0.918,1.135-0.615,1.25,0.665
			c0.395-0.591,1.375-0.242,2.083-0.333c-0.089,0.865,0.411,0.053,1.04,0.663c0.184-0.148,0.372-0.292,0.416-0.663
			C157.719,199.344,156.538,200.202,156.319,200.053z"/>
		<path fill="none" d="M116.515,218.832c-1.97-0.601-3.39-1.52-5.25,0c0.547-0.895,0-0.813,0-1.221
			c-0.138,0.063-0.276,0.126-0.414,0.188c0.078,0.071,0.106,0.167,0.059,0.297c-0.81-0.024-1.206,0.344-1.41,0.894
			c1.97-0.003,1.353,0.272,2.986,1.708c0-0.109,0.015-0.203,0.093-0.242c0.262-0.128,0.779,0.291,0.659,0.406
			c0.02-0.019,0.564-0.173,0.327-0.406c-0.518-0.515,0.274-0.115,0.33-0.813c0.812-0.061,1.59-0.074,1.637,0.813
			c0.381-0.342,0.88-0.534,1.639-0.406C117.351,219.148,116.546,219.471,116.515,218.832z"/>
		<path fill="none" d="M151.468,189.382c-0.039,0.123-0.053,0.253-0.085,0.371c0.12-0.023,0.251-0.028,0.416-0.003
			C151.712,189.59,151.596,189.477,151.468,189.382z"/>
		<path fill="none" d="M150.071,196.396c-0.042-0.13-0.106-0.226-0.177-0.31c-0.294,0.006-0.567,0.008-0.834,0.011
			C149.405,196.194,149.784,196.403,150.071,196.396z"/>
		<path fill="none" d="M145.685,192.428c1.001-0.383,1.027-1.977,2.295-2.03c0.042,0.729-0.401,0.854-0.329,1.624
			c1.034,0.195,0.743-1.246,1.969-0.812c-0.416,1.597,0.771,1.208,1.637,1.218c0.238,1.106-0.651,0.817-0.656,1.625
			c0.41-0.171,0.849-0.304,1.336-0.379c-0.042-0.128-0.096-0.237-0.199-0.269c0.288-0.697,0.458-0.196,0.609,0.233
			c0.207-0.017,0.422-0.022,0.647-0.018c0.149-0.215,0.321-0.333,0.551,0.024c0.001,0,0.003,0,0.004,0c0,0.002,0,0.003,0,0.005
			c0.021,0.033,0.04,0.048,0.062,0.09c0.246-0.055,0.175-0.605,0.209-0.999c0.434,0.196,0.674,0.698,1.04,0.999
			c0.246-0.055,0.177-0.605,0.209-0.999c0.57,0.995,1.819,0.113,2.458,0.999c-0.122-0.881-1.334-0.787-1.61-1.282
			c0.083-0.416-0.468-0.361-0.702-0.381c-0.182-0.017,1.029-0.38,0.749-0.664c-0.155-0.158-1.867-0.301-2.296-0.538
			c0.75-0.208,0.823-0.44,0.631-0.458c-1.116-0.107-2.298,0.5-2.916,1.328c-0.382,0.172,0.309-0.838,0.416-1.328
			c-0.517,0.393-1.048,0.041-1.874,0.662c0.437-0.457,0.697-0.796,0.931-1.021c-0.15,0-0.329-0.015-0.581-0.068
			c-0.043,0.384-0.611,0.465-0.983,0.408c-1.608-0.253-3.586-0.706-4.589,0.812C144.934,191.845,146.552,190.432,145.685,192.428z"
			/>
		<path fill="none" d="M164.709,249.236c0.37-0.078,1.044,0.333,0.833-0.667C165.155,248.615,164.846,248.788,164.709,249.236z"/>
		<path fill="none" d="M174.747,197.062c0.733-0.642,0.931,0.156,1.665,0.33c0.028-1.809,1.292,1.419,1.25-0.996
			C176.545,196.355,175.517,195.938,174.747,197.062z"/>
		<path fill="none" d="M169.541,238.267c-0.037-0.125,0.278-0.551,0.417-0.331c0.323,0.516,0.581-0.162,1.041,0
			c0.333,0.119,0.544,0.735,0.918,0.481c0.151-0.906-0.499-0.484-0.502-1.146C170.78,237.238,168.992,237.607,169.541,238.267z"/>
		<path fill="none" d="M164.795,249.567c-0.482-0.29-0.478,1.69-0.208,0.665C164.571,249.764,165.192,249.854,164.795,249.567z"/>
		<path fill="none" d="M151.779,186.684c-0.025,0.035-0.054,0.066-0.076,0.106c0.032-0.011,0.054-0.025,0.095-0.031
			C151.798,186.725,151.785,186.71,151.779,186.684z"/>
		<path fill="none" d="M167.588,253.222c-0.01,1.013,0.19,1.693,0.624,1.994C168.12,254.366,167.92,253.688,167.588,253.222z"/>
		<path fill="none" d="M168.628,252.227c0.084-0.936-0.886-1.876-1.041-1.332C167.888,251.416,168.114,252.054,168.628,252.227z"/>
		<path fill="none" d="M149.239,197.393c-0.175-0.492-0.671-0.479-1.042-0.662c0.056-0.355,0.176-0.535,0.329-0.619
			c-0.839,0.02-1.612,0.08-2.511,0.378c-0.097,1.657,2.243-0.62,1.31,1.218c0.686-0.495,1.076-0.31,1.516-0.05
			C148.883,197.428,149.092,197.461,149.239,197.393z"/>
		<path fill="none" d="M128.642,265.954c-0.759-0.354-0.753,2.067-0.327,0.813C128.289,266.197,129.267,266.305,128.642,265.954z"/>
		<path fill="none" d="M113.524,187.75c-0.109,0.03,0.299,0.146,0.917,0.304c1.074-0.471,2.455-1.548,3.309-1.304
			c-4.034-0.254-2.408-2.768-8.453-1.634c-0.095-0.118-0.722-0.104-1.389-0.124c-0.072,0.231-0.098,0.407,0.021,0.459
			c1.543,0.667,2.49-0.059,2.384,0.299c1.63-0.357-1.083,1.219,0.401,1c1.041,0.645,1.479-0.5,2.542-0.25
			C113.958,186.576,113.378,187.145,113.524,187.75z"/>
		<path fill="none" d="M137.819,250.924c-1-0.039-3.813,0.412-2.949,1.22c-0.059-0.156,0.438-0.676,0.655-0.406
			c0.509,0.628,0.915-0.199,1.64,0c0.523,0.144,0.719,1.121,1.31,0.812C138.714,251.441,137.823,251.73,137.819,250.924z"/>
		<path fill="none" d="M102.347,194.659c-0.27,0.987,2.271,0.413,1.903,0.591c-2.417,1.167-0.75,1.5,4.75,0.5
			c-2.062,0.438-2.054,1.059-2.293,1.178c-1.367,0.678-3.017,0.604-3.29,1.787c1.44-1.188,2.473-0.005,3.76-1.341
			c0.074,0.527-0.081,1.269,0.471,1.341c0.832-0.402,2.25-1.952,3.227-2.215c0.075,0.527-0.958,2.143-0.406,2.215
			c0.698-0.782,1.156-0.391,1.571,0c0.07-0.059,0.141-0.119,0.209-0.195c-0.281-0.325-0.194-1.111-0.656-1.218
			c0.679-1.28,0.945,0.738,1.317,0.812c0.498,0.102,0.847-1.562,1.639-0.406c0.385-0.063,0.277-0.737,0.329-1.218
			c0.68,0.238,1.058,0.854,1.637,1.218c0.386-0.063,0.277-0.737,0.329-1.218c0.897,1.215,1.616,0.139,2.622,1.218
			c-0.19-1.074-1.341-1.007-2.295-1.621c-0.167-0.109,0.04-0.385-0.327-0.407c-0.288-0.021-0.87-0.466-1.312-0.812
			c-0.243-0.192-0.96-0.521-1.637-0.813c-0.364-0.158,0.366,1.602,0.105,1.447c-1.154-0.684-1.74-0.925-2.261-0.911
			c-0.037,0.317-0.53,0.642-1.677,0.911c0.011-0.131,0.006-0.248-0.009-0.355c-0.02,0.008-0.034,0.015-0.054,0.022
			c0.09-0.315-0.244-0.553-0.558-0.795c-1.084-0.455-3.289,0.299-4.192,0.962C104.917,194.334,103.167,194.75,102.347,194.659z"/>
		<path fill="none" d="M129.953,262.705c-0.201-0.12-1.261-1.012-1.312,0C129.39,262.148,129.875,263.752,129.953,262.705z"/>
		<path fill="none" d="M116.558,159.017l-3.226,0.001v-0.007l-10.146-0.005c-12.938,0.607-13.777,3.849-13.037,24.055
			c0.424-0.779,2.562-1.729,3.393-0.9c-0.344-1.219,0.934-0.9,0.938-1.789c1.797,0.215,3.001-0.127,3.764-0.895
			c0.104,0.348,0.012,0.883,0.471,0.895c1.322-0.678,1.928,0.148,3.76-0.449c0.652,0.277,0.07,1.725,0.941,1.789
			c-3.866,0.389-2.155,1.373,1.858,0.623c0.501-0.094-2.023,1.317-1.516,1.5c0.81,0.29,2.965-0.885,4.013-0.668
			c0.039,0.008,0.067,0.022,0.101,0.033c0.442-0.249,1.312,0.641,1.752,0.696c0.876,0.12-0.872-1.575,0.655-1.217
			c-0.172-0.327-0.341-0.659-0.328-1.218c0.805-0.314,1.89,1.943,1.967,0c0.979,0.147,1.623,0.701,1.974,1.624
			c0.999-0.498-0.48-1.552,0.327-2.032c0.857-0.476,1.41,1.254,1.31-0.406c0.815,1.317,1.851-0.149,2.295,1.624
			c0.815-0.044,1.014-0.761,1.639,0c0.607-0.06,0.201-1.374,0.656-1.624c1.277,0.543,1.698-0.209,2.621,0.406
			c0.319-0.012,0.254-0.496,0.328-0.811c0.531,0.697,1.371,1.008,2.623,0.811c0.004,0.809,0.895,0.517,0.654,1.626
			c0.578-0.753,1.983-0.512,2.278,0.196C128.52,165.269,127.825,159.841,116.558,159.017z"/>
		<path fill="none" d="M129.296,265.55c0.583-0.092,1.644,0.409,1.312-0.812C129.998,264.791,129.513,265.002,129.296,265.55z"/>
		<path fill="none" d="M118.811,205.426c-0.187-0.098-0.511-0.745-0.655-0.814c-0.19-0.087-0.458,0.062-0.655,0
			c-0.291-0.088-0.563-0.274-0.985-0.406c-0.083-0.025-0.132-0.07-0.169-0.121c-0.235,0-0.47,0-0.705,0
			c-0.074,0.528,0.08,1.272-0.471,1.343c-0.08-0.521-0.744-0.485-1.41-0.446c-1.117,0.173-5.26-1.563-3.176,0.271
			c-0.602,0.573-1.434-0.119-2.464,0.176c-0.138,0.039-0.869,0.074-0.369,0.99c-1.167-0.583-1.1-0.194-1.514-0.096
			c-0.284,0.069-0.667-0.099-0.94,0c-0.208,0.077-0.379,0.18-1.796,1.679c0.417-1.499-3.301-0.961-3.332-0.335
			c0.1,0.502,0.523,0.695,0.94,0.895c0.837-0.246,1.244,0.98,1.642,0.315c1.597,0.122,1.282-1.557,2.17-0.763
			c0.26-1.722,3.325,0.001,4.33-1.237c0.144,0.483-0.865,0.892-0.569,1.237c0.102,0.119,0.527-0.028,0.778-0.032
			c0.34-0.359,0.622-0.745,1.149-1.029c0.393,0.078,0.165-0.61,0.329-0.813c0.101-0.126,0.565,0.139,0.655,0
			c0.208-0.314,0.556-0.373,0.656-0.812c0.705,1.124,1.791-0.752,1.972,0.812c0.62-0.722,2.164-0.296,3.279-0.406
			c0.276,0.605,1.055,0.587,1.638,0.812c0.29-0.181,0.585-0.356,0.654-0.812C119.771,205.265,119.156,205.607,118.811,205.426z"/>
		<path fill="#5E6E66" d="M168.542,243.083c-0.002-0.005-0.005-0.008-0.007-0.013C168.435,243.185,168.414,243.223,168.542,243.083z
			"/>
		<path fill="#565959" d="M182.938,190.25c-0.757-0.104-1.355,0.052-1.874,0.332c0.003-0.662,0.569-0.425,0.417-1.331
			c-0.551-0.009-1.306,0.311-1.041-0.996c-0.778-0.357-0.595,0.825-1.25,0.666c-0.048-0.63,0.235-0.734,0.207-1.331
			c-0.805,0.045-0.835,2.41-3.272,1.828c0.552-1.633-0.478-0.475-0.625-0.996c0.637-1.242,3.286-1.543,4.308-1.338
			c0.237,0.049,0.598-0.02,0.625-0.332c0.961,0.264,0.594-0.369,0.832-0.666c0.303-0.182,1.078,0.389,1.042-0.33
			c-0.358,0.016-0.534-0.256-0.625-0.666c0.446,0.016,1.433-0.773,0.833-1.33c-0.21,0.551-0.883,0.363-1.25,0.666
			c0.051-0.475,0.344-0.561,0.417-1c-0.254-0.035-0.493-0.098-0.417-0.662c-0.588-0.275-0.539,0.467-1.041,0.332
			c-0.223-1.1-0.386-0.221-0.833-0.332c-0.013-0.004,0.012-0.311,0-0.334c-0.028-0.055-0.363,0-0.417,0
			c-0.374,0.016-2.293,1.941-2.337,0.721c0.743-0.032,1.429-0.154,1.666-0.996c-0.304-0.183-1.077,0.389-1.042-0.332
			c0.26-0.137,0.426-0.43,0.416-0.996c-0.59,0.056-0.867,0.608-1.458,0.664c0.065-0.451,0.298-0.635,0.209-1.33
			c-0.571-0.568-0.711,0.053-1.043,0c0.022,0.003-0.097-0.288-0.207-0.331c-0.807-0.323-0.621,0.851-1.25,0.665
			c0.234-0.479,0.225-0.813-0.209-0.997c-0.057,0.681-0.554,0.663-0.831,0.997c-0.013-0.425-0.267-0.461-0.208-0.997
			c-0.476,0.45-0.835-0.005-1.25,0.332c-0.057,0.047-0.154,0.576-0.209,0.665c-0.303,0.483-0.817,0.312-1.249,0.332
			c-0.022,0.848-0.381,1.162-0.625,1.66c-0.047-0.256-0.006-0.656-0.209-0.664c-0.045,0.259-0.173,0.387-0.417,0.332
			c0.035,0.604-0.099,0.93-0.432,0.762c-0.333-0.166-0.042,0.541-0.625,0.25c-0.37-22.062,2.055-23.646,11.89-24.155h0.539
			l-1.848-67.871l-9.369-10.772v-0.25h-0.088l-1.159-35.613v-0.997l-0.042,0.498l-0.028-0.498v0.997l-1.16,35.613h-0.121v0.25
			l-9.446,10.772l-4.073,67.864l2.169,0.001c11.462,0.351,8.364,7.369,9.227,23.704c-0.188-0.58-0.576-1.584-1.324-1.266
			c0.152-0.906-0.414-0.67-0.417-1.33c-0.795,0.161-1.329-0.093-1.667-0.663c-0.046,0.257-0.004,0.654-0.208,0.663
			c-0.585-0.504-0.854,0.11-1.664-0.331c-0.29,0.204-0.032,1.278-0.417,1.329c-0.396-0.624-0.523-0.036-1.042,0
			c-0.282-1.452-0.939-0.253-1.458-1.329c0.062,1.356-0.287-0.058-0.832,0.331c-0.513,0.395,0.427,1.256-0.208,1.662
			c-0.222-0.753-0.631-1.207-1.251-1.328c-0.048,1.589-0.736-0.257-1.249,0c-0.008,0.457,0.099,0.729,0.209,0.996
			c-0.97-0.293,0.139,1.095-0.416,0.996c-0.337-0.056-1.074-1.114-1.25-0.332c0.603,0.462-0.91,0.281-0.833,0.996
			c0.386,0.367,1.757,0.148,1.874,0.334c0.417,0.666,1.665,0.146,1.874,1.329c-0.722-0.267-0.8,0.494-1.458,0.332
			c-0.46,0.48,0.262,0.811-0.207,0.996c-0.015,0.003-0.032,0.003-0.048,0.005c0.025-0.057,0.057-0.103,0.072-0.171
			c-0.4-0.047-0.776-0.122-0.656-0.812c-0.925-0.337-0.849,0.572-1.638,0.405c-0.353-1.347-0.607-0.268-1.311-0.405
			c-0.02-0.006,0.019-0.379,0-0.407c-0.045-0.07-0.571-0.002-0.655,0c-0.589,0.017-1.57,1.49-1.639,0
			c1.169-0.04,2.249-0.19,2.623-1.218c-0.477-0.224-1.695,0.474-1.64-0.406c0.412-0.168,0.671-0.524,0.656-1.219
			c-0.928,0.068-1.366,0.743-2.295,0.812c0.104-0.551,0.468-0.775,0.33-1.626c-0.899-0.693-1.12,0.064-1.64,0
			c0.033,0.004-0.153-0.352-0.327-0.406c-1.271-0.395-0.977,1.041-1.968,0.814c0.368-0.588,0.354-0.993-0.327-1.219
			c-0.09,0.833-0.874,0.809-1.311,1.219c-0.019-0.521-0.42-0.564-0.327-1.219c-0.748,0.553-1.315-0.005-1.967,0.404
			c-0.09,0.057-0.241,0.705-0.329,0.814c-0.478,0.592-1.289,0.381-1.966,0.405c-0.036,1.038-0.6,1.421-0.983,2.029
			c-0.075-0.314,0.525-1.471,0.208-1.482c-0.072,0.313-0.274,0.47-0.655,0.405c0.051,0.738-0.101,0.606-0.105,0.785
			c-0.018,0.585,0.1,0.92-0.817,0.562c0.115-14.885-1.418-24.696,13.299-25.154l5.105-0.001L151.908,53.9
			c-2.62-0.701-5.05-1.212-7.276-1.602v-6.429l4.928-4.93c0,0-4.994-3.172-16.778-3.226v-0.007c-0.053,0-0.095,0-0.153,0
			c-0.051,0-0.104,0-0.158,0v0.007c-11.773,0.054-16.77,3.226-16.77,3.226l4.924,4.925v6.434c-2.082,0.367-4.354,0.847-6.789,1.483
			l-0.479,100.19l-6.414-115.62l-8.387-9.616H83.65l-24.944,12.23l0.009,118.017l6.259,0.003c19.93,0.545,19.521,1.779,19.47,26.251
			c-1.316,0.391-1.375-0.424-1.878-0.896c-0.396-0.369-1.016-0.529-0.942-1.342c-0.547,0.072-0.837-0.1-0.94-0.447
			c-0.457,0.012-0.364,0.545-0.471,0.893c-0.549-0.67-1.357-1.094-1.41-2.236c-0.973-0.025-2.135,0.203-2.82-0.447
			c-0.126-0.119-0.342-0.834-0.473-0.896c-0.933-0.451-1.745,0.162-2.82-0.445c0.133,0.721-0.442,0.77-0.469,1.342
			c-0.625-0.451-1.749-0.424-1.88-1.342c-0.977,0.25-0.997,0.697-0.469,1.342c-1.423,0.25-1-1.33-2.822-0.896
			c-0.25,0.061,0.586,0.514,0.633,0.508c-0.746,0.07-1.062-0.766-2.352,0c-0.199,0.934,0.323,1.184,0.473,1.789
			c-1.334-0.074-1.96-0.82-3.292-0.895c-0.022,0.768,0.35,1.16,0.941,1.344c0.076,0.946-1.576,0.245-2.293,0.438
			c-0.478-0.164-1.154-0.184-0.65-0.443c-0.221-0.662-1.145,0.232-1.566,0.281c-0.698,0.082,0.694-1.092-0.523-0.844
			c0.139-0.227,0.274-0.455,0.261-0.844c-0.641-0.215-1.504,1.346-1.566,0c-0.776,0.104-1.288,0.488-1.567,1.125
			c-1.793-1.127,2.126-2.303,1.484-2.637c-0.683-0.326-1.123,0.869-1.046-0.279c-0.648,0.908-1.473-0.105-1.827,1.123
			c-0.65-0.029-0.81-0.525-1.306,0c-0.485-0.041-0.162-0.951-0.523-1.123c-1.018,0.375-1.354-0.146-2.088,0.279
			c-0.255-0.006-0.205-0.344-0.262-0.561c-0.424,0.482-1.093,0.699-2.091,0.561c-0.002,0.559-0.711,0.359-0.521,1.125
			c-0.46-0.52-1.938-0.598-3.525,0.893c-0.478-9.196-2.604-21.878,10.607-22.662l3.245-0.082l-0.892-21.834l-3.184-4.184
			L53.5,108.626l0.052-0.001c0,0,0.966-1.125,0.625-2.708c-0.396-1.835-3.397-11.609-3.975-13.487
			c0.447-0.028,0.802-0.354,0.802-0.763c0-0.427-0.384-0.773-0.859-0.773c-0.475,0-0.859,0.346-0.859,0.773
			c0,0.386,0.319,0.692,0.73,0.75l-1.768,6.014L43.334,82.6v-0.25l-0.226-6.683C43.621,75.525,44,75.113,44,74.606
			c0-0.53-0.416-0.954-0.963-1.073l-0.198-5.872v-0.997l-0.035,0.498l-0.023-0.498v0.997l-0.168,5.845
			c-0.622,0.064-1.111,0.523-1.111,1.1c0,0.557,0.458,0.999,1.048,1.088l-0.031,1.057L42.488,76.5l-9,1.5l0.75,5l8.16-2.098
			l-0.042,1.447h-0.102v0.25l-5.121,15.676l-1.721-5.854c0.424-0.047,0.757-0.36,0.757-0.755c0-0.427-0.384-0.773-0.859-0.773
			c-0.475,0-0.859,0.346-0.859,0.773c0,0.401,0.342,0.719,0.775,0.758c-0.575,1.868-3.58,11.656-3.977,13.492
			c-0.341,1.583,0.625,2.708,0.625,2.708v21.151l-4.5,6.849L27.5,159h0.125h0.001c0.006,0,0.011,0,0.017,0l1.437-0.004
			c11.804,0.516,11.479,16.17,11.006,24.555c-0.731,0.246,0.193-0.266-0.088-0.562c-0.218-0.23-0.563-0.334-0.522-0.842
			c-0.305,0.045-0.464-0.062-0.523-0.281c-0.253,0.006-0.201,0.344-0.261,0.562c-0.305-0.422-0.754-0.688-0.782-1.406
			c-0.54-0.018-1.187,0.127-1.567-0.281c-0.069-0.072-0.19-0.521-0.262-0.561c-0.518-0.285-0.969,0.1-1.566-0.281
			c0.075,0.453-0.246,0.482-0.261,0.842c-0.346-0.281-0.972-0.266-1.043-0.842c-0.542,0.156-0.554,0.438-0.26,0.842
			c-0.791,0.158-0.556-0.834-1.569-0.561c-0.137,0.035-0.287,0.281-0.259,0.279c-0.416,0.047-0.591-0.48-1.308,0
			c-0.11,0.588,0.181,0.744,0.263,1.125c-0.741-0.049-1.087-0.516-1.829-0.562c-0.012,0.48,0.197,0.729,0.523,0.844
			c0.044,0.609-0.926,0.129-1.306,0.281c0.297,0.711,1.156,0.814,2.089,0.842c-0.055,1.031-0.69,0.471-1.162,0.457
			c-0.066,0-0.486-0.047-0.521,0c-0.016,0.02,0.015,0.279,0,0.281c-0.562,0.096-0.765-0.65-1.045,0.281
			c-0.63,0.117-0.568-0.514-1.305-0.281c0.093,0.48-0.206,0.531-0.523,0.562c0.092,0.371,0.458,0.441,0.523,0.844
			c-0.458-0.258-1.304-0.098-1.568-0.564c-0.751,0.473,0.487,1.139,1.045,1.127c-0.113,0.346-0.334,0.576-0.783,0.561
			c-0.045,0.609,0.926,0.127,1.306,0.281c0.296,0.25-0.163,0.785,1.043,0.561c0.036,0.268,0.486,0.322,0.784,0.281
			c1.281-0.172,2.857-0.486,3.655,0.564c-0.185,0.439-1.475-0.539-0.783,0.842c-0.798-0.264-0.818-1.365-1.829-1.406
			c-0.034,0.508,0.321,0.594,0.263,1.127c-0.823,0.135-0.593-0.863-1.568-0.562c0.33,1.104-0.615,0.836-1.305,0.842
			c-0.191,0.766,0.518,0.566,0.521,1.125c-0.651-0.234-1.4-0.367-2.35-0.281c-0.025,0.867,0.789,0.836,1.568,0.843
			c0.093,0.478-0.206,0.53-0.523,0.562c0.304,0.526,1.179,0.265,1.828,0.279c1.187,0.025,2.037-0.036,3.132,0.281
			c0.076,1.146-1.787-0.429-1.043,0.842c-1.006-0.631-1.207,0.332-2.35,0.283c-0.047,0.611,0.213,0.893,0.784,0.842
			c-0.163,0.668-1.609-0.045-1.828,0.564c0.587,0.678,2.338,0.105,2.611,1.122c-0.051,0.229-0.263,0.282-0.261,0.563
			c-0.514,0.054-0.848-0.605-1.307,0c-0.069,0.093-0.428-0.075-0.523,0c-0.131,0.105-0.392,0.423-0.521,0.562
			c0.131,0.337-0.962-0.007-1.171,0.645c0.817-0.124,1.515-0.145,1.432,1.04c-1.021-0.162-1.517,0.242-2.09,0.562
			c0.164,0.601,1.263-0.704,1.829,0c0.386,0.122-0.104,0.36,0,0.843c0.644,0.037,1.257,0.042,1.565-0.279
			c0.275-0.159,0.176,0.549,0.262,0.561c0.929,0.141,2.21-0.465,3.395-0.281c0.148,0.023,0.538,0.186,0.782,0.281
			c0.42,0.165,1.355,0.366,1.569,1.124c-0.182,0.702-0.697-0.521-1.307-0.281c0.156,0.255-0.131,0.984-0.262,0.844
			c-0.38-0.409-0.027,0.029-0.259,0.281c-0.132,0.138-0.604-0.087-0.522,0.279c-0.807,0.009-1.254-0.131-1.568,0.281
			c-0.066,0.088-0.46-0.092-0.521,0c-0.058,0.088,0.076,0.508,0,0.561c-0.336,0.234-0.852-0.072-1.046,0.281
			c0.009,0.274,0.32,0.219,0.523,0.281c-0.211,0.712-1.075,0.717-1.567,1.125c0.218,0.484,1.603-0.125,2.09-0.281
			c0.381,0.001,2.137-0.107,1.304,0.281c0.065,0.354,0.52,0.284,0.524,0c1.078-0.436,1.704-0.458,2.517,0.292
			c0.622,0.574,2.268,0.342,2.967,0.55c-0.452,0.676-1.668,0.301-2.35,0.563c-0.072,0.026-0.227,0.555-0.262,0.561
			c-0.462,0.086-0.556-0.381-1.045-0.278c0,0.278,0,0.56,0,0.843c-0.804,0.208-0.501-0.773-1.305-0.564
			c-0.03,0.79-1.27,0.549-1.306,0.564c-0.106,0.043,0.137,0.401,0.26,0.278c-0.172,0.172-0.162,0.274-0.26,0
			c-1.037-0.086-1.311,0.65-2.349,0.563c0.191,0.264,0.475,0.424,0.783,0.562c-0.027,0.719-0.972,0.45-1.306,0.843
			c0.764,0.718,2.042,0.445,3.132,0.561c0.408,0.045,0.455,0.256,0.785,0.282c1.47,0.118,2.925-0.162,4.177,0.281
			c-0.349,0.469-1.162,0.436-1.566,0.844c0.351,0.638,0.777,0.13,1.305,0.281c0.306,0.087,0.33,0.469,0.523,0.561
			c0.205,0.1,0.563-0.051,0.784,0c0.548,0.126,0.844,0.693,1.304,0.563c-0.382,0.45-1.432,0.885-1.304-0.283
			c-0.285-0.15-0.167,0.545-0.262,0.562c-0.425,0.09-0.705-1.217-1.045,0c-0.493-0.031-0.182-0.929-0.782-0.843
			c-0.484-0.536-0.932,0.561-1.045,0.563c-0.347,0.003-0.773-1.164-0.784,0c-0.523,0-1.044,0-1.565,0
			c0.268,0.584-0.428,0.389-0.524,0.561c-0.095,0.179,0.194,0.363,0.263,0.281c-0.551,0.68-1.213,0.283-1.306,1.405
			c0.54,0.018,1.187-0.127,1.568,0.282c0.039,0.045,0.23,0.551,0.261,0.561c0.8,0.271,1.783,0.027,2.611,0.281
			c0.672,0.205,1.067,0.809,1.828,0.844c1.763-0.498-1.448,1.871,0.522,1.123c-0.63,1.432-1.451-0.552-2.35-0.562
			c0.58,1.214-1.241,0.538-1.306,1.404c-0.21-0.149-0.423-0.292-0.782-0.28c-0.038,0.897-0.966,0.833-1.045,1.687
			c0.598,0.159,0.653-0.703,1.304,0c0.382,0.409,0.255-0.156,1.045-0.28c0.689-0.109,0.927,0.439,1.828,0.28
			c0.007,0.416-0.538,0.124-0.782,0.281c-0.208,0.132-0.352,0.892-1.307,0.562c0.384,0.735-0.562,0.572-0.784,0.842
			c-0.075,0.094,0.088,0.485,0,0.562c-0.259,0.229-1.062,0.493-0.521,1.123c0.749-0.342,1.438-0.409,1.566,0.564
			c0.842-0.855,3.554-0.756,3.917,0c1.254,0.031,0.825,1.057-0.175,1.057c1.25,0.625-0.317,0.938-1.125,1.188
			c0-1.188-1.299,0.14-1.833,0.284c-0.106,0.028-0.447-0.075-0.522,0c-0.064,0.062,0.072,0.524,0,0.562
			c-0.265,0.136-0.805-0.173-1.045,0c-0.118,0.085,0.09,0.716,0,0.843c-0.146,0.207-0.995-0.055-1.044,0.281
			c0.143,0.782,2.107-0.395,1.566,1.125c0.544-0.165,0.844-0.591,1.307-0.845c0.764,0.24-0.158,0.905,0,1.406
			c0.829,0.43,1.147,0.099,2.088,0c-0.05,0.228-0.261,0.278-0.261,0.562c-0.139,0.491-0.738,0.158-1.046,0.562
			c-0.066,0.086-0.462-0.091-0.521,0c-0.058,0.085,0.075,0.509,0,0.562c-0.188,0.127-0.584-0.102-0.783,0
			c0.106,0.677-0.479,0.612-0.262,1.406c1.264-0.279,2.229,0.767,3.134,0c0.328,0.069,0.634,0.309,0,0.562
			c0.17,0.841,0.795-0.111,1.282,0.157c0.17-0.377,0.318-0.682,0.806-0.719c1.695,0.127,1.32,1.002,3.131,2.247
			c-0.114,0.408-0.374-0.183-1.062,0.067c-0.312-1.75-1.787-0.374-2.07-1.473c-0.304,0.235-0.701,0.37-1.307,0.281
			c0.079,0.574,0.707,0.554,0.784,1.124c-0.653-0.232-1.024-0.769-1.827-0.843c-0.224,0.225-0.155,0.77-0.522,0.843
			c0.029,0.532,0.863,0.196,0.784,0.845c-0.786-0.188-0.914-1.081-2.089-0.845c0.09,0.369,0.459,0.442,0.521,0.845
			c-0.955,0.095-2.062,0.027-2.088,1.123c0.673-0.138,2.329,0.078,1.568,0.562c0.221,0.824,0.84-0.168,1.305,0
			c-0.08-0.647,0.754-0.312,0.784-0.842c0.371,0.025,0.739,0.046,0.782-0.283c0.366,0.1,0.024,0.495-0.261,0.563
			c0.558,0.762,1.735-0.175,2.088-0.563c0.522,0,1.045,0,1.567,0c0.331,0.395,1.378,0.017,1.043,1.125
			c-0.762,0.074-0.801-0.636-1.565-0.562c0.122,1.331-0.227,0.417-1.045,0.562c0.092,0.369,0.46,0.442,0.522,0.844
			c-0.695-0.161-2.776-0.459-2.872,0.844c0.349,0,0.696,0,1.045,0c-0.148,0.773-0.275,1.574-1.304,1.404
			c-0.123,0.6,0.371,0.536,0.782,0.562c-0.08,0.663-0.906,0.521-0.782,1.406c1.214,0.09,1.452-0.873,2.35-1.124
			c0.341,0.098,0.409,0.495,0.781,0.56c-0.08,0.665-0.907,0.523-0.781,1.408c0.648,0.041,0.807-0.442,1.304-0.564
			c0,0.282,0,0.564,0,0.844c-0.063,0.724-0.45-0.385-1.045,0c-0.009,0.482,0.195,0.729,0.522,0.845
			c-0.384,0.708-1.557,0.761-1.043,2.245c0.403-0.901,0.614-0.82,1.111-0.942c0.266,0.184,0.197,0.752,0.708,0.666
			c-0.518-1.151,0.558-1.282,0.791-1.969c0.566-0.049,0.117,0.996,0.26,1.404c-0.842,1.814-1.676,0.898-1.305,2.81
			c0.379,0.422,0.337-1.203,1.045-1.125c-0.666,1.505,0.959,0.797,0.521,2.812c0.813-0.062,0.23-1.473,0.522-2.249
			c0.926-0.151,0.324,0.51,1.25,0.359c-0.325-1.524-1.354-1.464-1.25-3.451c0.771,0.296,1.267,1.087,1.666,1.784
			c0.301,0.124-0.239-0.783-0.118-0.834c0.583-0.248,0.933,0.821,1.827,0.563c-0.875-0.812-1.284-1.419,0-1.688
			c-0.194-0.634-1.442,0.345-2.066,0.174c-0.684-0.549-0.178-0.773,0.017-0.857c0.302-0.132,0.507-0.524,1.091-0.358
			c-0.042-0.33-0.86-0.538-1.167-0.583c-0.519-0.003,0.005-0.95-0.706-0.745c0.247,0.245,0,0.562,0,0.843
			c-1.306-0.067-0.257-2.176-0.021-3.075c1.293,0.483,1.977,1.621,2.351,3.093c1.269-0.53,1.152,0.409,2.351,0.561
			c-0.348-0.594-1.013-1.741,0.521-1.404c-0.177-0.654-0.868-0.752-1.043-1.406c0.081-0.66,1.236-0.167,1.043-1.124
			c-0.795-0.27-1.562-0.567-2.351-0.842c0.322-0.404,0.898-0.532,1.568-0.562c0.233-0.908-0.853-0.396-1.045-0.844
			c0.292-0.346,0.227-0.577-0.262-0.562c0.253-0.695,1.004,0.387,1.829,0c-0.187-0.251-0.399-0.736,0-0.844
			c0.712-0.19,1.182-0.381,1.827-0.842c0.122-0.089,0.229-0.366,0.522-0.281c-0.172-0.585-1.634-1.213-2.089-0.562
			c-0.602,0.085-0.29-0.812-0.782-0.844c-0.896-0.118-0.784,0.843-1.307,1.124c-0.305-0.045-0.22-0.513-0.262-0.843
			c-0.848-0.439-1.405,1.452-1.567,0c-0.568-0.052-0.831,0.229-0.781,0.843c-0.753-0.738,1.827-1.872,1.827-2.247
			c1.348-0.575,1.685,0.536,2.872,0.842c-0.144-0.575,0.499-0.669,0.522-0.28c0.354-0.277,0.522-0.749,0.783-1.124
			c0.344,0.286,0.962,0.274,1.307,0.562c0.588-0.388,1.983-0.115,2.088-1.124c-0.349,0-0.697,0-1.044,0
			c-0.549-0.223,0.201-0.22-0.261-0.844c-0.127-0.172-0.738-0.01-0.523-0.562c-0.649-0.041-1.084,0.146-1.306,0.562
			c-0.62-0.083,0.29-0.76,0.522-0.843c-0.348-0.801-1.162,0.216-1.567,0.28c-0.483-0.041-0.16-0.95-0.522-1.123
			c-0.346,0.281-0.971,0.264-1.043,0.843c-0.312,0.109-0.133-0.489-0.264-0.562c-0.633-0.354-0.521,0.759-1.305,0.562
			c0.272-1.486,2.129-1.271,3.134-1.968c1.1-0.058,1.097,1.067,2.09,1.125c0.025-0.241,0.114-0.766,0.26-0.845
			c0.34-0.187,0.412,0.227,0.523,0.282c0,0,0.734,0.25,0.522,0.281c0.362-0.053,0.05-0.416,0.259-0.563
			c0.426-0.297,1.034,0.24,1.568,0c-0.231-0.687-1.457-0.303-1.306-1.404c-0.604-0.088-1.001,0.044-1.305,0.28
			c-0.194-0.026-0.194-1.096,0-1.123c-0.062-0.354-0.519-0.284-0.521,0c-0.579-0.222-0.655-0.983-1.046-1.405
			c-0.887,0.786-1.509,0.106-2.349,0.843c-0.254-0.008-0.204-0.344-0.261-0.562c-0.65-0.042-0.809,0.442-1.308,0.562
			c-0.343-0.337-0.167-0.861-0.542-0.753c0.875-0.438,1.083-1.758,2.5-0.812c0.562,0.375,2.312-0.812,3.265,0.159
			c0.111-0.587-0.18-0.742-0.26-1.122c1.096-0.15,1.458,0.491,2.35,0.56c0.02-0.911,1.183-0.598,1.828-0.842
			c-0.12-0.902-1.017-0.968-1.57-1.406c0.647-0.669-0.675-0.46-0.258-1.684c-0.561-0.073-0.983,0.095-1.567,0
			c-0.378-0.062-0.48-0.273-0.783-0.282c-0.455-0.013-1.046,0.793-1.046-0.281c-0.598,0.293-1.576,0.178-2.088,0.563
			c0.023-0.819,0.379-1.478,1.067-1.228c0.716,0.26,1.658-0.432,2.588-0.46c0.553,0.25,0.772,0.854,1.567,0.844
			c-0.879-0.853,1.14-0.271,0.262-1.125c1.441,0.379,2.081,0.056,2.873-0.842c0.146-0.623-0.501-0.401-0.524-0.844
			c-0.033-0.686-1.439,0.262-1.042-1.123c-0.524,0-1.048,0-1.568,0c-0.623-0.084,0.291-0.762,0.52-0.844
			c0-0.289-0.324-0.197-0.52-0.281c-0.26-0.113-0.419-0.184-0.783-0.281c-0.208-0.056-0.708-0.445-1.045,0.281
			c-0.265-0.184-0.27-0.646-0.783-0.562c1.644-1.575,2.081,0.112,4.3-0.419c-0.125-0.438,0.908-0.033,0.921,0.138
			c0.397-0.097,0.021-0.229,0-0.281c-0.209-0.564,0.296-0.838-0.782-0.843c-0.012-0.481,0.193-0.729,0.522-0.842
			c-0.363-0.886-1.289,0.386-1.567-0.281c0.902-1.716,3.25-0.199,4.7,0c-0.924-0.679-0.174-1.644-0.522-2.25
			c-0.003-0.005-0.019-0.007-0.04-0.008c0.118-0.055,0.211-0.112,0.264-0.167c0.698,0.195-0.186,0.572,0,1.343
			c1.16,0.059,2.264,0.068,2.818-0.446c0.497-0.25,0.359,0.79,0.472,0.895c1.87,1.733,4.037-1.517,6.111-0.448
			c0.242,0.125-1.158,0.016-2.241,0.932c1.02-0.391,1.5,0.666,2.5,0c0.634-0.465,1.247,0.504,2.125,0.416
			c1.25-0.125,1.72,0.475,1.852,0.891c0.773,1.026-3.378-0.523-4.477-0.141c1.126,1.683-1.667,2.334-3.026,1.035
			c-1.097-1.048-0.049,0.047-0.471,0.447c-0.235,0.223-1.085-0.138-0.941,0.447c-1.45,0.014-2.255-0.21-2.82,0.447
			c-0.12,0.14-0.832-0.146-0.938,0c-0.104,0.137,0.136,0.81,0,0.896c-0.607,0.371-1.532-0.117-1.883,0.447
			c0.014,0.436,0.575,0.348,0.941,0.447c-0.376,1.133-1.935,1.141-2.821,1.79c0.393,0.773,2.887-0.198,3.763-0.449
			c0.687,0.007,3.847-0.167,2.348,0.449c0.115,0.562,2.675-0.34,2.683-0.79c3.464-1.234,3.5,1.333,7.362,1.333
			c-0.812,1.077,0.145,1.277-1.085,1.694c-0.129,0.043-0.408,0.884-0.471,0.895c-0.83,0.136-1.002-0.608-1.881-0.447
			c0,0.447,0,0.895,0,1.344c-1.447,0.331-0.902-1.229-2.351-0.896c-0.051,1.257-2.285,0.872-2.351,0.896
			c-0.191,0.068,0.247,0.64,0.469,0.445c-0.313,0.273-0.29,0.437-0.469,0c-1.87-0.137-2.36,1.036-4.231,0.896
			c0.345,0.418,0.856,0.678,1.411,0.895c-0.047,1.147-1.752,0.719-2.351,1.343c1.374,1.144,5.81-1.564,5.641,0.894
			c0.733,0.07,0.82,0.408,1.41,0.447c1.146-1.072,2.761-0.265,3.563-1.03c0.917-0.875,1.75,0.583,3.071,1.125
			c-0.253,0.302-0.779,0.208-1.029,0.417c-0.083,0.5-0.125,0.916-0.901,1.279c0.632,1.017,1.398,0.207,2.35,0.447
			c0.549,0.138,0.596,0.746,0.942,0.895c0.369,0.159,1.012-0.081,1.411,0c0.988,0.202,1.519,1.104,2.352,0.896
			c-0.689,0.714-2.582,1.41-2.352-0.449c-0.509-0.24-0.302,0.864-0.469,0.896c-0.766,0.141-1.27-1.938-1.884,0
			c-0.886-0.05-0.326-1.481-1.408-1.344c-0.87-0.855-1.676,0.893-1.881,0.896c-0.624,0.008-1.391-1.854-1.41,0
			c-0.941,0-1.882,0-2.822,0c0.483,0.934-0.771,0.617-0.941,0.895c-0.172,0.28,0.35,0.579,0.473,0.447
			c-0.993,1.079-2.186,0.45-2.351,2.236c0.972,0.027,2.134-0.205,2.819,0.448c0.074,0.071,0.417,0.879,0.469,0.895
			c1.444,0.432,3.212,0.046,4.703,0.448c1.21,0.324,1.92,1.288,3.292,1.343c1.734,0.021-0.905,2.36,0.941,1.787
			c-1.137,2.282-2.614-0.877-4.233-0.893c-0.657,0.864-2.234,0.856-2.35,2.237c-0.38-0.236-0.765-0.469-1.412-0.447
			c-0.067,1.428-1.738,1.325-1.879,2.684c1.076,0.254,1.176-1.119,2.35,0c0.687,0.654,0.456-0.25,1.879-0.447
			c1.241-0.171,1.671,0.702,3.292,0.447c0.011,0.665-0.971,0.197-1.411,0.447c-0.371,0.212,1.673,1.421-0.047,0.896
			c0.693,1.171-1.013,0.912-1.41,1.342c-0.138,0.148,0.158,0.771,0,0.895c-0.47,0.364-1.915,0.784-0.941,1.79
			c1.351-0.546,2.591-0.652,2.821,0.895c0.941-0.701,2.134-1.188,3.467-0.529c0.417-1.242,3.083-1,3.586,0.529
			c-2.211,2.221-2.211,0.096-2.211,0.096s-2.125,1-0.875,3.25c-0.753-0.726-1.594,0.452-2.556,0.684
			c-0.188,0.044-0.806-0.122-0.94,0c-0.115,0.1,0.131,0.833,0,0.894c-0.478,0.216-1.448-0.276-1.881,0
			c-0.212,0.137,0.162,1.139,0,1.342c-0.263,0.33-1.791-0.085-1.882,0.448c0.261,1.246,3.796-0.629,2.822,1.79
			c0.977-0.264,1.52-0.94,2.352-1.343c1.378,0.379-0.283,1.44,0,2.237c1.495,0.684,2.068,0.158,3.763,0
			c-0.091,0.361-0.473,0.445-0.471,0.896c-0.248,0.78-1.328,0.248-1.881,0.895c-0.121,0.138-0.833-0.146-0.94,0
			c-0.103,0.134,0.136,0.81,0,0.895c-0.337,0.201-1.049-0.161-1.409,0c0.19,1.077-0.861,0.971-0.472,2.235
			c2.933-1.535,3.058,1.402,5.621-0.723c0.589,0.112,0.495,1.613,0.022,1.619c0.309,1.34,1.687-1.244,2.937-0.244
			c1.104-2.625,3.417,2.167,2.958,0.209c2.625,0.625,1.333,1,3.506,2.721c-0.206,0.648-0.411-0.046-0.938,0
			c-0.513-1.75-4.189-0.488-4.701-2.238c-0.547,0.375-1.259,0.591-2.35,0.447c0.139,0.912,1.27,0.878,1.408,1.791
			c-1.175-0.372-1.845-1.228-3.289-1.342c-0.404,0.358-0.28,1.224-0.941,1.342c0.051,0.845,1.554,0.309,1.411,1.341
			c-1.415-0.296-1.642-1.72-3.761-1.341c0.166,0.587,0.827,0.703,0.94,1.341c-1.721,0.155-3.713,0.047-3.762,1.791
			c1.212-0.219,4.194,0.125,2.822,0.893c0.399,1.313,1.513-0.266,2.351,0c-0.144-1.03,1.357-0.494,1.411-1.341
			c0.667,0.039,1.331,0.075,1.411-0.447c0.658,0.157,0.041,0.787-0.472,0.896c1.003,1.212,3.124-0.279,3.762-0.896
			c0.939,0,1.88,0,2.821,0c0.593,0.628,2.48,0.024,1.878,1.788c-1.376,0.118-1.442-1.011-2.82-0.893
			c0.219,2.118-0.409,0.665-1.88,0.893c0.164,0.591,0.827,0.706,0.939,1.344c-1.253-0.256-4.999-0.729-5.172,1.342
			c0.627,0,1.254,0,1.883,0c-0.27,1.237-0.5,2.51-2.352,2.238c-0.221,0.955,0.67,0.854,1.411,0.896
			c-0.146,1.053-1.635,0.83-1.411,2.235c2.188,0.145,2.616-1.388,4.231-1.789c0.616,0.156,0.74,0.788,1.41,0.893
			c-0.146,1.059-1.633,0.836-1.41,2.24c1.169,0.069,1.456-0.703,2.35-0.896c0,0.449,0,0.896,0,1.344
			c-0.113,1.152-0.808-0.614-1.88,0c-1.598,1.637,0.777,0.574,0.939,1.342c-0.225,2.045-3.538,1.232-1.879,3.58
			c0.967-1.66,2.154-1.035,2.654-2.16c0.479,0.29,0.183,2.293,1.107,2.16c-0.607-1.848,1.018-1.035,0.94-3.58
			c1.019-0.075,0.859,1.587,1.116,2.237c0.296,1.995-2.829,1.62-2.351,4.475c0.584-1.229,1.456-0.999,1.881-1.789
			c1.557,2.519-1.109,1.519,0.391,3.81c1.167,1.126-0.333-2.374,1.489-2.915c1.666-0.242-0.572,0.978,2.178,0.728
			c-1.125-1.188-0.875-1.875-2.229-1.938c-0.688-0.469-0.601-0.963-0.375-1.375c0.397-0.724-0.296-1.059-0.22-2.338
			c1.386,0.472,1.636,2.026,2.353,3.132c0.544,0.203,0.255-0.813,0.471-0.893c1.049-0.397,1.679,1.308,3.289,0.893
			c-0.815-0.973-2.312-2.255,0-2.685c-0.35-1.008-2.635-0.176-3.759-0.447c0.001-0.461,0.588-0.312,0.939-0.446
			c0.54-0.206,0.594-1.591,1.88-1.343c-1.161-1.186-1.604-0.052-2.161-0.123c-0.934-0.007,0.375-1.812-1.812-1.75
			c0,0.447,1.125,1,0.684,1.873c-2.353-0.106-1.368-4.386-0.94-5.817c2.328,0.77,1.896,1.311,2.569,3.652c3-2,3.167,3,5.894,2.165
			c-0.627-0.945-3.894-3.665,0.938-2.238c-0.317-1.039-1.561-1.198-1.879-2.235c0.148-1.054,2.229-0.267,1.879-1.792
			c-2.999,0.601-2.812-0.903-4.231-1.343c0.581-0.64,1.618-0.847,2.823-0.893c0.42-1.445-1.532-0.63-1.881-1.344
			c0.526-0.551,0.409-0.919-0.471-0.896c0.456-1.106,1.807,0.618,3.292,0c-0.337-0.401-0.717-1.171,0-1.342
			c1.283-0.306,2.127-0.606,3.29-1.342c0.222-0.139,0.412-0.586,0.942-0.449c-0.31-0.929-2.942-1.93-3.764-0.895
			c-1.083,0.138-0.521-1.293-1.409-1.342c-1.61-0.189-1.413,1.34-2.352,1.791c-0.551-0.073-0.396-0.817-0.471-1.342
			c-1.527-0.703-2.532,2.31-2.82,0c-1.025-0.083-1.496,0.364-1.41,1.342c-1.355-1.174,1.375-2.247,3.29-1.791
			c0-0.597,0-1.192,0-1.791c2.428-0.914,2.014,0.604,4.151,1.09c-0.258-0.917,0.562-0.906,1.96-0.193
			c-0.304-1.213,0.94-1.193,1.411-1.791c0.619,0.458,1.441,0.078,1.254,0.953c1.061-0.616,4.672-0.24,4.858-1.848
			c-0.627,0-1.255,0-1.879,0c-0.985-0.353,0.363-0.349-0.47-1.341c-0.228-0.271-1.327-0.017-0.94-0.895
			c-1.168-0.069-1.952,0.23-2.352,0.895c-1.117-0.133,0.524-1.212,0.942-1.342c-0.627-1.274-2.092,0.343-2.823,0.447
			c-0.868-0.069-0.287-1.517-0.94-1.791c-0.625,0.449-1.749,0.423-1.879,1.344c-0.559,0.173-0.703-0.626-0.016-1.313
			c-1.141-0.562-1.397,1.626-2.807,1.313c0.432-2.876,4.119-1.563,4.432-3.126c2.375-0.562,3.187,1.692,4.973,1.782
			c0.047-0.383-0.598-1.22,0.47-1.343c0.676-0.078,0.807,0.373,0.369,0.623c0,0,1.893,0.226,1.511,0.272
			c0.652-0.084,0.093-0.662,0.469-0.896c0.765-0.475-1.382,0.379-0.419,0c-0.417-1.096-2.241-0.499-1.968-2.252
			c-1.844,0.031,0.375-0.625,0.938-0.375c-0.812-0.656-0.844-1.312-0.431-0.953c-0.116-0.562-0.934-0.451-0.94,0
			c-1.041-0.353-1.848-0.984-1.882-2.236c-0.966,1.752-2.717,0.171-4.23,1.342c-0.457-0.013-0.321-1.116-0.423-1.465
			c-1.169-0.067-1.062,1.812-2.399,1.465c-0.616-0.536-0.737-0.175-1.409,0c2.246-1.09,2.308-3.652,5.683-2.715
			c-0.304-1.746,1.275-1.679,2.708-1c0.292,0.958,1.625,0.208,2.422,1.478c0.161-1.853-2.214-1.603-1.214-2.27
			c1.972-0.236,0.131,1.263,1.735,1.374c0.036-1.457,2.13-0.955,3.292-1.342c-0.214-1.437-1.83-1.54-2.823-2.237
			c1.166-1.067-1.218-0.735-0.469-2.686c-1.01-0.113,1.47,0.151,0.42,0c-0.682-0.097-0.865-0.433-1.411-0.447
			c-0.816-0.02-2.661,2.338-1.882-0.447c-0.82,0.869-2.737-0.09-3.76,0.895c0.036-1.088,1.731-1.4,0.78-2.092
			c0.743-1.184,2.175-0.508,4.076-0.559c0.993,0.398-0.125,1.328,1.305,1.309c-1.58-1.356,2.153-1.601,0.153-3.268
			c2.515,1.024,2.542-0.041,5.333,0.417c0.263-0.994-0.745-0.92-0.785-1.625c-0.061-1.092-2.592,0.417-1.879-1.789
			c-0.941,0-1.883,0-2.823,0c-3.129-0.371-0.847-0.836-1.347-1.419c0,0,0.75-0.418,2.208,0.166c0.417-1-1.111-1.261-1.283-0.96
			l0.116-0.498c-1.107,0.28-2.081-0.109-3.006,0.026c1.663-1.55,2.712-1.042,5.756-1.276c0.399-0.083,1.058,0.727,1.083,1
			c0.083-1.25,1.21-0.534,1.173-0.618c-0.376-0.9,0.531-1.338-1.409-1.344c-0.022-0.766,0.348-1.159,0.939-1.342
			c-0.655-1.406-2.319,0.615-2.82-0.448c2.617-3.748,3.867,0.086,8.464,0c-1.667-1.081-0.314-2.615-0.94-3.578
			c-0.022-0.034-0.422,0.002-0.471,0c-0.636-0.047-0.12-0.762-0.471-0.895c-0.372-0.142-1.112,0.318-0.94,0.446
			c-0.026-0.02-0.808-0.19-0.468-0.446c0.744-0.567-0.895-0.591-0.973-1.358c-0.917,1.833-3.43,0.354-3.5,1.333
			c-0.545-0.379-2.389-0.565-3.478-0.423c-0.258-0.991,2.644-0.493,0.94-1.342c2.537-1.568,2.12,0.432,4.12,0.349
			c0.333-2,2.5-0.5,3.75-1.553c0.882,0.788,1.433-0.443,2.988,0.152c-0.001,0.167-0.033,0.316-0.239,0.335
			c-0.034,0.003-0.313-0.029-0.329,0c-0.437,0.876,0.508,2.268-0.655,3.249c1.827-0.284,4.772-2.479,5.905,0
			c-0.349,0.965-1.509-0.87-1.966,0.408c0.413,0.163,0.671,0.522,0.656,1.218c-1.352,0.005-0.721,0.401-0.982,1.219
			c-0.025,0.076-0.212,0.267,0.287,0.405c0.017-0.248,0.049-0.481,0.326-0.405c0.787,0.079,2.387-0.846,2.478-0.019
			c0.062,0.562,2.733-0.055,3.461,0.831c-0.644-0.122-0.649,0.549-0.982,0.812c-0.422-1.049-1.052-0.487-1.31-0.406
			c-0.458,0.143-0.658,0.245-0.983,0.406c-0.246,0.122-0.655-0.014-0.655,0.406c0.29,0.119,1.433,1.098,0.655,1.22
			c-0.655,0-1.312,0-1.968,0c0.497,2.002-1.268,0.632-1.31,1.622c-0.028,0.643-0.839,0.319-0.657,1.221
			c1.435-0.8,1.796,1.766,3.605,1.219c-1.102,1.231,1.43,0.393,0.329,1.624c0.997,0.019,0.97-1.882,1.966-1.218
			c1.295-0.914,3.545-0.414,2.42,0.711c1.5-0.375,2.129,0.204,2.168,1.726c-0.646-0.553-1.873-0.388-2.622-0.812
			c0,1.555-0.743,0.389-1.312,0.406c-0.38,0.013-0.509,0.319-0.983,0.406c-0.73,0.137-1.262-0.103-1.966,0
			c0.522,1.771-1.138,1.471-0.327,2.438c-0.692,0.633-1.819,0.727-1.969,2.03c1.677-0.486,2.27-0.104,2.295,1.219
			c1.118-0.104,1.574-1.026,2.949-0.812c-0.103,0.55,0.766,0.815-0.328,1.625c0.769-0.069,2.677,0.024,1.967-0.812
			c0.793-0.913,2.668-0.663,2.839,0.627c0.37-1.124,3.162,0.501,2.731,2.216c-0.467-0.157-1.195-1.381-0.983,0
			c-0.624-0.173-0.823-0.873-1.639-0.811c-0.072,0.316-0.009,0.801-0.328,0.811c-1.054-1.06-1.835-0.082-2.949-1.216
			c-0.491,0.609-0.586,1.709-1.312,2.03c-0.004-0.412-0.573-0.514-0.655,0c0.244,0.039,0.244,1.585,0,1.624
			c-0.381-0.342-0.879-0.536-1.638-0.406c0.189,1.592-1.35,1.038-1.64,2.031c0.671,0.345,1.435-0.431,1.967,0
			c0.263,0.212-0.128,0.738,0.328,0.812c-0.268-0.043,0.653-0.406,0.654-0.406c0.139-0.081,0.229-0.674,0.656-0.406
			c0.184,0.117,0.295,0.873,0.328,1.217c1.246-0.081,1.244-1.707,2.623-1.623c1.263,1.008,3.59,0.695,3.933,2.845
			c-0.983,0.285-0.843-1.323-1.639-0.812c-0.163,0.102,0.062,0.971-0.329,0.812c-0.09-0.833-0.875-0.812-1.311-1.222
			c-0.453,0.252-0.049,1.565-0.655,1.628c-0.51-0.092-1.53-1.562-1.968-0.406c0.292,0.118,1.436,1.099,0.657,1.219
			c-0.279-0.603-0.825-0.873-1.639-0.812c0.27,0.797-0.497,0.565-0.656,0.812c-0.58,0.901,0.359,0.897-0.327,1.219
			c-0.436,0-0.874,0-1.31,0c0.129,1.458,1.882,1.063,2.621,1.624c0.43-0.415,1.208-0.397,1.64-0.812
			c0.328,0.541,0.54,1.226,0.983,1.625c0.029-0.564,0.836-0.427,0.655,0.405c1.491-0.441,1.914-2.049,3.605-1.218
			c0,0.543,0,1.084,0,1.626c1.336-0.414,3.239,0.559,2.294,1.624c0.059-0.886-0.268-1.291-0.984-1.218
			c-0.199,2.099-0.899-0.636-1.965,0c-0.051,0.479,0.056,1.152-0.328,1.218c-0.653-0.409-0.517-1.797-1.639-1.624
			c-0.618,0.045-0.228,1.342-0.983,1.217c-0.571-0.94-2.407-0.031-2.623,0.814c0.37-0.125,0.502,0.28,0.657,0.406
			c0.811,0.667,1.398,0.94,2.293,1.218c0.5,0.154,0.236,0.854,0,1.217c1.036,0.562,1.978-1.004,2.295,0
			c-0.613-0.02-0.695,0.314-0.328,0.814c-0.242,0.647-1.603-0.093-1.311,1.219c0.84,0.042,1.562,0.229,1.967,0.812
			c-0.988,0.399-1.953,0.83-2.95,1.221c-0.242,1.383,1.208,0.669,1.311,1.622c-0.221,0.945-1.089,1.089-1.311,2.033
			c1.926-0.485,1.092,1.172,0.656,2.032c1.504-0.219,1.357-1.579,2.949-0.813c0.471-2.125,1.327-3.77,2.949-4.469
			c0.299,1.301,0.866,4.125-0.774,4.223c0-0.408-0.625-1.386,0-2.011c-0.51-0.17-0.25,1.5-1.208,1.334
			c0.792,0.458-0.083,0.916,0.958,1.625c-0.386,0.065-1.872-0.366-1.925,0.111c1.216,0.097,0.3,0.889,1.31,1.218
			c0.261,0.085,0.656-0.014,0.656,0.406c-0.784,0.246-2.377-0.51-2.622,0.406c1.788,0.066-0.212,0.941,0,2.438
			c0.788-0.913,1.562-1.173,2.293-0.812c0.151,0.073-0.051,0.995,0.329,0.812c0.5-1.007,0.673-2.416,1.638-2.844
			c1.153,3.015-2.305,3.056-1.967,5.687c0.662-1.381,1.245-0.589,1.967-1.219c0.104,1.229-0.326,1.746,0.695,1.838
			c-0.417-1.375,0.667-1.958,0.617-2.648c-0.034,1.065,0.799,0.482,1.31,1.624c-0.01-2.726-2.302-1.559-1.638-4.062
			c0.18-0.591-0.383-2.101,0.328-2.031c0.292,0.992,1.299,1.868,0.174,3.035c1.25,0.292,1.126-1.361,1.458-1.625
			c1.125,0,0.393,1.816,1.208,1.75c-0.154-1.435,0-2.208-0.875-3.16c0.412-0.167,0.668-0.524,0.655-1.22
			c-0.696,0.422-1.23,1.048-1.311,0c0-0.405,0-0.811,0-1.217c0.625,0.174,0.824,0.875,1.639,0.812
			c0.156-1.275-0.88-1.074-0.983-2.031c0.467-0.096,0.554-0.669,0.983-0.812c1.125,0.363,1.425,1.753,2.95,1.624
			c0.155-1.276-0.882-1.074-0.983-2.033c0.516-0.038,1.137,0.057,0.983-0.812c-1.292,0.248-1.451-0.907-1.64-2.03
			c0.439,0,0.876,0,1.313,0c-0.121-1.879-2.732-1.45-3.606-1.217c0.079-0.581,0.542-0.686,0.655-1.221
			c-1.026-0.208-1.463,1.112-1.311-0.812c-0.958-0.106-1.006,0.919-1.965,0.812c-0.419-1.601,0.896-1.054,1.309-1.624
			c0.656,0,1.312,0,1.967,0c0.445,0.562,1.924,1.912,2.623,0.812c-0.356-0.098-0.786-0.669-0.328-0.812
			c0.055,0.475,0.518,0.44,0.983,0.408c0.037,0.766,1.083,0.281,0.983,1.216c0.583-0.24,1.36,1.191,1.639,0
			c-0.956-0.697,1.121-1.009,1.966-0.812c-0.034-1.583-1.423-1.485-2.622-1.625c0.078-0.58,0.54-0.686,0.655-1.219
			c-1.477-0.343-1.637,0.951-2.622,1.219c-0.101-0.937,0.947-0.452,0.983-1.219c-0.461-0.106-0.374-0.891-0.656-1.218
			c-1.006,0.105-1.474,0.881-2.293,1.218c0.097-0.828,0.886-0.797,0.982-1.624c-0.761,0.128-1.257-0.065-1.638-0.408
			c-0.357,1.589-2.919,0.442-3.277,2.032c-0.369-0.041-0.511,0.591-0.655,0c0.987-1.483,2.297-2.567,3.932-3.25
			c0.612,0.056,1.095,0.269,1.312,0.812c0.611-0.389,1.096,1.216,1.31,0c-0.33-0.004-0.411-0.711,0-0.812
			c1.134,1.11,2.026-1.174,5.088,0.201c0.271-1.147-1.618-1.254-1.484-2.232c-0.252-0.146-0.747,0.185-0.982,0
			c-0.095-0.075-0.159-0.83,0.716-1.33c-0.438-0.625-1.289,0.644-1.372,0.519c-0.386-0.585-0.269-0.873-0.441-1.581
			c0.312-1.188-1.136-0.724-1.199-1.053c1.182,0.142,1.365-1.561,2.623,0c0.197-0.724-0.961-1.69,0-2.035
			c0.58,0.367,0.958,0.981,1.638,1.217c-0.679-2.193,4.521-1.067,4.702-2.198c-0.063-0.483-1.127-0.107-1.312-0.406
			c-0.113-0.184,0.147-1.095,0-1.219c-0.302-0.251-0.977,0.194-1.311,0c-0.09-0.054,0.08-0.72,0-0.812
			c-0.093-0.109-2.267,0.444-1.83-0.556c-2.312,0.625-3.062-0.188-2.438-1c-3.5-0.125-1.692-0.514-1.692-0.514
			c1.122-0.961,3.862-1.236,4.917,0c0.161-1.406,1.025-1.308,1.966-0.812c1.268-1.466-0.328-1.294-0.655-1.624
			c-0.111-0.112,0.851-1.29,0.756-1.425c-0.277-0.39-1.398-0.103-0.917-1.167c-1.199,0.477-1.324-0.309-1.583-0.5
			c-0.417,0.917-1.869,0.444-1.862-0.159c1.13,0.232,1.581-1.497,2.445-1.341c0.994,0.181,1.188,1.345,1.667,0.75
			c0.817-1.015,1.245,0.028,1.996-0.204c-0.099-1.232-1.263-2.009-1.311-3.303c-0.452-0.02-0.721,0.188-0.983,0.404
			c-0.082-1.253-2.285-1.098-1.64-2.03c-0.433,0.069-1.979,0.35-1.062,1.516c-0.895,0.882-2.259,2.245-2.751,0.959
			c1.457-0.252,0.146-2.187-0.171-2.613c0.108,0.137,0.354,0.439,0.827,0.986c1.262,0.369,1.345-2.381,2.294-1.217
			c2.468-1.498,1.385,1.252,2.718,0.169c0.037-0.014,0.836-1.324,0.887-1.387c0.479-0.594,1.288-0.384,1.967-0.406
			c-0.117-1.623-0.948-1.051-1.639-2.032c0.084,0.121,0.449-0.15,0.33-0.407c-0.118-0.25-0.993,0.035-0.658-0.812
			c-0.655,0-1.31,0-1.965,0c-0.015-1.682-0.549,0.007-0.984,0c-0.143-0.001-0.704-1.589-1.311-0.812
			c-0.755-0.126-0.364,1.175-0.982,1.219c-0.429-1.758-0.779,0.128-1.313,0c-0.117-0.03,0.029-1.032-0.327-0.812
			c0.161,1.688-1.158,1.058-1.64,0.406c0.582,0.188,0.952-0.63,1.64-0.812c0.279-0.073,0.726,0.145,0.983,0
			c0.241-0.136,0.274-0.688,0.657-0.812c0.663-0.219,0.272-1.145,2.084-1.145c-0.508-0.589-2.625-0.178-3.062-0.854
			c1.571-0.644,3.619,0.141,5.465-0.033c0.412-0.037,0.473-0.342,0.984-0.407c1.369-0.168,2.974,0.228,3.932-0.812
			c-0.418-0.565-1.606-0.175-1.64-1.218c0.387-0.197,0.743-0.435,0.984-0.812c-1.305,0.127-0.916-1.188-2.219-1.062
			c-0.125,0.395-0.108,0.248-0.327,0c0.155,0.176,0.46-0.344,0.327-0.406c-0.045-0.023-1.602,0.329-1.639-0.813
			c-1.009-0.302-0.63,1.116-1.639,0.813c0-0.407,0-0.813,0-1.221c-0.612-0.145-0.731,0.531-1.311,0.407
			c-0.043-0.01-0.237-0.771-0.327-0.812c-0.856-0.38-0.858-0.312-1.424-1.289c1.995-0.684,3.579-1.612,5.994-0.492
			c0.006,0.409,0.577,0.511,0.658,0c-1.045-0.56,1.158-0.403,1.637-0.406c0.61,0.225,2.349,1.108,2.623,0.406
			c-0.618-0.587-1.705-0.598-1.967-1.624c0.256-0.091,0.648-0.013,0.657-0.407c-0.245-0.513-0.89-0.07-1.312-0.405
			c-0.095-0.078,0.072-0.689,0-0.811c-0.075-0.136-0.571,0.125-0.654,0c-0.394-0.599-0.955-0.397-1.967-0.41
			c0.102-0.531-0.492-0.202-0.656-0.406c-0.293-0.363,0.151-0.997-0.327-0.405c-0.165,0.203-0.525-0.85-0.329-1.22
			c-0.766-0.347-1.411,1.423-1.64,0.408c0.267-1.097-2.883-0.645-0.336-1.626c0.313-0.121,0.795-0.372,0.983-0.405
			c1.485-0.266,3.093,0.607,4.261,0.405c0.106-0.019-0.017-1.037,0.329-0.812c0.386,0.469,1.157,0.461,1.964,0.407
			c0.129-0.698-0.487-1.042,0-1.22c0.223,0.305,1.418,0.666,1.995,0.356c-0.045,0.064-0.086,0.165-0.114,0.359
			c0.788,0.658-0.993-0.079-0.833,0.668c0.358-0.018,0.534,0.255,0.624,0.664c-1.042-0.003-1.417,1.061-1.874,1.993
			c0.776,0.021,1.318-0.335,1.874-0.664c0,0.33,0,0.664,0,0.998c1.175-0.811,2.08-0.491,3.331,0c0.35,0.294-0.384,0.185-0.23,0.996
			c-0.48-0.108-0.799,0.053-1.04,0.333c0.089-0.77-0.524-0.715-1.04-0.665c-0.034,0.569-0.539,0.243-0.209,0.665
			c0.15,0.19-0.196,0.317-0.208,0.331c0.076-0.095-0.251-0.437-0.416-0.331c-0.157,0.099,0.072,0.63-0.209,0.664
			c-0.021,0.003-0.197-0.027-0.208,0c-0.277,0.715,0.322,1.854-0.416,2.659c1.157-0.235,3.029-2.028,3.747,0
			c-0.22,0.787-0.958-0.713-1.249,0.332c0.5,0.122,0.594,0.497,0.416,0.996c-1.353,0.095-0.457,0.329-0.624,0.996
			c-0.016,0.062-0.133,0.349,0.183,0.462c0.012-0.202,0.032-0.393,0.208-0.332c0.99,0.5,3.038-0.614,3.773,0.536
			c-0.408-0.1-0.413,0.447-0.624,0.662c-0.269-0.857-0.668-0.397-0.833-0.33c-0.015-0.774-0.14,0.179-0.499,0.366
			c-0.156,0.101-0.625-0.188-0.541,0.299c0.447-0.143,0.911,0.897,0.415,0.997c-0.415,0-0.833,0-1.25,0
			c0.316,1.639-0.805,0.517-0.833,1.329c-0.017,0.522-1.753,0.26-1.636,0.996c1.735,0.062,2.361,1.443,3.51,0.997
			c-0.701,1.01,0.909,0.322,0.208,1.329c0.635,0.016,0.809-0.701,1.25-0.997c1.35,0.062,2.872-0.152,2.915,1.994
			c-0.411-0.451-1.19-0.318-1.667-0.664c0,1.271-0.471,0.315-0.833,0.333c-0.241,0.009-0.322,0.259-0.625,0.331
			c-0.465,0.112-0.802-0.083-1.249,0c0.333,1.449-0.723,1.202-0.207,1.994c-0.44,0.519-1.156,0.595-1.251,1.661
			c0.515,0.288,1.441-0.083,1.458,0.997c0.71-0.082,1-0.841,1.874-0.662c-0.065,0.446-0.296,0.632-0.208,1.328
			c0.489-0.06,0.804-0.596,1.249-0.666c1.351-0.21,2.873,1.215,3.54,2.327c-0.296-0.129-0.35-0.398-0.624,0
			c-0.398-0.142-0.522-0.716-1.042-0.665c-0.045,0.258-0.007,0.656-0.209,0.665c-0.668-0.87-1.167-0.068-1.874-0.997
			c-0.312,0.5-0.372,1.399-0.833,1.661c-0.002-0.336-0.364-0.418-0.415,0c0.154,0.032,0.154,1.297,0,1.33
			c-0.244-0.279-0.559-0.438-1.042-0.334c0.121,1.304-0.857,0.85-1.042,1.664c0.427,0.281,0.91-0.352,1.25,0
			c0.158,0.162-0.039,0.543,0.176,0.639c-0.001-0.081,0.447-0.307,0.447-0.307c0.088-0.065,0.146-0.553,0.417-0.332
			c0.117,0.094,0.187,0.712,0.208,0.996c0.792-0.066,0.79-1.399,1.667-1.33c0.802,0.825,2.281,0.568,2.5,2.326
			c-0.625,0.234-0.536-1.083-1.042-0.664c-0.103,0.086,0.04,0.794-0.208,0.664c-0.058-0.682-0.557-0.662-0.832-0.996
			c-0.289,0.203-0.031,1.279-0.417,1.329c-0.324-0.075-0.972-1.277-1.25-0.333c0.185,0.098,0.912,0.9,0.417,0.997
			c-0.176-0.492-0.524-0.714-1.041-0.664c0.171,0.653-0.317,0.464-0.417,0.664c-0.369,0.737,0.229,0.735-0.208,0.998
			c-0.277,0-0.556,0-0.833,0c0.083,1.192,1.196,0.869,1.666,1.329c0.273-0.34,0.767-0.326,1.042-0.667
			c0.209,0.444,0.342,1.004,0.625,1.331c0.02-0.461,0.532-0.349,0.417,0.332c0.946-0.36,1.214-1.677,2.29-0.996
			c0,0.442,0.646,0.886,0.646,1.328c0.849-0.337,2.057,0.459,1.457,1.33c0.038-0.727-0.17-1.057-0.624-0.996
			c-0.127,1.715-0.572-0.521-1.249,0c0.373,0.336,0.035,0.941-0.209,0.996c-0.415-0.334-0.329-1.47-1.042-1.33
			c0.249,0.248-0.143,1.099-0.623,0.998c-0.362-0.773-1.529-0.026-1.667,0.664c0.234-0.102,0.32,0.23,0.417,0.33
			c0.515,0.549,0.889,0.771,1.458,1c0.318,0.125,0.149,0.698,0,0.997c0.658,0.457,1.256-0.823,1.457,0
			c-0.389-0.019-0.441,0.255-0.208,0.664c-0.154,0.529-1.019-0.075-0.834,0.997c1.139-0.605,1.495,0.189,1.753,0.665
			c-1.254-0.239,0.167,1.104-1.874,0.996c-0.155,1.132,0.767,0.548,0.832,1.33c-0.141,0.772-0.691,0.889-0.832,1.661
			c1.224-0.396,0.692,0.959,0.417,1.661c0.954-0.178,0.86-1.289,1.873-0.664c0.142-0.831,0.33-2.177,1.142-1.864
			c-0.083-1.312,0.194-1.494,0.732-1.793c0.078,0.438,0.56,0.772,0.018,1.897c0.896-0.354,0.179,2.378-0.435,2.424
			c-0.335-1.174,0.415-0.799,0.519-1.611c-0.292,0.396-0.666,0.858-1.08,0.863c-0.246,0.053-0.592-0.058-0.625,0.332
			c0.601,0.242-0.066,1.096,0.562,1.412c0.166,0.084,0.415-0.008,0.416,0.334c-0.497,0.202-1.51-0.417-1.665,0.332
			c1.024,0.318,0.362,1.271,0,1.995c0.713,0.306,0.992-0.962,1.457-0.664c0.095,0.059-0.032,0.812,0.208,0.664
			c0.318-0.824,0.428-1.977,1.042-2.327c0.24,1.266,0.56,1.954-0.065,2.454c-0.104-0.438-1.21,0.6-1.229,1.438
			c0.812,0.417,0.557-0.415,1.294-0.237c0.685,0.57-0.091,1.98,0.956,2.508c-0.255-1.193-0.346-3.002,0.379-3.171
			c0.537,0.255,0.15,0.912,0.516,1.213c0.354-1.625-0.292-1.938-0.725-3.207c-0.317-0.626-0.243-1.717,0.208-1.661
			c-0.129,0.743,0.85,0.493,0.141,1.326c0.41,0.099,0.56,0.008,0.771-0.208c0.397,0.143,0.379,1.553,0.896,1.5
			c-0.417-1.125-0.25-1.779-0.56-2.618c0.262-0.139,0.426-0.43,0.418-0.998c-0.296,0.366-0.783,0.857-0.834,0
			c0-0.332,0-0.665,0-0.998c0.184,0.677,0.768,0.239,1.042,0.666c0.098-1.044-0.56-0.876-0.625-1.662
			c0.298-0.079,0.352-0.548,0.625-0.663c0.715,0.296,0.905,1.436,1.874,1.328c0.098-1.044-0.56-0.879-0.625-1.661
			c0.328-0.034,0.722,0.044,0.625-0.667c-0.82,0.203-0.923-0.743-1.042-1.659c0.278,0,0.31-0.411,0.833,0
			c-0.076-1.539-1.736-1.187-2.292-0.998c0.051-0.474,0.344-0.561,0.418-0.998c-0.653-0.171-0.931,0.909-0.834-0.663
			c-0.609-0.086-0.638,0.753-1.248,0.663c-0.266-1.309,0.569-0.861,0.832-1.327c0.417,0-0.815-0.77,1.038,0.1
			c-0.188,0.297,0.766,1.219,1.877,0.564c-0.225-0.08-0.5-0.549-0.207-0.664c0.035,0.387,0.329,0.36,0.625,0.332
			c0.023,0.627,0.688,0.23,0.624,0.995c0.371-0.197,0.865,0.976,1.041,0c-0.607-0.568,0.713-0.823,1.25-0.663
			c-0.022-1.296-0.905-1.216-1.666-1.328c0.048-0.475,0.342-0.561,0.415-0.998c-0.938-0.279-1.038,0.776-1.665,0.998
			c-0.063-0.768,0.602-0.372,0.624-0.998c-0.292-0.087-0.684-0.707-0.668-1.035c-0.049,0.742-0.685,0.759-1.204,1.035
			c0.061-0.677,0.562-0.651,0.624-1.33c-0.484,0.106-0.8-0.053-1.042-0.332c-0.227,1.301-1.855,0.363-2.082,1.662
			c-0.233-0.034-0.325,0.483-0.416,0c0.336-0.65,0.535-2.729,1.154-1.512c0.257-0.296,1.091-1.151,1.631-1.146
			c0.388,0.044,0.696,0.219,0.833,0.664c0.388-0.317,0.696,0.994,0.833,0c-0.21-0.004-0.261-0.581,0-0.664
			c0.72,0.907,1.489-0.329,2.499,0c0.171-0.939-0.293-0.86-0.209-1.661c-0.159-0.12-0.475,0.149-0.625,0
			c-0.06-0.062,0.046-0.563,0-0.666c-0.047-0.106-0.362,0.104-0.415,0c-0.247-0.479-0.724-0.084-0.834-0.664
			c0-0.334,0.708-1.581,0.669-1.85c0.751,0.118,0.127,1.693,0.789,1.184c0.125-0.591,1.043-2.101,1.653-2.382
			c0.368,0.297,0.608,0.801,1.042,0.996c-0.433-1.795,1.134-0.404,1.25-1.33c-0.041-0.396-0.718-0.088-0.834-0.332
			c-0.071-0.15,0.095-0.896,0-0.998c-0.191-0.205-0.622,0.161-0.832,0c-0.059-0.043,0.049-0.589,0-0.665
			c-0.06-0.089-0.333-0.326-0.418-0.361c-0.424-0.169-0.499-0.536-0.831,0c-0.05-0.903-3.735-0.277-2.001-1.215
			c-0.828-0.028-1.915,0.142-1.32-0.691c0.713-0.784,2.956-1.01,3.626,0c0.102-1.147,0.652-1.068,1.249-0.664
			c0.432-0.747-0.208-1.058-0.416-1.329c-0.07-0.09,0.061-0.554,0-0.662c-0.176-0.321-0.931-0.129-0.625-0.999
			c-0.762,0.391-0.876-0.509-1.042-0.665c-0.195-0.186-1.131,0.158-1.126-0.333c0.718,0.19,2.06-0.46,2.607-0.332
			c0.63,0.148,0.529,0.817,0.833,0.332c0.52-0.83,0.562,0.19,1.041,0c-0.063-1.008-0.803-0.934-0.833-1.993
			c-0.285-0.014-0.455,0.155-0.624,0.333c-0.051-1.025-1.855-0.976-0.647-1.768c-1.438-0.48-2.042,1.875-2.699,0.77
			c-0.592-1.061,1.658-0.811,0.417-1.329c0.607-0.04,0.922-0.755,1.457-0.997c0.662-0.299,1.445-0.011,2.084-0.333
			c0.023-0.011,0.174-0.611,0.207-0.663c0.304-0.484,0.819-0.313,1.25-0.333c-0.075-1.327-0.602-0.858-1.042-1.661
			c0.055,0.097,0.285-0.124,0.209-0.334c-0.076-0.204-0.63,0.029-0.418-0.662c-0.417,0-0.832,0-1.249,0
			c-0.01-1.376-0.348,0.003-0.624,0c-0.091-0.004-0.447-1.299-0.834-0.666c-0.479-0.102-0.231,0.96-0.623,0.996
			c-0.273-1.438-0.496,0.105-0.834,0c-0.074-0.021,0.018-0.844-0.208-0.664c0.102,1.381-0.736,0.865-1.042,0.334
			c0.369,0.152,0.604-0.517,1.042-0.666c0.176-0.062,0.461,0.118,0.624,0c0.154-0.11,0.174-0.561,0.418-0.665
			c0.42-0.177,0.761,0.423,1.039-0.331c-0.321-0.482-0.97-0.444-1.248-0.998c0.999-0.526,2.159-0.191,3.333-0.332
			c0.261-0.03,0.301-0.28,0.625-0.333c0.87-0.136,1.889,0.186,2.498-0.664c-0.265-0.462-1.019-0.145-1.042-0.997
			c0.247-0.16,0.472-0.353,0.625-0.664c-0.828,0.103-1.046-0.769-1.873-0.665c-0.08,0.323-0.07,0.203-0.208,0
			c0.099,0.145,0.293-0.28,0.208-0.331c-0.03-0.019-1.019,0.266-1.042-0.668c-0.058-0.021-0.101-0.021-0.146-0.022
			c-0.086,0.04-0.158,0.072-0.232,0.105c-0.194,0.238-0.21,0.759-0.663,0.585c0-0.279,0.224-0.389,0.663-0.585
			c0.056-0.069,0.131-0.108,0.232-0.105c0.016-0.007,0.025-0.012,0.041-0.019c-0.571-0.604-1.722-0.121-2.09-0.226
			c-0.632-0.412-0.208-0.812,0.113-1.119c-1.196-0.298-1.78,0.827-1.874,0.058c1.615-1.939,3.774-1.624,5.308-0.706
			c-0.986,0.077,0.366,0.416,0.418,0c-0.664-0.458,0.735-0.331,1.041-0.334c0.387,0.185,1.491,0.907,1.666,0.334
			c-0.393-0.481-1.083-0.488-1.25-1.33c0.162-0.074,0.412-0.01,0.418-0.332c-0.155-0.42-0.566-0.059-0.833-0.333
			c-0.062-0.062,0.045-0.562,0-0.663c-0.049-0.109-0.365,0.102-0.417,0c-0.251-0.487-0.607-0.322-1.249-0.334
			c0.064-0.435-0.313-0.164-0.418-0.33c-0.187-0.3,0.098-0.819-0.207-0.334c-0.104,0.167-0.333-0.695-0.209-0.997
			c-0.485-0.286-0.896,1.162-1.042,0.333c-1.693-0.413-0.741-1.426-0.405-1.62c0.194-0.112,0.506-0.304,0.625-0.332
			c0.943-0.216,0.814,0.185,1.128,0.498c0.167-1.25,1.567-1.015,1.787-0.828c0.246,0.381,0.734,0.376,1.248,0.33
			c0.083-0.572-0.309-0.851,0-0.996c0.177,0.311,1.329,0.71,1.458,0c-0.457-0.377-0.851-0.855-1.665-0.663
			c0.517-1.032,0.713-1.187,0.207-1.995c-0.1-0.162-0.311-0.539-0.416-0.664c-0.075-0.087-0.36,0.111-0.416,0
			c-0.366-0.714-0.633,0.064-1.042,0c0.001-0.333-0.168-0.396-0.209-0.663c0.218-1.205,1.613-0.527,2.082-1.328
			c-0.175-0.718-1.327,0.123-1.457-0.666c0.456,0.059,0.662-0.273,0.625-0.997c-0.912,0.062-1.072-1.08-1.875-0.331
			c0.594-1.506-1.181,0.357-1.119-0.999c0.791-1.116,1.907-0.087,2.853-0.116c0.5-0.875,2.675-0.092,2.917-0.715
			c-0.254-0.038-0.493-0.099-0.417-0.664C182.31,191.239,181.5,190.625,182.938,190.25z M30.222,195.53
			c-0.037-1.531-1.619,1.199-1.566-0.844c1.4-0.036,2.69-0.39,3.655,0.562C31.389,194.706,31.142,195.38,30.222,195.53z
			 M38.837,230.094c0.048-0.106-0.349-0.468-0.521-0.28c-0.405,0.434-0.729-0.139-1.306,0c-0.418,0.099-0.573,0.773-1.044,0.562
			c-0.192-0.767,0.518-0.565,0.521-1.124C37.284,229.223,39.526,229.535,38.837,230.094z M40.143,244.426
			c0.116-0.719,0.367-1.292,0.783-1.687C40.94,243.596,40.69,244.171,40.143,244.426z M39.621,241.897
			c-0.103-0.792,1.112-1.585,1.305-1.125C40.552,241.211,40.27,241.75,39.621,241.897z M44.061,240.212
			c0.021-0.396-0.759-0.322-0.261-0.562C44.404,239.403,44.399,241.078,44.061,240.212z M43.8,237.4
			c-0.595-0.387-0.983,0.723-1.044,0C42.915,237.317,43.759,236.701,43.8,237.4z M43.277,239.367
			c-0.465-0.063-1.308,0.282-1.045-0.562C42.718,238.843,43.106,238.989,43.277,239.367z M59.205,183.727
			c0.135-0.143,1.61-0.001,2.211-0.226c0.697,0.729,2.022,0.857,3.445,0.896c-0.099,1.645-1.505,0.02-2.35,0
			c-0.123,0-0.875-0.074-0.94,0c-0.027,0.033,0.028,0.447,0,0.451c-1.01,0.15-1.375-1.037-1.881,0.445
			c-1.101,0.179-1.039-0.749-2.25-0.464c-0.157-0.033-0.34-0.037-0.585,0.024C57.118,183.854,58.682,184.291,59.205,183.727z
			 M52.938,191.313c0.133-0.073-0.032-0.263,0.261-0.279c0.229-0.015,0.694-0.322,1.045-0.562c0.193-0.133,1.466,0.354,2.005,0.153
			c-0.5-0.438-0.158-0.98,0.083-0.996c1.398-0.088,1.098,0.787,2.417,1.246c-0.07-0.215,0.161-0.431,0.381-0.646
			c0.031-0.005,0.057-0.008,0.089-0.013c0.062,0.421,0.877,0.51,1.411,0.447c2.306-0.277,5.143-0.779,6.582,0.895
			c-0.333,0.7-2.653-0.856-1.409,1.342c-1.438-0.421-1.475-2.178-3.292-2.236c-0.062,0.802,0.574,0.944,0.471,1.79
			c-1.483,0.216-1.066-1.376-2.825-0.896c0.598,1.759-1.106,1.33-2.349,1.342c-0.065,0.23-0.059,0.395-0.028,0.534
			c-0.322-0.053-0.634-0.151-0.926-0.434c0.225-0.227,0.154-0.77,0.521-0.843c-0.54-0.888-0.75,0.509-1.043,0.562
			c-0.397,0.069-0.674-1.082-1.305-0.283c-0.307-0.044-0.221-0.512-0.263-0.842c-0.543,0.165-0.843,0.591-1.304,0.842
			c-0.306-0.044-0.221-0.512-0.262-0.842c-0.715,0.841-1.288,0.096-2.088,0.842C51.262,191.693,52.179,191.742,52.938,191.313z
			 M55.64,207.82c-0.045-0.048-0.082-0.109-0.091-0.209c-0.647-0.043-1.266-0.052-1.304,0.562c-0.303-0.237-0.701-0.371-1.307-0.281
			c-0.143-0.623,0.499-0.401,0.523-0.842c1.376-0.364,2.417-0.616,3.644-0.212c0.185,0.227,0.422,0.491,0.705,0.826
			C56.896,207.536,56.218,207.63,55.64,207.82z M61.571,204.084c-0.922,0.091-1.526-0.96-2.352,0c-0.126,0.149-0.772-0.117-0.941,0
			c-0.047,0.034-0.108,0.088-0.171,0.144c-0.523-0.072-1.426,0.121-0.731-0.27c-0.179-0.855-0.717,0.032-1.043,0
			c-0.489-0.047-0.912-0.557-1.568-0.562c0.499-0.981,3.02-0.545,3.917-0.842c0.015-0.006-0.312-0.46-0.261-0.562
			c0.189,0.005,0.384,0.004,0.579,0.002c1.266,0.159,2.72,0.138,3.041,1.196C61.951,203.553,61.567,203.637,61.571,204.084z
			 M59.22,199.162c-0.005,0.055,0.01,0.091,0.009,0.143c-0.367-0.122-0.732-0.247-1.067-0.403c-0.312,0.055-0.131-0.421-0.263-0.562
			c-0.08-0.087-0.45,0.095-0.522,0c-0.165-0.217-0.441-0.258-0.521-0.562c-0.559,0.776-1.422-0.522-1.566,0.562
			c-0.495-0.5-1.727-0.205-2.615-0.281c-0.22,0.417-0.838,0.405-1.303,0.562c-0.231-0.124-0.467-0.245-0.522-0.562
			c0.016-0.394,0.507-0.153,0.781-0.28c0.149-0.068,0.409-0.516,0.524-0.562c0.15-0.062,0.365,0.043,0.52,0
			c0.231-0.062,0.452-0.191,0.786-0.282c0.216-0.058,0.185-0.256,0.262-0.279c0.573-0.187,0.709,0.08,1.042-0.28
			c0.141-0.151,1.471,0.106,2.09,0c0.149-0.01,0.293-0.014,0.421,0c-0.128,0.266-0.368,0.432-0.693,0.459
			c0.547,0.841,1.941,0.072,3.107,0.095c0.94,0.018,1.81-0.178,2.56,0.405c0.75-0.583,1.977-0.241,3.081,0.041
			c0.138,1.825-3.218-0.685-1.878,1.341C61.638,197.711,61.278,199.243,59.22,199.162z M65.804,203.637
			c-0.064-2.436-2.915,1.909-2.821-1.341c1.267-0.028,3.095-1.524,3.767-0.629c-2,0.083,1.95,0.77,2.813,1.522
			C67.905,202.326,67.461,203.4,65.804,203.637z M81.318,258.677c0.084-0.169-1.191-0.796-0.94-0.447
			c1.185,1.646-2.326-0.009-2.351,0c-0.72,0.266-1.031,1.234-1.88,0.896c-0.343-1.222,0.933-0.903,0.939-1.791
			C78.521,257.29,82.556,257.787,81.318,258.677z M83.669,281.498c0.208-1.143,0.659-2.057,1.41-2.687
			C85.103,280.178,84.651,281.093,83.669,281.498z M82.728,277.471c-0.187-1.257,2.002-2.523,2.351-1.79
			C84.402,276.379,83.894,277.237,82.728,277.471z M133.885,269.206c-0.812-0.212-1.167-0.991-1.638-1.626
			C132.491,266.915,134.016,268.063,133.885,269.206z M133.229,272.862c-0.685-0.37-0.999-1.201-0.982-2.439
			C132.77,270.994,133.085,271.822,133.229,272.862z M106.847,51.833L100,44.189v-9.331l6.25,7.017L106.847,51.833z M90,33.201h3
			v9.34h-3V33.201z M95,33.201h3v9.34h-3V33.201z M59.521,54.547v-9.338L83,33.509v9.34L59.521,54.547z M85,42.541v-9.34h3v9.34H85z
			 M90.721,274.786c0.038-0.63-1.366-0.512-0.471-0.896C91.34,273.502,91.332,276.167,90.721,274.786z M90.25,270.312
			c-1.069-0.615-1.766,1.152-1.879,0C88.66,270.179,90.18,269.196,90.25,270.312z M89.312,273.444
			c-0.835-0.102-2.357,0.45-1.881-0.896C88.306,272.61,89.001,272.843,89.312,273.444z M87.9,263.598
			c-0.412-1.703,0.252-2.239,0.471-1.341C88.445,262.568,88.206,264.86,87.9,263.598z M109.028,217.2
			c-0.325-1.359-1.291,0.05-1.88,0c-0.88-0.072-2.898-1.45-4.231-0.867c0.447-0.781,1.333-1.583,3.708-0.708
			c1.252-0.578,2.706-0.601,3.68-0.689c-0.038,0.062-0.053,0.138-0.024,0.239c0.565-0.021,0.84,0.312,0.984,0.812
			c-1.233-0.003-0.906,0.781-1.695,1.615C108.772,217.611,108.088,217.668,109.028,217.2z M110.973,214.727
			c-0.14-0.201-0.482-0.669-0.41-0.797c1.423,0.032,1.66-0.849,2.022-1.36c1.02,0.072,1.979,0.267,2.292,0.981
			c-0.822,0.007-1.354,0.744-1.968,0.812c-0.413,0.044-1.09-1.234-1.317,0C112.347,214.849,111.613,214.71,110.973,214.727z
			 M117.17,220.05c-0.758-0.128-1.258,0.064-1.639,0.406c-0.046-0.888-0.825-0.874-1.637-0.813c-0.055,0.698-0.848,0.299-0.33,0.813
			c0.237,0.233-0.307,0.388-0.327,0.406c0.121-0.115-0.396-0.534-0.659-0.406c-0.078,0.039-0.093,0.133-0.093,0.242
			c-1.633-1.436-1.016-1.711-2.986-1.708c0.205-0.55,0.601-0.918,1.41-0.894c0.047-0.13,0.019-0.226-0.059-0.297
			c0.138-0.062,0.276-0.125,0.414-0.188c0,0.407,0.547,0.326,0,1.221c1.86-1.52,3.279-0.601,5.25,0
			C116.546,219.471,117.351,219.148,117.17,220.05z M119.138,206.644c-0.583-0.226-1.362-0.207-1.638-0.812
			c-1.115,0.11-2.659-0.315-3.279,0.406c-0.182-1.563-1.267,0.312-1.972-0.812c-0.101,0.438-0.448,0.497-0.656,0.812
			c-0.09,0.139-0.555-0.126-0.655,0c-0.164,0.203,0.064,0.892-0.329,0.813c-0.527,0.284-0.809,0.67-1.149,1.029
			c-0.251,0.004-0.676,0.151-0.778,0.032c-0.296-0.346,0.712-0.754,0.569-1.237c-1.005,1.238-4.069-0.484-4.33,1.237
			c-0.889-0.794-0.574,0.885-2.17,0.763c-0.398,0.665-0.805-0.562-1.642-0.315c-0.417-0.199-0.84-0.393-0.94-0.895
			c0.031-0.626,3.749-1.164,3.332,0.335c1.417-1.499,1.588-1.602,1.796-1.679c0.273-0.099,0.657,0.069,0.94,0
			c0.414-0.099,0.347-0.487,1.514,0.096c-0.5-0.916,0.231-0.951,0.369-0.99c1.031-0.295,1.862,0.397,2.464-0.176
			c-2.083-1.834,2.06-0.098,3.176-0.271c0.666-0.039,1.331-0.074,1.41,0.446c0.551-0.07,0.397-0.814,0.471-1.343
			c0.235,0,0.47,0,0.705,0c0.037,0.051,0.086,0.096,0.169,0.121c0.422,0.132,0.695,0.318,0.985,0.406
			c0.198,0.062,0.465-0.087,0.655,0c0.144,0.069,0.469,0.717,0.655,0.814c0.345,0.182,0.961-0.161,0.982,0.405
			C119.723,206.287,119.428,206.463,119.138,206.644z M113.256,186.5c-1.062-0.25-1.5,0.895-2.542,0.25
			c-1.484,0.219,1.229-1.357-0.401-1c0.106-0.357-0.84,0.368-2.384-0.299c-0.119-0.052-0.094-0.228-0.021-0.459
			c0.667,0.021,1.294,0.006,1.389,0.124c6.045-1.134,4.419,1.38,8.453,1.634c-0.854-0.244-2.235,0.833-3.309,1.304
			c-0.618-0.158-1.027-0.273-0.917-0.304C113.378,187.145,113.958,186.576,113.256,186.5z M109.442,194.372
			c0.314,0.242,0.648,0.479,0.558,0.795c0.02-0.008,0.034-0.015,0.054-0.022c0.015,0.107,0.02,0.225,0.009,0.355
			c1.147-0.27,1.64-0.594,1.677-0.911c0.521-0.014,1.107,0.228,2.261,0.911c0.261,0.154-0.469-1.605-0.105-1.447
			c0.676,0.292,1.394,0.621,1.637,0.813c0.442,0.347,1.024,0.791,1.312,0.812c0.366,0.022,0.16,0.298,0.327,0.407
			c0.955,0.614,2.105,0.547,2.295,1.621c-1.006-1.079-1.725-0.003-2.622-1.218c-0.051,0.48,0.057,1.154-0.329,1.218
			c-0.579-0.364-0.957-0.979-1.637-1.218c-0.052,0.48,0.056,1.154-0.329,1.218c-0.792-1.155-1.141,0.508-1.639,0.406
			c-0.373-0.073-0.638-2.092-1.317-0.812c0.462,0.106,0.375,0.893,0.656,1.218c-0.068,0.076-0.139,0.137-0.209,0.195
			c-0.415-0.391-0.873-0.782-1.571,0c-0.553-0.072,0.48-1.688,0.406-2.215c-0.977,0.263-2.396,1.812-3.227,2.215
			c-0.552-0.072-0.397-0.813-0.471-1.341c-1.287,1.336-2.32,0.152-3.76,1.341c0.273-1.183,1.923-1.109,3.29-1.787
			c0.24-0.119,0.231-0.74,2.293-1.178c-5.5,1-7.167,0.667-4.75-0.5c0.368-0.178-2.173,0.396-1.903-0.591
			c0.82,0.091,2.57-0.325,2.903,0.675C106.153,194.671,108.357,193.917,109.442,194.372z M126.347,182.679
			c0.24-1.109-0.65-0.817-0.654-1.626c-1.251,0.197-2.091-0.113-2.623-0.811c-0.074,0.314-0.009,0.799-0.328,0.811
			c-0.923-0.615-1.344,0.137-2.621-0.406c-0.455,0.25-0.049,1.564-0.656,1.624c-0.625-0.761-0.824-0.044-1.639,0
			c-0.445-1.773-1.48-0.307-2.295-1.624c0.1,1.66-0.453-0.069-1.31,0.406c-0.807,0.48,0.672,1.534-0.327,2.032
			c-0.351-0.923-0.995-1.477-1.974-1.624c-0.077,1.943-1.162-0.314-1.967,0c-0.014,0.559,0.156,0.891,0.328,1.218
			c-1.527-0.358,0.221,1.337-0.655,1.217c-0.44-0.056-1.311-0.945-1.752-0.696c-0.034-0.011-0.062-0.025-0.101-0.033
			c-1.048-0.217-3.204,0.958-4.013,0.668c-0.507-0.183,2.017-1.594,1.516-1.5c-4.013,0.75-5.724-0.234-1.858-0.623
			c-0.871-0.064-0.289-1.512-0.941-1.789c-1.832,0.598-2.438-0.229-3.76,0.449c-0.459-0.012-0.367-0.547-0.471-0.895
			c-0.763,0.768-1.967,1.109-3.764,0.895c-0.004,0.889-1.282,0.57-0.938,1.789c-0.83-0.828-2.968,0.121-3.393,0.9
			c-0.74-20.206,0.099-23.447,13.037-24.055l10.146,0.005v0.007l3.226-0.001c11.267,0.824,11.961,6.252,12.067,23.858
			C128.33,182.167,126.925,181.926,126.347,182.679z M128.917,255.25c0.583,0.667,1.651-0.185,1.364,1.361
			C130.75,257.583,128.863,255.533,128.917,255.25z M128.315,266.768c-0.427,1.254-0.432-1.167,0.327-0.813
			C129.267,266.305,128.289,266.197,128.315,266.768z M128.642,262.705c0.05-1.012,1.11-0.12,1.312,0
			C129.875,263.752,129.39,262.148,128.642,262.705z M129.296,265.55c0.217-0.548,0.702-0.759,1.312-0.812
			C130.94,265.959,129.879,265.458,129.296,265.55z M121.333,50.667v-3.975c0,0,6.54-1.22,11.479-1.22
			c5,0,11.104,1.292,11.104,1.292v3.975c0,0-6.104-1.292-11.104-1.292C127.874,49.447,121.333,50.667,121.333,50.667z
			 M138.474,252.55c-0.591,0.309-0.787-0.669-1.31-0.812c-0.725-0.199-1.131,0.628-1.64,0c-0.217-0.27-0.713,0.25-0.655,0.406
			c-0.864-0.808,1.949-1.259,2.949-1.22C137.823,251.73,138.714,251.441,138.474,252.55z M151.779,186.684
			c0.006,0.026,0.019,0.041,0.019,0.075c-0.042,0.006-0.063,0.021-0.095,0.031C151.725,186.75,151.754,186.719,151.779,186.684z
			 M151.468,189.382c0.127,0.095,0.244,0.208,0.33,0.368c-0.164-0.025-0.295-0.021-0.416,0.003
			C151.415,189.635,151.429,189.505,151.468,189.382z M149.291,190.397c0.372,0.057,0.94-0.024,0.983-0.408
			c0.252,0.054,0.431,0.068,0.581,0.068c-0.233,0.226-0.494,0.564-0.931,1.021c0.826-0.621,1.357-0.27,1.874-0.662
			c-0.107,0.49-0.798,1.5-0.416,1.328c0.618-0.828,1.8-1.436,2.916-1.328c0.191,0.018,0.119,0.25-0.631,0.458
			c0.43,0.237,2.142,0.38,2.296,0.538c0.28,0.284-0.931,0.647-0.749,0.664c0.234,0.02,0.785-0.035,0.702,0.381
			c0.276,0.495,1.489,0.401,1.61,1.282c-0.64-0.886-1.889-0.004-2.458-0.999c-0.032,0.394,0.037,0.944-0.209,0.999
			c-0.366-0.301-0.606-0.803-1.04-0.999c-0.034,0.394,0.037,0.944-0.209,0.999c-0.022-0.042-0.041-0.057-0.062-0.09
			c0-0.002,0-0.003,0-0.005c-0.001,0-0.003,0-0.004,0c-0.23-0.357-0.402-0.239-0.551-0.024c-0.225-0.005-0.44,0.001-0.647,0.018
			c-0.151-0.43-0.321-0.931-0.609-0.233c0.103,0.031,0.157,0.141,0.199,0.269c-0.487,0.075-0.926,0.208-1.336,0.379
			c0.005-0.808,0.894-0.519,0.656-1.625c-0.866-0.01-2.053,0.379-1.637-1.218c-1.226-0.435-0.935,1.007-1.969,0.812
			c-0.072-0.77,0.371-0.896,0.329-1.624c-1.269,0.054-1.294,1.647-2.295,2.03c0.867-1.996-0.75-0.583-0.983-1.218
			C145.705,189.691,147.683,190.145,149.291,190.397z M150.071,196.396c-0.287,0.007-0.666-0.202-1.011-0.299
			c0.267-0.003,0.54-0.005,0.834-0.011C149.964,196.171,150.029,196.267,150.071,196.396z M145.685,202.175
			c-1.154-0.216-1.465-1.191-2.622-0.406c1.211-1.375,2.833-0.863,4.588-0.812C147.715,203.908,145.729,199.965,145.685,202.175z
			 M147.324,197.707c0.933-1.838-1.406,0.439-1.31-1.218c0.899-0.298,1.672-0.358,2.511-0.378c-0.153,0.084-0.272,0.264-0.329,0.619
			c0.371,0.183,0.867,0.17,1.042,0.662c-0.147,0.068-0.355,0.035-0.399,0.265C148.399,197.397,148.01,197.212,147.324,197.707z
			 M154.298,207.359c-0.171,0.025-0.414-0.408-0.601-0.43c0.085-0.072,0.152-0.162,0.182-0.286
			c-0.719-0.463-1.339-1.049-2.622-0.812c0.213-0.33,0.389-0.584,0.522-0.801c0.288,0.008,0.576,0.016,0.853,0.005
			c0.04,0.123-0.219,0.659-0.209,0.664c0.717,0.354,2.728-0.163,3.124,0.998C155.026,206.704,154.688,207.308,154.298,207.359z
			 M158.254,201.048c-0.629-0.61-1.129,0.202-1.04-0.663c-0.708,0.091-1.688-0.258-2.083,0.333c-0.115-1.28-0.805,0.253-1.25-0.665
			c-0.063,0.359-0.283,0.407-0.416,0.665c-0.058,0.11-0.352-0.104-0.417,0c-0.104,0.164,0.041,0.726-0.208,0.662
			c-0.822,0.57-1.059-0.755-2.028,0.62c0.237,0.051,0.539,0.604,0.607,1.182c-0.165-0.218-0.37-0.488-0.491-0.601
			c-0.118-0.107-0.567,0.137-0.655,0c-0.576-0.872-0.997,0.08-1.639,0c0.002-0.406-0.265-0.483-0.329-0.812
			c0.343-1.468,2.539-0.645,3.277-1.623c-0.276-0.876-2.09,0.15-2.293-0.812c0.714,0.071,1.042-0.333,0.983-1.221
			c-0.589,0.031-0.977-0.185-1.319-0.388c0.788,0,1.578,0,2.366,0c0.033,0.39-0.036,0.944,0.208,0.999
			c0.035-0.389,0.331-0.363,0.625-0.335c0.495,0.129,1.555-0.179,1.667,0c0.268,0.429,0.376,0.112,0.833,0.335
			c0.061,0.026,0.036,0.263,0.208,0.33c0.268,0.106,0.443,0.26,0.627,0.331c0.124,0.052,0.295-0.071,0.415,0
			c0.092,0.057,0.299,0.587,0.417,0.667c0.219,0.149,1.399-0.709,2.351,0.332C158.626,200.756,158.438,200.899,158.254,201.048z
			 M165.125,246.908c-0.049,0.857-0.358-0.456-0.832,0C164.325,246.082,164.998,246.811,165.125,246.908z M164.587,250.232
			c-0.269,1.025-0.274-0.955,0.208-0.665C165.192,249.854,164.571,249.764,164.587,250.232z M164.709,249.236
			c0.137-0.448,0.446-0.621,0.833-0.667C165.753,249.569,165.079,249.158,164.709,249.236z M168.628,252.227
			c-0.515-0.173-0.741-0.811-1.041-1.332C167.742,250.351,168.712,251.291,168.628,252.227z M168.212,255.216
			c-0.434-0.301-0.634-0.981-0.624-1.994C167.92,253.688,168.12,254.366,168.212,255.216z M171.414,237.271
			c0.004,0.662,0.654,0.24,0.502,1.146c-0.374,0.254-0.586-0.362-0.918-0.481c-0.459-0.162-0.718,0.516-1.041,0
			c-0.138-0.22-0.454,0.206-0.417,0.331C168.992,237.607,170.78,237.238,171.414,237.271z M177.663,196.396
			c0.041,2.415-1.222-0.812-1.25,0.996c-0.734-0.174-0.932-0.972-1.665-0.33C175.517,195.938,176.545,196.355,177.663,196.396z"/>
		<rect x="95" y="33.201" fill="#BAC405" width="3" height="9.34"/>
		<rect x="85" y="33.201" fill="#BAC405" width="3" height="9.34"/>
		<rect x="90" y="33.201" fill="#BAC405" width="3" height="9.34"/>
		<polygon fill="#BAC405" points="100,44.189 106.847,51.833 106.25,41.875 100,34.858 		"/>
		<polygon fill="#BAC405" points="83,33.509 59.521,45.208 59.521,54.547 83,42.849 		"/>
		<path fill="#BAC405" d="M143.917,46.764c0,0-6.104-1.292-11.104-1.292c-4.939,0-11.479,1.22-11.479,1.22v3.975
			c0,0,6.54-1.22,11.479-1.22c5,0,11.104,1.292,11.104,1.292V46.764z"/>
	</g>
</g>
</svg>
