<svg xmlns="http://www.w3.org/2000/svg" viewBox="0 0 18.56 23.13"><defs><style>.cls-1{fill:#fff200}.cls-2{fill:#231f20}.cls-3{fill:#fff}.cls-4{fill:#f5f5f6}</style></defs><title>FreeRide</title><g id="Layer_2" data-name="Layer 2"><g id="ICONS"><g id="icons:_Free_Ride" data-name="icons: Free Ride"><g id="Free_Ride_2" data-name="Free Ride 2"><g id="_Rectangle_" data-name="&lt;Rectangle&gt;"><path class="cls-1" d="M2.92 2.63a9 9 0 0 1 12.73 0 10 10 0 0 1 0 14.14l-6.37 6.36-6.36-6.36a10 10 0 0 1 0-14.14z"/><path class="cls-2" d="M9.28.25a8.69 8.69 0 0 1 6.19 2.55 9.76 9.76 0 0 1 0 13.79l-6.19 6.19-6.19-6.19a9.76 9.76 0 0 1 0-13.79A8.69 8.69 0 0 1 9.28.25m0-.25a9 9 0 0 0-6.36 2.63 10 10 0 0 0 0 14.14l6.36 6.36 6.36-6.36a10 10 0 0 0 0-14.14A9 9 0 0 0 9.28 0z"/></g><circle class="cls-3" cx="5.47" cy="12.91" r=".72"/><circle class="cls-3" cx="12.9" cy="12.91" r=".72"/><path class="cls-2" d="M6.43 10.08h-.3v.48h.27c.17 0 .39 0 .39-.23s-.19-.25-.36-.25zm3.06.04h-.27v1.24h.24c.43 0 .75-.16.75-.64s-.33-.6-.72-.6z"/><path class="cls-3" d="M6.94 4.71h4.47a.33.33 0 0 0 .33-.32.33.33 0 0 0-.33-.33H6.94a.33.33 0 0 0-.33.33.33.33 0 0 0 .33.32zm1.5 2.57c0-.21-.19-.24-.36-.24h-.3v.48h.27c.17-.01.39-.01.39-.24z"/><path class="cls-3" d="M5.21 9.24h7.91a.48.48 0 0 0 .49-.53c-.09-1.15-.15-1.8-.29-3a.51.51 0 0 0-.56-.42H5.61a.53.53 0 0 0-.61.49C4.89 7 4.84 7.53 4.75 8.71a.46.46 0 0 0 .46.53zm6.21-2.59h1.42v.43h-1v.39h.91v.42h-.91v.43h1v.43h-1.42zm-2 0h1.42v.43h-1v.39h.91v.42h-.88v.43h1v.43H9.41zm-2.08 0h.81c.43 0 .79.15.79.64a.54.54 0 0 1-.45.57l.51.88h-.55L8 7.91h-.22v.84h-.46zm-1.89 0h1.39v.43H5.9v.42h.87v.43H5.9v.82h-.46z"/><path class="cls-2" d="M13.62 15.14v-.86h.94v-5c0-.11-.26-2.6-.37-3.61S13.81 4.23 13 3.85a8.92 8.92 0 0 0-3.82-.77 8.93 8.93 0 0 0-3.82.77c-.8.38-1.07.71-1.19 1.86l-.36 3.62v4.94h.94v.86a.72.72 0 1 0 1.44 0v-.86h6v.86a.72.72 0 1 0 1.44 0zM6.94 4.05h4.47a.33.33 0 0 1 .33.33.33.33 0 0 1-.33.32H6.94a.33.33 0 0 1-.33-.32.33.33 0 0 1 .33-.33zM5 5.78a.53.53 0 0 1 .56-.44h7.15a.51.51 0 0 1 .56.42c.14 1.16.21 1.81.29 3a.48.48 0 0 1-.49.53H5.21a.46.46 0 0 1-.46-.53C4.84 7.53 4.89 7 5 5.78zm.43 7.85a.72.72 0 1 1 .72-.72.72.72 0 0 1-.68.72zm1.32-1.84l-.44-.84h-.18v.84h-.46v-2.1h.81c.43 0 .79.15.79.64a.54.54 0 0 1-.45.57l.53.89zm1.39 0h-.41v-2.1h.46zm1.32 0h-.7v-2.1h.69c.68 0 1.24.29 1.24 1.06a1.07 1.07 0 0 1-1.18 1.04zm1.66 0v-2.1h1.42v.43h-1v.39h.91v.43h-.91v.43h1v.43zm1.73 1.84a.72.72 0 1 1 .72-.72.72.72 0 0 1-.67.72z"/><path class="cls-2" d="M5.9 7.93h.87V7.5H5.9v-.42h.94v-.43H5.43v2.09h.47v-.81zm1.88-.02H8l.44.84H9l-.53-.89a.54.54 0 0 0 .45-.57c0-.49-.36-.64-.79-.64h-.81v2.1h.46zm0-.87h.3c.17 0 .36 0 .36.24s-.22.23-.39.23h-.27zm3.1 1.28H9.87v-.43h.91v-.42h-.91v-.39h.96v-.43H9.41v2.09h1.47v-.42zm2.02 0h-1.02v-.43h.91v-.42h-.91v-.39h.96v-.43h-1.42v2.09h1.48v-.42z"/><path class="cls-4" d="M7.27 10.33c0-.49-.36-.64-.79-.64h-.81v2.1h.46v-.84h.23l.44.84h.55l-.53-.89a.54.54 0 0 0 .45-.57zm-.87.23h-.27v-.48h.3c.17 0 .36 0 .36.24s-.22.24-.39.24zm1.33-.87h.46v2.1h-.46zm1.72 0h-.69v2.1h.76a1.07 1.07 0 0 0 1.18-1c-.01-.79-.57-1.1-1.25-1.1zm0 1.67h-.23v-1.24h.27c.39 0 .72.19.72.6s-.32.64-.75.64zm3.2 0h-1.02v-.43h.91v-.42h-.91v-.39h.97v-.43h-1.43v2.1h1.48v-.43z"/></g></g></g></g></svg>