<svg xmlns="http://www.w3.org/2000/svg" viewBox="0 0 18.56 23.13"><defs><style>.cls-1{fill:#fff200;}.cls-2{fill:#231f20;}.cls-3{fill:#fff;}.cls-4{fill:#f5f5f6;}</style></defs><title>FreeRide</title><g id="Layer_2" data-name="Layer 2"><g id="ICONS"><g id="icons:_Free_Ride" data-name="icons: Free Ride"><g id="Free_Ride_2" data-name="Free Ride 2"><g id="_Rectangle_" data-name="&lt;Rectangle&gt;"><path class="cls-1" d="M2.92,2.63h0a9,9,0,0,1,12.73,0h0a10,10,0,0,1,0,14.14L9.28,23.13,2.92,16.77A10,10,0,0,1,2.92,2.63Z"/><path class="cls-2" d="M9.28.25A8.69,8.69,0,0,1,15.47,2.8a9.76,9.76,0,0,1,0,13.79L9.28,22.78,3.09,16.59a9.76,9.76,0,0,1,0-13.79A8.69,8.69,0,0,1,9.28.25m0-.25A9,9,0,0,0,2.92,2.63h0a10,10,0,0,0,0,14.14l6.36,6.36,6.36-6.36a10,10,0,0,0,0-14.14h0A9,9,0,0,0,9.28,0Z"/></g><circle class="cls-3" cx="5.47" cy="12.91" r="0.72"/><circle class="cls-3" cx="12.9" cy="12.91" r="0.72"/><path class="cls-2" d="M6.43,10.08h-.3v.48H6.4c.17,0,.39,0,.39-.23S6.6,10.08,6.43,10.08Z"/><path class="cls-2" d="M9.49,10.12H9.22v1.24h.24c.43,0,.75-.16.75-.64S9.88,10.12,9.49,10.12Z"/><path class="cls-3" d="M6.94,4.71h4.47a.33.33,0,0,0,.33-.32.33.33,0,0,0-.33-.33H6.94a.33.33,0,0,0-.33.33A.33.33,0,0,0,6.94,4.71Z"/><path class="cls-3" d="M8.44,7.28c0-.21-.19-.24-.36-.24h-.3v.48h.27C8.22,7.51,8.44,7.51,8.44,7.28Z"/><path class="cls-3" d="M5.21,9.24h7.91a.48.48,0,0,0,.49-.53c-.09-1.15-.15-1.8-.29-3a.51.51,0,0,0-.56-.42H5.61A.53.53,0,0,0,5,5.78C4.89,7,4.84,7.53,4.75,8.71A.46.46,0,0,0,5.21,9.24Zm6.21-2.59h1.42v.43h-1v.39h.91v.42h-.91v.43h1v.43H11.42Zm-2,0h1.42v.43h-1v.39h.91v.42H9.87v.43h1v.43H9.41Zm-2.08,0h.81c.43,0,.79.15.79.64a.54.54,0,0,1-.45.57L9,8.74H8.45L8,7.91H7.78v.84H7.32Zm-1.89,0H6.84v.43H5.9V7.5h.87v.43H5.9v.82H5.44Z"/><path class="cls-2" d="M13.62,15.14v-.86h.94v-5c0-.11-.26-2.6-.37-3.61S13.81,4.23,13,3.85a8.92,8.92,0,0,0-3.82-.77,8.93,8.93,0,0,0-3.82.77c-.8.38-1.07.71-1.19,1.86L3.81,9.33v4.94h.94v.86a.72.72,0,1,0,1.44,0v-.86h6v.86a.72.72,0,1,0,1.44,0ZM6.94,4.05h4.47a.33.33,0,0,1,.33.33.33.33,0,0,1-.33.32H6.94a.33.33,0,0,1-.33-.32A.33.33,0,0,1,6.94,4.05ZM5,5.78a.53.53,0,0,1,.56-.44h7.15a.51.51,0,0,1,.56.42c.14,1.16.21,1.81.29,3a.48.48,0,0,1-.49.53H5.21a.46.46,0,0,1-.46-.53C4.84,7.53,4.89,7,5,5.78Zm.43,7.85a.72.72,0,1,1,.72-.72A.72.72,0,0,1,5.47,13.63Zm1.32-1.84-.44-.84H6.13v.84H5.67V9.69h.81c.43,0,.79.15.79.64a.54.54,0,0,1-.45.57l.53.89Zm1.39,0H7.73V9.69h.46Zm1.32,0H8.76V9.69h.69c.68,0,1.24.29,1.24,1.06A1.07,1.07,0,0,1,9.51,11.79Zm1.66,0V9.69h1.42v.43h-1v.39h.91v.43h-.91v.43h1v.43Zm1.73,1.84a.72.72,0,1,1,.72-.72A.72.72,0,0,1,12.9,13.63Z"/><polygon class="cls-2" points="5.9 7.93 6.77 7.93 6.77 7.5 5.9 7.5 5.9 7.08 6.84 7.08 6.84 6.65 5.43 6.65 5.43 8.74 5.9 8.74 5.9 7.93"/><path class="cls-2" d="M7.78,7.91H8l.44.84H9l-.53-.89a.54.54,0,0,0,.45-.57c0-.49-.36-.64-.79-.64H7.32v2.1h.46Zm0-.87h.3c.17,0,.36,0,.36.24s-.22.23-.39.23H7.78Z"/><polygon class="cls-2" points="10.88 8.32 9.87 8.32 9.87 7.89 10.78 7.89 10.78 7.47 9.87 7.47 9.87 7.08 10.83 7.08 10.83 6.65 9.41 6.65 9.41 8.74 10.88 8.74 10.88 8.32"/><polygon class="cls-2" points="12.9 8.32 11.88 8.32 11.88 7.89 12.79 7.89 12.79 7.47 11.88 7.47 11.88 7.08 12.84 7.08 12.84 6.65 11.42 6.65 11.42 8.74 12.9 8.74 12.9 8.32"/><path class="cls-4" d="M7.27,10.33c0-.49-.36-.64-.79-.64H5.67v2.1h.46v-.84h.23l.44.84h.55l-.53-.89A.54.54,0,0,0,7.27,10.33Zm-.87.23H6.13v-.48h.3c.17,0,.36,0,.36.24S6.57,10.56,6.4,10.56Z"/><rect class="cls-4" x="7.73" y="9.69" width="0.46" height="2.1"/><path class="cls-4" d="M9.45,9.69H8.76v2.1h.76a1.07,1.07,0,0,0,1.18-1C10.69,10,10.13,9.69,9.45,9.69Zm0,1.67H9.22V10.12h.27c.39,0,.72.19.72.6S9.89,11.36,9.46,11.36Z"/><polygon class="cls-4" points="12.65 11.36 11.63 11.36 11.63 10.93 12.54 10.93 12.54 10.51 11.63 10.51 11.63 10.12 12.6 10.12 12.6 9.69 11.17 9.69 11.17 11.79 12.65 11.79 12.65 11.36"/></g></g></g></g></svg>