<svg xmlns="http://www.w3.org/2000/svg" width="936" height="318" viewBox="0 0 936 318"><path d="M322.109 158.592V83.145l-16.52 49.619h-10.56l-16.18-48.77v74.598h-19.076V37.604h17.202l23.503 63.553 23.334-63.553h17.373v120.988h-19.076zm36.277-96.858V41.852h19.927v19.882h-19.927zm1.022 96.858V71.419h18.054v87.173h-18.054zm71.531 0V94.189c0-3.51-.852-6.117-2.554-7.816-1.704-1.699-3.806-2.549-6.302-2.549-2.499 0-4.598.85-6.301 2.549s-2.556 4.307-2.556 7.816v64.402h-18.053v-89.55h17.372v6.626a42.898 42.898 0 0 1 2.725-3.143c1.022-1.075 2.1-1.896 3.236-2.464 2.611-1.585 5.621-2.379 9.027-2.379 3.633 0 6.753.567 9.367 1.699 2.61 1.134 4.939 2.889 6.983 5.268 1.815 2.04 3.122 4.477 3.917 7.307.793 2.833 1.192 6.855 1.192 12.065v64.572h-18.053zm70.224 0V94.189c0-3.51-.852-6.117-2.555-7.816-1.704-1.699-3.804-2.549-6.294-2.549-2.5 0-4.598.85-6.301 2.549-1.704 1.699-2.555 4.307-2.555 7.816v64.402h-18.055v-89.55h17.372v6.626a43.14 43.14 0 0 1 2.725-3.143c1.024-1.075 2.101-1.896 3.237-2.464 2.609-1.585 5.613-2.379 9.018-2.379 3.635 0 6.756.567 9.368 1.699 2.611 1.134 4.939 2.889 6.982 5.268 1.817 2.04 3.122 4.477 3.919 7.307.794 2.833 1.193 6.855 1.193 12.065v64.572h-18.054zm50.582-39.593c0 5.098.171 9.49.512 13.169.34 3.683 1.078 6.372 2.214 8.071.683 1.02 1.619 1.87 2.812 2.55 1.192.68 2.579 1.02 4.171 1.02 2.952 0 5.224-1.131 6.815-3.398.791-.906 1.361-2.096 1.701-3.569.343-1.471.513-3.001.513-4.588h18.053c-.229 3.967-.882 7.647-1.96 11.045s-2.979 6.57-5.704 9.518c-2.387 2.606-5.168 4.445-8.347 5.521-3.18 1.075-6.87 1.614-11.071 1.614-3.974 0-7.521-.51-10.644-1.528-3.124-1.021-6.046-2.944-8.771-5.778-1.933-1.925-3.435-4.275-4.513-7.052-1.082-2.775-1.903-5.833-2.47-9.176-.569-3.34-.938-6.938-1.107-10.791a268.244 268.244 0 0 1-.255-11.895c0-8.157.45-15.689 1.362-22.601.906-6.908 3.234-12.346 6.982-16.313 2.726-2.83 5.707-4.729 8.942-5.692 3.235-.961 6.668-1.444 10.302-1.444 3.748 0 7.182.483 10.308 1.444 3.122.963 6.101 2.862 8.94 5.692 3.632 3.627 5.933 9.206 6.896 16.738.965 7.535 1.448 16.682 1.448 27.443h-37.129zm19.076-13.254c0-5.323-.2-9.402-.596-12.235-.399-2.83-1.052-4.928-1.957-6.288-.798-1.131-1.733-2.009-2.812-2.633-1.079-.622-2.469-.934-4.174-.934-1.701 0-3.095.312-4.17.934-1.08.624-2.019 1.502-2.811 2.633-.911 1.36-1.563 3.458-1.96 6.288-.399 2.833-.597 6.912-.597 12.235h19.077zm66.423 52.847v-7.646a47.105 47.105 0 0 1-2.554 3.314c-.91 1.077-1.874 1.953-2.896 2.633a20.068 20.068 0 0 1-4.428 2.209c-1.593.565-3.521.85-5.793.85-3.747 0-6.925-.594-9.537-1.784-2.612-1.188-5.052-3.084-7.323-5.692-3.636-4.304-5.449-10.987-5.449-20.052 0-4.078.707-7.842 2.128-11.3 1.419-3.454 3.493-6.372 6.216-8.751 2.272-1.925 4.968-3.425 8.091-4.503 3.121-1.076 7.295-1.614 12.519-1.614h8.004V93.85c0-6.908-2.895-10.366-8.684-10.366-2.501 0-4.489.851-5.964 2.55-1.816 1.928-2.726 4.702-2.726 8.326h-18.052c0-3.625.567-7.052 1.702-10.281s3.121-6.258 5.962-9.091c2.155-2.15 4.94-3.909 8.345-5.269a28.272 28.272 0 0 1 10.562-2.038c3.746 0 7.293.509 10.645 1.529 3.348 1.019 6.158 2.719 8.429 5.098 2.385 2.379 4.285 5.268 5.707 8.667 1.419 3.398 2.13 7.535 2.13 12.405v63.212h-17.034zm-1.022-39.593h-5.96c-1.934 0-3.662.143-5.194.425-1.534.284-2.925 1.049-4.173 2.294-1.137 1.019-2.019 2.493-2.642 4.417-.625 1.928-.936 3.797-.936 5.608 0 8.271 3.123 12.404 9.367 12.404 2.726 0 4.996-1.074 6.812-3.229 1.816-2.15 2.725-5.039 2.725-8.666v-13.253zm88.904-5.268c0 9.744-.313 17.815-.937 24.214-.625 6.402-2.414 11.416-5.364 15.039-2.045 2.608-4.345 4.418-6.898 5.438-2.555 1.019-5.535 1.528-8.942 1.528-3.406 0-6.417-.793-9.026-2.378-1.933-1.245-3.692-2.831-5.28-4.757v37.212h-18.052V69.041h17.371v6.626c.452-.905 1.333-1.925 2.638-3.058 1.306-1.131 2.412-1.981 3.323-2.549 2.609-1.585 5.62-2.379 9.026-2.379 3.407 0 6.388.509 8.942 1.529 2.554 1.019 4.854 2.833 6.898 5.438 2.95 3.627 4.739 8.61 5.364 14.954.623 6.346.937 14.387.937 24.129zm-18.054 0c0-4.19-.03-7.816-.086-10.876-.058-3.058-.198-5.607-.425-7.646-.23-2.04-.541-3.68-.937-4.929-.399-1.246-.88-2.265-1.448-3.059-1.703-2.379-3.917-3.567-6.643-3.567-2.614 0-4.656.85-6.131 2.548-.91.909-1.592 2.039-2.044 3.399-.456 1.359-.682 3.003-.682 4.927v38.575c0 3.738.908 6.516 2.726 8.327 1.589 1.587 3.632 2.379 6.131 2.379 2.837 0 5.051-1.131 6.643-3.398.568-.792 1.049-1.812 1.448-3.06.396-1.244.706-2.916.937-5.013.227-2.095.367-4.645.425-7.647.056-3 .086-6.653.086-10.96zm85.571 0c0 7.591-.34 14.614-1.021 21.072-.682 6.456-2.443 11.669-5.28 15.632-2.613 3.627-5.734 6.117-9.367 7.478-3.635 1.358-7.609 2.038-11.922 2.038-4.316 0-8.289-.68-11.922-2.038-3.636-1.36-6.758-3.851-9.368-7.478-2.839-3.963-4.6-9.176-5.28-15.632-.68-6.458-1.021-13.481-1.021-21.072 0-7.589.341-14.614 1.021-21.071.681-6.458 2.441-11.667 5.28-15.634 2.61-3.625 5.732-6.088 9.368-7.392 3.633-1.3 7.605-1.954 11.922-1.954 4.312 0 8.287.653 11.922 1.954 3.633 1.304 6.754 3.768 9.367 7.392 2.837 3.967 4.599 9.176 5.28 15.634s1.021 13.483 1.021 21.071zm-18.052 0c0-6.683-.116-12.235-.342-16.653-.23-4.418-.967-7.647-2.215-9.686-.795-1.246-1.817-2.18-3.064-2.804a8.688 8.688 0 0 0-7.836 0c-1.25.624-2.271 1.558-3.065 2.804-1.251 2.039-1.988 5.268-2.215 9.686-.229 4.417-.339 9.97-.339 16.653 0 6.686.11 12.264.339 16.737.227 4.478.964 7.732 2.215 9.771.794 1.249 1.815 2.155 3.065 2.72 1.25.567 2.556.85 3.918.85s2.667-.283 3.918-.85c1.247-.565 2.27-1.471 3.064-2.72 1.248-2.039 1.984-5.293 2.215-9.771.226-4.472.342-10.051.342-16.737zm62.34 44.861c-4.202 0-8.064-.339-11.582-1.019-3.521-.681-6.757-2.15-9.709-4.419-2.839-2.15-5.054-4.955-6.643-8.411-1.591-3.455-2.385-7.902-2.385-13.34v-93.8h18.054v92.78c0 8.045 4.089 12.065 12.265 12.065v16.144zm10.726-96.858V41.852h19.928v19.882h-19.928zm1.025 96.858V71.419h18.051v87.173h-18.051zm86.859-25.828c0 4.417-.767 8.271-2.301 11.554-1.53 3.288-3.435 6.062-5.705 8.327-2.725 2.719-5.705 4.617-8.941 5.692-3.235 1.075-6.785 1.614-10.645 1.614-3.861 0-7.553-.623-11.071-1.868-3.52-1.245-6.415-3.06-8.688-5.438-2.611-2.719-4.596-5.693-5.959-8.921-1.363-3.228-2.044-6.993-2.044-11.3h17.883c0 3.628 1.021 6.457 3.066 8.497a8.841 8.841 0 0 0 3.15 2.04c1.192.454 2.41.68 3.662.68 2.838 0 5.166-.85 6.982-2.55.909-.791 1.562-1.811 1.96-3.059.396-1.244.597-2.604.597-4.079 0-2.49-.627-4.699-1.875-6.626-1.362-2.04-3.69-3.739-6.983-5.099l-11.923-5.267c-6.131-2.719-10.502-6.174-13.112-10.366-1.934-3.059-2.896-7.138-2.896-12.235 0-4.304.706-7.957 2.128-10.96 1.42-3 3.321-5.748 5.705-8.241 2.496-2.491 5.422-4.36 8.773-5.608 3.346-1.245 6.896-1.869 10.644-1.869s7.265.567 10.56 1.699c3.291 1.134 6.074 2.833 8.345 5.098 2.385 2.268 4.258 5.013 5.621 8.241 1.362 3.229 2.044 7.111 2.044 11.641h-17.714c0-1.925-.199-3.539-.596-4.843-.399-1.302-1.052-2.405-1.958-3.314-1.704-1.81-3.807-2.719-6.302-2.719-2.726 0-4.94.851-6.643 2.55-1.704 1.7-2.554 3.967-2.554 6.797 0 2.153.451 3.909 1.361 5.268 1.248 2.039 3.463 3.738 6.643 5.098l11.922 5.097c3.066 1.359 5.646 2.804 7.751 4.334a22.661 22.661 0 0 1 5.364 5.522c2.497 3.512 3.749 8.384 3.749 14.613zm-645.668 80.974c-.783 4.31-2.521 7.671-5.214 10.087-2.695 2.412-6.037 3.621-10.027 3.621-2.304 0-4.371-.399-6.201-1.198a14.566 14.566 0 0 1-4.781-3.327c-1.029-1.079-1.842-2.177-2.438-3.299-.597-1.121-1.04-2.393-1.326-3.816-.289-1.421-.462-3.082-.524-4.979-.062-1.896-.093-4.16-.093-6.788 0-2.629.031-4.893.093-6.79.062-1.896.235-3.557.524-4.98.287-1.421.729-2.692 1.326-3.813.596-1.122 1.409-2.22 2.438-3.298a14.602 14.602 0 0 1 4.781-3.331c1.83-.796 3.897-1.196 6.201-1.196 3.99 0 7.332 1.208 10.027 3.621 2.693 2.414 4.431 5.777 5.214 10.089h-4.813c-.576-2.846-1.769-5.11-3.578-6.79-1.811-1.682-4.094-2.522-6.849-2.522-3.003 0-5.533 1.078-7.589 3.233a9.12 9.12 0 0 0-1.667 2.393c-.411.862-.72 1.887-.926 3.071-.207 1.186-.339 2.608-.401 4.268a166.2 166.2 0 0 0-.092 6.047c0 2.372.031 4.386.092 6.046.062 1.661.194 3.082.401 4.266.206 1.189.515 2.211.926 3.073.411.861.965 1.66 1.667 2.392 2.056 2.158 4.585 3.236 7.589 3.236 2.755 0 5.059-.844 6.911-2.523 1.85-1.681 3.063-3.947 3.64-6.789h4.689zm9.316-22.868v-5.237h4.998v5.237h-4.998zm.247 36.187v-31.812h4.442v31.812h-4.442zm24.063 0c-1.317 0-2.458-.227-3.424-.678-.966-.453-1.769-1.065-2.406-1.846-.638-.774-1.122-1.681-1.451-2.714a10.829 10.829 0 0 1-.493-3.299v-19.722h-3.826v-3.555h3.826v-9.766h4.442v9.766h6.479v3.555h-6.479v19.595c0 1.465.329 2.606.987 3.426.658.822 1.707 1.231 3.147 1.231h2.345v4.006h-3.147zm19.497 7.694c-.577 1.684-1.297 2.931-2.16 3.75-.823.818-1.749 1.392-2.777 1.715a10.376 10.376 0 0 1-3.146.485H333v-4.137h1.357c1.521 0 2.612-.293 3.27-.876.658-.582 1.234-1.603 1.728-3.071l2.159-6.206-10.921-31.167h4.812l8.33 25.539 8.268-25.539h4.813l-13.82 39.507zm57.073-23.602a38.52 38.52 0 0 1-.71 7.471c-.474 2.39-1.472 4.406-2.994 6.044-.822.866-1.871 1.544-3.146 2.037-1.275.495-2.695.745-4.258.745-1.728 0-3.27-.283-4.627-.841-1.357-.561-2.674-1.683-3.949-3.362v3.813h-4.442v-46.039h4.442v17.911c1.275-1.638 2.601-2.726 3.98-3.266 1.377-.537 2.909-.808 4.596-.808 1.563 0 2.982.248 4.258.743 1.275.496 2.324 1.175 3.146 2.036a10.442 10.442 0 0 1 1.852 2.715 16.083 16.083 0 0 1 1.142 3.298 25.5 25.5 0 0 1 .555 3.654c.101 1.274.155 2.558.155 3.849zm-4.444 0c0-1.551-.082-3.059-.246-4.525-.167-1.465-.515-2.76-1.049-3.882a6.799 6.799 0 0 0-2.314-2.715c-1.008-.688-2.334-1.035-3.98-1.035-1.687 0-3.023.347-4.01 1.035a7.122 7.122 0 0 0-2.314 2.715c-.557 1.122-.916 2.417-1.08 3.882a40.465 40.465 0 0 0-.247 4.525c0 1.554.082 3.062.247 4.525.164 1.468.523 2.763 1.08 3.881a7.073 7.073 0 0 0 2.314 2.716c.986.692 2.323 1.035 4.01 1.035 1.646 0 2.972-.343 3.98-1.035a6.742 6.742 0 0 0 2.314-2.716c.534-1.118.883-2.413 1.049-3.881.164-1.462.246-2.971.246-4.525zm21.472 23.602c-.577 1.684-1.296 2.931-2.159 3.75-.823.818-1.748 1.392-2.776 1.715a10.387 10.387 0 0 1-3.147.485h-1.913v-4.137h1.357c1.521 0 2.612-.293 3.27-.876.658-.582 1.234-1.603 1.728-3.071l2.159-6.206-10.92-31.167h4.812l8.33 25.539 8.269-25.539h4.813l-13.823 39.507zm61.762-7.694l-23.323-36.921v36.921h-4.689v-46.039h4.442l23.324 36.794v-36.794h4.689v46.039h-4.443zm33.563 0v-3.039c-1.194 1.252-2.447 2.135-3.764 2.653-1.317.516-2.982.775-4.998.775-2.097 0-3.784-.217-5.06-.646-1.275-.433-2.448-1.188-3.515-2.268-.782-.774-1.357-1.732-1.727-2.874s-.557-2.34-.557-3.591c0-2.845.905-5.086 2.715-6.724 1.808-1.64 4.42-2.459 7.834-2.459h9.07v-3.037c0-2.327-.585-4.075-1.759-5.239-1.172-1.164-3.177-1.744-6.015-1.744-1.933 0-3.457.28-4.565.839-1.112.563-2.141 1.512-3.085 2.846l-3.023-2.907c1.316-1.855 2.808-3.116 4.472-3.784 1.666-.669 3.752-1.003 6.264-1.003 4.111 0 7.166.905 9.164 2.717 1.993 1.809 2.991 4.438 2.991 7.886v21.599h-4.442zm0-14.675h-8.452c-4.566 0-6.85 1.873-6.85 5.624 0 1.853.556 3.221 1.666 4.105 1.111.883 2.899 1.324 5.368 1.324 1.274 0 2.467-.116 3.578-.355 1.11-.236 2.159-.829 3.147-1.778 1.026-1.034 1.542-2.864 1.542-5.496v-3.424zm23.755 14.675c-1.318 0-2.46-.227-3.425-.678-.969-.453-1.771-1.065-2.405-1.846-.64-.774-1.121-1.681-1.451-2.714a10.798 10.798 0 0 1-.493-3.299v-19.722h-3.827v-3.555h3.827v-9.766h4.441v9.766h6.478v3.555h-6.478v19.595c0 1.465.329 2.606.987 3.426.659.822 1.706 1.231 3.148 1.231h2.342v4.006h-3.144zm31.157 0v-3.554c-1.069 1.291-2.334 2.273-3.795 2.942-1.462.665-3.054 1.001-4.783 1.001-3.33 0-5.943-.991-7.833-2.976a10.292 10.292 0 0 1-2.347-3.914c-.493-1.483-.738-3.154-.738-5.008v-20.305h4.441v19.593c0 2.846.656 4.968 1.975 6.369 1.314 1.4 3.125 2.101 5.429 2.101 2.303 0 4.145-.71 5.523-2.134 1.378-1.421 2.067-3.534 2.067-6.336v-19.593h4.441v31.812h-4.38zm32.456-25.735c-.824-.862-1.604-1.464-2.347-1.811-.738-.346-1.707-.52-2.898-.52-1.112 0-2.119.217-3.025.65a6.352 6.352 0 0 0-2.282 1.809 8.849 8.849 0 0 0-1.448 2.715c-.351 1.036-.525 2.157-.525 3.363v19.527h-4.443v-31.812h4.443v3.878c.821-1.335 2.007-2.381 3.547-3.136a11.167 11.167 0 0 1 4.97-1.131c1.437 0 2.745.216 3.916.646 1.171.432 2.293 1.207 3.363 2.329l-3.271 3.493zm9.934 11.06c0 3.49.749 6.196 2.251 8.112 1.501 1.92 3.732 2.878 6.695 2.878 1.768 0 3.239-.292 4.412-.875 1.171-.578 2.353-1.497 3.548-2.745l3.021 2.778a22.949 22.949 0 0 1-2.312 2.134c-.763.605-1.585 1.112-2.47 1.521s-1.841.723-2.868.938c-1.029.214-2.18.323-3.455.323-2.017 0-3.847-.323-5.49-.972a10.56 10.56 0 0 1-4.197-2.972c-1.151-1.338-2.037-3.029-2.652-5.078-.617-2.047-.925-4.47-.925-7.275 0-5.215 1.109-9.234 3.331-12.058s5.265-4.236 9.131-4.236c3.991 0 7.066 1.369 9.226 4.106 2.159 2.735 3.237 6.52 3.237 11.349v2.071h-20.483zm16.103-3.496c-.042-.646-.083-1.204-.122-1.681a19.791 19.791 0 0 0-.157-1.295 7.028 7.028 0 0 0-.275-1.13 39.995 39.995 0 0 0-.434-1.195c-.659-1.464-1.594-2.629-2.808-3.491-1.212-.861-2.644-1.295-4.288-1.295s-3.075.434-4.286 1.295c-1.214.862-2.15 2.027-2.808 3.491a7.302 7.302 0 0 0-.463 1.195 9.996 9.996 0 0 0-.371 2.425c-.022.477-.052 1.035-.092 1.681h16.104z" fill="#565959"/><path fill="#00BCE2" d="M1.527 299.406c0 9.389 7.61 16.998 16.998 16.998h170.792c9.388 0 16.998-7.609 16.998-16.998V158.979H1.527v140.427z"/><path fill="#BAC405" d="M189.317 1.062H18.525c-9.388 0-16.998 7.61-16.998 16.998v140.919h204.787V18.059c0-9.388-7.609-16.997-16.997-16.997z"/><path fill="none" d="M59 201.993c-.195.002-.39.003-.579-.002-.051.103.276.557.261.562-.897.297-3.418-.14-3.917.842.656.006 1.079.516 1.568.562.326.032.865-.855 1.043 0-.695.391.208.197.731.27.062-.056.124-.109.171-.144.169-.117.815.149.941 0 .826-.96 1.429.091 2.352 0-.004-.447.38-.531.47-.895-.321-1.057-1.775-1.036-3.041-1.195zm18.086 55.342c-.006.888-1.282.569-.939 1.791.849.338 1.16-.631 1.88-.896.025-.009 3.536 1.646 2.351 0-.251-.349 1.024.278.94.447 1.238-.89-2.797-1.387-4.232-1.342zm5.642 20.136c1.166-.233 1.674-1.092 2.351-1.79-.349-.734-2.538.533-2.351 1.79zM66.75 201.667c-.672-.896-2.5.601-3.767.629-.094 3.25 2.757-1.095 2.821 1.341 1.657-.236 2.102-1.311 3.76-.447-.864-.753-4.814-1.44-2.814-1.523zm-1.419-4.293c-1.104-.282-2.331-.624-3.081-.041-.75-.583-1.619-.388-2.56-.405-1.166-.022-2.56.746-3.107-.095.325-.027.565-.193.693-.459a2.463 2.463 0 0 0-.421 0c-.62.106-1.949-.151-2.09 0-.333.36-.469.094-1.042.28-.077.023-.046.222-.262.279-.334.091-.555.22-.786.282-.154.043-.369-.062-.52 0-.115.047-.375.494-.524.562-.274.127-.765-.113-.781.28.055.316.291.438.522.562.464-.156 1.083-.145 1.303-.562.888.076 2.12-.219 2.615.281.144-1.084 1.007.215 1.566-.562.08.304.356.345.521.562.072.095.442-.087.522 0 .132.141-.049.616.263.562.335.156.7.281 1.067.403.001-.052-.014-.088-.009-.143 2.059.081 2.418-1.451 4.233-.447-1.34-2.024 2.016.486 1.878-1.339zm68.554 71.832c.131-1.143-1.394-2.291-1.638-1.626.471.635.826 1.414 1.638 1.626zm-48.806 9.606c-.75.63-1.202 1.544-1.41 2.687.982-.406 1.434-1.321 1.41-2.687zm2.821-15.214c.306 1.263.545-1.029.471-1.341-.219-.899-.883-.362-.471 1.341zm23.365-47.612c-.144-.5-.419-.833-.984-.812-.028-.102-.014-.178.024-.239-.974.089-2.428.111-3.68.689-2.375-.875-3.261-.073-3.708.708 1.333-.583 3.352.795 4.231.867.589.05 1.555-1.359 1.88 0-.94.468-.256.411.542.401.789-.832.462-1.617 1.695-1.614zm21.964 56.876c-.144-1.04-.459-1.868-.982-2.439-.016 1.238.298 2.069.982 2.439zm-43.917.582c-.311-.602-1.006-.834-1.881-.896-.476 1.347 1.046.795 1.881.896zm1.409 1.342c.611 1.381.619-1.284-.471-.896-.895.384.509.266.471.896zm-.471-4.474c-.07-1.115-1.59-.133-1.879 0 .113 1.152.81-.616 1.879 0zm-61.595-75.625c-.053 2.043 1.53-.688 1.566.844.92-.15 1.167-.824 2.088-.282-.963-.952-2.254-.599-3.654-.562zm12.271 48.052c-.416.395-.667.968-.783 1.687.547-.255.797-.83.783-1.687zm134.541-31.72c.452.174.469-.347.663-.585-.439.196-.663.305-.663.585zM36.488 229.251c-.003.559-.713.357-.521 1.124.471.212.626-.463 1.044-.562.577-.139.901.434 1.306 0 .171-.188.569.174.521.28.688-.558-1.554-.87-2.35-.842zm76.422-14.889c.614-.067 1.146-.805 1.968-.812-.313-.715-1.273-.909-2.292-.981-.362.512-.599 1.393-2.022 1.36-.072.128.27.596.41.797.64-.017 1.375.122.62-.364.226-1.234.903.044 1.316 0zm63.452-4.034a.272.272 0 0 0-.232.105l.232-.105zM57.44 184.829c1.211-.285 1.149.643 2.25.464.505-1.482.871-.295 1.881-.445.028-.004-.027-.418 0-.451.065-.074.817 0 .94 0 .845.02 2.251 1.645 2.35 0-1.423-.038-2.748-.167-3.445-.896-.602.225-2.076.083-2.211.226-.523.564-2.087.127-2.35 1.127.245-.062.429-.058.585-.025zm-3.979 22.222c-.024.44-.666.219-.523.842.606-.09 1.004.044 1.307.281.038-.614.657-.605 1.304-.562.009.1.046.161.091.209.578-.19 1.256-.284 2.169-.155-.282-.335-.52-.6-.705-.826-1.227-.405-2.267-.153-3.643.211zm-10.184 32.316c-.171-.378-.559-.524-1.045-.562-.263.844.58.499 1.045.562zm10.184-46.93c.461-.251.761-.677 1.304-.842.042.33-.044.798.263.842.63-.799.908.353 1.305.283.293-.053.503-1.449 1.043-.562-.367.073-.296.616-.521.843.292.282.604.381.926.434a1.045 1.045 0 0 1 .028-.534c1.243-.012 2.946.417 2.349-1.342 1.759-.48 1.341 1.111 2.825.896.103-.846-.533-.988-.471-1.79 1.817.059 1.854 1.815 3.292 2.236-1.244-2.198 1.076-.642 1.409-1.342-1.439-1.674-4.276-1.172-6.582-.895-.534.062-1.349-.026-1.411-.447l-.089.013c-.22.215-.451.431-.381.646-1.319-.459-1.019-1.334-2.417-1.246-.241.016-.583.559-.083.996-.539.201-1.812-.286-2.005-.153-.352.24-.816.548-1.045.562-.293.017-.128.206-.261.279-.759.429-1.676.38-1.827 1.123.8-.746 1.373-.001 2.088-.842.04.33-.045.798.261.842zm-13.84 49.46c.648-.147.931-.687 1.305-1.125-.193-.46-1.408.333-1.305 1.125zM43.8 237.4c-.041-.699-.885-.083-1.044 0 .06.723.449-.386 1.044 0zm.261 2.812c.339.866.344-.809-.261-.562-.499.24.281.165.261.562zm86.219 16.399c.288-1.546-.78-.694-1.364-1.361-.053.283 1.834 2.333 1.364 1.361zm22.143-50.912c-.01-.005.249-.541.209-.664-.277.011-.565.003-.853-.005-.133.217-.309.471-.522.801 1.283-.236 1.903.35 2.622.812a.523.523 0 0 1-.182.286c.188.021.43.455.601.43.389-.052.728-.655 1.249-.662-.396-1.161-2.406-.644-3.124-.998zm-9.361-3.93c1.157-.785 1.468.19 2.622.406.044-2.21 2.031 1.733 1.966-1.219-1.754-.051-3.376-.562-4.588.813zm22.063 45.139c-.127-.098-.8-.826-.832 0 .474-.456.783.858.832 0zm-8.806-46.855c-.118-.08-.326-.61-.417-.667-.12-.071-.291.052-.415 0-.184-.071-.359-.225-.627-.331-.172-.067-.147-.304-.208-.33-.457-.223-.565.094-.833-.335-.112-.179-1.172.129-1.667 0-.294-.028-.589-.054-.625.335-.244-.055-.175-.609-.208-.999h-2.366c.342.203.729.419 1.319.388.059.888-.269 1.292-.983 1.221.203.962 2.017-.064 2.293.812-.739.979-2.935.155-3.277 1.623.064.329.331.406.329.812.642.08 1.062-.872 1.639 0 .088.137.538-.107.655 0 .121.112.326.383.491.601-.069-.577-.371-1.131-.607-1.182.969-1.375 1.206-.05 2.028-.62.249.063.104-.498.208-.662.065-.104.359.11.417 0 .132-.258.353-.306.416-.665.446.918 1.135-.615 1.25.665.395-.591 1.375-.242 2.083-.333-.089.865.411.053 1.04.663.184-.148.372-.292.416-.663-.951-1.042-2.132-.184-2.351-.333zm-39.804 18.779c-1.97-.601-3.39-1.52-5.25 0 .547-.895 0-.813 0-1.221l-.414.188c.078.071.106.167.059.297-.81-.024-1.206.344-1.41.894 1.97-.003 1.353.272 2.986 1.708 0-.109.015-.203.093-.242.262-.128.779.291.659.406.02-.019.564-.173.327-.406-.518-.515.274-.115.33-.813.812-.061 1.59-.074 1.637.813.381-.342.88-.534 1.639-.406.18-.902-.625-.579-.656-1.218zm34.953-29.45c-.039.123-.053.253-.085.371.12-.023.251-.028.416-.003a1.117 1.117 0 0 0-.331-.368zm-1.397 7.014a.892.892 0 0 0-.177-.31c-.294.006-.567.008-.834.011.345.097.724.306 1.011.299zm-4.386-3.968c1.001-.383 1.027-1.977 2.295-2.03.042.729-.401.854-.329 1.624 1.034.195.743-1.246 1.969-.812-.416 1.597.771 1.208 1.637 1.218.238 1.106-.651.817-.656 1.625.41-.171.849-.304 1.336-.379-.042-.128-.096-.237-.199-.269.288-.697.458-.196.609.233.207-.017.422-.022.647-.018.149-.215.321-.333.551.024h.004v.005c.021.033.04.048.062.09.246-.055.175-.605.209-.999.434.196.674.698 1.04.999.246-.055.177-.605.209-.999.57.995 1.819.113 2.458.999-.122-.881-1.334-.787-1.61-1.282.083-.416-.468-.361-.702-.381-.182-.017 1.029-.38.749-.664-.155-.158-1.867-.301-2.296-.538.75-.208.823-.44.631-.458-1.116-.107-2.298.5-2.916 1.328-.382.172.309-.838.416-1.328-.517.393-1.048.041-1.874.662.437-.457.697-.796.931-1.021-.15 0-.329-.015-.581-.068-.043.384-.611.465-.983.408-1.608-.253-3.586-.706-4.589.812.231.636 1.849-.777.982 1.219zm19.024 56.808c.37-.078 1.044.333.833-.667-.387.046-.696.219-.833.667zm10.038-52.174c.733-.642.931.156 1.665.33.028-1.809 1.292 1.419 1.25-.996-1.117-.041-2.145-.458-2.915.666zm-5.206 41.205c-.037-.125.278-.551.417-.331.323.516.581-.162 1.041 0 .333.119.544.735.918.481.151-.906-.499-.484-.502-1.146-.635-.033-2.423.336-1.874.996zm-4.746 11.3c-.482-.29-.478 1.69-.208.665-.016-.468.605-.378.208-.665zm-13.016-62.883c-.025.035-.054.066-.076.106.032-.011.054-.025.095-.031 0-.034-.013-.049-.019-.075zm15.809 66.538c-.01 1.013.19 1.693.624 1.994-.092-.85-.292-1.528-.624-1.994zm1.04-.995c.084-.936-.886-1.876-1.041-1.332.301.521.527 1.159 1.041 1.332zm-19.389-54.834c-.175-.492-.671-.479-1.042-.662.056-.355.176-.535.329-.619-.839.02-1.612.08-2.511.378-.097 1.657 2.243-.62 1.31 1.218.686-.495 1.076-.31 1.516-.05.042-.23.251-.197.398-.265zm-20.597 68.561c-.759-.354-.753 2.067-.327.813-.026-.57.952-.462.327-.813zm-15.118-78.204c-.109.03.299.146.917.304 1.074-.471 2.455-1.548 3.309-1.304-4.034-.254-2.408-2.768-8.453-1.634-.095-.118-.722-.104-1.389-.124-.072.231-.098.407.021.459 1.543.667 2.49-.059 2.384.299 1.63-.357-1.083 1.219.401 1 1.041.645 1.479-.5 2.542-.25.702.076.122.645.268 1.25zm24.295 63.174c-1-.039-3.813.412-2.949 1.22-.059-.156.438-.676.655-.406.509.628.915-.199 1.64 0 .523.144.719 1.121 1.31.812.239-1.109-.652-.82-.656-1.626zm-35.472-56.265c-.27.987 2.271.413 1.903.591-2.417 1.167-.75 1.5 4.75.5-2.062.438-2.054 1.059-2.293 1.178-1.367.678-3.017.604-3.29 1.787 1.44-1.188 2.473-.005 3.76-1.341.074.527-.081 1.269.471 1.341.832-.402 2.25-1.952 3.227-2.215.075.527-.958 2.143-.406 2.215.698-.782 1.156-.391 1.571 0 .07-.059.141-.119.209-.195-.281-.325-.194-1.111-.656-1.218.679-1.28.945.738 1.317.812.498.102.847-1.562 1.639-.406.385-.063.277-.737.329-1.218.68.238 1.058.854 1.637 1.218.386-.063.277-.737.329-1.218.897 1.215 1.616.139 2.622 1.218-.19-1.074-1.341-1.007-2.295-1.621-.167-.109.04-.385-.327-.407-.288-.021-.87-.466-1.312-.812-.243-.192-.96-.521-1.637-.813-.364-.158.366 1.602.105 1.447-1.154-.684-1.74-.925-2.261-.911-.037.317-.53.642-1.677.911a1.581 1.581 0 0 0-.009-.355c-.02.008-.034.015-.054.022.09-.315-.244-.553-.558-.795-1.084-.455-3.289.299-4.192.962-.332-1.002-2.082-.586-2.902-.677zm27.606 68.046c-.201-.12-1.261-1.012-1.312 0 .749-.557 1.234 1.047 1.312 0zm-13.395-103.688l-3.226.001v-.007l-10.146-.005c-12.938.607-13.777 3.849-13.037 24.055.424-.779 2.562-1.729 3.393-.9-.344-1.219.934-.9.938-1.789 1.797.215 3.001-.127 3.764-.895.104.348.012.883.471.895 1.322-.678 1.928.148 3.76-.449.652.277.07 1.725.941 1.789-3.866.389-2.155 1.373 1.858.623.501-.094-2.023 1.317-1.516 1.5.81.29 2.965-.885 4.013-.668.039.008.067.022.101.033.442-.249 1.312.641 1.752.696.876.12-.872-1.575.655-1.217-.172-.327-.341-.659-.328-1.218.805-.314 1.89 1.943 1.967 0 .979.147 1.623.701 1.974 1.624.999-.498-.48-1.552.327-2.032.857-.476 1.41 1.254 1.31-.406.815 1.317 1.851-.149 2.295 1.624.815-.044 1.014-.761 1.639 0 .607-.06.201-1.374.656-1.624 1.277.543 1.698-.209 2.621.406.319-.012.254-.496.328-.811.531.697 1.371 1.008 2.623.811.004.809.895.517.654 1.626.578-.753 1.983-.512 2.278.196-.103-17.606-.798-23.034-12.065-23.858zm12.738 106.533c.583-.092 1.644.409 1.312-.812-.61.053-1.095.264-1.312.812zm-10.485-60.124c-.187-.098-.511-.745-.655-.814-.19-.087-.458.062-.655 0-.291-.088-.563-.274-.985-.406a.308.308 0 0 1-.169-.121h-.705c-.074.528.08 1.272-.471 1.343-.08-.521-.744-.485-1.41-.446-1.117.173-5.26-1.563-3.176.271-.602.573-1.434-.119-2.464.176-.138.039-.869.074-.369.99-1.167-.583-1.1-.194-1.514-.096-.284.069-.667-.099-.94 0-.208.077-.379.18-1.796 1.679.417-1.499-3.301-.961-3.332-.335.1.502.523.695.94.895.837-.246 1.244.98 1.642.315 1.597.122 1.282-1.557 2.17-.763.26-1.722 3.325.001 4.33-1.237.144.483-.865.892-.569 1.237.102.119.527-.028.778-.032.34-.359.622-.745 1.149-1.029.393.078.165-.61.329-.813.101-.126.565.139.655 0 .208-.314.556-.373.656-.812.705 1.124 1.791-.752 1.972.812.62-.722 2.164-.296 3.279-.406.276.605 1.055.587 1.638.812.29-.181.585-.356.654-.812-.022-.569-.637-.227-.982-.408z"/><path fill="#5E6E66" d="M168.542 243.083l-.007-.013c-.1.115-.121.153.007.013z"/><path fill="#565959" d="M182.938 190.25a2.944 2.944 0 0 0-1.874.332c.003-.662.569-.425.417-1.331-.551-.009-1.306.311-1.041-.996-.778-.357-.595.825-1.25.666-.048-.63.235-.734.207-1.331-.805.045-.835 2.41-3.272 1.828.552-1.633-.478-.475-.625-.996.637-1.242 3.286-1.543 4.308-1.338.237.049.598-.02.625-.332.961.264.594-.369.832-.666.303-.182 1.078.389 1.042-.33-.358.016-.534-.256-.625-.666.446.016 1.433-.773.833-1.33-.21.551-.883.363-1.25.666.051-.475.344-.561.417-1-.254-.035-.493-.098-.417-.662-.588-.275-.539.467-1.041.332-.223-1.1-.386-.221-.833-.332-.013-.004.012-.311 0-.334-.028-.055-.363 0-.417 0-.374.016-2.293 1.941-2.337.721.743-.032 1.429-.154 1.666-.996-.304-.183-1.077.389-1.042-.332.26-.137.426-.43.416-.996-.59.056-.867.608-1.458.664.065-.451.298-.635.209-1.33-.571-.568-.711.053-1.043 0 .022.003-.097-.288-.207-.331-.807-.323-.621.851-1.25.665.234-.479.225-.813-.209-.997-.057.681-.554.663-.831.997-.013-.425-.267-.461-.208-.997-.476.45-.835-.005-1.25.332-.057.047-.154.576-.209.665-.303.483-.817.312-1.249.332-.022.848-.381 1.162-.625 1.66-.047-.256-.006-.656-.209-.664-.045.259-.173.387-.417.332.035.604-.099.93-.432.762-.333-.166-.042.541-.625.25-.37-22.062 2.055-23.646 11.89-24.155h.539l-1.848-67.871-9.369-10.772v-.25h-.088l-1.159-35.613v-.997l-.042.498-.028-.498v.997l-1.16 35.613h-.121v.25l-9.446 10.772-4.073 67.864 2.169.001c11.462.351 8.364 7.369 9.227 23.704-.188-.58-.576-1.584-1.324-1.266.152-.906-.414-.67-.417-1.33-.795.161-1.329-.093-1.667-.663-.046.257-.004.654-.208.663-.585-.504-.854.11-1.664-.331-.29.204-.032 1.278-.417 1.329-.396-.624-.523-.036-1.042 0-.282-1.452-.939-.253-1.458-1.329.062 1.356-.287-.058-.832.331-.513.395.427 1.256-.208 1.662-.222-.753-.631-1.207-1.251-1.328-.048 1.589-.736-.257-1.249 0-.008.457.099.729.209.996-.97-.293.139 1.095-.416.996-.337-.056-1.074-1.114-1.25-.332.603.462-.91.281-.833.996.386.367 1.757.148 1.874.334.417.666 1.665.146 1.874 1.329-.722-.267-.8.494-1.458.332-.46.48.262.811-.207.996-.015.003-.032.003-.048.005.025-.057.057-.103.072-.171-.4-.047-.776-.122-.656-.812-.925-.337-.849.572-1.638.405-.353-1.347-.607-.268-1.311-.405-.02-.006.019-.379 0-.407-.045-.07-.571-.002-.655 0-.589.017-1.57 1.49-1.639 0 1.169-.04 2.249-.19 2.623-1.218-.477-.224-1.695.474-1.64-.406.412-.168.671-.524.656-1.219-.928.068-1.366.743-2.295.812.104-.551.468-.775.33-1.626-.899-.693-1.12.064-1.64 0 .033.004-.153-.352-.327-.406-1.271-.395-.977 1.041-1.968.814.368-.588.354-.993-.327-1.219-.09.833-.874.809-1.311 1.219-.019-.521-.42-.564-.327-1.219-.748.553-1.315-.005-1.967.404-.09.057-.241.705-.329.814-.478.592-1.289.381-1.966.405-.036 1.038-.6 1.421-.983 2.029-.075-.314.525-1.471.208-1.482-.072.313-.274.47-.655.405.051.738-.101.606-.105.785-.018.585.1.92-.817.562.115-14.885-1.418-24.696 13.299-25.154l5.105-.001.008-105.109a84.35 84.35 0 0 0-7.276-1.602v-6.429l4.928-4.93s-4.994-3.172-16.778-3.226v-.007h-.311v.007c-11.773.054-16.77 3.226-16.77 3.226l4.924 4.925v6.434a85.736 85.736 0 0 0-6.789 1.483l-.479 100.19-6.414-115.62-8.387-9.616H83.65l-24.944 12.23.009 118.017 6.259.003c19.93.545 19.521 1.779 19.47 26.251-1.316.391-1.375-.424-1.878-.896-.396-.369-1.016-.529-.942-1.342-.547.072-.837-.1-.94-.447-.457.012-.364.545-.471.893-.549-.67-1.357-1.094-1.41-2.236-.973-.025-2.135.203-2.82-.447-.126-.119-.342-.834-.473-.896-.933-.451-1.745.162-2.82-.445.133.721-.442.77-.469 1.342-.625-.451-1.749-.424-1.88-1.342-.977.25-.997.697-.469 1.342-1.423.25-1-1.33-2.822-.896-.25.061.586.514.633.508-.746.07-1.062-.766-2.352 0-.199.934.323 1.184.473 1.789-1.334-.074-1.96-.82-3.292-.895-.022.768.35 1.16.941 1.344.076.946-1.576.245-2.293.438-.478-.164-1.154-.184-.65-.443-.221-.662-1.145.232-1.566.281-.698.082.694-1.092-.523-.844.139-.227.274-.455.261-.844-.641-.215-1.504 1.346-1.566 0-.776.104-1.288.488-1.567 1.125-1.793-1.127 2.126-2.303 1.484-2.637-.683-.326-1.123.869-1.046-.279-.648.908-1.473-.105-1.827 1.123-.65-.029-.81-.525-1.306 0-.485-.041-.162-.951-.523-1.123-1.018.375-1.354-.146-2.088.279-.255-.006-.205-.344-.262-.561-.424.482-1.093.699-2.091.561-.002.559-.711.359-.521 1.125-.46-.52-1.938-.598-3.525.893-.478-9.196-2.604-21.878 10.607-22.662l3.245-.082-.892-21.834-3.184-4.184-.12-24.318.052-.001s.966-1.125.625-2.708c-.396-1.835-3.397-11.609-3.975-13.487.447-.028.802-.354.802-.763 0-.427-.384-.773-.859-.773s-.859.346-.859.773c0 .386.319.692.73.75l-1.768 6.014L43.334 82.6v-.25l-.226-6.683c.513-.142.892-.554.892-1.061 0-.53-.416-.954-.963-1.073l-.198-5.872v-.997l-.035.498-.023-.498v.997l-.168 5.845c-.622.064-1.111.523-1.111 1.1 0 .557.458.999 1.048 1.088l-.031 1.057-.031-.251-9 1.5.75 5 8.16-2.098-.042 1.447h-.102v.25l-5.121 15.676-1.721-5.854c.424-.047.757-.36.757-.755 0-.427-.384-.773-.859-.773s-.859.346-.859.773c0 .401.342.719.775.758-.575 1.868-3.58 11.656-3.977 13.492-.341 1.583.625 2.708.625 2.708v21.151l-4.5 6.849L27.5 159h.143l1.437-.004c11.804.516 11.479 16.17 11.006 24.555-.731.246.193-.266-.088-.562-.218-.23-.563-.334-.522-.842-.305.045-.464-.062-.523-.281-.253.006-.201.344-.261.562-.305-.422-.754-.688-.782-1.406-.54-.018-1.187.127-1.567-.281-.069-.072-.19-.521-.262-.561-.518-.285-.969.1-1.566-.281.075.453-.246.482-.261.842-.346-.281-.972-.266-1.043-.842-.542.156-.554.438-.26.842-.791.158-.556-.834-1.569-.561-.137.035-.287.281-.259.279-.416.047-.591-.48-1.308 0-.11.588.181.744.263 1.125-.741-.049-1.087-.516-1.829-.562-.012.48.197.729.523.844.044.609-.926.129-1.306.281.297.711 1.156.814 2.089.842-.055 1.031-.69.471-1.162.457-.066 0-.486-.047-.521 0-.016.02.015.279 0 .281-.562.096-.765-.65-1.045.281-.63.117-.568-.514-1.305-.281.093.48-.206.531-.523.562.092.371.458.441.523.844-.458-.258-1.304-.098-1.568-.564-.751.473.487 1.139 1.045 1.127-.113.346-.334.576-.783.561-.045.609.926.127 1.306.281.296.25-.163.785 1.043.561.036.268.486.322.784.281 1.281-.172 2.857-.486 3.655.564-.185.439-1.475-.539-.783.842-.798-.264-.818-1.365-1.829-1.406-.034.508.321.594.263 1.127-.823.135-.593-.863-1.568-.562.33 1.104-.615.836-1.305.842-.191.766.518.566.521 1.125-.651-.234-1.4-.367-2.35-.281-.025.867.789.836 1.568.843.093.478-.206.53-.523.562.304.526 1.179.265 1.828.279 1.187.025 2.037-.036 3.132.281.076 1.146-1.787-.429-1.043.842-1.006-.631-1.207.332-2.35.283-.047.611.213.893.784.842-.163.668-1.609-.045-1.828.564.587.678 2.338.105 2.611 1.122-.051.229-.263.282-.261.563-.514.054-.848-.605-1.307 0-.069.093-.428-.075-.523 0-.131.105-.392.423-.521.562.131.337-.962-.007-1.171.645.817-.124 1.515-.145 1.432 1.04-1.021-.162-1.517.242-2.09.562.164.601 1.263-.704 1.829 0 .386.122-.104.36 0 .843.644.037 1.257.042 1.565-.279.275-.159.176.549.262.561.929.141 2.21-.465 3.395-.281.148.023.538.186.782.281.42.165 1.355.366 1.569 1.124-.182.702-.697-.521-1.307-.281.156.255-.131.984-.262.844-.38-.409-.027.029-.259.281-.132.138-.604-.087-.522.279-.807.009-1.254-.131-1.568.281-.066.088-.46-.092-.521 0-.058.088.076.508 0 .561-.336.234-.852-.072-1.046.281.009.274.32.219.523.281-.211.712-1.075.717-1.567 1.125.218.484 1.603-.125 2.09-.281.381.001 2.137-.107 1.304.281.065.354.52.284.524 0 1.078-.436 1.704-.458 2.517.292.622.574 2.268.342 2.967.55-.452.676-1.668.301-2.35.563-.072.026-.227.555-.262.561-.462.086-.556-.381-1.045-.278v.843c-.804.208-.501-.773-1.305-.564-.03.79-1.27.549-1.306.564-.106.043.137.401.26.278-.172.172-.162.274-.26 0-1.037-.086-1.311.65-2.349.563.191.264.475.424.783.562-.027.719-.972.45-1.306.843.764.718 2.042.445 3.132.561.408.045.455.256.785.282 1.47.118 2.925-.162 4.177.281-.349.469-1.162.436-1.566.844.351.638.777.13 1.305.281.306.087.33.469.523.561.205.1.563-.051.784 0 .548.126.844.693 1.304.563-.382.45-1.432.885-1.304-.283-.285-.15-.167.545-.262.562-.425.09-.705-1.217-1.045 0-.493-.031-.182-.929-.782-.843-.484-.536-.932.561-1.045.563-.347.003-.773-1.164-.784 0h-1.565c.268.584-.428.389-.524.561-.095.179.194.363.263.281-.551.68-1.213.283-1.306 1.405.54.018 1.187-.127 1.568.282.039.045.23.551.261.561.8.271 1.783.027 2.611.281.672.205 1.067.809 1.828.844 1.763-.498-1.448 1.871.522 1.123-.63 1.432-1.451-.552-2.35-.562.58 1.214-1.241.538-1.306 1.404-.21-.149-.423-.292-.782-.28-.038.897-.966.833-1.045 1.687.598.159.653-.703 1.304 0 .382.409.255-.156 1.045-.28.689-.109.927.439 1.828.28.007.416-.538.124-.782.281-.208.132-.352.892-1.307.562.384.735-.562.572-.784.842-.075.094.088.485 0 .562-.259.229-1.062.493-.521 1.123.749-.342 1.438-.409 1.566.564.842-.855 3.554-.756 3.917 0 1.254.031.825 1.057-.175 1.057 1.25.625-.317.938-1.125 1.188 0-1.188-1.299.14-1.833.284-.106.028-.447-.075-.522 0-.064.062.072.524 0 .562-.265.136-.805-.173-1.045 0-.118.085.09.716 0 .843-.146.207-.995-.055-1.044.281.143.782 2.107-.395 1.566 1.125.544-.165.844-.591 1.307-.845.764.24-.158.905 0 1.406.829.43 1.147.099 2.088 0-.05.228-.261.278-.261.562-.139.491-.738.158-1.046.562-.066.086-.462-.091-.521 0-.058.085.075.509 0 .562-.188.127-.584-.102-.783 0 .106.677-.479.612-.262 1.406 1.264-.279 2.229.767 3.134 0 .328.069.634.309 0 .562.17.841.795-.111 1.282.157.17-.377.318-.682.806-.719 1.695.127 1.32 1.002 3.131 2.247-.114.408-.374-.183-1.062.067-.312-1.75-1.787-.374-2.07-1.473-.304.235-.701.37-1.307.281.079.574.707.554.784 1.124-.653-.232-1.024-.769-1.827-.843-.224.225-.155.77-.522.843.029.532.863.196.784.845-.786-.188-.914-1.081-2.089-.845.09.369.459.442.521.845-.955.095-2.062.027-2.088 1.123.673-.138 2.329.078 1.568.562.221.824.84-.168 1.305 0-.08-.647.754-.312.784-.842.371.025.739.046.782-.283.366.1.024.495-.261.563.558.762 1.735-.175 2.088-.563h1.567c.331.395 1.378.017 1.043 1.125-.762.074-.801-.636-1.565-.562.122 1.331-.227.417-1.045.562.092.369.46.442.522.844-.695-.161-2.776-.459-2.872.844h1.045c-.148.773-.275 1.574-1.304 1.404-.123.6.371.536.782.562-.08.663-.906.521-.782 1.406 1.214.09 1.452-.873 2.35-1.124.341.098.409.495.781.56-.08.665-.907.523-.781 1.408.648.041.807-.442 1.304-.564v.844c-.063.724-.45-.385-1.045 0-.009.482.195.729.522.845-.384.708-1.557.761-1.043 2.245.403-.901.614-.82 1.111-.942.266.184.197.752.708.666-.518-1.151.558-1.282.791-1.969.566-.049.117.996.26 1.404-.842 1.814-1.676.898-1.305 2.81.379.422.337-1.203 1.045-1.125-.666 1.505.959.797.521 2.812.813-.062.23-1.473.522-2.249.926-.151.324.51 1.25.359-.325-1.524-1.354-1.464-1.25-3.451.771.296 1.267 1.087 1.666 1.784.301.124-.239-.783-.118-.834.583-.248.933.821 1.827.563-.875-.812-1.284-1.419 0-1.688-.194-.634-1.442.345-2.066.174-.684-.549-.178-.773.017-.857.302-.132.507-.524 1.091-.358-.042-.33-.86-.538-1.167-.583-.519-.003.005-.95-.706-.745.247.245 0 .562 0 .843-1.306-.067-.257-2.176-.021-3.075 1.293.483 1.977 1.621 2.351 3.093 1.269-.53 1.152.409 2.351.561-.348-.594-1.013-1.741.521-1.404-.177-.654-.868-.752-1.043-1.406.081-.66 1.236-.167 1.043-1.124-.795-.27-1.562-.567-2.351-.842.322-.404.898-.532 1.568-.562.233-.908-.853-.396-1.045-.844.292-.346.227-.577-.262-.562.253-.695 1.004.387 1.829 0-.187-.251-.399-.736 0-.844.712-.19 1.182-.381 1.827-.842.122-.089.229-.366.522-.281-.172-.585-1.634-1.213-2.089-.562-.602.085-.29-.812-.782-.844-.896-.118-.784.843-1.307 1.124-.305-.045-.22-.513-.262-.843-.848-.439-1.405 1.452-1.567 0-.568-.052-.831.229-.781.843-.753-.738 1.827-1.872 1.827-2.247 1.348-.575 1.685.536 2.872.842-.144-.575.499-.669.522-.28.354-.277.522-.749.783-1.124.344.286.962.274 1.307.562.588-.388 1.983-.115 2.088-1.124h-1.044c-.549-.223.201-.22-.261-.844-.127-.172-.738-.01-.523-.562-.649-.041-1.084.146-1.306.562-.62-.083.29-.76.522-.843-.348-.801-1.162.216-1.567.28-.483-.041-.16-.95-.522-1.123-.346.281-.971.264-1.043.843-.312.109-.133-.489-.264-.562-.633-.354-.521.759-1.305.562.272-1.486 2.129-1.271 3.134-1.968 1.1-.058 1.097 1.067 2.09 1.125.025-.241.114-.766.26-.845.34-.187.412.227.523.282 0 0 .734.25.522.281.362-.053.05-.416.259-.563.426-.297 1.034.24 1.568 0-.231-.687-1.457-.303-1.306-1.404-.604-.088-1.001.044-1.305.28-.194-.026-.194-1.096 0-1.123-.062-.354-.519-.284-.521 0-.579-.222-.655-.983-1.046-1.405-.887.786-1.509.106-2.349.843-.254-.008-.204-.344-.261-.562-.65-.042-.809.442-1.308.562-.343-.337-.167-.861-.542-.753.875-.438 1.083-1.758 2.5-.812.562.375 2.312-.812 3.265.159.111-.587-.18-.742-.26-1.122 1.096-.15 1.458.491 2.35.56.02-.911 1.183-.598 1.828-.842-.12-.902-1.017-.968-1.57-1.406.647-.669-.675-.46-.258-1.684-.561-.073-.983.095-1.567 0-.378-.062-.48-.273-.783-.282-.455-.013-1.046.793-1.046-.281-.598.293-1.576.178-2.088.563.023-.819.379-1.478 1.067-1.228.716.26 1.658-.432 2.588-.46.553.25.772.854 1.567.844-.879-.853 1.14-.271.262-1.125 1.441.379 2.081.056 2.873-.842.146-.623-.501-.401-.524-.844-.033-.686-1.439.262-1.042-1.123h-1.568c-.623-.084.291-.762.52-.844 0-.289-.324-.197-.52-.281-.26-.113-.419-.184-.783-.281-.208-.056-.708-.445-1.045.281-.265-.184-.27-.646-.783-.562 1.644-1.575 2.081.112 4.3-.419-.125-.438.908-.033.921.138.397-.097.021-.229 0-.281-.209-.564.296-.838-.782-.843-.012-.481.193-.729.522-.842-.363-.886-1.289.386-1.567-.281.902-1.716 3.25-.199 4.7 0-.924-.679-.174-1.644-.522-2.25-.003-.005-.019-.007-.04-.008a.927.927 0 0 0 .264-.167c.698.195-.186.572 0 1.343 1.16.059 2.264.068 2.818-.446.497-.25.359.79.472.895 1.87 1.733 4.037-1.517 6.111-.448.242.125-1.158.016-2.241.932 1.02-.391 1.5.666 2.5 0 .634-.465 1.247.504 2.125.416 1.25-.125 1.72.475 1.852.891.773 1.026-3.378-.523-4.477-.141 1.126 1.683-1.667 2.334-3.026 1.035-1.097-1.048-.049.047-.471.447-.235.223-1.085-.138-.941.447-1.45.014-2.255-.21-2.82.447-.12.14-.832-.146-.938 0-.104.137.136.81 0 .896-.607.371-1.532-.117-1.883.447.014.436.575.348.941.447-.376 1.133-1.935 1.141-2.821 1.79.393.773 2.887-.198 3.763-.449.687.007 3.847-.167 2.348.449.115.562 2.675-.34 2.683-.79 3.464-1.234 3.5 1.333 7.362 1.333-.812 1.077.145 1.277-1.085 1.694-.129.043-.408.884-.471.895-.83.136-1.002-.608-1.881-.447v1.344c-1.447.331-.902-1.229-2.351-.896-.051 1.257-2.285.872-2.351.896-.191.068.247.64.469.445-.313.273-.29.437-.469 0-1.87-.137-2.36 1.036-4.231.896.345.418.856.678 1.411.895-.047 1.147-1.752.719-2.351 1.343 1.374 1.144 5.81-1.564 5.641.894.733.07.82.408 1.41.447 1.146-1.072 2.761-.265 3.563-1.03.917-.875 1.75.583 3.071 1.125-.253.302-.779.208-1.029.417-.083.5-.125.916-.901 1.279.632 1.017 1.398.207 2.35.447.549.138.596.746.942.895.369.159 1.012-.081 1.411 0 .988.202 1.519 1.104 2.352.896-.689.714-2.582 1.41-2.352-.449-.509-.24-.302.864-.469.896-.766.141-1.27-1.938-1.884 0-.886-.05-.326-1.481-1.408-1.344-.87-.855-1.676.893-1.881.896-.624.008-1.391-1.854-1.41 0h-2.822c.483.934-.771.617-.941.895-.172.28.35.579.473.447-.993 1.079-2.186.45-2.351 2.236.972.027 2.134-.205 2.819.448.074.071.417.879.469.895 1.444.432 3.212.046 4.703.448 1.21.324 1.92 1.288 3.292 1.343 1.734.021-.905 2.36.941 1.787-1.137 2.282-2.614-.877-4.233-.893-.657.864-2.234.856-2.35 2.237-.38-.236-.765-.469-1.412-.447-.067 1.428-1.738 1.325-1.879 2.684 1.076.254 1.176-1.119 2.35 0 .687.654.456-.25 1.879-.447 1.241-.171 1.671.702 3.292.447.011.665-.971.197-1.411.447-.371.212 1.673 1.421-.047.896.693 1.171-1.013.912-1.41 1.342-.138.148.158.771 0 .895-.47.364-1.915.784-.941 1.79 1.351-.546 2.591-.652 2.821.895.941-.701 2.134-1.188 3.467-.529.417-1.242 3.083-1 3.586.529-2.211 2.221-2.211.096-2.211.096s-2.125 1-.875 3.25c-.753-.726-1.594.452-2.556.684-.188.044-.806-.122-.94 0-.115.1.131.833 0 .894-.478.216-1.448-.276-1.881 0-.212.137.162 1.139 0 1.342-.263.33-1.791-.085-1.882.448.261 1.246 3.796-.629 2.822 1.79.977-.264 1.52-.94 2.352-1.343 1.378.379-.283 1.44 0 2.237 1.495.684 2.068.158 3.763 0-.091.361-.473.445-.471.896-.248.78-1.328.248-1.881.895-.121.138-.833-.146-.94 0-.103.134.136.81 0 .895-.337.201-1.049-.161-1.409 0 .19 1.077-.861.971-.472 2.235 2.933-1.535 3.058 1.402 5.621-.723.589.112.495 1.613.022 1.619.309 1.34 1.687-1.244 2.937-.244 1.104-2.625 3.417 2.167 2.958.209 2.625.625 1.333 1 3.506 2.721-.206.648-.411-.046-.938 0-.513-1.75-4.189-.488-4.701-2.238-.547.375-1.259.591-2.35.447.139.912 1.27.878 1.408 1.791-1.175-.372-1.845-1.228-3.289-1.342-.404.358-.28 1.224-.941 1.342.051.845 1.554.309 1.411 1.341-1.415-.296-1.642-1.72-3.761-1.341.166.587.827.703.94 1.341-1.721.155-3.713.047-3.762 1.791 1.212-.219 4.194.125 2.822.893.399 1.313 1.513-.266 2.351 0-.144-1.03 1.357-.494 1.411-1.341.667.039 1.331.075 1.411-.447.658.157.041.787-.472.896 1.003 1.212 3.124-.279 3.762-.896h2.821c.593.628 2.48.024 1.878 1.788-1.376.118-1.442-1.011-2.82-.893.219 2.118-.409.665-1.88.893.164.591.827.706.939 1.344-1.253-.256-4.999-.729-5.172 1.342h1.883c-.27 1.237-.5 2.51-2.352 2.238-.221.955.67.854 1.411.896-.146 1.053-1.635.83-1.411 2.235 2.188.145 2.616-1.388 4.231-1.789.616.156.74.788 1.41.893-.146 1.059-1.633.836-1.41 2.24 1.169.069 1.456-.703 2.35-.896v1.344c-.113 1.152-.808-.614-1.88 0-1.598 1.637.777.574.939 1.342-.225 2.045-3.538 1.232-1.879 3.58.967-1.66 2.154-1.035 2.654-2.16.479.29.183 2.293 1.107 2.16-.607-1.848 1.018-1.035.94-3.58 1.019-.075.859 1.587 1.116 2.237.296 1.995-2.829 1.62-2.351 4.475.584-1.229 1.456-.999 1.881-1.789 1.557 2.519-1.109 1.519.391 3.81 1.167 1.126-.333-2.374 1.489-2.915 1.666-.242-.572.978 2.178.728-1.125-1.188-.875-1.875-2.229-1.938-.688-.469-.601-.963-.375-1.375.397-.724-.296-1.059-.22-2.338 1.386.472 1.636 2.026 2.353 3.132.544.203.255-.813.471-.893 1.049-.397 1.679 1.308 3.289.893-.815-.973-2.312-2.255 0-2.685-.35-1.008-2.635-.176-3.759-.447.001-.461.588-.312.939-.446.54-.206.594-1.591 1.88-1.343-1.161-1.186-1.604-.052-2.161-.123-.934-.007.375-1.812-1.812-1.75 0 .447 1.125 1 .684 1.873-2.353-.106-1.368-4.386-.94-5.817 2.328.77 1.896 1.311 2.569 3.652 3-2 3.167 3 5.894 2.165-.627-.945-3.894-3.665.938-2.238-.317-1.039-1.561-1.198-1.879-2.235.148-1.054 2.229-.267 1.879-1.792-2.999.601-2.812-.903-4.231-1.343.581-.64 1.618-.847 2.823-.893.42-1.445-1.532-.63-1.881-1.344.526-.551.409-.919-.471-.896.456-1.106 1.807.618 3.292 0-.337-.401-.717-1.171 0-1.342 1.283-.306 2.127-.606 3.29-1.342.222-.139.412-.586.942-.449-.31-.929-2.942-1.93-3.764-.895-1.083.138-.521-1.293-1.409-1.342-1.61-.189-1.413 1.34-2.352 1.791-.551-.073-.396-.817-.471-1.342-1.527-.703-2.532 2.31-2.82 0-1.025-.083-1.496.364-1.41 1.342-1.355-1.174 1.375-2.247 3.29-1.791v-1.791c2.428-.914 2.014.604 4.151 1.09-.258-.917.562-.906 1.96-.193-.304-1.213.94-1.193 1.411-1.791.619.458 1.441.078 1.254.953 1.061-.616 4.672-.24 4.858-1.848h-1.879c-.985-.353.363-.349-.47-1.341-.228-.271-1.327-.017-.94-.895-1.168-.069-1.952.23-2.352.895-1.117-.133.524-1.212.942-1.342-.627-1.274-2.092.343-2.823.447-.868-.069-.287-1.517-.94-1.791-.625.449-1.749.423-1.879 1.344-.559.173-.703-.626-.016-1.313-1.141-.562-1.397 1.626-2.807 1.313.432-2.876 4.119-1.563 4.432-3.126 2.375-.562 3.187 1.692 4.973 1.782.047-.383-.598-1.22.47-1.343.676-.078.807.373.369.623 0 0 1.893.226 1.511.272.652-.084.093-.662.469-.896.765-.475-1.382.379-.419 0-.417-1.096-2.241-.499-1.968-2.252-1.844.031.375-.625.938-.375-.812-.656-.844-1.312-.431-.953-.116-.562-.934-.451-.94 0-1.041-.353-1.848-.984-1.882-2.236-.966 1.752-2.717.171-4.23 1.342-.457-.013-.321-1.116-.423-1.465-1.169-.067-1.062 1.812-2.399 1.465-.616-.536-.737-.175-1.409 0 2.246-1.09 2.308-3.652 5.683-2.715-.304-1.746 1.275-1.679 2.708-1 .292.958 1.625.208 2.422 1.478.161-1.853-2.214-1.603-1.214-2.27 1.972-.236.131 1.263 1.735 1.374.036-1.457 2.13-.955 3.292-1.342-.214-1.437-1.83-1.54-2.823-2.237 1.166-1.067-1.218-.735-.469-2.686-1.01-.113 1.47.151.42 0-.682-.097-.865-.433-1.411-.447-.816-.02-2.661 2.338-1.882-.447-.82.869-2.737-.09-3.76.895.036-1.088 1.731-1.4.78-2.092.743-1.184 2.175-.508 4.076-.559.993.398-.125 1.328 1.305 1.309-1.58-1.356 2.153-1.601.153-3.268 2.515 1.024 2.542-.041 5.333.417.263-.994-.745-.92-.785-1.625-.061-1.092-2.592.417-1.879-1.789h-2.823c-3.129-.371-.847-.836-1.347-1.419 0 0 .75-.418 2.208.166.417-1-1.111-1.261-1.283-.96l.116-.498c-1.107.28-2.081-.109-3.006.026 1.663-1.55 2.712-1.042 5.756-1.276.399-.083 1.058.727 1.083 1 .083-1.25 1.21-.534 1.173-.618-.376-.9.531-1.338-1.409-1.344-.022-.766.348-1.159.939-1.342-.655-1.406-2.319.615-2.82-.448 2.617-3.748 3.867.086 8.464 0-1.667-1.081-.314-2.615-.94-3.578-.022-.034-.422.002-.471 0-.636-.047-.12-.762-.471-.895-.372-.142-1.112.318-.94.446-.026-.02-.808-.19-.468-.446.744-.567-.895-.591-.973-1.358-.917 1.833-3.43.354-3.5 1.333-.545-.379-2.389-.565-3.478-.423-.258-.991 2.644-.493.94-1.342 2.537-1.568 2.12.432 4.12.349.333-2 2.5-.5 3.75-1.553.882.788 1.433-.443 2.988.152-.001.167-.033.316-.239.335-.034.003-.313-.029-.329 0-.437.876.508 2.268-.655 3.249 1.827-.284 4.772-2.479 5.905 0-.349.965-1.509-.87-1.966.408.413.163.671.522.656 1.218-1.352.005-.721.401-.982 1.219-.025.076-.212.267.287.405.017-.248.049-.481.326-.405.787.079 2.387-.846 2.478-.019.062.562 2.733-.055 3.461.831-.644-.122-.649.549-.982.812-.422-1.049-1.052-.487-1.31-.406-.458.143-.658.245-.983.406-.246.122-.655-.014-.655.406.29.119 1.433 1.098.655 1.22h-1.968c.497 2.002-1.268.632-1.31 1.622-.028.643-.839.319-.657 1.221 1.435-.8 1.796 1.766 3.605 1.219-1.102 1.231 1.43.393.329 1.624.997.019.97-1.882 1.966-1.218 1.295-.914 3.545-.414 2.42.711 1.5-.375 2.129.204 2.168 1.726-.646-.553-1.873-.388-2.622-.812 0 1.555-.743.389-1.312.406-.38.013-.509.319-.983.406-.73.137-1.262-.103-1.966 0 .522 1.771-1.138 1.471-.327 2.438-.692.633-1.819.727-1.969 2.03 1.677-.486 2.27-.104 2.295 1.219 1.118-.104 1.574-1.026 2.949-.812-.103.55.766.815-.328 1.625.769-.069 2.677.024 1.967-.812.793-.913 2.668-.663 2.839.627.37-1.124 3.162.501 2.731 2.216-.467-.157-1.195-1.381-.983 0-.624-.173-.823-.873-1.639-.811-.072.316-.009.801-.328.811-1.054-1.06-1.835-.082-2.949-1.216-.491.609-.586 1.709-1.312 2.03-.004-.412-.573-.514-.655 0 .244.039.244 1.585 0 1.624-.381-.342-.879-.536-1.638-.406.189 1.592-1.35 1.038-1.64 2.031.671.345 1.435-.431 1.967 0 .263.212-.128.738.328.812-.268-.043.653-.406.654-.406.139-.081.229-.674.656-.406.184.117.295.873.328 1.217 1.246-.081 1.244-1.707 2.623-1.623 1.263 1.008 3.59.695 3.933 2.845-.983.285-.843-1.323-1.639-.812-.163.102.062.971-.329.812-.09-.833-.875-.812-1.311-1.222-.453.252-.049 1.565-.655 1.628-.51-.092-1.53-1.562-1.968-.406.292.118 1.436 1.099.657 1.219-.279-.603-.825-.873-1.639-.812.27.797-.497.565-.656.812-.58.901.359.897-.327 1.219h-1.31c.129 1.458 1.882 1.063 2.621 1.624.43-.415 1.208-.397 1.64-.812.328.541.54 1.226.983 1.625.029-.564.836-.427.655.405 1.491-.441 1.914-2.049 3.605-1.218v1.626c1.336-.414 3.239.559 2.294 1.624.059-.886-.268-1.291-.984-1.218-.199 2.099-.899-.636-1.965 0-.051.479.056 1.152-.328 1.218-.653-.409-.517-1.797-1.639-1.624-.618.045-.228 1.342-.983 1.217-.571-.94-2.407-.031-2.623.814.37-.125.502.28.657.406.811.667 1.398.94 2.293 1.218.5.154.236.854 0 1.217 1.036.562 1.978-1.004 2.295 0-.613-.02-.695.314-.328.814-.242.647-1.603-.093-1.311 1.219.84.042 1.562.229 1.967.812-.988.399-1.953.83-2.95 1.221-.242 1.383 1.208.669 1.311 1.622-.221.945-1.089 1.089-1.311 2.033 1.926-.485 1.092 1.172.656 2.032 1.504-.219 1.357-1.579 2.949-.813.471-2.125 1.327-3.77 2.949-4.469.299 1.301.866 4.125-.774 4.223 0-.408-.625-1.386 0-2.011-.51-.17-.25 1.5-1.208 1.334.792.458-.083.916.958 1.625-.386.065-1.872-.366-1.925.111 1.216.097.3.889 1.31 1.218.261.085.656-.014.656.406-.784.246-2.377-.51-2.622.406 1.788.066-.212.941 0 2.438.788-.913 1.562-1.173 2.293-.812.151.073-.051.995.329.812.5-1.007.673-2.416 1.638-2.844 1.153 3.015-2.305 3.056-1.967 5.687.662-1.381 1.245-.589 1.967-1.219.104 1.229-.326 1.746.695 1.838-.417-1.375.667-1.958.617-2.648-.034 1.065.799.482 1.31 1.624-.01-2.726-2.302-1.559-1.638-4.062.18-.591-.383-2.101.328-2.031.292.992 1.299 1.868.174 3.035 1.25.292 1.126-1.361 1.458-1.625 1.125 0 .393 1.816 1.208 1.75-.154-1.435 0-2.208-.875-3.16.412-.167.668-.524.655-1.22-.696.422-1.23 1.048-1.311 0v-1.217c.625.174.824.875 1.639.812.156-1.275-.88-1.074-.983-2.031.467-.096.554-.669.983-.812 1.125.363 1.425 1.753 2.95 1.624.155-1.276-.882-1.074-.983-2.033.516-.038 1.137.057.983-.812-1.292.248-1.451-.907-1.64-2.03h1.313c-.121-1.879-2.732-1.45-3.606-1.217.079-.581.542-.686.655-1.221-1.026-.208-1.463 1.112-1.311-.812-.958-.106-1.006.919-1.965.812-.419-1.601.896-1.054 1.309-1.624h1.967c.445.562 1.924 1.912 2.623.812-.356-.098-.786-.669-.328-.812.055.475.518.44.983.408.037.766 1.083.281.983 1.216.583-.24 1.36 1.191 1.639 0-.956-.697 1.121-1.009 1.966-.812-.034-1.583-1.423-1.485-2.622-1.625.078-.58.54-.686.655-1.219-1.477-.343-1.637.951-2.622 1.219-.101-.937.947-.452.983-1.219-.461-.106-.374-.891-.656-1.218-1.006.105-1.474.881-2.293 1.218.097-.828.886-.797.982-1.624-.761.128-1.257-.065-1.638-.408-.357 1.589-2.919.442-3.277 2.032-.369-.041-.511.591-.655 0a8.62 8.62 0 0 1 3.932-3.25c.612.056 1.095.269 1.312.812.611-.389 1.096 1.216 1.31 0-.33-.004-.411-.711 0-.812 1.134 1.11 2.026-1.174 5.088.201.271-1.147-1.618-1.254-1.484-2.232-.252-.146-.747.185-.982 0-.095-.075-.159-.83.716-1.33-.438-.625-1.289.644-1.372.519-.386-.585-.269-.873-.441-1.581.312-1.188-1.136-.724-1.199-1.053 1.182.142 1.365-1.561 2.623 0 .197-.724-.961-1.69 0-2.035.58.367.958.981 1.638 1.217-.679-2.193 4.521-1.067 4.702-2.198-.063-.483-1.127-.107-1.312-.406-.113-.184.147-1.095 0-1.219-.302-.251-.977.194-1.311 0-.09-.054.08-.72 0-.812-.093-.109-2.267.444-1.83-.556-2.312.625-3.062-.188-2.438-1-3.5-.125-1.692-.514-1.692-.514 1.122-.961 3.862-1.236 4.917 0 .161-1.406 1.025-1.308 1.966-.812 1.268-1.466-.328-1.294-.655-1.624-.111-.112.851-1.29.756-1.425-.277-.39-1.398-.103-.917-1.167-1.199.477-1.324-.309-1.583-.5-.417.917-1.869.444-1.862-.159 1.13.232 1.581-1.497 2.445-1.341.994.181 1.188 1.345 1.667.75.817-1.015 1.245.028 1.996-.204-.099-1.232-1.263-2.009-1.311-3.303-.452-.02-.721.188-.983.404-.082-1.253-2.285-1.098-1.64-2.03-.433.069-1.979.35-1.062 1.516-.895.882-2.259 2.245-2.751.959 1.457-.252.146-2.187-.171-2.613.108.137.354.439.827.986 1.262.369 1.345-2.381 2.294-1.217 2.468-1.498 1.385 1.252 2.718.169.037-.014.836-1.324.887-1.387.479-.594 1.288-.384 1.967-.406-.117-1.623-.948-1.051-1.639-2.032.084.121.449-.15.33-.407-.118-.25-.993.035-.658-.812h-1.965c-.015-1.682-.549.007-.984 0-.143-.001-.704-1.589-1.311-.812-.755-.126-.364 1.175-.982 1.219-.429-1.758-.779.128-1.313 0-.117-.03.029-1.032-.327-.812.161 1.688-1.158 1.058-1.64.406.582.188.952-.63 1.64-.812.279-.073.726.145.983 0 .241-.136.274-.688.657-.812.663-.219.272-1.145 2.084-1.145-.508-.589-2.625-.178-3.062-.854 1.571-.644 3.619.141 5.465-.033.412-.037.473-.342.984-.407 1.369-.168 2.974.228 3.932-.812-.418-.565-1.606-.175-1.64-1.218.387-.197.743-.435.984-.812-1.305.127-.916-1.188-2.219-1.062-.125.395-.108.248-.327 0 .155.176.46-.344.327-.406-.045-.023-1.602.329-1.639-.813-1.009-.302-.63 1.116-1.639.813v-1.221c-.612-.145-.731.531-1.311.407-.043-.01-.237-.771-.327-.812-.856-.38-.858-.312-1.424-1.289 1.995-.684 3.579-1.612 5.994-.492.006.409.577.511.658 0-1.045-.56 1.158-.403 1.637-.406.61.225 2.349 1.108 2.623.406-.618-.587-1.705-.598-1.967-1.624.256-.091.648-.013.657-.407-.245-.513-.89-.07-1.312-.405-.095-.078.072-.689 0-.811-.075-.136-.571.125-.654 0-.394-.599-.955-.397-1.967-.41.102-.531-.492-.202-.656-.406-.293-.363.151-.997-.327-.405-.165.203-.525-.85-.329-1.22-.766-.347-1.411 1.423-1.64.408.267-1.097-2.883-.645-.336-1.626.313-.121.795-.372.983-.405 1.485-.266 3.093.607 4.261.405.106-.019-.017-1.037.329-.812.386.469 1.157.461 1.964.407.129-.698-.487-1.042 0-1.22.223.305 1.418.666 1.995.356-.045.064-.086.165-.114.359.788.658-.993-.079-.833.668.358-.018.534.255.624.664-1.042-.003-1.417 1.061-1.874 1.993.776.021 1.318-.335 1.874-.664v.998c1.175-.811 2.08-.491 3.331 0 .35.294-.384.185-.23.996-.48-.108-.799.053-1.04.333.089-.77-.524-.715-1.04-.665-.034.569-.539.243-.209.665.15.19-.196.317-.208.331.076-.095-.251-.437-.416-.331-.157.099.072.63-.209.664-.021.003-.197-.027-.208 0-.277.715.322 1.854-.416 2.659 1.157-.235 3.029-2.028 3.747 0-.22.787-.958-.713-1.249.332.5.122.594.497.416.996-1.353.095-.457.329-.624.996-.016.062-.133.349.183.462.012-.202.032-.393.208-.332.99.5 3.038-.614 3.773.536-.408-.1-.413.447-.624.662-.269-.857-.668-.397-.833-.33-.015-.774-.14.179-.499.366-.156.101-.625-.188-.541.299.447-.143.911.897.415.997h-1.25c.316 1.639-.805.517-.833 1.329-.017.522-1.753.26-1.636.996 1.735.062 2.361 1.443 3.51.997-.701 1.01.909.322.208 1.329.635.016.809-.701 1.25-.997 1.35.062 2.872-.152 2.915 1.994-.411-.451-1.19-.318-1.667-.664 0 1.271-.471.315-.833.333-.241.009-.322.259-.625.331-.465.112-.802-.083-1.249 0 .333 1.449-.723 1.202-.207 1.994-.44.519-1.156.595-1.251 1.661.515.288 1.441-.083 1.458.997.71-.082 1-.841 1.874-.662-.065.446-.296.632-.208 1.328.489-.06.804-.596 1.249-.666 1.351-.21 2.873 1.215 3.54 2.327-.296-.129-.35-.398-.624 0-.398-.142-.522-.716-1.042-.665-.045.258-.007.656-.209.665-.668-.87-1.167-.068-1.874-.997-.312.5-.372 1.399-.833 1.661-.002-.336-.364-.418-.415 0 .154.032.154 1.297 0 1.33-.244-.279-.559-.438-1.042-.334.121 1.304-.857.85-1.042 1.664.427.281.91-.352 1.25 0 .158.162-.039.543.176.639-.001-.081.447-.307.447-.307.088-.065.146-.553.417-.332.117.094.187.712.208.996.792-.066.79-1.399 1.667-1.33.802.825 2.281.568 2.5 2.326-.625.234-.536-1.083-1.042-.664-.103.086.04.794-.208.664-.058-.682-.557-.662-.832-.996-.289.203-.031 1.279-.417 1.329-.324-.075-.972-1.277-1.25-.333.185.098.912.9.417.997-.176-.492-.524-.714-1.041-.664.171.653-.317.464-.417.664-.369.737.229.735-.208.998h-.833c.083 1.192 1.196.869 1.666 1.329.273-.34.767-.326 1.042-.667.209.444.342 1.004.625 1.331.02-.461.532-.349.417.332.946-.36 1.214-1.677 2.29-.996 0 .442.646.886.646 1.328.849-.337 2.057.459 1.457 1.33.038-.727-.17-1.057-.624-.996-.127 1.715-.572-.521-1.249 0 .373.336.035.941-.209.996-.415-.334-.329-1.47-1.042-1.33.249.248-.143 1.099-.623.998-.362-.773-1.529-.026-1.667.664.234-.102.32.23.417.33.515.549.889.771 1.458 1 .318.125.149.698 0 .997.658.457 1.256-.823 1.457 0-.389-.019-.441.255-.208.664-.154.529-1.019-.075-.834.997 1.139-.605 1.495.189 1.753.665-1.254-.239.167 1.104-1.874.996-.155 1.132.767.548.832 1.33-.141.772-.691.889-.832 1.661 1.224-.396.692.959.417 1.661.954-.178.86-1.289 1.873-.664.142-.831.33-2.177 1.142-1.864-.083-1.312.194-1.494.732-1.793.078.438.56.772.018 1.897.896-.354.179 2.378-.435 2.424-.335-1.174.415-.799.519-1.611-.292.396-.666.858-1.08.863-.246.053-.592-.058-.625.332.601.242-.066 1.096.562 1.412.166.084.415-.008.416.334-.497.202-1.51-.417-1.665.332 1.024.318.362 1.271 0 1.995.713.306.992-.962 1.457-.664.095.059-.032.812.208.664.318-.824.428-1.977 1.042-2.327.24 1.266.56 1.954-.065 2.454-.104-.438-1.21.6-1.229 1.438.812.417.557-.415 1.294-.237.685.57-.091 1.98.956 2.508-.255-1.193-.346-3.002.379-3.171.537.255.15.912.516 1.213.354-1.625-.292-1.938-.725-3.207-.317-.626-.243-1.717.208-1.661-.129.743.85.493.141 1.326.41.099.56.008.771-.208.397.143.379 1.553.896 1.5-.417-1.125-.25-1.779-.56-2.618.262-.139.426-.43.418-.998-.296.366-.783.857-.834 0v-.998c.184.677.768.239 1.042.666.098-1.044-.56-.876-.625-1.662.298-.079.352-.548.625-.663.715.296.905 1.436 1.874 1.328.098-1.044-.56-.879-.625-1.661.328-.034.722.044.625-.667-.82.203-.923-.743-1.042-1.659.278 0 .31-.411.833 0-.076-1.539-1.736-1.187-2.292-.998.051-.474.344-.561.418-.998-.653-.171-.931.909-.834-.663-.609-.086-.638.753-1.248.663-.266-1.309.569-.861.832-1.327.417 0-.815-.77 1.038.1-.188.297.766 1.219 1.877.564-.225-.08-.5-.549-.207-.664.035.387.329.36.625.332.023.627.688.23.624.995.371-.197.865.976 1.041 0-.607-.568.713-.823 1.25-.663-.022-1.296-.905-1.216-1.666-1.328.048-.475.342-.561.415-.998-.938-.279-1.038.776-1.665.998-.063-.768.602-.372.624-.998-.292-.087-.684-.707-.668-1.035-.049.742-.685.759-1.204 1.035.061-.677.562-.651.624-1.33-.484.106-.8-.053-1.042-.332-.227 1.301-1.855.363-2.082 1.662-.233-.034-.325.483-.416 0 .336-.65.535-2.729 1.154-1.512.257-.296 1.091-1.151 1.631-1.146.388.044.696.219.833.664.388-.317.696.994.833 0-.21-.004-.261-.581 0-.664.72.907 1.489-.329 2.499 0 .171-.939-.293-.86-.209-1.661-.159-.12-.475.149-.625 0-.06-.062.046-.563 0-.666-.047-.106-.362.104-.415 0-.247-.479-.724-.084-.834-.664 0-.334.708-1.581.669-1.85.751.118.127 1.693.789 1.184.125-.591 1.043-2.101 1.653-2.382.368.297.608.801 1.042.996-.433-1.795 1.134-.404 1.25-1.33-.041-.396-.718-.088-.834-.332-.071-.15.095-.896 0-.998-.191-.205-.622.161-.832 0-.059-.043.049-.589 0-.665-.06-.089-.333-.326-.418-.361-.424-.169-.499-.536-.831 0-.05-.903-3.735-.277-2.001-1.215-.828-.028-1.915.142-1.32-.691.713-.784 2.956-1.01 3.626 0 .102-1.147.652-1.068 1.249-.664.432-.747-.208-1.058-.416-1.329-.07-.09.061-.554 0-.662-.176-.321-.931-.129-.625-.999-.762.391-.876-.509-1.042-.665-.195-.186-1.131.158-1.126-.333.718.19 2.06-.46 2.607-.332.63.148.529.817.833.332.52-.83.562.19 1.041 0-.063-1.008-.803-.934-.833-1.993-.285-.014-.455.155-.624.333-.051-1.025-1.855-.976-.647-1.768-1.438-.48-2.042 1.875-2.699.77-.592-1.061 1.658-.811.417-1.329.607-.04.922-.755 1.457-.997.662-.299 1.445-.011 2.084-.333.023-.011.174-.611.207-.663.304-.484.819-.313 1.25-.333-.075-1.327-.602-.858-1.042-1.661.055.097.285-.124.209-.334-.076-.204-.63.029-.418-.662h-1.249c-.01-1.376-.348.003-.624 0-.091-.004-.447-1.299-.834-.666-.479-.102-.231.96-.623.996-.273-1.438-.496.105-.834 0-.074-.021.018-.844-.208-.664.102 1.381-.736.865-1.042.334.369.152.604-.517 1.042-.666.176-.062.461.118.624 0 .154-.11.174-.561.418-.665.42-.177.761.423 1.039-.331-.321-.482-.97-.444-1.248-.998.999-.526 2.159-.191 3.333-.332.261-.03.301-.28.625-.333.87-.136 1.889.186 2.498-.664-.265-.462-1.019-.145-1.042-.997.247-.16.472-.353.625-.664-.828.103-1.046-.769-1.873-.665-.08.323-.07.203-.208 0 .099.145.293-.28.208-.331-.03-.019-1.019.266-1.042-.668-.058-.021-.101-.021-.146-.022l-.232.105c-.194.238-.21.759-.663.585 0-.279.224-.389.663-.585a.272.272 0 0 1 .232-.105l.041-.019c-.571-.604-1.722-.121-2.09-.226-.632-.412-.208-.812.113-1.119-1.196-.298-1.78.827-1.874.058 1.615-1.939 3.774-1.624 5.308-.706-.986.077.366.416.418 0-.664-.458.735-.331 1.041-.334.387.185 1.491.907 1.666.334-.393-.481-1.083-.488-1.25-1.33.162-.074.412-.01.418-.332-.155-.42-.566-.059-.833-.333-.062-.062.045-.562 0-.663-.049-.109-.365.102-.417 0-.251-.487-.607-.322-1.249-.334.064-.435-.313-.164-.418-.33-.187-.3.098-.819-.207-.334-.104.167-.333-.695-.209-.997-.485-.286-.896 1.162-1.042.333-1.693-.413-.741-1.426-.405-1.62.194-.112.506-.304.625-.332.943-.216.814.185 1.128.498.167-1.25 1.567-1.015 1.787-.828.246.381.734.376 1.248.33.083-.572-.309-.851 0-.996.177.311 1.329.71 1.458 0-.457-.377-.851-.855-1.665-.663.517-1.032.713-1.187.207-1.995-.1-.162-.311-.539-.416-.664-.075-.087-.36.111-.416 0-.366-.714-.633.064-1.042 0 .001-.333-.168-.396-.209-.663.218-1.205 1.613-.527 2.082-1.328-.175-.718-1.327.123-1.457-.666.456.059.662-.273.625-.997-.912.062-1.072-1.08-1.875-.331.594-1.506-1.181.357-1.119-.999.791-1.116 1.907-.087 2.853-.116.5-.875 2.675-.092 2.917-.715-.254-.038-.493-.099-.417-.664.639-.016-.171-.63 1.267-1.005zm-152.716 5.28c-.037-1.531-1.619 1.199-1.566-.844 1.4-.036 2.69-.39 3.655.562-.922-.542-1.169.132-2.089.282zm8.615 34.564c.048-.106-.349-.468-.521-.28-.405.434-.729-.139-1.306 0-.418.099-.573.773-1.044.562-.192-.767.518-.565.521-1.124.797-.029 3.039.283 2.35.842zm1.306 14.332c.116-.719.367-1.292.783-1.687.014.857-.236 1.432-.783 1.687zm-.522-2.529c-.103-.792 1.112-1.585 1.305-1.125-.374.439-.656.978-1.305 1.125zm4.44-1.685c.021-.396-.759-.322-.261-.562.604-.247.599 1.428.261.562zM43.8 237.4c-.595-.387-.983.723-1.044 0 .159-.083 1.003-.699 1.044 0zm-.523 1.967c-.465-.063-1.308.282-1.045-.562.486.038.874.184 1.045.562zm15.928-55.64c.135-.143 1.61-.001 2.211-.226.697.729 2.022.857 3.445.896-.099 1.645-1.505.02-2.35 0-.123 0-.875-.074-.94 0-.027.033.028.447 0 .451-1.01.15-1.375-1.037-1.881.445-1.101.179-1.039-.749-2.25-.464a1.265 1.265 0 0 0-.585.024c.263-.999 1.827-.562 2.35-1.126zm-6.267 7.586c.133-.073-.032-.263.261-.279.229-.015.694-.322 1.045-.562.193-.133 1.466.354 2.005.153-.5-.438-.158-.98.083-.996 1.398-.088 1.098.787 2.417 1.246-.07-.215.161-.431.381-.646l.089-.013c.062.421.877.51 1.411.447 2.306-.277 5.143-.779 6.582.895-.333.7-2.653-.856-1.409 1.342-1.438-.421-1.475-2.178-3.292-2.236-.062.802.574.944.471 1.79-1.483.216-1.066-1.376-2.825-.896.598 1.759-1.106 1.33-2.349 1.342-.065.23-.059.395-.028.534-.322-.053-.634-.151-.926-.434.225-.227.154-.77.521-.843-.54-.888-.75.509-1.043.562-.397.069-.674-1.082-1.305-.283-.307-.044-.221-.512-.263-.842-.543.165-.843.591-1.304.842-.306-.044-.221-.512-.262-.842-.715.841-1.288.096-2.088.842.152-.743 1.069-.694 1.828-1.123zm2.702 16.507a.329.329 0 0 1-.091-.209c-.647-.043-1.266-.052-1.304.562-.303-.237-.701-.371-1.307-.281-.143-.623.499-.401.523-.842 1.376-.364 2.417-.616 3.644-.212.185.227.422.491.705.826-.914-.128-1.592-.034-2.17.156zm5.931-3.736c-.922.091-1.526-.96-2.352 0-.126.149-.772-.117-.941 0a2.536 2.536 0 0 0-.171.144c-.523-.072-1.426.121-.731-.27-.179-.855-.717.032-1.043 0-.489-.047-.912-.557-1.568-.562.499-.981 3.02-.545 3.917-.842.015-.006-.312-.46-.261-.562.189.005.384.004.579.002 1.266.159 2.72.138 3.041 1.196-.09.363-.474.447-.47.894zm-2.351-4.922c-.005.055.01.091.009.143a10.065 10.065 0 0 1-1.067-.403c-.312.055-.131-.421-.263-.562-.08-.087-.45.095-.522 0-.165-.217-.441-.258-.521-.562-.559.776-1.422-.522-1.566.562-.495-.5-1.727-.205-2.615-.281-.22.417-.838.405-1.303.562-.231-.124-.467-.245-.522-.562.016-.394.507-.153.781-.28.149-.068.409-.516.524-.562.15-.062.365.043.52 0 .231-.062.452-.191.786-.282.216-.058.185-.256.262-.279.573-.187.709.08 1.042-.28.141-.151 1.471.106 2.09 0 .149-.01.293-.014.421 0-.128.266-.368.432-.693.459.547.841 1.941.072 3.107.095.94.018 1.81-.178 2.56.405.75-.583 1.977-.241 3.081.041.138 1.825-3.218-.685-1.878 1.341-1.815-1.006-2.175.526-4.233.445zm6.584 4.475c-.064-2.436-2.915 1.909-2.821-1.341 1.267-.028 3.095-1.524 3.767-.629-2 .083 1.95.77 2.813 1.522-1.658-.863-2.102.211-3.759.448zm15.514 55.04c.084-.169-1.191-.796-.94-.447 1.185 1.646-2.326-.009-2.351 0-.72.266-1.031 1.234-1.88.896-.343-1.222.933-.903.939-1.791 1.435-.045 5.47.452 4.232 1.342zm2.351 22.821c.208-1.143.659-2.057 1.41-2.687.024 1.367-.428 2.282-1.41 2.687zm-.941-4.027c-.187-1.257 2.002-2.523 2.351-1.79-.677.698-1.185 1.556-2.351 1.79zm51.157-8.265c-.812-.212-1.167-.991-1.638-1.626.244-.665 1.769.483 1.638 1.626zm-.656 3.656c-.685-.37-.999-1.201-.982-2.439.523.571.838 1.399.982 2.439zM106.847 51.833L100 44.189v-9.331l6.25 7.017.597 9.958zM90 33.201h3v9.34h-3v-9.34zm5 0h3v9.34h-3v-9.34zM59.521 54.547v-9.338L83 33.509v9.34L59.521 54.547zM85 42.541v-9.34h3v9.34h-3zm5.721 232.245c.038-.63-1.366-.512-.471-.896 1.09-.388 1.082 2.277.471.896zm-.471-4.474c-1.069-.615-1.766 1.152-1.879 0 .289-.133 1.809-1.116 1.879 0zm-.938 3.132c-.835-.102-2.357.45-1.881-.896.875.062 1.57.295 1.881.896zm-1.412-9.846c-.412-1.703.252-2.239.471-1.341.074.311-.165 2.603-.471 1.341zm21.128-46.398c-.325-1.359-1.291.05-1.88 0-.88-.072-2.898-1.45-4.231-.867.447-.781 1.333-1.583 3.708-.708 1.252-.578 2.706-.601 3.68-.689a.283.283 0 0 0-.024.239c.565-.021.84.312.984.812-1.233-.003-.906.781-1.695 1.615-.798.009-1.482.066-.542-.402zm1.945-2.473c-.14-.201-.482-.669-.41-.797 1.423.032 1.66-.849 2.022-1.36 1.02.072 1.979.267 2.292.981-.822.007-1.354.744-1.968.812-.413.044-1.09-1.234-1.317 0 .755.486.021.347-.619.364zm6.197 5.323c-.758-.128-1.258.064-1.639.406-.046-.888-.825-.874-1.637-.813-.055.698-.848.299-.33.813.237.233-.307.388-.327.406.121-.115-.396-.534-.659-.406-.078.039-.093.133-.093.242-1.633-1.436-1.016-1.711-2.986-1.708.205-.55.601-.918 1.41-.894.047-.13.019-.226-.059-.297l.414-.188c0 .407.547.326 0 1.221 1.86-1.52 3.279-.601 5.25 0 .032.639.837.316.656 1.218zm1.968-13.406c-.583-.226-1.362-.207-1.638-.812-1.115.11-2.659-.315-3.279.406-.182-1.563-1.267.312-1.972-.812-.101.438-.448.497-.656.812-.09.139-.555-.126-.655 0-.164.203.064.892-.329.813-.527.284-.809.67-1.149 1.029-.251.004-.676.151-.778.032-.296-.346.712-.754.569-1.237-1.005 1.238-4.069-.484-4.33 1.237-.889-.794-.574.885-2.17.763-.398.665-.805-.562-1.642-.315-.417-.199-.84-.393-.94-.895.031-.626 3.749-1.164 3.332.335 1.417-1.499 1.588-1.602 1.796-1.679.273-.099.657.069.94 0 .414-.099.347-.487 1.514.096-.5-.916.231-.951.369-.99 1.031-.295 1.862.397 2.464-.176-2.083-1.834 2.06-.098 3.176-.271.666-.039 1.331-.074 1.41.446.551-.07.397-.814.471-1.343h.705a.308.308 0 0 0 .169.121c.422.132.695.318.985.406.198.062.465-.087.655 0 .144.069.469.717.655.814.345.182.961-.161.982.405-.069.458-.364.634-.654.815zm-5.882-20.144c-1.062-.25-1.5.895-2.542.25-1.484.219 1.229-1.357-.401-1 .106-.357-.84.368-2.384-.299-.119-.052-.094-.228-.021-.459.667.021 1.294.006 1.389.124 6.045-1.134 4.419 1.38 8.453 1.634-.854-.244-2.235.833-3.309 1.304-.618-.158-1.027-.273-.917-.304-.146-.605.434-1.174-.268-1.25zm-3.814 7.872c.314.242.648.479.558.795.02-.008.034-.015.054-.022.015.107.02.225.009.355 1.147-.27 1.64-.594 1.677-.911.521-.014 1.107.228 2.261.911.261.154-.469-1.605-.105-1.447.676.292 1.394.621 1.637.813.442.347 1.024.791 1.312.812.366.022.16.298.327.407.955.614 2.105.547 2.295 1.621-1.006-1.079-1.725-.003-2.622-1.218-.051.48.057 1.154-.329 1.218-.579-.364-.957-.979-1.637-1.218-.052.48.056 1.154-.329 1.218-.792-1.155-1.141.508-1.639.406-.373-.073-.638-2.092-1.317-.812.462.106.375.893.656 1.218a1.876 1.876 0 0 1-.209.195c-.415-.391-.873-.782-1.571 0-.553-.072.48-1.688.406-2.215-.977.263-2.396 1.812-3.227 2.215-.552-.072-.397-.813-.471-1.341-1.287 1.336-2.32.152-3.76 1.341.273-1.183 1.923-1.109 3.29-1.787.24-.119.231-.74 2.293-1.178-5.5 1-7.167.667-4.75-.5.368-.178-2.173.396-1.903-.591.82.091 2.57-.325 2.903.675.902-.661 3.106-1.415 4.191-.96zm16.905-11.693c.24-1.109-.65-.817-.654-1.626-1.251.197-2.091-.113-2.623-.811-.074.314-.009.799-.328.811-.923-.615-1.344.137-2.621-.406-.455.25-.049 1.564-.656 1.624-.625-.761-.824-.044-1.639 0-.445-1.773-1.48-.307-2.295-1.624.1 1.66-.453-.069-1.31.406-.807.48.672 1.534-.327 2.032-.351-.923-.995-1.477-1.974-1.624-.077 1.943-1.162-.314-1.967 0-.014.559.156.891.328 1.218-1.527-.358.221 1.337-.655 1.217-.44-.056-1.311-.945-1.752-.696-.034-.011-.062-.025-.101-.033-1.048-.217-3.204.958-4.013.668-.507-.183 2.017-1.594 1.516-1.5-4.013.75-5.724-.234-1.858-.623-.871-.064-.289-1.512-.941-1.789-1.832.598-2.438-.229-3.76.449-.459-.012-.367-.547-.471-.895-.763.768-1.967 1.109-3.764.895-.004.889-1.282.57-.938 1.789-.83-.828-2.968.121-3.393.9-.74-20.206.099-23.447 13.037-24.055l10.146.005v.007l3.226-.001c11.267.824 11.961 6.252 12.067 23.858-.297-.708-1.702-.949-2.28-.196zm2.57 72.571c.583.667 1.651-.185 1.364 1.361.469.972-1.418-1.078-1.364-1.361zm-.602 11.518c-.427 1.254-.432-1.167.327-.813.625.35-.353.242-.327.813zm.327-4.063c.05-1.012 1.11-.12 1.312 0-.079 1.047-.564-.557-1.312 0zm.654 2.845c.217-.548.702-.759 1.312-.812.332 1.221-.729.72-1.312.812zm-7.963-214.883v-3.975s6.54-1.22 11.479-1.22c5 0 11.104 1.292 11.104 1.292v3.975s-6.104-1.292-11.104-1.292c-4.938 0-11.479 1.22-11.479 1.22zm17.141 201.883c-.591.309-.787-.669-1.31-.812-.725-.199-1.131.628-1.64 0-.217-.27-.713.25-.655.406-.864-.808 1.949-1.259 2.949-1.22.005.806.896.517.656 1.626zm13.305-65.866c.006.026.019.041.019.075-.042.006-.063.021-.095.031.022-.04.051-.071.076-.106zm-.311 2.698c.127.095.244.208.33.368a1.172 1.172 0 0 0-.416.003c.033-.118.047-.248.086-.371zm-2.177 1.015c.372.057.94-.024.983-.408.252.054.431.068.581.068-.233.226-.494.564-.931 1.021.826-.621 1.357-.27 1.874-.662-.107.49-.798 1.5-.416 1.328.618-.828 1.8-1.436 2.916-1.328.191.018.119.25-.631.458.43.237 2.142.38 2.296.538.28.284-.931.647-.749.664.234.02.785-.035.702.381.276.495 1.489.401 1.61 1.282-.64-.886-1.889-.004-2.458-.999-.032.394.037.944-.209.999-.366-.301-.606-.803-1.04-.999-.034.394.037.944-.209.999-.022-.042-.041-.057-.062-.09v-.005h-.004c-.23-.357-.402-.239-.551-.024a6.21 6.21 0 0 0-.647.018c-.151-.43-.321-.931-.609-.233.103.031.157.141.199.269a5.688 5.688 0 0 0-1.336.379c.005-.808.894-.519.656-1.625-.866-.01-2.053.379-1.637-1.218-1.226-.435-.935 1.007-1.969.812-.072-.77.371-.896.329-1.624-1.269.054-1.294 1.647-2.295 2.03.867-1.996-.75-.583-.983-1.218 1.004-1.519 2.982-1.065 4.59-.813zm.78 5.999c-.287.007-.666-.202-1.011-.299.267-.003.54-.005.834-.011.07.085.135.181.177.31zm-4.386 5.779c-1.154-.216-1.465-1.191-2.622-.406 1.211-1.375 2.833-.863 4.588-.812.064 2.951-1.922-.992-1.966 1.218zm1.639-4.468c.933-1.838-1.406.439-1.31-1.218.899-.298 1.672-.358 2.511-.378-.153.084-.272.264-.329.619.371.183.867.17 1.042.662-.147.068-.355.035-.399.265-.44-.26-.829-.445-1.515.05zm6.974 9.652c-.171.025-.414-.408-.601-.43a.529.529 0 0 0 .182-.286c-.719-.463-1.339-1.049-2.622-.812.213-.33.389-.584.522-.801.288.008.576.016.853.005.04.123-.219.659-.209.664.717.354 2.728-.163 3.124.998-.521.007-.859.611-1.249.662zm3.956-6.311c-.629-.61-1.129.202-1.04-.663-.708.091-1.688-.258-2.083.333-.115-1.28-.805.253-1.25-.665-.063.359-.283.407-.416.665-.058.11-.352-.104-.417 0-.104.164.041.726-.208.662-.822.57-1.059-.755-2.028.62.237.051.539.604.607 1.182-.165-.218-.37-.488-.491-.601-.118-.107-.567.137-.655 0-.576-.872-.997.08-1.639 0 .002-.406-.265-.483-.329-.812.343-1.468 2.539-.645 3.277-1.623-.276-.876-2.09.15-2.293-.812.714.071 1.042-.333.983-1.221-.589.031-.977-.185-1.319-.388h2.366c.033.39-.036.944.208.999.035-.389.331-.363.625-.335.495.129 1.555-.179 1.667 0 .268.429.376.112.833.335.061.026.036.263.208.33.268.106.443.26.627.331.124.052.295-.071.415 0 .092.057.299.587.417.667.219.149 1.399-.709 2.351.332-.044.372-.232.515-.416.664zm6.871 45.86c-.049.857-.358-.456-.832 0 .032-.826.705-.097.832 0zm-.538 3.324c-.269 1.025-.274-.955.208-.665.397.287-.224.197-.208.665zm.122-.996c.137-.448.446-.621.833-.667.211 1-.463.589-.833.667zm3.919 2.991c-.515-.173-.741-.811-1.041-1.332.155-.544 1.125.396 1.041 1.332zm-.416 2.989c-.434-.301-.634-.981-.624-1.994.332.466.532 1.144.624 1.994zm3.202-17.945c.004.662.654.24.502 1.146-.374.254-.586-.362-.918-.481-.459-.162-.718.516-1.041 0-.138-.22-.454.206-.417.331-.548-.66 1.24-1.029 1.874-.996zm6.249-40.875c.041 2.415-1.222-.812-1.25.996-.734-.174-.932-.972-1.665-.33.769-1.124 1.797-.707 2.915-.666z"/><path fill="#BAC405" d="M95 33.201h3v9.34h-3zm-10 0h3v9.34h-3zm5 0h3v9.34h-3zm10 10.988l6.847 7.644-.597-9.958-6.25-7.017zm-17-10.68L59.521 45.208v9.339L83 42.849zm60.917 13.255s-6.104-1.292-11.104-1.292c-4.939 0-11.479 1.22-11.479 1.22v3.975s6.54-1.22 11.479-1.22c5 0 11.104 1.292 11.104 1.292v-3.975z"/></svg>