<svg xmlns="http://www.w3.org/2000/svg" viewBox="0 0 16.75 16.75"><defs><style>.cls-1{fill:#fff200;opacity:0.75;}.cls-2{fill:#fff;}.cls-3{fill:#434a9f;}.cls-4{fill:#f5f5f6;}</style></defs><title>FreeRide</title><g id="Layer_2" data-name="Layer 2"><g id="legend_without_route_94" data-name="legend without route 94"><g id="Free_Ride" data-name="Free Ride"><circle class="cls-1" cx="8.37" cy="8.37" r="8.37"/><circle class="cls-2" cx="4.66" cy="11.59" r="0.72"/><circle class="cls-2" cx="12.09" cy="11.59" r="0.72"/><path class="cls-3" d="M5.62,8.76h-.3v.48h.27c.17,0,.39,0,.39-.23S5.79,8.76,5.62,8.76Z"/><path class="cls-3" d="M8.68,8.79H8.41V10h.24c.43,0,.75-.16.75-.64S9.07,8.79,8.68,8.79Z"/><path class="cls-2" d="M6.12,3.38h4.47a.33.33,0,0,0,.33-.32.33.33,0,0,0-.33-.33H6.12a.33.33,0,0,0-.33.33A.33.33,0,0,0,6.12,3.38Z"/><path class="cls-2" d="M7.63,6c0-.21-.19-.24-.36-.24H7v.48h.27C7.41,6.19,7.63,6.19,7.63,6Z"/><path class="cls-2" d="M4.4,7.92h7.91a.48.48,0,0,0,.49-.53c-.09-1.15-.15-1.8-.29-3A.51.51,0,0,0,11.94,4H4.79a.53.53,0,0,0-.56.44C4.08,5.67,4,6.21,3.94,7.39A.46.46,0,0,0,4.4,7.92Zm6.21-2.59H12v.43h-1v.39H12v.42h-.91V7h1v.43H10.61Zm-2,0H10v.43h-1v.39H10v.42H9.05V7h1v.43H8.59Zm-2.08,0h.81c.43,0,.79.15.79.64a.54.54,0,0,1-.45.57l.53.89H7.64L7.2,6.58H7v.84H6.51Zm-1.89,0H6v.43H5.08v.43H6V6.6H5.08v.82H4.62Z"/><path class="cls-3" d="M12.81,13.81V13h.94V8c0-.11-.26-2.6-.37-3.61S13,2.91,12.19,2.53a8.92,8.92,0,0,0-3.82-.77,8.93,8.93,0,0,0-3.82.77c-.8.38-1.07.71-1.19,1.86L3,8V13h.94v.86a.72.72,0,1,0,1.44,0V13h6v.86a.72.72,0,1,0,1.44,0ZM6.12,2.73h4.47a.33.33,0,0,1,.33.33.33.33,0,0,1-.33.32H6.12a.33.33,0,0,1-.33-.32A.33.33,0,0,1,6.12,2.73ZM4.23,4.46A.53.53,0,0,1,4.79,4h7.15a.51.51,0,0,1,.56.42c.14,1.16.21,1.81.29,3a.48.48,0,0,1-.49.53H4.4a.46.46,0,0,1-.46-.53C4,6.21,4.08,5.67,4.23,4.46Zm.43,7.85a.72.72,0,1,1,.72-.72A.72.72,0,0,1,4.66,12.31ZM6,10.46l-.44-.84H5.31v.84H4.85V8.36h.81c.43,0,.79.15.79.64A.54.54,0,0,1,6,9.57l.53.89Zm1.39,0H6.91V8.36h.46Zm1.32,0H7.94V8.36h.69c.68,0,1.24.29,1.24,1.06A1.07,1.07,0,0,1,8.7,10.46Zm1.66,0V8.36h1.42v.43h-1v.39h.91v.43h-.91V10h1v.43Zm1.73,1.84a.72.72,0,1,1,.72-.72A.72.72,0,0,1,12.09,12.31Z"/><polygon class="cls-3" points="5.08 6.6 5.96 6.6 5.96 6.18 5.08 6.18 5.08 5.75 6.03 5.75 6.03 5.32 4.62 5.32 4.62 7.42 5.08 7.42 5.08 6.6"/><path class="cls-3" d="M7,6.58H7.2l.44.84h.55l-.53-.89A.54.54,0,0,0,8.11,6c0-.49-.36-.64-.79-.64H6.51v2.1H7Zm0-.87h.3c.17,0,.36,0,.36.24s-.22.23-.39.23H7Z"/><polygon class="cls-3" points="10.07 7 9.05 7 9.05 6.57 9.96 6.57 9.96 6.14 9.05 6.14 9.05 5.75 10.02 5.75 10.02 5.32 8.59 5.32 8.59 7.42 10.07 7.42 10.07 7"/><polygon class="cls-3" points="12.08 7 11.07 7 11.07 6.57 11.98 6.57 11.98 6.14 11.07 6.14 11.07 5.75 12.03 5.75 12.03 5.32 10.61 5.32 10.61 7.42 12.08 7.42 12.08 7"/><path class="cls-4" d="M6.45,9c0-.49-.36-.64-.79-.64H4.85v2.1h.46V9.62h.23l.44.84h.55L6,9.57A.54.54,0,0,0,6.45,9Zm-.87.23H5.31V8.76h.3c.17,0,.36,0,.36.24S5.76,9.23,5.59,9.23Z"/><rect class="cls-4" x="6.91" y="8.36" width="0.46" height="2.1"/><path class="cls-4" d="M8.64,8.36H7.94v2.1H8.7a1.07,1.07,0,0,0,1.18-1C9.88,8.65,9.31,8.36,8.64,8.36Zm0,1.67H8.41V8.79h.27c.39,0,.72.19.72.6S9.07,10,8.65,10Z"/><polygon class="cls-4" points="11.84 10.04 10.82 10.04 10.82 9.61 11.73 9.61 11.73 9.18 10.82 9.18 10.82 8.79 11.78 8.79 11.78 8.37 10.36 8.37 10.36 10.46 11.84 10.46 11.84 10.04"/></g></g></g></svg>